<svg width="257" height="117" viewBox="0 0 257 117" fill="none" xmlns="http://www.w3.org/2000/svg">
<g clip-path="url(#clip0_431_356)">
<g filter="url(#filter0_d_431_356)">
<mask id="mask0_431_356" style="mask-type:luminance" maskUnits="userSpaceOnUse" x="0" y="0" width="96" height="118">
<path d="M16.1931 17.2058C5.43252 28.6394 0 42.4041 0 58.4999C0 74.7068 5.32805 88.4715 16.0886 99.905C26.8492 111.339 39.8037 117.111 55.0565 117.111C62.0561 117.111 69.0557 115.668 76.1598 112.671C83.6817 109.452 89.6366 105.233 93.9199 99.905C95.0691 98.462 95.6959 97.1299 95.6959 95.9088C95.6959 94.3548 95.1736 92.9117 94.0244 91.6906C92.8752 90.4696 91.5171 89.9145 90.0545 89.9145C88.9053 89.9145 87.6516 90.5806 86.2935 91.8016C83.9951 93.7997 82.2191 95.3538 81.1744 96.4639C73.7569 102.458 65.0858 105.455 55.161 105.455C43.0423 105.455 32.6996 100.904 24.0285 91.6906C15.4618 82.5882 11.074 71.4876 11.074 58.4999C11.074 45.6233 15.3573 34.6337 24.0285 25.4202C32.5951 16.3178 43.0423 11.6555 55.161 11.6555C65.0858 11.6555 73.7569 14.6527 81.1744 20.758C83.4728 22.7561 85.2488 24.4212 86.2935 25.4202C87.6516 26.6413 88.9053 27.3073 90.0545 27.3073C91.5171 27.3073 92.8752 26.7523 94.0244 25.5312C95.1736 24.3102 95.6959 22.8671 95.6959 21.313C95.6959 19.981 95.0691 18.6489 93.9199 17.2058C89.6366 11.9886 83.7862 7.77034 76.1598 4.55117C69.0557 1.55402 61.9516 0.110946 55.0565 0.110946C39.9081 -5.96568e-05 26.9537 5.77223 16.1931 17.2058Z" fill="white"/>
</mask>
<g mask="url(#mask0_431_356)">
<path d="M95.6959 0H0V117H95.6959V0Z" fill="url(#paint0_linear_431_356)"/>
</g>
<mask id="mask1_431_356" style="mask-type:luminance" maskUnits="userSpaceOnUse" x="27" y="32" width="21" height="58">
<path d="M43.0423 34.7448V78.592C43.0423 80.3681 42.4154 81.9222 41.2662 83.2543C40.0126 84.5863 38.55 85.1413 36.8784 85.1413C35.1024 85.1413 33.6398 84.3643 32.3862 82.9212C31.1325 81.4782 30.2967 80.7011 29.7744 80.7011C29.252 80.7011 28.7297 80.9231 28.3118 81.3672C27.8939 81.8112 27.6849 82.2552 27.6849 82.9212C27.6849 83.2543 27.7894 83.6983 27.9984 84.0313C28.7297 85.6964 29.9833 87.0285 31.7593 88.0275C33.4309 89.0266 35.1024 89.4706 36.8784 89.4706C39.6992 89.4706 42.102 88.3605 44.1914 86.2514C46.1764 84.1423 47.2211 81.4782 47.2211 78.481V34.7448C47.2211 33.3017 46.4898 32.5247 45.1317 32.5247C43.6691 32.5247 43.0423 33.3017 43.0423 34.7448Z" fill="white"/>
</mask>
<g mask="url(#mask1_431_356)">
<path d="M47.1166 32.5247H27.5804V89.5816H47.1166V32.5247Z" fill="url(#paint1_linear_431_356)"/>
</g>
<mask id="mask2_431_356" style="mask-type:luminance" maskUnits="userSpaceOnUse" x="50" y="32" width="36" height="45">
<path d="M54.5342 36.9649H64.8768C69.4736 36.9649 73.339 38.63 76.5777 42.0712C79.8163 45.5123 81.3834 49.6195 81.3834 54.5038C81.3834 59.388 79.8163 63.4952 76.5777 66.9364C73.339 70.3776 69.4736 72.0427 64.8768 72.0427H54.5342V36.9649ZM52.5492 32.5247C52.0269 32.5247 51.5045 32.7467 51.0866 33.1907C50.6687 33.6347 50.4598 34.1897 50.4598 34.7448V74.1518C50.4598 74.7068 50.6687 75.2618 51.0866 75.7059C51.5045 76.1499 52.0269 76.3719 52.5492 76.3719H64.8768C70.5183 76.3719 75.4285 74.2628 79.3984 69.9336C83.4728 65.6044 85.4577 60.4981 85.4577 54.3928C85.4577 48.3985 83.4728 43.1812 79.3984 38.963C75.324 34.6338 70.5183 32.5247 64.8768 32.5247H52.5492Z" fill="white"/>
</mask>
<g mask="url(#mask2_431_356)">
<path d="M85.5622 32.5247H50.4598V76.3719H85.5622V32.5247Z" fill="url(#paint2_linear_431_356)"/>
</g>
<path d="M222.002 23.2002H221.689C222.002 20.647 228.479 18.6489 229.942 18.6489C231.927 18.5379 233.807 17.0949 235.897 15.6518C237.673 14.3197 239.449 12.9876 241.434 12.4326V11.6556H240.702L242.583 9.32446L244.254 11.2116V8.76943H243.314V8.2144H244.254V6.54932H244.777V8.2144H245.717V8.88044H244.777V12.4326C245.613 12.6546 246.553 13.0987 247.389 13.6537C249.896 15.5408 255.015 20.8691 254.806 21.5351C254.806 21.5351 254.702 21.6461 254.493 21.6461L254.597 21.3131C254.597 21.3131 254.597 21.3131 254.493 21.3131V21.4241C254.388 20.9801 250.314 16.0958 247.18 13.9867C246.03 13.2097 244.881 12.7656 243.732 12.6546V13.8757L241.434 13.9867V12.8766C239.553 13.4317 237.777 14.7637 236.106 15.9848C234.016 17.5389 232.031 18.982 229.942 19.093C228.375 18.982 222.211 20.9801 222.002 23.2002ZM241.747 11.3226V13.5427L243.419 13.4317V11.2116H243.837L242.583 9.76848L241.434 11.3226H241.747ZM243.732 12.2106C243.941 12.2106 244.046 12.2106 244.254 12.3216V11.6556H243.732V12.2106Z" fill="white"/>
<path d="M117.008 39.1849C117.113 39.1849 117.217 39.1849 117.322 39.2959L118.157 40.295C117.53 40.961 116.799 41.516 115.859 41.96C115.023 42.4041 113.874 42.5151 112.62 42.5151C111.576 42.5151 110.531 42.2931 109.695 41.96C108.859 41.627 108.024 41.072 107.397 40.406C106.77 39.7399 106.248 38.9629 105.934 37.9638C105.621 37.0758 105.412 35.9657 105.412 34.8557C105.412 33.7456 105.621 32.7466 105.934 31.7475C106.248 30.7485 106.77 29.9714 107.501 29.3054C108.128 28.6394 108.964 28.0843 109.8 27.7513C110.74 27.4183 111.68 27.1963 112.829 27.1963C113.874 27.1963 114.814 27.4183 115.65 27.7513C116.486 28.0843 117.217 28.5284 117.844 29.0834L117.113 30.0824C117.113 30.1934 117.008 30.1934 116.904 30.3044C116.799 30.3044 116.695 30.4155 116.59 30.4155C116.486 30.4155 116.277 30.3044 116.172 30.1934C116.068 30.0824 115.754 29.9714 115.441 29.7494C115.128 29.6384 114.814 29.4164 114.396 29.3054C113.978 29.1944 113.456 29.0834 112.829 29.0834C112.098 29.0834 111.367 29.1944 110.74 29.4164C110.113 29.6384 109.591 30.0824 109.173 30.5265C108.755 30.9705 108.337 31.6365 108.128 32.3026C107.919 32.9686 107.71 33.8566 107.71 34.6337C107.71 35.5217 107.815 36.2988 108.128 37.0758C108.337 37.7418 108.755 38.4079 109.173 38.8519C109.591 39.2959 110.113 39.7399 110.74 39.9619C111.367 40.184 111.994 40.295 112.725 40.295C113.143 40.295 113.561 40.295 113.874 40.184C114.187 40.184 114.501 40.0729 114.814 39.9619C115.128 39.8509 115.337 39.7399 115.65 39.5179C115.859 39.4069 116.172 39.1849 116.381 38.9629C116.486 38.9629 116.486 38.8519 116.59 38.8519C116.904 39.1849 117.008 39.1849 117.008 39.1849Z" fill="white"/>
<path d="M134.246 34.9668C134.246 36.0769 134.037 37.076 133.724 37.964C133.41 38.852 132.888 39.6291 132.156 40.4061C131.53 41.0722 130.694 41.6272 129.754 41.9602C128.813 42.2932 127.769 42.5152 126.724 42.5152C125.575 42.5152 124.635 42.2932 123.694 41.9602C122.754 41.6272 122.023 41.0722 121.291 40.4061C120.665 39.7401 120.142 38.963 119.724 37.964C119.411 37.076 119.202 36.0769 119.202 34.9668C119.202 33.8568 119.411 32.8577 119.724 31.9697C120.038 31.0816 120.56 30.1936 121.291 29.5276C121.918 28.8615 122.754 28.3065 123.694 27.9735C124.635 27.6405 125.679 27.4185 126.724 27.4185C127.873 27.4185 128.813 27.6405 129.754 27.9735C130.694 28.3065 131.425 28.8615 132.156 29.5276C132.783 30.1936 133.306 30.9706 133.724 31.9697C134.037 32.8577 134.246 33.8568 134.246 34.9668ZM131.948 34.9668C131.948 34.0788 131.843 33.3018 131.53 32.6357C131.321 31.9697 130.903 31.3037 130.485 30.8596C130.067 30.4156 129.44 29.9716 128.813 29.7496C128.187 29.5276 127.455 29.3056 126.62 29.3056C125.784 29.3056 125.157 29.4166 124.426 29.7496C123.799 29.9716 123.276 30.4156 122.754 30.8596C122.336 31.3037 121.918 31.9697 121.709 32.6357C121.5 33.3018 121.291 34.0788 121.291 34.9668C121.291 35.8549 121.396 36.6319 121.709 37.298C121.918 37.964 122.336 38.63 122.754 39.0741C123.172 39.5181 123.799 39.9621 124.426 40.1841C125.052 40.4061 125.784 40.5171 126.62 40.5171C127.455 40.5171 128.082 40.4061 128.813 40.1841C129.545 39.9621 129.963 39.5181 130.485 39.0741C130.903 38.63 131.321 37.964 131.53 37.298C131.843 36.6319 131.948 35.8549 131.948 34.9668Z" fill="white"/>
<path d="M148.35 42.2931H146.365C145.947 42.2931 145.633 42.1821 145.529 41.849L141.768 36.7428C141.663 36.5208 141.559 36.4098 141.35 36.4098C141.246 36.2987 141.037 36.2987 140.723 36.2987H139.261V42.4041H137.067V27.5293H141.454C142.395 27.5293 143.23 27.6403 143.962 27.8623C144.693 28.0843 145.215 28.3063 145.738 28.7504C146.156 29.0834 146.574 29.5274 146.783 30.0824C146.991 30.6375 147.096 31.1925 147.096 31.7475C147.096 32.3025 146.991 32.7466 146.887 33.1906C146.678 33.6346 146.469 34.0786 146.156 34.4117C145.842 34.7447 145.424 35.0777 145.006 35.2997C144.589 35.5217 144.066 35.7437 143.439 35.8547C143.753 35.9657 143.962 36.2987 144.171 36.5208L148.35 42.2931ZM141.35 34.6337C141.872 34.6337 142.395 34.5227 142.917 34.4117C143.335 34.3006 143.753 34.0786 144.066 33.8566C144.38 33.6346 144.589 33.3016 144.693 32.9686C144.798 32.6356 144.902 32.1915 144.902 31.8585C144.902 30.9705 144.589 30.4154 144.066 29.9714C143.544 29.5274 142.604 29.3054 141.454 29.3054H139.365V34.7447H141.35V34.6337Z" fill="white"/>
<path d="M154.827 27.5293C155.767 27.5293 156.603 27.6403 157.334 27.8623C158.066 28.0843 158.588 28.4173 159.11 28.7504C159.633 29.0834 159.946 29.6384 160.155 30.1934C160.364 30.7485 160.468 31.4145 160.468 32.0805C160.468 32.7466 160.364 33.4126 160.05 33.9676C159.842 34.5227 159.424 35.0777 159.006 35.5217C158.483 35.9657 157.961 36.2987 157.23 36.5208C156.498 36.7428 155.663 36.8538 154.827 36.8538H152.529V42.2931H150.335V27.5293H154.827ZM154.827 35.1887C155.349 35.1887 155.872 35.0777 156.289 34.9667C156.707 34.8557 157.125 34.6337 157.334 34.3006C157.648 34.0786 157.857 33.7456 157.961 33.3016C158.065 32.9686 158.17 32.5246 158.17 32.0805C158.17 31.1925 157.857 30.5265 157.334 29.9714C156.812 29.4164 155.872 29.1944 154.722 29.1944H152.529V35.0777H154.827V35.1887Z" fill="white"/>
<path d="M177.079 34.9668C177.079 36.0769 176.87 37.076 176.557 37.964C176.244 38.852 175.721 39.6291 174.99 40.4061C174.363 41.0722 173.527 41.6272 172.587 41.9602C171.647 42.2932 170.602 42.5152 169.557 42.5152C168.408 42.5152 167.468 42.2932 166.528 41.9602C165.587 41.6272 164.856 41.0722 164.125 40.4061C163.498 39.7401 162.976 38.963 162.558 37.964C162.244 37.076 162.035 36.0769 162.035 34.9668C162.035 33.8568 162.244 32.8577 162.558 31.9697C162.871 31.0816 163.394 30.1936 164.125 29.5276C164.752 28.8615 165.587 28.3065 166.528 27.9735C167.468 27.6405 168.513 27.4185 169.557 27.4185C170.707 27.4185 171.647 27.6405 172.587 27.9735C173.527 28.3065 174.259 28.8615 174.99 29.5276C175.617 30.1936 176.139 30.9706 176.557 31.9697C176.87 32.8577 177.079 33.8568 177.079 34.9668ZM174.781 34.9668C174.781 34.0788 174.676 33.3018 174.363 32.6357C174.154 31.9697 173.736 31.3037 173.318 30.8596C172.9 30.4156 172.274 29.9716 171.647 29.7496C171.02 29.5276 170.289 29.3056 169.453 29.3056C168.617 29.3056 167.99 29.4166 167.259 29.7496C166.632 29.9716 166.11 30.4156 165.587 30.8596C165.17 31.3037 164.752 31.9697 164.543 32.6357C164.334 33.3018 164.125 34.0788 164.125 34.9668C164.125 35.8549 164.229 36.6319 164.543 37.298C164.752 37.964 165.17 38.63 165.587 39.0741C166.005 39.5181 166.632 39.9621 167.259 40.1841C167.886 40.4061 168.617 40.5171 169.453 40.5171C170.289 40.5171 170.915 40.4061 171.647 40.1841C172.378 39.9621 172.796 39.5181 173.318 39.0741C173.736 38.63 174.154 37.964 174.363 37.298C174.676 36.6319 174.781 35.8549 174.781 34.9668Z" fill="white"/>
<path d="M191.183 42.2931H189.198C188.78 42.2931 188.467 42.1821 188.362 41.849L184.601 36.7428C184.497 36.5208 184.392 36.4098 184.183 36.4098C184.079 36.2987 183.87 36.2987 183.557 36.2987H182.094V42.4041H179.9V27.5293H184.288C185.228 27.5293 186.064 27.6403 186.795 27.8623C187.526 28.0843 188.049 28.3063 188.571 28.7504C188.989 29.0834 189.407 29.5274 189.616 30.0824C189.825 30.6375 189.929 31.1925 189.929 31.7475C189.929 32.3025 189.825 32.7466 189.72 33.1906C189.511 33.6346 189.302 34.0786 188.989 34.4117C188.676 34.7447 188.258 35.0777 187.84 35.2997C187.422 35.5217 186.9 35.7437 186.273 35.8547C186.586 35.9657 186.795 36.2987 187.004 36.5208L191.183 42.2931ZM184.183 34.6337C184.706 34.6337 185.228 34.5227 185.75 34.4117C186.168 34.3006 186.586 34.0786 186.9 33.8566C187.213 33.6346 187.422 33.3016 187.526 32.9686C187.631 32.6356 187.735 32.1915 187.735 31.8585C187.735 30.9705 187.422 30.4154 186.9 29.9714C186.377 29.5274 185.437 29.3054 184.288 29.3054H182.198V34.7447H184.183V34.6337Z" fill="white"/>
<path d="M205.495 42.2931H203.824C203.615 42.2931 203.51 42.2931 203.302 42.182C203.197 42.071 203.093 41.96 202.988 41.849L201.63 38.4079H194.944L193.586 41.849C193.586 41.96 193.481 42.071 193.272 42.182C193.168 42.2931 192.959 42.2931 192.75 42.2931H191.078L197.033 27.5293H199.332L205.495 42.2931ZM201.108 36.8538L198.914 31.0815C198.705 30.6375 198.6 30.1934 198.391 29.6384C198.287 29.9714 198.287 30.1934 198.182 30.4154C198.078 30.6375 197.973 30.8595 197.973 31.0815L195.78 36.8538H201.108Z" fill="white"/>
<path d="M217.51 39.1849C217.614 39.1849 217.719 39.1849 217.823 39.2959L218.659 40.295C218.032 40.961 217.301 41.516 216.361 41.96C215.525 42.4041 214.376 42.5151 213.122 42.5151C212.077 42.5151 211.033 42.2931 210.197 41.96C209.361 41.627 208.525 41.072 207.898 40.406C207.272 39.7399 206.749 38.9629 206.436 37.9638C206.122 37.0758 205.913 35.9657 205.913 34.8557C205.913 33.7456 206.122 32.7466 206.436 31.7475C206.749 30.7485 207.272 29.9714 208.003 29.3054C208.63 28.6394 209.465 28.0843 210.301 27.7513C211.241 27.4183 212.182 27.1963 213.331 27.1963C214.376 27.1963 215.316 27.4183 216.152 27.7513C216.987 28.0843 217.719 28.5284 218.346 29.0834L217.614 30.0824C217.614 30.1934 217.51 30.1934 217.405 30.3044C217.301 30.3044 217.196 30.4155 217.092 30.4155C216.987 30.4155 216.778 30.3044 216.674 30.1934C216.57 30.0824 216.256 29.9714 215.943 29.7494C215.629 29.6384 215.316 29.4164 214.898 29.3054C214.48 29.1944 213.958 29.0834 213.331 29.0834C212.6 29.0834 211.868 29.1944 211.241 29.4164C210.615 29.6384 210.092 30.0824 209.674 30.5265C209.257 30.9705 208.839 31.6365 208.63 32.3026C208.421 32.9686 208.212 33.8566 208.212 34.6337C208.212 35.5217 208.316 36.2988 208.63 37.0758C208.839 37.7418 209.257 38.4079 209.674 38.8519C210.092 39.2959 210.615 39.7399 211.241 39.9619C211.868 40.184 212.495 40.295 213.226 40.295C213.644 40.295 214.062 40.295 214.376 40.184C214.689 40.184 215.002 40.0729 215.316 39.9619C215.629 39.8509 215.838 39.7399 216.152 39.5179C216.361 39.4069 216.674 39.1849 216.883 38.9629C216.987 38.9629 216.987 38.8519 217.092 38.8519C217.405 39.1849 217.51 39.1849 217.51 39.1849Z" fill="white"/>
<path d="M223.36 27.5293H221.062V42.2931H223.36V27.5293Z" fill="white"/>
<path d="M241.016 34.9668C241.016 36.0769 240.807 37.0759 240.493 37.964C240.18 38.852 239.658 39.74 238.926 40.4061C238.3 41.0721 237.464 41.6271 236.524 41.9602C235.583 42.2932 234.539 42.5152 233.494 42.5152C232.345 42.5152 231.404 42.2932 230.464 41.9602C229.524 41.6271 228.793 41.0721 228.061 40.4061C227.435 39.74 226.912 38.963 226.494 37.964C226.181 37.0759 225.972 36.0769 225.972 34.9668C225.972 33.8567 226.181 32.8577 226.494 31.9696C226.808 31.0816 227.33 30.1936 228.061 29.5275C228.688 28.8615 229.524 28.3065 230.464 27.9734C231.404 27.6404 232.449 27.4184 233.494 27.4184C234.643 27.4184 235.583 27.6404 236.524 27.9734C237.464 28.3065 238.195 28.8615 238.926 29.5275C239.553 30.1936 240.076 30.9706 240.493 31.9696C240.807 32.8577 241.016 33.8567 241.016 34.9668ZM238.717 34.9668C238.717 34.0788 238.613 33.3017 238.3 32.6357C238.091 31.9696 237.673 31.3036 237.255 30.8596C236.837 30.4156 236.21 29.9715 235.583 29.7495C234.956 29.5275 234.225 29.3055 233.389 29.3055C232.554 29.3055 231.927 29.4165 231.196 29.7495C230.569 29.9715 230.046 30.4156 229.524 30.8596C229.106 31.3036 228.688 31.9696 228.479 32.6357C228.27 33.3017 228.061 34.0788 228.061 34.9668C228.061 35.8548 228.166 36.6319 228.479 37.2979C228.688 37.964 229.106 38.63 229.524 39.074C229.942 39.518 230.569 39.9621 231.196 40.1841C231.822 40.4061 232.554 40.5171 233.389 40.5171C234.225 40.5171 234.852 40.4061 235.583 40.1841C236.21 39.9621 236.732 39.518 237.255 39.074C237.673 38.63 238.091 37.964 238.3 37.2979C238.613 36.6319 238.717 35.8548 238.717 34.9668ZM237.673 23.2002L234.225 26.1973C234.121 26.3084 234.016 26.3084 233.912 26.4194C233.807 26.4194 233.703 26.4194 233.494 26.4194H232.031L234.434 23.6442C234.539 23.5332 234.539 23.5332 234.643 23.4222C234.748 23.4222 234.748 23.3112 234.852 23.3112C234.956 23.3112 234.956 23.3112 235.061 23.3112C235.165 23.3112 235.27 23.3112 235.374 23.3112H237.673V23.2002Z" fill="white"/>
<path d="M256.164 27.5293V42.2931H255.015C254.806 42.2931 254.702 42.2931 254.597 42.182C254.493 42.071 254.388 42.071 254.284 41.849L245.717 31.0815C245.717 31.3035 245.717 31.4145 245.717 31.6365C245.717 31.8585 245.717 31.9695 245.717 32.1915V42.2931H243.732V27.5293H244.881C245.09 27.5293 245.195 27.5293 245.299 27.6403C245.404 27.6403 245.508 27.7513 245.613 27.9733L254.179 38.7409C254.179 38.5189 254.179 38.2969 254.179 38.1858C254.179 37.9638 254.179 37.8528 254.179 37.6308V27.5293H256.164Z" fill="white"/>
<path d="M121.187 74.5958C121.187 76.9269 120.874 79.036 120.351 80.9231C119.829 82.8102 118.993 84.4753 117.844 85.8074C116.695 87.1394 115.337 88.2495 113.665 88.9155C111.994 89.6926 110.009 90.0256 107.815 90.0256C106.77 90.0256 105.83 89.9146 104.785 89.8036C103.845 89.6926 102.8 89.4706 101.651 89.2485L102.173 83.6983C102.278 83.2542 102.382 82.8102 102.696 82.4772C103.009 82.1442 103.427 82.0332 104.054 82.0332C104.367 82.0332 104.68 82.0332 105.203 82.1442C105.621 82.2552 106.143 82.2552 106.77 82.2552C107.606 82.2552 108.441 82.1442 109.068 81.9222C109.695 81.7002 110.217 81.2561 110.74 80.5901C111.158 80.0351 111.471 79.258 111.68 78.259C111.889 77.2599 111.993 76.1499 111.993 74.7068V48.0654H121.083V74.5958H121.187Z" fill="white"/>
<path d="M166.632 68.9346C166.632 71.9317 166.11 74.7069 165.17 77.26C164.229 79.8131 162.871 82.0333 161.095 84.0314C159.319 85.9185 157.23 87.4725 154.722 88.4716C152.215 89.4706 149.499 90.1367 146.469 90.1367C143.439 90.1367 140.619 89.5816 138.216 88.4716C135.709 87.3615 133.619 85.9185 131.843 84.0314C130.067 82.1443 128.709 79.9241 127.769 77.26C126.829 74.7069 126.306 71.9317 126.306 68.9346C126.306 65.9374 126.829 63.1623 127.769 60.6092C128.709 58.056 130.067 55.8359 131.843 53.9488C133.619 52.0617 135.709 50.6186 138.216 49.5086C140.723 48.3985 143.439 47.8435 146.469 47.8435C149.499 47.8435 152.215 48.3985 154.722 49.5086C157.23 50.6186 159.319 52.0617 161.095 53.9488C162.871 55.8359 164.229 58.056 165.17 60.6092C166.11 63.1623 166.632 65.9374 166.632 68.9346ZM157.334 68.9346C157.334 66.9365 157.125 65.0494 156.603 63.3843C156.081 61.7192 155.349 60.3871 154.409 59.1661C153.469 58.056 152.32 57.168 150.961 56.502C149.603 55.9469 148.036 55.6139 146.365 55.6139C144.589 55.6139 143.022 55.9469 141.663 56.502C140.305 57.057 139.156 57.945 138.216 59.1661C137.276 60.2761 136.544 61.7192 136.022 63.3843C135.5 65.0494 135.291 66.8255 135.291 68.9346C135.291 71.0437 135.5 72.8198 136.022 74.4849C136.544 76.15 137.276 77.482 138.216 78.7031C139.156 79.8131 140.305 80.7012 141.663 81.2562C143.022 81.8112 144.589 82.1443 146.365 82.1443C148.141 82.1443 149.603 81.8112 150.961 81.2562C152.32 80.7012 153.469 79.8131 154.409 78.7031C155.349 77.593 156.081 76.15 156.603 74.4849C157.125 72.8198 157.334 70.9327 157.334 68.9346Z" fill="white"/>
<path d="M203.928 89.5816H195.78C194.213 89.5816 193.168 89.0266 192.541 87.8055L185.959 75.8169C185.646 75.2619 185.333 74.9289 184.915 74.7069C184.497 74.4849 183.974 74.3739 183.348 74.3739H181.049V89.6926H171.96V48.1765H184.706C187.526 48.1765 189.929 48.5095 191.914 49.0646C193.899 49.7306 195.571 50.5076 196.824 51.6177C198.078 52.7277 199.018 54.0598 199.541 55.5029C200.063 57.057 200.376 58.611 200.376 60.3871C200.376 61.7192 200.168 63.0513 199.854 64.1613C199.541 65.3824 199.018 66.4925 198.391 67.4915C197.765 68.4906 196.929 69.3786 195.989 70.1556C195.048 70.9327 193.899 71.5987 192.646 72.1537C193.272 72.4868 193.795 72.9308 194.317 73.3748C194.839 73.8188 195.257 74.4849 195.675 75.1509L203.928 89.5816ZM184.706 67.6025C185.959 67.6025 187.004 67.4915 187.84 67.1585C188.676 66.8255 189.407 66.3814 189.929 65.8264C190.452 65.2714 190.87 64.6054 191.183 63.7173C191.392 62.9403 191.601 62.0522 191.601 61.1642C191.601 59.3881 191.078 57.945 189.929 56.946C188.78 55.9469 187.109 55.3919 184.706 55.3919H181.049V67.7135H184.706V67.6025Z" fill="white"/>
<path d="M242.583 68.9346C242.583 71.9317 242.061 74.7069 241.12 77.26C240.18 79.8131 238.822 82.0332 237.046 83.8093C235.27 85.6964 233.18 87.1395 230.673 88.1386C228.166 89.1376 225.45 89.6926 222.42 89.6926H207.271V48.1765H222.42C225.45 48.1765 228.166 48.7315 230.673 49.7306C233.18 50.7296 235.27 52.1727 237.046 54.0598C238.822 55.9469 240.18 58.056 241.12 60.6091C242.061 63.1623 242.583 65.9374 242.583 68.9346ZM233.285 68.9346C233.285 66.9365 233.076 65.0494 232.554 63.3843C232.031 61.7192 231.3 60.3871 230.36 59.1661C229.419 58.056 228.27 57.168 226.912 56.5019C225.554 55.8359 223.987 55.6139 222.315 55.6139H216.256V82.2553H222.315C224.091 82.2553 225.554 81.9222 226.912 81.3672C228.27 80.7012 229.419 79.9241 230.36 78.7031C231.3 77.593 232.031 76.1499 232.554 74.4849C233.076 72.8198 233.285 70.9327 233.285 68.9346Z" fill="white"/>
<path d="M257 48.1765H247.911V89.5816H257V48.1765Z" fill="white"/>
</g>
</g>
<defs>
<filter id="filter0_d_431_356" x="0" y="0.109375" width="265" height="124.891" filterUnits="userSpaceOnUse" color-interpolation-filters="sRGB">
<feFlood flood-opacity="0" result="BackgroundImageFix"/>
<feColorMatrix in="SourceAlpha" type="matrix" values="0 0 0 0 0 0 0 0 0 0 0 0 0 0 0 0 0 0 127 0" result="hardAlpha"/>
<feOffset dx="4" dy="4"/>
<feGaussianBlur stdDeviation="2"/>
<feComposite in2="hardAlpha" operator="out"/>
<feColorMatrix type="matrix" values="0 0 0 0 0 0 0 0 0 0 0 0 0 0 0 0 0 0 0.5 0"/>
<feBlend mode="multiply" in2="BackgroundImageFix" result="effect1_dropShadow_431_356"/>
<feBlend mode="normal" in="SourceGraphic" in2="effect1_dropShadow_431_356" result="shape"/>
</filter>
<linearGradient id="paint0_linear_431_356" x1="-0.00288261" y1="58.5049" x2="95.6524" y2="58.5049" gradientUnits="userSpaceOnUse">
<stop stop-color="#C39A60"/>
<stop offset="0.0326633" stop-color="#C39A60"/>
<stop offset="0.4709" stop-color="#D8B580"/>
<stop offset="1" stop-color="#C39A60"/>
</linearGradient>
<linearGradient id="paint1_linear_431_356" x1="27.5822" y1="61.0768" x2="47.1393" y2="61.0768" gradientUnits="userSpaceOnUse">
<stop stop-color="#C39A60"/>
<stop offset="0.0326633" stop-color="#C39A60"/>
<stop offset="0.4709" stop-color="#D8B580"/>
<stop offset="1" stop-color="#C39A60"/>
</linearGradient>
<linearGradient id="paint2_linear_431_356" x1="50.4579" y1="54.5019" x2="85.513" y2="54.5019" gradientUnits="userSpaceOnUse">
<stop stop-color="#C39A60"/>
<stop offset="0.0326633" stop-color="#C39A60"/>
<stop offset="0.4709" stop-color="#D8B580"/>
<stop offset="1" stop-color="#C39A60"/>
</linearGradient>
<clipPath id="clip0_431_356">
<rect width="257" height="117" fill="white"/>
</clipPath>
</defs>
</svg>
