<svg width="41" height="41" viewBox="0 0 41 41" fill="none" xmlns="http://www.w3.org/2000/svg">
<mask id="mask0_630_72" style="mask-type:alpha" maskUnits="userSpaceOnUse" x="0" y="0" width="41" height="41">
<rect x="0.923828" y="0.545166" width="40" height="40" fill="#D9D9D9"/>
</mask>
<g mask="url(#mask0_630_72)">
<path d="M5.92383 35.5452V12.2118H12.5905V5.54517H29.2572V18.8785H35.9238V35.5452H22.5905V28.8785H19.2572V35.5452H5.92383ZM9.25716 32.2118H12.5905V28.8785H9.25716V32.2118ZM9.25716 25.5452H12.5905V22.2118H9.25716V25.5452ZM9.25716 18.8785H12.5905V15.5452H9.25716V18.8785ZM15.9238 25.5452H19.2572V22.2118H15.9238V25.5452ZM15.9238 18.8785H19.2572V15.5452H15.9238V18.8785ZM15.9238 12.2118H19.2572V8.8785H15.9238V12.2118ZM22.5905 25.5452H25.9238V22.2118H22.5905V25.5452ZM22.5905 18.8785H25.9238V15.5452H22.5905V18.8785ZM22.5905 12.2118H25.9238V8.8785H22.5905V12.2118ZM29.2572 32.2118H32.5905V28.8785H29.2572V32.2118ZM29.2572 25.5452H32.5905V22.2118H29.2572V25.5452Z" fill="#D5B16C"/>
</g>
</svg>
