<svg width="41" height="41" viewBox="0 0 41 41" fill="none" xmlns="http://www.w3.org/2000/svg">
<mask id="mask0_630_362" style="mask-type:alpha" maskUnits="userSpaceOnUse" x="0" y="0" width="41" height="41">
<rect x="0.923828" y="0.545166" width="40" height="40" fill="#D9D9D9"/>
</mask>
<g mask="url(#mask0_630_362)">
<path d="M2.59045 35.5452V27.2118H5.92379V32.2118H10.9238V35.5452H2.59045ZM30.9238 35.5452V32.2118H35.9238V27.2118H39.2571V35.5452H30.9238ZM7.59045 30.5452V10.5452H10.9238V30.5452H7.59045ZM12.5905 30.5452V10.5452H14.2571V30.5452H12.5905ZM17.5905 30.5452V10.5452H20.9238V30.5452H17.5905ZM22.5905 30.5452V10.5452H27.5905V30.5452H22.5905ZM29.2571 30.5452V10.5452H30.9238V30.5452H29.2571ZM32.5905 30.5452V10.5452H34.2571V30.5452H32.5905ZM2.59045 13.8785V5.54517H10.9238V8.8785H5.92379V13.8785H2.59045ZM35.9238 13.8785V8.8785H30.9238V5.54517H39.2571V13.8785H35.9238Z" fill="#D5B16C"/>
</g>
</svg>
