<svg width="25" height="25" viewBox="0 0 25 25" fill="none" xmlns="http://www.w3.org/2000/svg">
<path fill-rule="evenodd" clip-rule="evenodd" d="M2.01807 0.213379C0.913497 0.213379 0.0180664 1.10881 0.0180664 2.21338V22.2131C0.0180664 23.3177 0.913496 24.2131 2.01807 24.2131H12.8344V24.2134H16.5784V24.2131H22.0181C23.1226 24.2131 24.0181 23.3177 24.0181 22.2131V2.21338C24.0181 1.10881 23.1226 0.213379 22.0181 0.213379H2.01807ZM16.5784 24.2131V14.8775H19.7104L20.1784 11.2775H16.5784V8.96153C16.5784 7.91755 16.8664 7.19755 18.3784 7.19755H20.2864V3.95759C19.3579 3.85592 18.4243 3.80784 17.4904 3.81359C16.8548 3.76829 16.217 3.86259 15.6217 4.08987C15.0265 4.31715 14.4882 4.67191 14.0445 5.12927C13.6009 5.58662 13.2627 6.1355 13.0536 6.7374C12.8446 7.3393 12.7697 7.97965 12.8344 8.61354V11.3135H9.71436V14.9135H12.8344V24.2131H16.5784Z" fill="#D5B16C"/>
</svg>
