<svg width="41" height="41" viewBox="0 0 41 41" fill="none" xmlns="http://www.w3.org/2000/svg">
<mask id="mask0_630_37" style="mask-type:alpha" maskUnits="userSpaceOnUse" x="0" y="0" width="41" height="41">
<rect x="0.923828" y="0.545166" width="40" height="40" fill="#D9D9D9"/>
</mask>
<g mask="url(#mask0_630_37)">
<path d="M4.2572 37.2119V17.1702L15.9239 12.2119V15.5452L24.2572 12.2119V17.2119H37.5905V37.2119H4.2572ZM7.59054 33.8785H34.2572V20.5452H20.9239V17.1285L12.5905 20.4619V17.2119L7.59054 19.4202V33.8785ZM19.2572 30.5452H22.5905V23.8785H19.2572V30.5452ZM12.5905 30.5452H15.9239V23.8785H12.5905V30.5452ZM25.9239 30.5452H29.2572V23.8785H25.9239V30.5452ZM37.5905 17.2119H29.2572L30.9239 3.87854H35.9239L37.5905 17.2119Z" fill="#D5B16C"/>
</g>
</svg>
