<svg width="41" height="41" viewBox="0 0 41 41" fill="none" xmlns="http://www.w3.org/2000/svg">
<mask id="mask0_630_52" style="mask-type:alpha" maskUnits="userSpaceOnUse" x="0" y="0" width="41" height="41">
<rect x="0.923828" y="0.545166" width="40" height="40" fill="#D9D9D9"/>
</mask>
<g mask="url(#mask0_630_52)">
<path d="M10.9238 38.8785C9.53494 38.8785 8.35438 38.3924 7.38216 37.4202C6.40994 36.4479 5.92383 35.2674 5.92383 33.8785C5.92383 32.4896 6.40994 31.3091 7.38216 30.3368C8.35438 29.3646 9.53494 28.8785 10.9238 28.8785C11.3127 28.8785 11.6738 28.9202 12.0072 29.0035C12.3405 29.0868 12.6599 29.1979 12.9655 29.3368L15.3405 26.3785C14.5627 25.5174 14.0211 24.5452 13.7155 23.4618C13.4099 22.3785 13.3405 21.2952 13.5072 20.2118L10.1322 19.0868C9.65994 19.7813 9.06272 20.3368 8.3405 20.7535C7.61827 21.1702 6.81272 21.3785 5.92383 21.3785C4.53494 21.3785 3.35438 20.8924 2.38216 19.9202C1.40994 18.9479 0.923828 17.7674 0.923828 16.3785C0.923828 14.9896 1.40994 13.8091 2.38216 12.8368C3.35438 11.8646 4.53494 11.3785 5.92383 11.3785C7.31272 11.3785 8.49327 11.8646 9.46549 12.8368C10.4377 13.8091 10.9238 14.9896 10.9238 16.3785V16.7118L14.2988 17.8785C14.8544 16.8785 15.5974 16.0313 16.528 15.3368C17.4585 14.6424 18.5072 14.1979 19.6738 14.0035V10.3785C18.5905 10.0729 17.6947 9.48267 16.9863 8.60767C16.278 7.73267 15.9238 6.71183 15.9238 5.54517C15.9238 4.15628 16.4099 2.97572 17.3822 2.0035C18.3544 1.03128 19.5349 0.545166 20.9238 0.545166C22.3127 0.545166 23.4933 1.03128 24.4655 2.0035C25.4377 2.97572 25.9238 4.15628 25.9238 5.54517C25.9238 6.71183 25.5627 7.73267 24.8405 8.60767C24.1183 9.48267 23.2294 10.0729 22.1738 10.3785V14.0035C23.3405 14.1979 24.3891 14.6424 25.3197 15.3368C26.2502 16.0313 26.9933 16.8785 27.5488 17.8785L30.9238 16.7118V16.3785C30.9238 14.9896 31.4099 13.8091 32.3822 12.8368C33.3544 11.8646 34.5349 11.3785 35.9238 11.3785C37.3127 11.3785 38.4933 11.8646 39.4655 12.8368C40.4377 13.8091 40.9238 14.9896 40.9238 16.3785C40.9238 17.7674 40.4377 18.9479 39.4655 19.9202C38.4933 20.8924 37.3127 21.3785 35.9238 21.3785C35.0349 21.3785 34.2224 21.1702 33.4863 20.7535C32.7502 20.3368 32.1599 19.7813 31.7155 19.0868L28.3405 20.2118C28.5072 21.2952 28.4377 22.3716 28.1322 23.441C27.8266 24.5104 27.2849 25.4896 26.5072 26.3785L28.8822 29.2952C29.1877 29.1563 29.5072 29.0521 29.8405 28.9827C30.1738 28.9132 30.5349 28.8785 30.9238 28.8785C32.3127 28.8785 33.4933 29.3646 34.4655 30.3368C35.4377 31.3091 35.9238 32.4896 35.9238 33.8785C35.9238 35.2674 35.4377 36.4479 34.4655 37.4202C33.4933 38.3924 32.3127 38.8785 30.9238 38.8785C29.5349 38.8785 28.3544 38.3924 27.3822 37.4202C26.4099 36.4479 25.9238 35.2674 25.9238 33.8785C25.9238 33.3229 26.0141 32.7882 26.1947 32.2743C26.3752 31.7604 26.6183 31.2952 26.9238 30.8785L24.5488 27.9202C23.4099 28.5591 22.1947 28.8785 20.903 28.8785C19.6113 28.8785 18.396 28.5591 17.2572 27.9202L14.9238 30.8785C15.2294 31.2952 15.4724 31.7604 15.653 32.2743C15.8336 32.7882 15.9238 33.3229 15.9238 33.8785C15.9238 35.2674 15.4377 36.4479 14.4655 37.4202C13.4933 38.3924 12.3127 38.8785 10.9238 38.8785ZM5.92383 18.0452C6.39605 18.0452 6.79188 17.8854 7.11133 17.566C7.43077 17.2466 7.59049 16.8507 7.59049 16.3785C7.59049 15.9063 7.43077 15.5104 7.11133 15.191C6.79188 14.8716 6.39605 14.7118 5.92383 14.7118C5.45161 14.7118 5.05577 14.8716 4.73633 15.191C4.41688 15.5104 4.25716 15.9063 4.25716 16.3785C4.25716 16.8507 4.41688 17.2466 4.73633 17.566C5.05577 17.8854 5.45161 18.0452 5.92383 18.0452ZM10.9238 35.5452C11.3961 35.5452 11.7919 35.3854 12.1113 35.066C12.4308 34.7466 12.5905 34.3507 12.5905 33.8785C12.5905 33.4063 12.4308 33.0104 12.1113 32.691C11.7919 32.3716 11.3961 32.2118 10.9238 32.2118C10.4516 32.2118 10.0558 32.3716 9.73633 32.691C9.41688 33.0104 9.25716 33.4063 9.25716 33.8785C9.25716 34.3507 9.41688 34.7466 9.73633 35.066C10.0558 35.3854 10.4516 35.5452 10.9238 35.5452ZM20.9238 7.21183C21.396 7.21183 21.7919 7.05211 22.1113 6.73267C22.4308 6.41322 22.5905 6.01739 22.5905 5.54517C22.5905 5.07294 22.4308 4.67711 22.1113 4.35767C21.7919 4.03822 21.396 3.8785 20.9238 3.8785C20.4516 3.8785 20.0558 4.03822 19.7363 4.35767C19.4169 4.67711 19.2572 5.07294 19.2572 5.54517C19.2572 6.01739 19.4169 6.41322 19.7363 6.73267C20.0558 7.05211 20.4516 7.21183 20.9238 7.21183ZM20.9238 25.5452C22.0905 25.5452 23.0766 25.1424 23.8822 24.3368C24.6877 23.5313 25.0905 22.5452 25.0905 21.3785C25.0905 20.2118 24.6877 19.2257 23.8822 18.4202C23.0766 17.6146 22.0905 17.2118 20.9238 17.2118C19.7572 17.2118 18.7711 17.6146 17.9655 18.4202C17.1599 19.2257 16.7572 20.2118 16.7572 21.3785C16.7572 22.5452 17.1599 23.5313 17.9655 24.3368C18.7711 25.1424 19.7572 25.5452 20.9238 25.5452ZM30.9238 35.5452C31.396 35.5452 31.7919 35.3854 32.1113 35.066C32.4308 34.7466 32.5905 34.3507 32.5905 33.8785C32.5905 33.4063 32.4308 33.0104 32.1113 32.691C31.7919 32.3716 31.396 32.2118 30.9238 32.2118C30.4516 32.2118 30.0558 32.3716 29.7363 32.691C29.4169 33.0104 29.2572 33.4063 29.2572 33.8785C29.2572 34.3507 29.4169 34.7466 29.7363 35.066C30.0558 35.3854 30.4516 35.5452 30.9238 35.5452ZM35.9238 18.0452C36.396 18.0452 36.7919 17.8854 37.1113 17.566C37.4308 17.2466 37.5905 16.8507 37.5905 16.3785C37.5905 15.9063 37.4308 15.5104 37.1113 15.191C36.7919 14.8716 36.396 14.7118 35.9238 14.7118C35.4516 14.7118 35.0558 14.8716 34.7363 15.191C34.4169 15.5104 34.2572 15.9063 34.2572 16.3785C34.2572 16.8507 34.4169 17.2466 34.7363 17.566C35.0558 17.8854 35.4516 18.0452 35.9238 18.0452Z" fill="#D5B16C"/>
</g>
</svg>
