<svg width="25" height="25" viewBox="0 0 25 25" fill="none" xmlns="http://www.w3.org/2000/svg">
<path fill-rule="evenodd" clip-rule="evenodd" d="M2.01807 0.213379C0.913497 0.213379 0.0180664 1.10881 0.0180664 2.21338V22.2134C0.0180664 23.3179 0.913496 24.2134 2.01807 24.2134H22.0181C23.1226 24.2134 24.0181 23.3179 24.0181 22.2134V2.21338C24.0181 1.10881 23.1226 0.213379 22.0181 0.213379H2.01807ZM20.685 13.8133V20.88H16.965V14.3066C16.965 13.8116 16.7684 13.3368 16.4183 12.9867C16.0682 12.6366 15.5934 12.44 15.0984 12.44C14.0717 12.44 13.245 13.28 13.245 14.3066V20.88H9.52502V9.71997H13.245V11.2C13.885 10.16 15.205 9.46663 16.3384 9.46663C17.4912 9.46663 18.5968 9.92459 19.4119 10.7397C20.2271 11.5549 20.685 12.6605 20.685 13.8133ZM6.77561 6.97055C6.35553 7.39064 5.78577 7.62663 5.19169 7.62663C3.95169 7.62663 2.93835 6.62663 2.93835 5.38663C2.93835 4.78901 3.17576 4.21587 3.59834 3.79329C4.02092 3.3707 4.59407 3.1333 5.19169 3.1333C6.43169 3.1333 7.43169 4.14663 7.43169 5.38663C7.43169 5.98072 7.19569 6.55047 6.77561 6.97055ZM7.04502 9.71997V20.88H3.35169V9.71997H7.04502Z" fill="#D5B16C"/>
</svg>
