<svg width="41" height="41" viewBox="0 0 41 41" fill="none" xmlns="http://www.w3.org/2000/svg">
<mask id="mask0_630_148" style="mask-type:alpha" maskUnits="userSpaceOnUse" x="0" y="0" width="41" height="41">
<rect x="0.923828" y="0.545166" width="40" height="40" fill="#D9D9D9"/>
</mask>
<g mask="url(#mask0_630_148)">
<path d="M17.0488 23.3785L18.5071 18.6285L14.6738 15.5452H19.4238L20.9238 10.8785L22.4238 15.5452H27.1738L23.2988 18.6285L24.7571 23.3785L20.9238 20.4202L17.0488 23.3785ZM10.9238 38.8785V26.0035C9.86823 24.8369 9.04879 23.5035 8.46545 22.0035C7.88212 20.5035 7.59045 18.9063 7.59045 17.2119C7.59045 13.4897 8.88212 10.3369 11.4655 7.75354C14.0488 5.17021 17.2016 3.87854 20.9238 3.87854C24.646 3.87854 27.7988 5.17021 30.3821 7.75354C32.9655 10.3369 34.2571 13.4897 34.2571 17.2119C34.2571 18.9063 33.9655 20.5035 33.3821 22.0035C32.7988 23.5035 31.9793 24.8369 30.9238 26.0035V38.8785L20.9238 35.5452L10.9238 38.8785ZM20.9238 27.2119C23.7016 27.2119 26.0627 26.2397 28.0071 24.2952C29.9516 22.3508 30.9238 19.9897 30.9238 17.2119C30.9238 14.4341 29.9516 12.073 28.0071 10.1285C26.0627 8.1841 23.7016 7.21187 20.9238 7.21187C18.146 7.21187 15.7849 8.1841 13.8405 10.1285C11.896 12.073 10.9238 14.4341 10.9238 17.2119C10.9238 19.9897 11.896 22.3508 13.8405 24.2952C15.7849 26.2397 18.146 27.2119 20.9238 27.2119ZM14.2571 33.9202L20.9238 32.2119L27.5905 33.9202V28.7535C26.6182 29.3091 25.5696 29.7466 24.4446 30.066C23.3196 30.3855 22.146 30.5452 20.9238 30.5452C19.7016 30.5452 18.528 30.3855 17.403 30.066C16.278 29.7466 15.2293 29.3091 14.2571 28.7535V33.9202Z" fill="#D5B16C"/>
</g>
</svg>
