<svg width="41" height="41" viewBox="0 0 41 41" fill="none" xmlns="http://www.w3.org/2000/svg">
<mask id="mask0_630_100" style="mask-type:alpha" maskUnits="userSpaceOnUse" x="0" y="0" width="41" height="41">
<rect x="0.923828" y="0.545166" width="40" height="40" fill="#D9D9D9"/>
</mask>
<g mask="url(#mask0_630_100)">
<path d="M12.5905 37.2118V21.9618C11.1738 21.573 9.98629 20.7952 9.02795 19.6285C8.06962 18.4618 7.59045 17.1007 7.59045 15.5452V3.87851H10.9238V15.5452H12.5905V3.87851H15.9238V15.5452H17.5905V3.87851H20.9238V15.5452C20.9238 17.1007 20.4446 18.4618 19.4863 19.6285C18.528 20.7952 17.3405 21.573 15.9238 21.9618V37.2118H12.5905ZM29.2571 37.2118V23.8785H24.2571V12.2118C24.2571 9.90629 25.0696 7.94101 26.6946 6.31601C28.3196 4.69101 30.2849 3.87851 32.5905 3.87851V37.2118H29.2571Z" fill="#D5B16C"/>
</g>
</svg>
