<svg width="41" height="41" viewBox="0 0 41 41" fill="none" xmlns="http://www.w3.org/2000/svg">
<mask id="mask0_630_66" style="mask-type:alpha" maskUnits="userSpaceOnUse" x="0" y="0" width="41" height="41">
<rect x="0.923828" y="0.545166" width="40" height="40" fill="#D9D9D9"/>
</mask>
<g mask="url(#mask0_630_66)">
<path d="M35.9655 18.9618V32.2118C35.9655 33.1285 35.6391 33.9132 34.9863 34.566C34.3335 35.2188 33.5488 35.5452 32.6321 35.5452H9.29881C8.38215 35.5452 7.59742 35.2188 6.94465 34.566C6.29187 33.9132 5.96548 33.1285 5.96548 32.2118V18.9618C5.32659 18.3785 4.83353 17.6285 4.48631 16.7118C4.13909 15.7952 4.13215 14.7952 4.46548 13.7118L6.21548 8.04517C6.4377 7.32294 6.83353 6.72572 7.40298 6.2535C7.97242 5.78128 8.63215 5.54517 9.38215 5.54517H32.5488C33.2988 5.54517 33.9516 5.77433 34.5071 6.23267C35.0627 6.691 35.4655 7.29517 35.7155 8.04517L37.4655 13.7118C37.7988 14.7952 37.7919 15.7813 37.4446 16.6702C37.0974 17.5591 36.6044 18.3229 35.9655 18.9618ZM24.6321 17.2118C25.3821 17.2118 25.9516 16.9549 26.3405 16.441C26.7294 15.9271 26.8821 15.3507 26.7988 14.7118L25.8821 8.8785H22.6321V15.0452C22.6321 15.6285 22.8266 16.1354 23.2155 16.566C23.6044 16.9966 24.0766 17.2118 24.6321 17.2118ZM17.1321 17.2118C17.771 17.2118 18.2919 16.9966 18.6946 16.566C19.0974 16.1354 19.2988 15.6285 19.2988 15.0452V8.8785H16.0488L15.1321 14.7118C15.021 15.3785 15.1669 15.9618 15.5696 16.4618C15.9724 16.9618 16.4933 17.2118 17.1321 17.2118ZM9.71548 17.2118C10.2155 17.2118 10.653 17.0313 11.028 16.6702C11.403 16.3091 11.6321 15.8507 11.7155 15.2952L12.6321 8.8785H9.38215L7.71548 14.4618C7.54881 15.0174 7.63909 15.6146 7.98631 16.2535C8.33353 16.8924 8.90992 17.2118 9.71548 17.2118ZM32.2155 17.2118C33.021 17.2118 33.6044 16.8924 33.9655 16.2535C34.3266 15.6146 34.4099 15.0174 34.2155 14.4618L32.4655 8.8785H29.2988L30.2155 15.2952C30.2988 15.8507 30.528 16.3091 30.903 16.6702C31.278 17.0313 31.7155 17.2118 32.2155 17.2118ZM9.29881 32.2118H32.6321V20.4618C32.4933 20.5174 32.403 20.5452 32.3613 20.5452H32.2155C31.4655 20.5452 30.8058 20.4202 30.2363 20.1702C29.6669 19.9202 29.1044 19.5174 28.5488 18.9618C28.0488 19.4618 27.4794 19.8507 26.8405 20.1285C26.2016 20.4063 25.521 20.5452 24.7988 20.5452C24.0488 20.5452 23.3474 20.4063 22.6946 20.1285C22.0419 19.8507 21.4655 19.4618 20.9655 18.9618C20.4933 19.4618 19.9446 19.8507 19.3196 20.1285C18.6946 20.4063 18.021 20.5452 17.2988 20.5452C16.4933 20.5452 15.7641 20.4063 15.1113 20.1285C14.4585 19.8507 13.8821 19.4618 13.3821 18.9618C12.7988 19.5452 12.2224 19.9549 11.653 20.191C11.0835 20.4271 10.4377 20.5452 9.71548 20.5452H9.52798C9.45853 20.5452 9.38215 20.5174 9.29881 20.4618V32.2118Z" fill="#D5B16C"/>
</g>
</svg>
