<svg width="196" height="167" viewBox="0 0 196 167" fill="none" xmlns="http://www.w3.org/2000/svg">
<g clip-path="url(#clip0_557_1310)">
<path d="M146.851 43.7021C138.941 41.9921 114.052 26.412 98.6165 27.362C82.9885 26.412 58.4853 41.8021 50.3819 43.7021C44.7867 45.0321 39.9633 43.8921 39.9633 43.8921C45.9443 55.8622 46.5232 109.632 46.5232 109.632C48.0667 132.433 98.4235 153.713 98.6165 153.713C98.6165 153.713 148.973 132.433 150.71 109.632C150.71 109.632 151.289 55.8622 157.27 43.8921C157.27 43.7021 152.446 44.8421 146.851 43.7021Z" fill="#D7B46A"/>
<path d="M142.606 47.692C135.275 45.982 112.701 31.9219 98.4235 32.8719C84.1461 31.9219 61.7652 46.172 54.4336 47.692C49.4172 48.832 44.9796 47.692 44.9796 47.692C50.5748 58.5221 50.9607 107.732 50.9607 107.732C52.5042 128.632 98.4235 148.012 98.4235 148.012C98.4235 148.012 144.536 128.632 146.079 107.732C146.079 107.732 146.658 58.7121 152.06 47.692C152.253 47.882 147.816 48.832 142.606 47.692Z" fill="black"/>
<path d="M99.7741 35.9122C108.649 35.9122 120.611 41.6123 129.487 45.6023C134.117 47.8823 137.783 49.5923 140.098 49.9723C142.028 50.3523 143.957 50.5423 146.079 50.5423C147.044 50.5423 147.816 50.5423 148.395 50.5423C143.571 62.1324 142.992 104.883 142.992 106.783C141.642 125.593 101.511 143.263 98.4235 144.593C95.1436 143.263 55.3983 126.163 54.0477 106.973C54.0477 105.073 53.4689 62.3224 48.6455 50.7323C49.2243 50.7323 49.996 50.7323 50.9607 50.7323C53.083 50.7323 55.0124 50.5423 56.9418 50.1623C59.2571 49.5923 62.9229 47.8823 67.5534 45.7923C76.2356 41.6123 88.3907 36.1022 97.073 36.1022C97.4588 36.1022 97.8447 36.1022 98.2306 36.1022C99.0023 36.1022 99.3882 35.9122 99.7741 35.9122ZM99.7741 35.5322C99.3882 35.5322 99.0023 35.5322 98.6165 35.5322C98.2306 35.5322 97.8447 35.5322 97.4588 35.5322C83.9532 35.5322 63.6946 48.2623 57.1347 49.7823C54.8195 50.3523 52.8901 50.3523 51.1537 50.3523C49.2243 50.3523 48.0667 50.1623 48.0667 50.1623C53.276 60.6124 53.8548 106.973 53.8548 106.973C55.2054 126.733 96.4941 144.403 98.8094 145.163C98.8094 145.163 142.413 126.733 143.764 106.973C143.764 106.973 144.343 60.6124 149.552 50.1623C149.552 50.1623 148.395 50.3523 146.465 50.3523C144.922 50.3523 142.799 50.1623 140.484 49.7823C133.538 48.2623 113.28 35.5322 99.7741 35.5322Z" fill="#D7B46A"/>
<path fill-rule="evenodd" clip-rule="evenodd" d="M98.6165 7.22192L100.353 12.922H106.527L101.511 16.532L103.44 22.232L98.6165 18.622L93.6001 22.232L95.5295 16.532L90.7061 12.922H96.6871L98.6165 7.22192Z" fill="#D7B46A"/>
<path fill-rule="evenodd" clip-rule="evenodd" d="M79.7085 14.0618L82.4096 17.6718L86.6543 16.3418L83.9532 19.9518L86.6543 23.5618L82.4096 22.2318L79.7085 25.8418V21.2818L75.4639 19.9518L79.7085 18.6218V14.0618Z" fill="#D7B46A"/>
<path fill-rule="evenodd" clip-rule="evenodd" d="M64.2734 20.522L67.1674 23.942L71.4121 22.232L69.0968 26.032L71.9909 29.452L67.5533 28.312L65.2381 32.112L64.8522 27.742L60.6075 26.792L64.6592 25.082L64.2734 20.522Z" fill="#D7B46A"/>
<path fill-rule="evenodd" clip-rule="evenodd" d="M116.946 14.0618L114.244 17.6718L110 16.3418L112.701 19.9518L110 23.5618L114.244 22.2318L116.946 25.8418V21.2818L121.19 19.9518L116.946 18.6218V14.0618Z" fill="#D7B46A"/>
<path fill-rule="evenodd" clip-rule="evenodd" d="M132.381 20.522L129.487 23.942L125.242 22.232L127.557 26.032L124.663 29.452L129.101 28.312L131.416 32.112L131.802 27.742L136.046 26.792L131.995 25.082L132.381 20.522Z" fill="#D7B46A"/>
<path d="M80.0943 119.703C80.0943 119.133 80.0943 118.563 80.0943 118.183C80.0943 117.803 80.2873 117.613 80.4802 117.423C80.6732 117.423 80.6732 117.423 80.8661 117.423C80.8661 117.423 81.059 117.423 81.059 117.233C81.059 117.233 81.059 117.043 80.8661 117.043C80.4802 117.043 79.7085 117.043 79.3226 117.043C78.9367 117.043 78.165 117.043 77.5861 117.043C77.3932 117.043 77.3932 117.043 77.3932 117.233C77.3932 117.233 77.3932 117.423 77.5861 117.423C77.7791 117.423 77.972 117.423 78.165 117.423C78.5508 117.423 78.7438 117.803 78.7438 118.183V119.703V120.843C78.7438 121.033 78.7438 121.223 78.5508 121.223C78.165 121.413 77.7791 121.413 77.3932 121.413C74.6921 121.413 72.9556 119.323 72.9556 116.663C72.9556 115.143 73.3415 114.193 74.1133 113.623C74.885 112.863 75.8497 112.863 76.4285 112.863C77.7791 112.863 78.9367 113.433 79.3226 113.813C79.7085 114.193 79.7085 114.573 79.7085 114.763C79.7085 114.763 79.7085 114.953 79.9014 114.953C80.0943 114.953 80.0943 114.953 80.0943 114.763C80.0943 113.243 80.0943 112.863 80.0943 112.673C80.0943 112.673 80.0943 112.483 79.9014 112.483C79.5155 112.483 79.1296 112.483 78.9367 112.293C78.7438 112.293 77.5861 112.103 76.6215 112.103C75.6568 112.103 74.4991 112.103 73.1486 112.863C71.9909 113.623 71.0262 114.953 71.0262 117.043C71.0262 120.463 73.7274 121.983 76.8144 121.983C77.7791 121.983 79.1296 121.793 79.9014 121.413C80.0943 121.413 80.0943 121.223 80.0943 121.033V119.703ZM86.8472 121.983C89.7413 121.983 91.4777 120.083 91.4777 117.613C91.4777 115.143 89.7413 113.623 86.8472 113.623C83.5672 113.623 82.2167 115.903 82.2167 117.803C82.2167 119.703 83.5672 121.983 86.8472 121.983ZM87.2331 121.413C85.1107 121.413 83.9531 119.703 83.9531 117.423C83.9531 114.763 85.4966 114.193 86.6542 114.193C88.3907 114.193 89.9342 115.713 89.9342 117.993C89.7413 121.033 88.0048 121.413 87.2331 121.413ZM94.9506 116.853C94.9506 115.143 94.9506 114.953 94.9506 114.573C94.9506 114.193 95.1435 114.003 95.3365 114.003C95.5294 114.003 95.7223 114.003 95.7223 114.003C95.9153 114.003 95.9153 114.003 95.9153 113.813C95.9153 113.813 95.9153 113.623 95.7223 113.623C95.3365 113.623 94.3718 113.623 94.1788 113.623C93.793 113.623 93.2141 113.623 92.6353 113.623C92.4424 113.623 92.4424 113.623 92.4424 113.813C92.4424 113.813 92.4424 114.003 92.6353 114.003C92.8283 114.003 92.8283 114.003 93.0212 114.003C93.4071 114.003 93.4071 114.193 93.4071 114.573C93.4071 114.953 93.4071 115.143 93.4071 116.853V118.753C93.4071 119.703 93.4071 120.653 93.4071 121.033C93.4071 121.413 93.2141 121.603 93.0212 121.603C93.0212 121.603 92.8283 121.603 92.6353 121.603C92.4424 121.603 92.4424 121.603 92.4424 121.793C92.4424 121.793 92.4424 121.983 92.6353 121.983C92.8283 121.983 93.2141 121.983 93.4071 121.983C93.6 121.983 93.9859 121.983 93.9859 121.983C94.3718 121.983 94.9506 121.983 95.5294 121.983C96.1082 121.983 96.687 121.983 97.4588 121.983C98.0376 121.983 98.0376 121.983 98.2305 121.603C98.2305 121.223 98.4235 120.463 98.4235 120.463C98.4235 120.273 98.4235 120.273 98.2305 120.273C98.2305 120.273 98.0376 120.273 98.0376 120.463C98.0376 120.653 97.8447 121.033 97.8447 121.033C97.6517 121.413 97.0729 121.413 96.4941 121.413C95.7223 121.413 95.1435 121.413 94.9506 121.223C94.7576 121.033 94.7576 120.273 94.7576 118.943V116.853H94.9506ZM100.546 118.753C100.546 119.703 100.546 120.653 100.546 121.033C100.546 121.413 100.353 121.603 100.16 121.603C99.967 121.603 99.967 121.603 99.774 121.603C99.5811 121.603 99.5811 121.603 99.5811 121.793C99.5811 121.793 99.5811 121.983 99.774 121.983C99.967 121.983 100.353 121.983 100.546 121.983C100.739 121.983 101.125 121.983 101.125 121.983C101.318 121.983 101.896 121.983 102.282 121.983C102.668 121.983 103.247 121.983 103.633 121.983C105.755 121.983 106.913 121.223 107.299 120.653C107.877 120.083 108.456 118.943 108.456 117.613C108.456 116.283 107.877 115.523 107.492 114.953C106.334 113.813 104.405 113.813 103.054 113.813C102.282 113.813 101.51 113.813 101.318 113.813C100.932 113.813 100.353 113.813 99.774 113.813C99.5811 113.813 99.5811 113.813 99.5811 114.003C99.5811 114.003 99.5811 114.193 99.774 114.193C99.967 114.193 100.16 114.193 100.16 114.193C100.546 114.193 100.546 114.383 100.546 114.763C100.546 115.143 100.546 115.333 100.546 117.043V118.753ZM101.896 116.663V114.573C101.896 114.383 101.896 114.383 102.089 114.383C102.089 114.383 102.475 114.383 102.861 114.383C103.826 114.383 104.983 114.573 105.948 115.333C106.527 115.713 106.913 116.663 106.913 117.993C106.913 119.133 106.72 120.083 105.948 120.653C105.176 121.223 104.597 121.413 103.44 121.413C102.668 121.413 102.089 121.223 101.896 121.033C101.896 120.843 101.703 120.463 101.703 120.273C101.703 120.083 101.703 119.323 101.703 118.183V116.663H101.896ZM110.772 118.753C110.772 119.703 110.772 120.653 110.772 121.033C110.772 121.413 110.772 121.603 110.386 121.603C110.193 121.603 110.193 121.603 110 121.603C109.807 121.603 109.807 121.603 109.807 121.793C109.807 121.793 109.807 121.983 110 121.983C110.193 121.983 110.579 121.983 110.772 121.983C110.964 121.983 111.35 121.983 111.35 121.983C111.736 121.983 112.122 121.983 112.701 121.983C113.28 121.983 113.859 121.983 114.823 121.983C115.209 121.983 115.402 121.983 115.402 121.793C115.402 121.603 115.595 120.843 115.595 120.653C115.595 120.463 115.595 120.463 115.402 120.463C115.402 120.463 115.402 120.463 115.209 120.653C115.209 121.033 115.016 121.223 114.823 121.413C114.437 121.603 114.051 121.603 113.859 121.603C112.701 121.603 112.315 121.413 112.315 120.653V119.133V118.183V117.993C112.508 117.993 113.859 117.993 114.051 117.993C114.437 117.993 114.63 118.183 114.63 118.373C114.63 118.563 114.63 118.563 114.63 118.753C114.63 118.753 114.63 118.753 114.823 118.753L115.016 118.563C115.016 118.563 115.016 117.993 115.016 117.803C115.016 117.233 115.016 117.043 115.016 117.043V116.853C115.016 116.853 115.016 116.853 114.823 117.043C114.63 117.233 114.63 117.233 114.244 117.233C114.051 117.233 112.508 117.233 112.315 117.233C112.315 117.233 112.315 117.233 112.315 117.043V114.383V114.193C112.508 114.193 113.859 114.193 114.051 114.193C114.63 114.193 114.63 114.383 114.823 114.573C114.823 114.763 114.823 114.953 114.823 114.953V115.143L115.016 114.953C115.016 114.763 115.016 114.383 115.016 114.193C115.016 113.623 115.016 113.623 115.016 113.433V113.243H114.823C114.823 113.243 114.63 113.243 114.437 113.243H111.35C110.964 113.243 110.386 113.243 109.807 113.243C109.614 113.243 109.614 113.243 109.614 113.433C109.614 113.433 109.614 113.623 109.807 113.623C110 113.623 110.193 113.623 110.193 113.623C110.579 113.623 110.579 113.813 110.772 114.193V116.473V118.753ZM118.489 116.093C118.682 116.283 119.84 117.613 121.19 118.753C122.348 119.893 123.698 121.223 124.47 121.793C124.663 121.983 124.663 121.983 124.856 121.983C124.856 121.983 125.049 121.793 125.049 121.603L125.242 114.953C125.242 114.383 125.435 114.193 125.628 114.003C125.821 114.003 125.821 114.003 126.014 114.003C126.207 114.003 126.207 114.003 126.207 113.813C126.207 113.813 126.207 113.623 126.014 113.623C125.435 113.623 125.049 113.623 124.856 113.623C124.663 113.623 124.084 113.623 123.505 113.623C123.313 113.623 123.312 113.623 123.312 113.813C123.312 113.813 123.313 114.003 123.505 114.003C123.698 114.003 123.891 114.003 124.084 114.003C124.277 114.193 124.47 114.383 124.47 114.953L124.663 119.703C124.47 119.513 122.927 117.993 122.348 117.233C120.804 115.713 119.068 114.003 118.875 113.813C118.682 113.623 118.489 113.433 118.489 113.433C118.296 113.433 118.296 113.623 118.296 113.813L118.103 120.083C118.103 121.033 118.103 121.223 117.717 121.413C117.524 121.413 117.331 121.413 117.138 121.413C116.946 121.413 116.946 121.413 116.946 121.603C116.946 121.793 116.946 121.793 117.138 121.793C117.717 121.793 118.296 121.793 118.296 121.793C118.489 121.793 119.068 121.793 119.647 121.793C119.84 121.793 119.84 121.793 119.84 121.603C119.84 121.603 119.84 121.413 119.647 121.413C119.454 121.413 119.261 121.413 119.068 121.413C118.875 121.413 118.682 121.033 118.682 120.273L118.489 116.093Z" fill="#D7B46A"/>
<path d="M59.8359 63.8422L59.257 65.1722C59.0641 65.3622 59.0641 65.7422 59.0641 65.7422C59.0641 65.9322 59.0641 66.1222 59.0641 66.1222V66.3122C59.0641 66.3122 59.257 66.3122 59.257 66.5022L60.0288 66.6922V67.0722C59.257 67.0722 58.6782 67.0722 58.2924 67.0722C57.9065 67.0722 57.3277 67.0722 56.5559 67.0722V66.6922L57.3277 66.5022C57.5206 66.5022 57.7135 66.3122 57.7135 66.3122C57.7135 66.1222 57.9065 65.9322 58.0994 65.7422L61.9582 56.6221L62.7299 56.4321L66.0099 65.5522C66.2028 65.9322 66.2028 66.1222 66.3958 66.3122C66.5887 66.5022 66.5887 66.5022 66.7816 66.5022L67.5534 66.6922V67.0722C66.7816 67.0722 66.2028 67.0722 65.4311 67.0722C64.4664 67.0722 63.6946 67.0722 62.7299 67.0722V66.6922L63.5017 66.5022C63.6946 66.5022 63.6946 66.5022 63.6946 66.3122V66.1222C63.6946 65.9322 63.6946 65.9322 63.6946 65.7422C63.6946 65.5522 63.5017 65.3622 63.5017 65.1722L62.9229 63.8422H59.8359ZM61.3794 59.4721C61.3794 59.6621 61.1864 60.0421 60.9935 60.2321L60.0288 62.8922H62.537L61.5723 60.2321C61.5723 60.0421 61.5723 59.6621 61.3794 59.4721Z" fill="white"/>
<path d="M77.5863 56.6221C78.3581 56.6221 78.9369 56.6221 79.5157 56.6221C80.0945 56.6221 80.6733 56.6221 81.2521 56.6221V57.0021L80.2874 57.3821C80.0945 57.3821 80.0945 57.5721 80.0945 57.5721C80.0945 57.9521 80.0945 58.3321 80.0945 58.9021V64.7922C80.0945 65.3622 80.0945 65.9322 80.0945 66.3122C80.0945 66.5022 80.0945 66.5022 80.2874 66.5022L81.2521 66.6922V67.0722C80.4804 67.0722 79.7086 67.0722 78.9369 67.0722C78.1651 67.0722 77.3934 67.0722 76.8146 67.0722V66.6922L77.7792 66.5022C77.9722 66.5022 77.9722 66.3122 77.9722 66.3122C77.9722 65.9322 77.9722 65.3622 77.9722 64.7922V60.0421C77.9722 59.8521 77.9722 59.2821 77.9722 58.5221C77.7792 58.9021 77.5863 59.4721 77.3934 59.8521L74.3064 67.0722H73.5346L70.6405 60.0421C70.4476 59.6621 70.2547 59.0921 70.0617 58.7121C70.0617 59.4721 70.0617 59.8521 70.0617 60.0421V64.6022C70.0617 65.1722 70.0617 65.7422 70.0617 66.1222C70.0617 66.3122 70.0617 66.3122 70.2547 66.3122L71.0264 66.5022V66.8822C70.4476 66.8822 69.8688 66.8822 69.4829 66.8822C69.097 66.8822 68.5182 66.8822 67.7465 66.8822V66.5022L68.7112 66.3122C68.9041 66.3122 68.9041 66.1222 68.9041 66.1222C68.9041 65.7422 68.9041 65.1722 68.9041 64.6022V58.7121C68.9041 58.1421 68.9041 57.7621 68.9041 57.3821C68.9041 57.1921 68.9041 57.1921 68.7112 57.1921L67.7465 56.8121V56.4321C68.5182 56.4321 69.29 56.4321 69.6758 56.4321C70.2547 56.4321 70.8335 56.4321 71.4123 56.4321L74.1134 63.0822C74.3064 63.4622 74.3064 63.6522 74.4993 63.8422C74.6922 63.6522 74.6922 63.2722 74.8852 63.0822L77.5863 56.6221Z" fill="white"/>
<path d="M84.5321 56.6221H86.4615C87.6191 56.6221 88.9697 56.6221 90.3202 56.6221L89.9344 59.0921H89.5485L88.9697 57.1921H86.0756V61.1821H86.4615C86.8474 61.1821 87.4262 61.1821 87.8121 61.1821C88.005 61.1821 88.005 61.1821 88.005 60.9921L88.1979 60.0421H88.7767C88.7767 60.8021 88.7767 61.3721 88.7767 61.7521C88.7767 62.1321 88.7767 62.7021 88.7767 63.2721H88.1979L88.005 62.1321C88.005 61.9421 87.8121 61.9421 87.8121 61.9421C87.2332 61.9421 86.8474 61.9421 86.4615 61.9421H86.0756V64.6021C86.0756 65.1721 86.0756 65.7421 86.0756 66.3121H89.1626L90.1273 64.4121H90.5132L90.3202 67.2621C88.9697 67.2621 87.812 67.2621 86.6544 67.2621H84.725C84.1462 67.2621 83.3745 67.2621 82.7957 67.2621V66.8821L83.7603 66.6921C83.9533 66.6921 83.9533 66.5021 83.9533 66.5021C83.9533 66.3121 83.9533 66.1221 83.9533 65.7421C83.9533 65.5521 83.9533 65.1721 83.9533 64.9821V59.0921C83.9533 58.9021 83.9533 58.7121 83.9533 58.3321C83.9533 58.1421 83.9533 57.9521 83.9533 57.7621C83.9533 57.5721 83.9533 57.5721 83.7603 57.5721L82.7957 57.1921V56.8121C83.1815 56.6221 83.9533 56.6221 84.5321 56.6221Z" fill="white"/>
<path d="M95.3364 64.7921C95.3364 65.1721 95.3364 65.3621 95.3364 65.5521C95.3364 65.7421 95.3364 65.9321 95.3364 66.1221C95.3364 66.3121 95.3364 66.3121 95.5294 66.5021L96.3011 66.6921V67.0721C95.7223 67.0721 94.9505 67.0721 94.1788 67.0721C93.2141 67.0721 92.4423 67.0721 91.8635 67.0721V66.6921L92.8282 66.5021C93.0212 66.5021 93.0212 66.3121 93.0212 66.3121C93.0212 66.1221 93.0212 65.9321 93.0212 65.5521C93.0212 65.3621 93.0212 64.9821 93.0212 64.7921V58.9021C93.0212 58.7121 93.0212 58.3321 93.0212 58.1421C93.0212 57.9521 93.0212 57.7621 93.0212 57.5721C93.0212 57.3821 93.0212 57.3821 92.8282 57.3821L91.8635 57.0021V56.6221C92.6353 56.6221 93.2141 56.6221 93.9859 56.6221C94.1788 56.6221 94.3717 56.6221 94.5647 56.6221C94.7576 56.6221 95.1435 56.6221 95.3364 56.6221C95.7223 56.6221 95.9152 56.6221 96.1082 56.6221C96.3011 56.6221 96.494 56.6221 96.494 56.6221C97.8446 56.6221 98.8093 56.8121 99.3881 57.1921C99.9669 57.5721 100.353 58.3321 100.353 59.0921C100.353 59.8521 100.16 60.4221 99.774 60.8021C99.3881 61.1821 98.8093 61.5621 98.0375 61.9421C98.4234 62.5121 98.8093 63.0821 99.0022 63.4621C99.1952 63.8421 99.3881 64.2221 99.774 64.6021C99.9669 64.9821 100.16 65.3621 100.353 65.5521C100.546 65.7421 100.739 66.1221 100.932 66.3121L101.125 66.5021L101.318 66.6921C101.318 66.6921 101.51 66.6921 101.703 66.8821C101.896 66.8821 101.896 66.8821 102.089 66.8821V67.2621C101.51 67.2621 100.932 67.4521 100.353 67.4521C99.774 67.4521 99.5811 67.4521 99.1952 67.2621C99.0022 67.2621 98.8093 67.0721 98.6164 67.0721C98.4234 66.8821 98.2305 66.6921 98.0375 66.3121C97.8446 65.9321 97.6517 65.7421 97.4587 65.3621C97.2658 64.9821 97.0729 64.6021 96.8799 64.2221C96.687 63.8421 96.494 63.4621 96.1082 63.0821C96.1082 62.8921 95.9152 62.8921 95.9152 62.7021C95.9152 62.7021 95.9152 62.5121 95.7223 62.5121H95.5294H95.3364H94.9505V64.7921H95.3364ZM95.3364 61.5621C95.5294 61.5621 95.9152 61.5621 96.1082 61.5621C96.8799 61.5621 97.2658 61.3721 97.6517 60.9921C98.0375 60.6121 98.2305 60.0421 98.2305 59.2821C98.2305 58.5221 98.0376 57.9521 97.8446 57.7621C97.4587 57.3821 97.0729 57.1921 96.3011 57.1921C96.1082 57.1921 96.1082 57.1921 95.9152 57.1921C95.7223 57.1921 95.7223 57.1921 95.5294 57.1921V61.5621H95.3364Z" fill="white"/>
<path d="M106.334 64.7921C106.334 65.1721 106.334 65.3621 106.334 65.5521C106.334 65.7421 106.334 65.9321 106.334 66.1221C106.334 66.3121 106.334 66.3121 106.527 66.3121L107.491 66.5021V66.8821C106.72 66.8821 105.948 66.8821 105.176 66.8821C104.212 66.8821 103.44 66.8821 102.861 66.8821V66.5021L103.826 66.3121C104.019 66.3121 104.019 66.1221 104.019 66.1221C104.019 65.9321 104.019 65.7421 104.019 65.3621C104.019 65.1721 104.019 64.7921 104.019 64.6021V58.7121C104.019 58.5221 104.019 58.1421 104.019 57.9521C104.019 57.7621 104.019 57.5721 104.019 57.3821C104.019 57.1921 104.019 57.1921 103.826 57.1921L102.861 57.0021V56.6221C103.633 56.6221 104.404 56.6221 105.176 56.6221C106.141 56.6221 106.913 56.6221 107.491 56.6221V57.0021L106.72 57.3821C106.527 57.3821 106.527 57.5721 106.527 57.5721C106.527 57.7621 106.527 57.9521 106.527 58.1421C106.527 58.3321 106.527 58.5221 106.527 58.9021V64.7921H106.334Z" fill="white"/>
<path d="M117.524 59.4721H117.138L116.367 57.3821C115.981 57.1921 115.595 57.1921 115.016 57.1921C113.859 57.1921 113.087 57.5721 112.508 58.5221C111.929 59.2821 111.543 60.4221 111.543 61.7521C111.543 63.2721 111.929 64.4121 112.701 65.1721C113.473 65.9321 114.437 66.5021 115.788 66.5021C116.56 66.5021 117.331 66.3121 118.103 66.1221L118.296 66.5021C117.331 67.2621 116.174 67.4521 114.823 67.4521C113.087 67.4521 111.736 66.8821 110.772 65.9321C109.807 64.9821 109.228 63.6521 109.228 62.1321C109.228 60.4221 109.807 59.0921 110.964 58.1421C112.122 57.1921 113.473 56.6221 115.402 56.6221C116.367 56.6221 117.138 56.8121 118.103 57.0021L117.524 59.4721Z" fill="white"/>
<path d="M121.576 63.8422L120.998 65.1722C120.805 65.3622 120.805 65.7422 120.805 65.7422C120.805 65.9322 120.805 66.1222 120.805 66.1222V66.3122C120.805 66.3122 120.998 66.3122 120.998 66.5022L121.769 66.6922V67.0722C120.998 67.0722 120.419 67.0722 120.033 67.0722C119.647 67.0722 119.068 67.0722 118.296 67.0722V66.6922L119.068 66.5022C119.261 66.5022 119.454 66.3122 119.454 66.3122C119.454 66.1222 119.647 65.9322 119.84 65.7422L123.699 56.6221L124.47 56.4321L127.75 65.5522C127.943 65.9322 127.943 66.1222 128.136 66.3122C128.329 66.5022 128.329 66.5022 128.522 66.5022L129.294 66.6922V67.0722C128.522 67.0722 127.943 67.0722 127.172 67.0722C126.207 67.0722 125.435 67.0722 124.47 67.0722V66.6922L125.242 66.5022C125.435 66.5022 125.435 66.5022 125.435 66.3122V66.1222C125.435 65.9322 125.435 65.9322 125.435 65.7422C125.435 65.5522 125.242 65.3622 125.242 65.1722L124.663 63.8422H121.576ZM123.12 59.4721C123.12 59.6621 122.927 60.0421 122.734 60.2321L121.769 62.8922H124.277L123.313 60.2321C123.313 60.0421 123.12 59.6621 123.12 59.4721Z" fill="white"/>
<path d="M131.802 66.3121C131.802 66.5021 131.802 66.5021 131.995 66.5021L132.96 66.6921V67.0721C132.188 67.0721 131.802 67.0721 131.223 67.0721C130.837 67.0721 130.258 67.0721 129.487 67.0721V66.6921L130.451 66.5021C130.644 66.5021 130.644 66.3121 130.644 66.3121C130.644 65.9321 130.644 65.3621 130.644 64.7921V58.9021C130.644 58.3321 130.644 57.9521 130.644 57.5721C130.644 57.3821 130.644 57.3821 130.451 57.3821L129.487 57.0021V56.6221C130.258 56.6221 130.644 56.6221 131.03 56.6221C131.609 56.6221 131.995 56.6221 132.381 56.6221L137.397 62.8921C137.59 63.0821 137.783 63.4621 137.976 63.6521C137.976 63.2721 137.976 62.8921 137.976 62.7021V58.7121C137.976 58.1421 137.976 57.7621 137.976 57.3821C137.976 57.1921 137.976 57.1921 137.783 57.1921L136.818 57.0021V56.6221C137.59 56.6221 138.169 56.6221 138.555 56.6221C138.941 56.6221 139.519 56.6221 140.291 56.6221V57.0021L139.327 57.3821C139.134 57.3821 139.134 57.5721 139.134 57.5721C139.134 57.9521 139.134 58.3321 139.134 58.9021V67.2621H138.169L132.188 59.8521C131.995 59.6621 131.802 59.2821 131.609 59.0921C131.609 59.4721 131.609 59.8521 131.609 60.0421V64.7921C131.802 65.3621 131.802 65.7421 131.802 66.3121Z" fill="white"/>
<path d="M88.198 166.253C88.198 166.253 79.9016 155.803 60.8007 153.713C42.2786 150.483 19.5119 131.863 12.952 103.553C5.62038 75.8125 16.039 45.0323 29.9306 29.8322C43.8221 14.0622 57.1349 10.6421 56.749 10.4521C57.1349 10.8322 44.0151 14.6322 30.5094 30.4022C17.0037 45.6023 6.97094 76.0025 14.4955 102.983C21.0554 130.533 43.4363 148.203 61.3795 151.243C65.6242 151.623 69.4829 152.383 72.9558 153.523C73.9205 153.903 74.8852 154.093 75.8499 154.473L84.7251 158.843C88.7768 161.503 90.7061 163.593 90.7061 163.593L88.198 166.253Z" fill="#D7B46A"/>
<path d="M55.0124 136.422C55.0124 136.422 60.2218 137.942 61.9582 142.502C64.2735 148.202 63.5017 153.142 63.5017 153.142C63.5017 153.142 58.2924 150.482 56.363 147.442C53.8548 143.262 55.0124 136.422 55.0124 136.422Z" fill="#D7B46A"/>
<path d="M46.5231 162.833C46.5231 162.833 51.7324 164.163 55.5912 161.313C60.2217 157.513 61.9581 152.953 61.9581 152.953C61.9581 152.953 56.17 152.383 53.083 154.093C48.8383 156.373 46.5231 162.833 46.5231 162.833Z" fill="#D7B46A"/>
<path d="M46.7159 132.052C46.7159 132.052 51.5394 134.523 52.5041 139.273C53.8547 145.163 52.3112 149.913 52.3112 149.913C52.3112 149.913 47.6806 146.303 46.3301 143.073C44.7866 138.513 46.7159 132.052 46.7159 132.052Z" fill="#D7B46A"/>
<path d="M34.754 156.183C34.754 156.183 39.5775 158.463 43.6292 156.373C48.6456 153.713 50.9608 149.343 50.9608 149.343C50.9608 149.343 45.5586 147.823 42.2786 148.773C38.034 150.293 34.754 156.183 34.754 156.183Z" fill="#D7B46A"/>
<path d="M39.3843 126.163C39.3843 126.163 43.629 129.583 43.8219 134.333C44.2078 140.413 42.0854 144.593 42.0854 144.593C42.0854 144.593 38.2267 140.223 37.4549 136.803C36.4902 132.053 39.3843 126.163 39.3843 126.163Z" fill="#D7B46A"/>
<path d="M24.3352 147.253C24.3352 147.253 28.5798 150.483 32.8245 149.153C38.0338 147.443 40.9279 143.833 40.9279 143.833C40.9279 143.833 35.9115 141.173 32.8245 141.553C28.194 142.123 24.3352 147.253 24.3352 147.253Z" fill="#D7B46A"/>
<path d="M33.0174 118.752C33.0174 118.752 36.4902 122.932 36.1044 127.682C35.5256 133.573 32.8244 137.373 32.8244 137.373C32.8244 137.373 29.7374 132.433 29.5445 128.822C29.3515 123.882 33.0174 118.752 33.0174 118.752Z" fill="#D7B46A"/>
<path d="M15.46 136.423C15.46 136.423 19.1258 140.413 23.1775 139.843C28.3868 139.273 31.6668 136.233 31.6668 136.233C31.6668 136.233 27.2292 132.813 24.1422 132.433C19.8975 132.243 15.46 136.423 15.46 136.423Z" fill="#D7B46A"/>
<path d="M28.001 110.202C28.001 110.202 30.7021 114.952 29.5445 119.512C28.1939 125.212 24.914 128.252 24.914 128.252C24.914 128.252 22.7916 122.742 22.9846 119.322C23.7563 114.382 28.001 110.202 28.001 110.202Z" fill="#D7B46A"/>
<path d="M8.51428 123.883C8.51428 123.883 11.4084 128.443 15.4601 128.823C20.4765 129.203 24.1423 126.923 24.1423 126.923C24.1423 126.923 20.4765 122.743 17.5824 121.793C13.5307 120.652 8.51428 123.883 8.51428 123.883Z" fill="#D7B46A"/>
<path d="M24.3351 100.703C24.3351 100.703 26.2645 105.833 24.5281 110.013C22.4057 115.333 18.9329 117.803 18.9329 117.803C18.9329 117.803 17.5823 112.103 18.547 108.683C19.7046 103.933 24.3351 100.703 24.3351 100.703Z" fill="#D7B46A"/>
<path d="M3.6908 110.203C3.6908 110.203 5.81312 115.143 9.67188 116.283C14.4953 117.613 18.3541 116.093 18.3541 116.093C18.3541 116.093 15.46 111.153 12.7589 109.823C8.90013 108.113 3.6908 110.203 3.6908 110.203Z" fill="#D7B46A"/>
<path d="M22.2129 90.6323C22.2129 90.6323 23.1776 95.9523 21.0553 99.7524C18.1612 104.502 14.4954 106.212 14.4954 106.212C14.4954 106.212 14.1095 100.132 15.4601 97.0924C17.1965 92.9123 22.2129 90.6323 22.2129 90.6323Z" fill="#D7B46A"/>
<path d="M0.989624 95.9521C0.989624 95.9521 2.14725 101.272 5.81308 102.982C10.0577 105.262 14.1094 104.502 14.1094 104.502C14.1094 104.502 11.9871 99.1821 9.67184 97.2821C6.39189 94.8121 0.989624 95.9521 0.989624 95.9521Z" fill="#D7B46A"/>
<path d="M21.8272 79.9922C21.8272 79.9922 22.0201 85.3122 19.319 88.5422C15.8461 92.5322 11.9873 93.4823 11.9873 93.4823C11.9873 93.4823 12.5661 87.7822 14.3026 84.9322C16.6178 81.3222 21.8272 79.9922 21.8272 79.9922Z" fill="#D7B46A"/>
<path d="M0.604004 81.1321C0.604004 81.1321 0.98988 86.4521 4.07689 88.9221C7.93566 91.9621 11.7944 91.9621 11.7944 91.9621C11.7944 91.9621 10.6368 86.4521 8.70741 84.1721C5.81334 81.1321 0.604004 81.1321 0.604004 81.1321Z" fill="#D7B46A"/>
<path d="M22.7918 69.1619C22.7918 69.1619 22.213 74.4819 19.126 77.1419C15.2672 80.3719 11.4084 80.5619 11.4084 80.5619C11.4084 80.5619 12.759 75.0519 14.8813 72.7719C17.5825 69.3519 22.7918 69.1619 22.7918 69.1619Z" fill="#D7B46A"/>
<path d="M2.34009 66.1221C2.34009 66.1221 1.95421 71.4421 4.46241 74.4821C7.74236 78.2821 11.4082 79.0421 11.4082 79.0421C11.4082 79.0421 11.2152 73.3421 9.67174 70.8721C7.54942 67.0721 2.34009 66.1221 2.34009 66.1221Z" fill="#D7B46A"/>
<path d="M25.4928 58.3322C25.4928 58.3322 24.1423 63.2722 20.6694 65.3622C16.4247 67.8322 12.7589 67.2622 12.7589 67.2622C12.7589 67.2622 14.8812 62.1322 17.1965 60.2322C20.4764 57.5722 25.4928 58.3322 25.4928 58.3322Z" fill="#D7B46A"/>
<path d="M6.3919 51.4922C6.3919 51.4922 5.23427 56.6222 7.16366 60.0422C9.67185 64.4123 13.1447 65.7423 13.1447 65.7423C13.1447 65.7423 13.7236 60.2322 12.5659 57.3822C11.2154 53.3922 6.3919 51.4922 6.3919 51.4922Z" fill="#D7B46A"/>
<path d="M29.9304 48.2621C29.9304 48.2621 27.8081 52.8221 24.3352 54.1521C19.8976 55.6721 16.6177 54.3421 16.6177 54.3421C16.6177 54.3421 19.3188 49.7821 21.827 48.4521C25.107 46.5521 29.9304 48.2621 29.9304 48.2621Z" fill="#D7B46A"/>
<path d="M12.566 37.8118C12.566 37.8118 10.6366 42.5618 11.9872 46.1718C13.7236 50.9218 16.8106 52.8218 16.8106 52.8218C16.8106 52.8218 18.1612 47.5018 17.5824 44.6518C16.8106 40.6618 12.566 37.8118 12.566 37.8118Z" fill="#D7B46A"/>
<path d="M35.7185 39.1419C35.7185 39.1419 33.0174 43.3219 29.5445 43.7019C25.1069 44.2719 22.0199 42.3719 22.0199 42.3719C22.0199 42.3719 25.2998 38.5719 28.001 37.6219C31.4739 36.4819 35.7185 39.1419 35.7185 39.1419Z" fill="#D7B46A"/>
<path d="M20.8622 25.6519C20.8622 25.6519 18.354 29.8319 19.1258 33.8219C20.0905 38.7619 22.7916 41.2319 22.7916 41.2319C22.7916 41.2319 24.9139 36.2919 24.721 33.4419C24.3351 29.0719 20.8622 25.6519 20.8622 25.6519Z" fill="#D7B46A"/>
<path d="M42.6642 31.1621C42.6642 31.1621 39.5772 34.5821 36.1043 34.3921C31.6668 34.2021 29.1586 31.7321 29.1586 31.7321C29.1586 31.7321 33.0173 28.6921 35.5255 28.3121C38.9984 27.9321 42.6642 31.1621 42.6642 31.1621Z" fill="#D7B46A"/>
<path d="M30.5091 15.2019C30.5091 15.2019 27.4221 18.8119 27.615 22.8019C27.8079 27.742 29.9303 30.782 29.9303 30.782C29.9303 30.782 32.6314 26.412 33.0173 23.5619C33.4032 19.3819 30.5091 15.2019 30.5091 15.2019Z" fill="#D7B46A"/>
<path d="M50.768 24.8922C50.768 24.8922 47.2951 27.7422 44.0152 26.7922C39.9635 25.6522 37.6482 22.8022 37.6482 22.8022C37.6482 22.8022 41.6999 20.5222 44.2081 20.7122C47.681 20.9022 50.768 24.8922 50.768 24.8922Z" fill="#D7B46A"/>
<path d="M41.5067 6.84204C41.5067 6.84204 38.0338 9.69206 37.6479 13.6821C37.0691 18.6221 38.6126 21.8521 38.6126 21.8521C38.6126 21.8521 41.8926 18.2421 42.6643 15.3921C43.629 11.4021 41.5067 6.84204 41.5067 6.84204Z" fill="#D7B46A"/>
<path d="M59.45 20.1422C59.45 20.1422 55.5913 22.2322 52.6972 20.7122C48.8384 18.8122 47.2949 15.5822 47.2949 15.5822C47.2949 15.5822 51.5396 14.0622 53.8548 14.8222C57.1348 15.7722 59.45 20.1422 59.45 20.1422Z" fill="#D7B46A"/>
<path d="M53.2759 0.761719C53.2759 0.761719 49.6101 2.85173 48.4525 6.65175C47.2948 11.2118 48.2595 14.8218 48.2595 14.8218C48.2595 14.8218 51.9254 11.9718 53.083 9.31176C54.6265 5.70174 53.2759 0.761719 53.2759 0.761719Z" fill="#D7B46A"/>
<path d="M53.6619 11.972C53.6619 11.972 56.5559 13.492 59.0641 12.352C62.1511 10.832 63.6947 8.36197 63.6947 8.36197C63.6947 8.36197 60.4147 7.03197 58.4853 7.60197C55.7842 8.36197 53.6619 11.972 53.6619 11.972Z" fill="#D7B46A"/>
<path d="M107.685 166.253C107.685 166.253 115.981 155.803 135.082 153.713C153.604 150.483 176.371 131.863 182.931 103.743C190.262 75.8125 179.843 45.0323 165.952 30.0222C152.06 14.0622 138.941 10.6421 139.134 10.4521C138.748 10.8322 151.867 14.6322 165.373 30.4022C178.879 45.6023 188.912 76.0025 181.387 102.983C174.827 130.533 152.446 148.203 134.503 151.243C130.258 151.623 126.4 152.383 122.927 153.523C121.962 153.903 120.997 154.093 120.033 154.473L111.157 158.843C107.106 161.503 105.176 163.593 105.176 163.593L107.685 166.253Z" fill="#D7B46A"/>
<path d="M141.063 136.422C141.063 136.422 135.853 137.942 134.117 142.502C131.802 148.202 132.573 153.142 132.573 153.142C132.573 153.142 137.783 150.482 139.712 147.442C142.027 143.262 141.063 136.422 141.063 136.422Z" fill="#D7B46A"/>
<path d="M149.359 162.833C149.359 162.833 144.15 164.163 140.291 161.313C135.661 157.513 133.924 152.953 133.924 152.953C133.924 152.953 139.712 152.383 142.799 154.093C147.044 156.373 149.359 162.833 149.359 162.833Z" fill="#D7B46A"/>
<path d="M149.166 132.052C149.166 132.052 144.343 134.523 143.378 139.273C142.028 145.163 143.571 149.913 143.571 149.913C143.571 149.913 148.202 146.303 149.552 143.073C151.289 138.513 149.166 132.052 149.166 132.052Z" fill="#D7B46A"/>
<path d="M161.128 156.183C161.128 156.183 156.305 158.463 152.253 156.373C147.237 153.713 144.922 149.343 144.922 149.343C144.922 149.343 150.324 147.823 153.604 148.773C158.041 150.293 161.128 156.183 161.128 156.183Z" fill="#D7B46A"/>
<path d="M156.498 126.163C156.498 126.163 152.253 129.583 152.06 134.333C151.674 140.413 153.797 144.593 153.797 144.593C153.797 144.593 157.656 140.223 158.427 136.803C159.585 132.053 156.498 126.163 156.498 126.163Z" fill="#D7B46A"/>
<path d="M171.74 147.253C171.74 147.253 167.495 150.483 163.251 149.153C158.041 147.443 155.147 143.833 155.147 143.833C155.147 143.833 160.164 141.173 163.251 141.553C167.688 142.123 171.74 147.253 171.74 147.253Z" fill="#D7B46A"/>
<path d="M162.865 118.752C162.865 118.752 159.392 122.932 159.778 127.682C160.357 133.573 163.058 137.373 163.058 137.373C163.058 137.373 166.145 132.433 166.338 128.822C166.531 123.882 162.865 118.752 162.865 118.752Z" fill="#D7B46A"/>
<path d="M180.422 136.423C180.422 136.423 176.756 140.413 172.705 139.843C167.495 139.273 164.215 136.233 164.215 136.233C164.215 136.233 168.653 132.813 171.74 132.433C175.985 132.243 180.422 136.423 180.422 136.423Z" fill="#D7B46A"/>
<path d="M167.881 110.202C167.881 110.202 165.18 114.952 166.338 119.512C167.688 125.212 170.968 128.252 170.968 128.252C170.968 128.252 173.091 122.742 172.898 119.322C172.319 114.382 167.881 110.202 167.881 110.202Z" fill="#D7B46A"/>
<path d="M187.561 123.883C187.561 123.883 184.667 128.443 180.615 128.823C175.406 129.203 171.933 126.923 171.933 126.923C171.933 126.923 175.599 122.743 178.493 121.793C182.545 120.652 187.561 123.883 187.561 123.883Z" fill="#D7B46A"/>
<path d="M171.547 100.703C171.547 100.703 169.618 105.833 171.354 110.013C173.477 115.333 176.949 117.803 176.949 117.803C176.949 117.803 178.3 112.103 177.335 108.683C176.371 103.933 171.547 100.703 171.547 100.703Z" fill="#D7B46A"/>
<path d="M192.384 110.203C192.384 110.203 190.262 115.143 186.403 116.283C181.58 117.613 177.721 116.093 177.721 116.093C177.721 116.093 180.615 111.153 183.316 109.823C186.982 108.113 192.384 110.203 192.384 110.203Z" fill="#D7B46A"/>
<path d="M173.669 90.6323C173.669 90.6323 172.705 95.9523 175.02 99.7524C177.914 104.502 181.58 106.212 181.58 106.212C181.58 106.212 181.966 100.322 180.615 97.2824C178.686 92.9123 173.669 90.6323 173.669 90.6323Z" fill="#D7B46A"/>
<path d="M194.893 95.9521C194.893 95.9521 193.735 101.272 190.069 102.982C185.825 105.262 181.966 104.502 181.966 104.502C181.966 104.502 184.088 99.1821 186.403 97.2821C189.683 94.8121 194.893 95.9521 194.893 95.9521Z" fill="#D7B46A"/>
<path d="M174.248 79.9922C174.248 79.9922 174.055 85.3122 176.756 88.5422C180.229 92.5322 184.088 93.4823 184.088 93.4823C184.088 93.4823 183.509 87.7822 181.773 84.9322C179.458 81.3222 174.248 79.9922 174.248 79.9922Z" fill="#D7B46A"/>
<path d="M195.279 81.1321C195.279 81.1321 194.893 86.4521 191.806 88.9221C187.947 91.9621 184.088 91.9621 184.088 91.9621C184.088 91.9621 185.246 86.4521 187.175 84.1721C190.069 81.1321 195.279 81.1321 195.279 81.1321Z" fill="#D7B46A"/>
<path d="M173.091 69.1619C173.091 69.1619 173.669 74.4819 176.756 77.1419C180.615 80.3719 184.474 80.5619 184.474 80.5619C184.474 80.5619 183.123 75.0519 181.001 72.7719C178.3 69.3519 173.091 69.1619 173.091 69.1619Z" fill="#D7B46A"/>
<path d="M193.542 66.1221C193.542 66.1221 193.928 71.4421 191.42 74.4821C188.14 78.2821 184.474 79.0421 184.474 79.0421C184.474 79.0421 184.667 73.3421 186.21 70.8721C188.526 67.0721 193.542 66.1221 193.542 66.1221Z" fill="#D7B46A"/>
<path d="M170.39 58.3322C170.39 58.3322 171.74 63.2722 175.213 65.3622C179.458 67.8322 183.123 67.2622 183.123 67.2622C183.123 67.2622 181.001 62.1322 178.686 60.2322C175.406 57.5722 170.39 58.3322 170.39 58.3322Z" fill="#D7B46A"/>
<path d="M189.49 51.4922C189.49 51.4922 190.648 56.6222 188.719 60.0422C186.21 64.4123 182.737 65.7423 182.737 65.7423C182.737 65.7423 182.159 60.2322 183.316 57.3822C184.86 53.3922 189.49 51.4922 189.49 51.4922Z" fill="#D7B46A"/>
<path d="M166.145 48.2621C166.145 48.2621 168.267 52.8221 171.74 54.1521C176.178 55.6721 179.458 54.3421 179.458 54.3421C179.458 54.3421 176.756 49.7821 174.248 48.4521C170.775 46.5521 166.145 48.2621 166.145 48.2621Z" fill="#D7B46A"/>
<path d="M183.316 37.8118C183.316 37.8118 185.246 42.5618 183.895 46.1718C182.159 50.9218 179.072 52.8218 179.072 52.8218C179.072 52.8218 177.721 47.5018 178.3 44.6518C179.072 40.6618 183.316 37.8118 183.316 37.8118Z" fill="#D7B46A"/>
<path d="M160.357 39.1419C160.357 39.1419 163.058 43.3219 166.531 43.7019C170.968 44.2719 174.055 42.3719 174.055 42.3719C174.055 42.3719 170.775 38.5719 168.074 37.6219C164.408 36.4819 160.357 39.1419 160.357 39.1419Z" fill="#D7B46A"/>
<path d="M175.213 25.6519C175.213 25.6519 177.721 29.8319 176.949 33.8219C175.985 38.7619 173.284 41.2319 173.284 41.2319C173.284 41.2319 171.161 36.2919 171.354 33.4419C171.547 29.0719 175.213 25.6519 175.213 25.6519Z" fill="#D7B46A"/>
<path d="M153.218 31.1621C153.218 31.1621 156.305 34.5821 159.778 34.3921C164.215 34.2021 166.724 31.7321 166.724 31.7321C166.724 31.7321 162.865 28.6921 160.357 28.3121C156.884 27.9321 153.218 31.1621 153.218 31.1621Z" fill="#D7B46A"/>
<path d="M165.566 15.2019C165.566 15.2019 168.653 18.8119 168.46 22.8019C168.267 27.742 166.145 30.782 166.145 30.782C166.145 30.782 163.444 26.412 163.058 23.5619C162.479 19.3819 165.566 15.2019 165.566 15.2019Z" fill="#D7B46A"/>
<path d="M145.115 24.8922C145.115 24.8922 148.588 27.7422 152.06 26.7922C156.112 25.6522 158.427 22.8022 158.427 22.8022C158.427 22.8022 154.376 20.5222 151.867 20.7122C148.202 20.9022 145.115 24.8922 145.115 24.8922Z" fill="#D7B46A"/>
<path d="M154.568 6.84204C154.568 6.84204 158.041 9.69206 158.427 13.6821C159.006 18.6221 157.463 21.8521 157.463 21.8521C157.463 21.8521 154.183 18.2421 153.411 15.3921C152.446 11.4021 154.568 6.84204 154.568 6.84204Z" fill="#D7B46A"/>
<path d="M136.625 20.1422C136.625 20.1422 140.484 22.2322 143.378 20.7122C147.237 18.8122 148.78 15.5822 148.78 15.5822C148.78 15.5822 144.536 14.0622 142.22 14.8222C138.748 15.7722 136.625 20.1422 136.625 20.1422Z" fill="#D7B46A"/>
<path d="M142.799 0.761719C142.799 0.761719 146.465 2.85173 147.43 6.65175C148.587 11.2118 147.623 14.8218 147.623 14.8218C147.623 14.8218 143.957 11.9718 142.799 9.31176C141.449 5.70174 142.799 0.761719 142.799 0.761719Z" fill="#D7B46A"/>
<path d="M142.221 11.972C142.221 11.972 139.326 13.492 136.818 12.352C133.731 10.832 132.188 8.36197 132.188 8.36197C132.188 8.36197 135.661 7.03197 137.59 7.60197C140.291 8.36197 142.221 11.972 142.221 11.972Z" fill="#D7B46A"/>
<path d="M76.8143 82.6522C76.6214 82.6522 76.4285 82.6522 76.2355 82.2722C76.2355 82.2722 74.1132 81.3222 75.8496 79.9922C77.5861 78.6622 78.1649 80.9422 77.3931 81.5122C77.3931 81.5122 77.3931 80.5622 76.4285 80.9422C75.4638 81.3222 76.8143 82.0822 77.3931 81.8922C79.7084 79.4222 85.3036 76.1922 95.7223 78.4722C108.649 81.3222 110.771 81.5122 113.28 83.4122C114.051 83.9822 114.63 84.5522 115.209 85.3122C115.595 85.3122 116.174 85.5022 116.753 85.6922C118.682 86.4522 121.383 86.2622 121.383 86.4522C121.769 87.5922 118.875 88.5423 117.331 88.9223C117.524 89.6823 117.717 90.4423 117.91 91.0123C118.103 93.1023 121.576 95.0023 121.962 94.4323C121.962 94.4323 121.769 96.7123 120.611 97.0923C119.454 97.4723 118.489 97.0923 118.296 96.9023C118.103 96.7123 117.138 95.7623 116.367 95.5723C115.595 95.3823 117.524 96.3323 117.91 96.9023C118.103 97.4723 117.524 97.6623 117.138 97.8523C116.753 97.8523 113.666 98.4223 112.122 97.8523C110.579 97.2823 109.421 96.3323 108.456 95.7623C107.492 95.3823 106.334 95.3823 106.141 96.7123C106.141 98.0423 107.106 100.512 107.684 101.652C108.07 102.222 108.263 102.412 108.263 102.602C108.649 103.172 109.421 104.312 108.07 103.932C107.299 103.742 106.527 103.362 106.141 102.792C105.948 102.602 105.948 102.222 105.562 102.032C105.369 102.032 105.176 102.602 105.176 102.602L104.404 103.362C104.404 103.362 104.404 102.792 104.404 101.272C104.404 99.7523 104.019 99.5623 103.826 99.1823C103.633 98.8023 103.633 98.0423 103.633 98.0423C103.633 98.0423 103.44 98.2323 103.247 98.4223C102.861 98.9923 102.282 99.9423 101.896 100.892C101.703 101.652 101.703 102.412 101.896 103.172C101.896 103.362 101.896 103.362 101.896 103.552C101.896 103.552 102.089 103.742 102.089 103.932C102.861 105.262 103.247 106.022 102.861 106.212C102.475 106.402 101.125 106.402 100.932 105.642C100.546 104.882 100.546 104.122 100.546 103.932C100.546 103.742 99.9669 103.742 99.774 103.552C99.581 103.362 99.9669 97.8523 100.16 96.5223C100.16 96.3323 99.9669 96.1423 99.9669 96.1423C99.9669 96.3323 99.9669 96.9023 94.1788 97.0923C91.0918 97.2823 88.7765 97.0923 87.4259 96.9023C87.233 97.0923 87.233 97.4723 87.0401 97.8523C86.8471 98.4223 85.8824 98.6123 86.0754 99.3723C86.2683 100.132 85.4965 100.322 86.6542 102.032C87.8118 103.742 88.9694 104.882 88.9694 104.882C88.9694 104.882 87.8118 105.072 87.233 105.072C86.6542 104.882 86.4612 104.312 86.2683 103.932C86.0754 103.362 86.0754 103.362 85.6895 103.362C85.3036 103.362 85.3036 103.742 85.1107 103.742C84.9177 103.742 84.7248 102.602 84.146 101.652C83.5672 100.702 83.1813 100.322 82.9884 99.9423C82.7954 99.5623 82.6025 99.1823 82.6025 99.1823C82.6025 99.1823 81.8307 99.3723 81.2519 100.132C80.6731 100.892 79.9013 102.602 80.2872 103.552C80.6731 104.312 81.2519 105.642 81.4449 106.212C81.6378 106.782 81.059 106.782 80.866 106.782C80.4802 106.782 78.9366 106.592 78.9366 106.592C78.9366 106.592 78.9366 105.642 78.9366 105.262C78.9366 104.882 78.7437 105.262 78.3578 105.072C77.972 104.882 78.1649 104.312 78.3578 103.552C78.5508 102.792 78.5508 102.222 78.1649 101.462C77.779 100.512 77.972 100.322 78.3578 99.3723C78.9366 98.4223 79.7084 98.6123 79.5155 97.6623C79.5155 97.4723 79.5155 97.4723 79.5155 97.2823C79.5155 97.0923 79.3225 96.7123 79.3225 96.3323C78.5508 93.8623 78.3578 94.6223 76.8143 91.3923C75.2708 88.3522 75.0779 86.6422 76.2355 84.3622C76.4285 83.4122 76.6214 83.0322 76.8143 82.6522Z" fill="white"/>
<path d="M83.3744 130.533C83.3744 130.723 83.3744 130.913 83.3744 131.103C83.3744 131.293 83.3744 131.293 83.3744 131.483C83.3744 131.483 83.3744 131.673 83.5673 131.673L84.1461 131.863V132.053C83.7603 132.053 83.1815 132.053 82.6026 132.053C82.0238 132.053 81.638 132.053 81.2521 132.053V131.863L81.8309 131.673C81.8309 131.673 82.0238 131.673 82.0238 131.483C82.0238 131.293 82.0238 131.293 82.0238 131.103C82.0238 130.913 82.0238 130.723 82.0238 130.533V126.923C82.0238 126.733 82.0238 126.733 82.0238 126.543C82.0238 126.353 82.0238 126.353 82.0238 126.163C82.0238 126.163 82.0238 125.973 81.8309 125.973L81.2521 125.783V125.593C81.638 125.593 82.0238 125.593 82.4097 125.593C82.6026 125.593 82.9885 125.593 83.1815 125.593C83.3744 125.593 83.7603 125.593 83.9532 125.593C84.725 125.593 85.3038 125.783 85.8826 125.973C86.2685 126.163 86.4614 126.733 86.4614 127.113C86.4614 127.683 86.2685 128.253 85.8826 128.633C85.4967 129.013 84.9179 129.203 83.9532 129.203C83.7603 129.203 83.5673 129.203 83.1815 129.203V130.533H83.3744ZM83.3744 128.823C83.5673 128.823 83.7603 128.823 83.9532 128.823C84.3391 128.823 84.725 128.633 84.9179 128.443C85.1108 128.253 85.3038 127.873 85.3038 127.303C85.3038 126.923 85.1108 126.543 84.9179 126.353C84.532 126.163 84.3391 126.163 83.9532 126.163C83.7603 126.163 83.5673 126.163 83.3744 126.163V128.823Z" fill="#D7B46A"/>
<path d="M96.88 128.633C96.88 129.583 96.4942 130.533 95.9153 131.103C95.3365 131.673 94.3718 132.053 93.4071 132.053C92.4425 132.053 91.4778 131.673 90.8989 131.103C90.3201 130.533 90.1272 129.773 90.1272 128.823C90.1272 127.873 90.5131 126.923 91.0919 126.353C91.6707 125.783 92.6354 125.403 93.6001 125.403C94.5648 125.403 95.5295 125.593 96.1083 126.163C96.6871 126.923 96.88 127.683 96.88 128.633ZM91.6707 128.823C91.6707 129.773 91.8636 130.533 92.2495 130.913C92.6354 131.483 93.0213 131.673 93.6001 131.673C94.1789 131.673 94.7577 131.483 94.9507 130.913C95.3365 130.533 95.3365 129.773 95.3365 128.823C95.3365 127.873 95.1436 127.113 94.9507 126.733C94.5648 126.163 94.1789 125.973 93.4071 125.973C92.8283 125.973 92.2495 126.163 92.0566 126.733C91.8636 127.113 91.6707 127.873 91.6707 128.823Z" fill="#D7B46A"/>
<path d="M102.668 130.533C102.668 130.723 102.668 130.913 102.668 131.103C102.668 131.293 102.668 131.293 102.668 131.483C102.668 131.483 102.668 131.673 102.861 131.673L103.247 131.863V132.053C102.861 132.053 102.475 132.053 102.089 132.053C101.511 132.053 101.125 132.053 100.739 132.053V131.863L101.318 131.673C101.318 131.673 101.511 131.673 101.511 131.483C101.511 131.293 101.511 131.293 101.511 131.103C101.511 130.913 101.511 130.723 101.511 130.533V126.923C101.511 126.733 101.511 126.733 101.511 126.543C101.511 126.353 101.511 126.353 101.511 126.163C101.511 126.163 101.511 125.973 101.318 125.973L100.739 125.783V125.593C101.125 125.593 101.511 125.593 102.089 125.593C102.089 125.593 102.282 125.593 102.475 125.593C102.668 125.593 102.861 125.593 103.054 125.593C103.247 125.593 103.44 125.593 103.44 125.593C103.633 125.593 103.633 125.593 103.633 125.593C104.405 125.593 104.984 125.783 105.369 125.973C105.755 126.163 105.948 126.543 105.948 127.113C105.948 127.493 105.755 127.873 105.562 128.253C105.369 128.443 104.984 128.823 104.598 128.823C104.791 129.203 104.984 129.393 105.176 129.773C105.369 130.153 105.369 130.153 105.562 130.533C105.755 130.723 105.755 130.913 105.948 131.103C106.141 131.293 106.141 131.483 106.334 131.483C106.334 131.483 106.527 131.483 106.527 131.673H106.72H106.913H107.106V131.863C106.72 131.863 106.527 131.863 106.141 131.863C105.755 131.863 105.562 131.863 105.562 131.863C105.369 131.863 105.369 131.863 105.176 131.673C104.984 131.483 104.984 131.483 104.791 131.293C104.598 131.103 104.598 130.913 104.405 130.723C104.212 130.533 104.212 130.343 104.019 129.963C103.826 129.773 103.826 129.393 103.633 129.203C103.633 129.203 103.633 129.013 103.44 129.013C103.44 129.013 103.44 129.013 103.44 128.823C103.44 128.823 103.44 128.823 103.247 128.823H103.054V130.533H102.668ZM102.668 128.633C102.861 128.633 103.054 128.633 103.054 128.633C103.44 128.633 103.826 128.443 104.019 128.253C104.212 128.063 104.405 127.683 104.405 127.303C104.405 126.923 104.212 126.543 104.212 126.353C103.826 126.163 103.633 126.163 103.054 126.163H102.861H102.668V128.633Z" fill="#D7B46A"/>
<path d="M112.122 126.923V130.533C112.122 130.723 112.122 130.913 112.122 131.103C112.122 131.293 112.122 131.293 112.122 131.483C112.122 131.483 112.122 131.673 112.315 131.673L112.894 131.863V132.053C112.508 132.053 112.122 132.053 111.543 132.053C110.965 132.053 110.579 132.053 110.193 132.053V131.863L110.772 131.673C110.772 131.673 110.965 131.673 110.965 131.483C110.965 131.293 110.965 131.293 110.965 131.103C110.965 130.913 110.965 130.723 110.965 130.533V126.923C110.965 126.733 110.965 126.733 110.965 126.543C110.965 126.353 110.965 126.353 110.965 126.163C110.965 126.163 110.965 125.973 110.772 125.973L110.193 125.783V125.593C110.579 125.593 111.158 125.593 111.543 125.593C112.122 125.593 112.508 125.593 112.894 125.593V125.783L112.122 126.163C112.122 126.163 111.929 126.163 111.929 126.353C111.929 126.543 111.929 126.543 111.929 126.733C112.122 126.733 112.122 126.923 112.122 126.923ZM112.122 128.823L114.052 126.733C114.245 126.543 114.245 126.353 114.438 126.353V126.163C114.438 126.163 114.438 125.973 114.245 125.973L113.859 125.783V125.593C114.245 125.593 114.438 125.593 114.823 125.593C115.209 125.593 115.595 125.593 115.981 125.593V125.783L115.595 126.163C115.402 126.163 115.402 126.353 115.209 126.353C115.016 126.353 115.016 126.543 114.823 126.733L113.28 128.443L115.209 131.293C115.209 131.483 115.402 131.483 115.402 131.483L115.595 131.673L115.981 131.863V132.053C115.595 132.053 115.209 132.053 115.016 132.053C114.63 132.053 114.245 132.053 113.859 132.053C113.859 131.863 113.473 131.483 113.087 130.913L112.122 128.823Z" fill="#D7B46A"/>
</g>
<defs>
<clipPath id="clip0_557_1310">
<rect width="194.675" height="165.491" fill="white" transform="translate(0.604004 0.761719)"/>
</clipPath>
</defs>
</svg>
