<svg width="196" height="167" viewBox="0 0 196 167" fill="none" xmlns="http://www.w3.org/2000/svg">
<g clip-path="url(#clip0_557_1047)">
<path d="M146.968 43.7021C139.058 41.9921 114.169 26.412 98.7339 27.362C83.1059 26.412 58.6028 41.8021 50.4993 43.7021C44.9041 45.0321 40.0807 43.8921 40.0807 43.8921C46.0618 55.8622 46.6406 109.632 46.6406 109.632C48.1841 132.433 98.541 153.713 98.7339 153.713C98.7339 153.713 149.091 132.433 150.827 109.632C150.827 109.632 151.406 55.8622 157.387 43.8921C157.387 43.7021 152.564 44.8421 146.968 43.7021Z" fill="#D7B46A"/>
<path d="M142.724 47.692C135.392 45.982 112.818 31.9219 98.5409 32.8719C84.2635 31.9219 61.8827 46.172 54.551 47.692C49.5346 48.832 45.097 47.692 45.097 47.692C50.6923 58.5221 51.0781 107.732 51.0781 107.732C52.6216 128.632 98.5409 148.012 98.5409 148.012C98.5409 148.012 144.653 128.632 146.197 107.732C146.197 107.732 146.775 58.7121 152.178 47.692C152.371 47.882 147.933 48.832 142.724 47.692Z" fill="black"/>
<path d="M99.8916 35.9122C108.767 35.9122 120.729 41.6123 129.604 45.6023C134.235 47.8823 137.9 49.5923 140.216 49.9723C142.145 50.3523 144.074 50.5423 146.197 50.5423C147.161 50.5423 147.933 50.5423 148.512 50.5423C143.689 62.1324 143.11 104.883 143.11 106.783C141.759 125.593 101.628 143.263 98.541 144.593C95.2611 143.263 55.5158 126.163 54.1652 106.973C54.1652 105.073 53.5864 62.3223 48.763 50.7323C49.3418 50.7323 50.1135 50.7323 51.0782 50.7323C53.2005 50.7323 55.1299 50.5423 57.0593 50.1623C59.3746 49.5923 63.0404 47.8823 67.6709 45.7923C76.3531 41.6123 88.5082 36.1022 97.1904 36.1022C97.5763 36.1022 97.9622 36.1022 98.3481 36.1022C99.1198 36.1022 99.5057 35.9122 99.8916 35.9122ZM99.8916 35.5322C99.5057 35.5322 99.1198 35.5322 98.7339 35.5322C98.3481 35.5322 97.9622 35.5322 97.5763 35.5322C84.0706 35.5322 63.8121 48.2623 57.2522 49.7823C54.937 50.3523 53.0076 50.3523 51.2712 50.3523C49.3418 50.3523 48.1841 50.1623 48.1841 50.1623C53.3935 60.6123 53.9723 106.973 53.9723 106.973C55.3229 126.733 96.6116 144.403 98.9269 145.163C98.9269 145.163 142.531 126.733 143.881 106.973C143.881 106.973 144.46 60.6123 149.67 50.1623C149.67 50.1623 148.512 50.3523 146.583 50.3523C145.039 50.3523 142.917 50.1623 140.602 49.7823C133.656 48.2623 113.397 35.5322 99.8916 35.5322Z" fill="#D7B46A"/>
<path fill-rule="evenodd" clip-rule="evenodd" d="M98.7339 7.22192L100.47 12.922H106.644L101.628 16.532L103.557 22.232L98.7339 18.622L93.7175 22.232L95.6469 16.532L90.8234 12.922H96.8045L98.7339 7.22192Z" fill="#D7B46A"/>
<path fill-rule="evenodd" clip-rule="evenodd" d="M79.8261 14.0618L82.5272 17.6718L86.7718 16.3418L84.0707 19.9518L86.7718 23.5618L82.5272 22.2318L79.8261 25.8418V21.2818L75.5814 19.9518L79.8261 18.6218V14.0618Z" fill="#D7B46A"/>
<path fill-rule="evenodd" clip-rule="evenodd" d="M64.3909 20.522L67.2849 23.942L71.5296 22.232L69.2143 26.032L72.1084 29.452L67.6708 28.312L65.3556 32.112L64.9697 27.742L60.725 26.792L64.7767 25.082L64.3909 20.522Z" fill="#D7B46A"/>
<path fill-rule="evenodd" clip-rule="evenodd" d="M117.063 14.0618L114.362 17.6718L110.117 16.3418L112.818 19.9518L110.117 23.5618L114.362 22.2318L117.063 25.8418V21.2818L121.308 19.9518L117.063 18.6218V14.0618Z" fill="#D7B46A"/>
<path fill-rule="evenodd" clip-rule="evenodd" d="M132.498 20.522L129.604 23.942L125.359 22.232L127.675 26.032L124.781 29.452L129.218 28.312L131.533 32.112L131.919 27.742L136.164 26.792L132.112 25.082L132.498 20.522Z" fill="#D7B46A"/>
<path d="M80.2118 119.703C80.2118 119.133 80.2118 118.563 80.2118 118.183C80.2118 117.803 80.4047 117.613 80.5977 117.423C80.7906 117.423 80.7906 117.423 80.9835 117.423C80.9835 117.423 81.1765 117.423 81.1765 117.233C81.1765 117.233 81.1765 117.043 80.9835 117.043C80.5976 117.043 79.8259 117.043 79.44 117.043C79.0541 117.043 78.2824 117.043 77.7036 117.043C77.5106 117.043 77.5106 117.043 77.5106 117.233C77.5106 117.233 77.5106 117.423 77.7036 117.423C77.8965 117.423 78.0895 117.423 78.2824 117.423C78.6683 117.423 78.8612 117.803 78.8612 118.183V119.703V120.843C78.8612 121.033 78.8612 121.223 78.6683 121.223C78.2824 121.413 77.8965 121.413 77.5106 121.413C74.8095 121.413 73.0731 119.323 73.0731 116.663C73.0731 115.143 73.4589 114.193 74.2307 113.623C75.0024 112.863 75.9671 112.863 76.5459 112.863C77.8965 112.863 79.0541 113.433 79.44 113.813C79.8259 114.193 79.8259 114.573 79.8259 114.763C79.8259 114.763 79.8259 114.953 80.0188 114.953C80.2118 114.953 80.2118 114.953 80.2118 114.763C80.2118 113.243 80.2118 112.863 80.2118 112.673C80.2118 112.673 80.2118 112.483 80.0188 112.483C79.633 112.483 79.2471 112.483 79.0541 112.293C78.8612 112.293 77.7036 112.103 76.7389 112.103C75.7742 112.103 74.6166 112.103 73.266 112.863C72.1084 113.623 71.1437 114.953 71.1437 117.043C71.1437 120.463 73.8448 121.983 76.9318 121.983C77.8965 121.983 79.2471 121.793 80.0188 121.413C80.2118 121.413 80.2118 121.223 80.2118 121.033V119.703ZM86.9646 121.983C89.8587 121.983 91.5951 120.083 91.5951 117.613C91.5951 115.143 89.8587 113.623 86.9646 113.623C83.6847 113.623 82.3341 115.903 82.3341 117.803C82.3341 119.703 83.6847 121.983 86.9646 121.983ZM87.3505 121.413C85.2282 121.413 84.0705 119.703 84.0705 117.423C84.0705 114.763 85.614 114.193 86.7717 114.193C88.5081 114.193 90.0516 115.713 90.0516 117.993C89.8587 121.033 88.1222 121.413 87.3505 121.413ZM95.068 116.853C95.068 115.143 95.068 114.953 95.068 114.573C95.068 114.193 95.261 114.003 95.4539 114.003C95.6468 114.003 95.8398 114.003 95.8398 114.003C96.0327 114.003 96.0327 114.003 96.0327 113.813C96.0327 113.813 96.0327 113.623 95.8398 113.623C95.4539 113.623 94.4892 113.623 94.2963 113.623C93.9104 113.623 93.3316 113.623 92.7528 113.623C92.5598 113.623 92.5598 113.623 92.5598 113.813C92.5598 113.813 92.5598 114.003 92.7528 114.003C92.9457 114.003 92.9457 114.003 93.1386 114.003C93.5245 114.003 93.5245 114.193 93.5245 114.573C93.5245 114.953 93.5245 115.143 93.5245 116.853V118.753C93.5245 119.703 93.5245 120.653 93.5245 121.033C93.5245 121.413 93.3316 121.603 93.1386 121.603C93.1386 121.603 92.9457 121.603 92.7528 121.603C92.5598 121.603 92.5598 121.603 92.5598 121.793C92.5598 121.793 92.5598 121.983 92.7528 121.983C92.9457 121.983 93.3316 121.983 93.5245 121.983C93.7174 121.983 94.1033 121.983 94.1033 121.983C94.4892 121.983 95.068 121.983 95.6468 121.983C96.2256 121.983 96.8045 121.983 97.5762 121.983C98.155 121.983 98.155 121.983 98.348 121.603C98.348 121.223 98.5409 120.463 98.5409 120.463C98.5409 120.273 98.5409 120.273 98.348 120.273C98.348 120.273 98.155 120.273 98.155 120.463C98.155 120.653 97.9621 121.033 97.9621 121.033C97.7692 121.413 97.1903 121.413 96.6115 121.413C95.8398 121.413 95.261 121.413 95.068 121.223C94.8751 121.033 94.8751 120.273 94.8751 118.943V116.853H95.068ZM100.663 118.753C100.663 119.703 100.663 120.653 100.663 121.033C100.663 121.413 100.47 121.603 100.277 121.603C100.084 121.603 100.084 121.603 99.8915 121.603C99.6985 121.603 99.6985 121.603 99.6985 121.793C99.6985 121.793 99.6985 121.983 99.8915 121.983C100.084 121.983 100.47 121.983 100.663 121.983C100.856 121.983 101.242 121.983 101.242 121.983C101.435 121.983 102.014 121.983 102.4 121.983C102.786 121.983 103.364 121.983 103.75 121.983C105.873 121.983 107.03 121.223 107.416 120.653C107.995 120.083 108.574 118.943 108.574 117.613C108.574 116.283 107.995 115.523 107.609 114.953C106.451 113.813 104.522 113.813 103.171 113.813C102.4 113.813 101.628 113.813 101.435 113.813C101.049 113.813 100.47 113.813 99.8915 113.813C99.6985 113.813 99.6985 113.813 99.6985 114.003C99.6985 114.003 99.6985 114.193 99.8915 114.193C100.084 114.193 100.277 114.193 100.277 114.193C100.663 114.193 100.663 114.383 100.663 114.763C100.663 115.143 100.663 115.333 100.663 117.043V118.753ZM102.014 116.663V114.573C102.014 114.383 102.014 114.383 102.207 114.383C102.207 114.383 102.593 114.383 102.978 114.383C103.943 114.383 105.101 114.573 106.065 115.333C106.644 115.713 107.03 116.663 107.03 117.993C107.03 119.133 106.837 120.083 106.065 120.653C105.294 121.223 104.715 121.413 103.557 121.413C102.786 121.413 102.207 121.223 102.014 121.033C102.014 120.843 101.821 120.463 101.821 120.273C101.821 120.083 101.821 119.323 101.821 118.183V116.663H102.014ZM110.889 118.753C110.889 119.703 110.889 120.653 110.889 121.033C110.889 121.413 110.889 121.603 110.503 121.603C110.31 121.603 110.31 121.603 110.117 121.603C109.924 121.603 109.924 121.603 109.924 121.793C109.924 121.793 109.924 121.983 110.117 121.983C110.31 121.983 110.696 121.983 110.889 121.983C111.082 121.983 111.468 121.983 111.468 121.983C111.854 121.983 112.24 121.983 112.818 121.983C113.397 121.983 113.976 121.983 114.941 121.983C115.327 121.983 115.519 121.983 115.519 121.793C115.519 121.603 115.712 120.843 115.712 120.653C115.712 120.463 115.712 120.463 115.519 120.463C115.519 120.463 115.519 120.463 115.327 120.653C115.327 121.033 115.134 121.223 114.941 121.413C114.555 121.603 114.169 121.603 113.976 121.603C112.818 121.603 112.432 121.413 112.432 120.653V119.133V118.183V117.993C112.625 117.993 113.976 117.993 114.169 117.993C114.555 117.993 114.748 118.183 114.748 118.373C114.748 118.563 114.748 118.563 114.748 118.753C114.748 118.753 114.748 118.753 114.941 118.753L115.134 118.563C115.134 118.563 115.134 117.993 115.134 117.803C115.134 117.233 115.134 117.043 115.134 117.043V116.853C115.134 116.853 115.134 116.853 114.941 117.043C114.748 117.233 114.748 117.233 114.362 117.233C114.169 117.233 112.625 117.233 112.432 117.233C112.432 117.233 112.432 117.233 112.432 117.043V114.383V114.193C112.625 114.193 113.976 114.193 114.169 114.193C114.748 114.193 114.748 114.383 114.941 114.573C114.941 114.763 114.941 114.953 114.941 114.953V115.143L115.134 114.953C115.134 114.763 115.134 114.383 115.134 114.193C115.134 113.623 115.134 113.623 115.134 113.433V113.243H114.941C114.941 113.243 114.748 113.243 114.555 113.243H111.468C111.082 113.243 110.503 113.243 109.924 113.243C109.731 113.243 109.731 113.243 109.731 113.433C109.731 113.433 109.731 113.623 109.924 113.623C110.117 113.623 110.31 113.623 110.31 113.623C110.696 113.623 110.696 113.813 110.889 114.193V116.473V118.753ZM118.606 116.093C118.799 116.283 119.957 117.613 121.308 118.753C122.465 119.893 123.816 121.223 124.588 121.793C124.78 121.983 124.781 121.983 124.973 121.983C124.973 121.983 125.166 121.793 125.166 121.603L125.359 114.953C125.359 114.383 125.552 114.193 125.745 114.003C125.938 114.003 125.938 114.003 126.131 114.003C126.324 114.003 126.324 114.003 126.324 113.813C126.324 113.813 126.324 113.623 126.131 113.623C125.552 113.623 125.166 113.623 124.973 113.623C124.781 113.623 124.202 113.623 123.623 113.623C123.43 113.623 123.43 113.623 123.43 113.813C123.43 113.813 123.43 114.003 123.623 114.003C123.816 114.003 124.009 114.003 124.202 114.003C124.395 114.193 124.588 114.383 124.588 114.953L124.781 119.703C124.588 119.513 123.044 117.993 122.465 117.233C120.922 115.713 119.185 114.003 118.992 113.813C118.799 113.623 118.606 113.433 118.606 113.433C118.414 113.433 118.414 113.623 118.414 113.813L118.221 120.083C118.221 121.033 118.221 121.223 117.835 121.413C117.642 121.413 117.449 121.413 117.256 121.413C117.063 121.413 117.063 121.413 117.063 121.603C117.063 121.793 117.063 121.793 117.256 121.793C117.835 121.793 118.414 121.793 118.414 121.793C118.606 121.793 119.185 121.793 119.764 121.793C119.957 121.793 119.957 121.793 119.957 121.603C119.957 121.603 119.957 121.413 119.764 121.413C119.571 121.413 119.378 121.413 119.185 121.413C118.992 121.413 118.799 121.033 118.799 120.273L118.606 116.093Z" fill="#D7B46A"/>
<path d="M68.2497 62.1319C68.4426 62.1319 68.4426 62.1319 68.4426 62.3219L70.372 67.072C70.5649 67.262 70.372 67.642 70.1791 67.642C69.9861 67.642 69.7932 67.642 69.7932 67.832C69.7932 68.022 69.9861 68.022 70.5649 68.022C72.4943 68.022 74.0378 68.022 75.0025 68.022C75.7743 68.022 76.1601 68.022 76.1601 67.832C76.1601 67.642 75.9672 67.642 75.7743 67.642C75.5813 67.642 75.1955 67.6419 74.8096 67.4519C74.4237 67.2619 73.6519 67.0719 72.6873 64.9819C71.1438 61.5619 67.4779 52.2519 66.8991 50.9219C66.5132 50.5419 66.5132 50.1619 66.3203 50.1619C66.1274 50.1619 65.9344 50.3519 65.7415 51.1119L59.9533 65.3619C59.5675 66.5019 58.9886 67.2619 58.024 67.4519C57.831 67.4519 57.4451 67.4519 57.2522 67.4519C57.0593 67.4519 57.0593 67.452 57.0593 67.642C57.0593 67.832 57.2522 67.832 57.4451 67.832C58.6028 67.832 59.9533 67.832 60.1463 67.832C60.918 67.832 61.8827 67.832 62.6545 67.832C62.8474 67.832 63.0403 67.832 63.0403 67.642C63.0403 67.452 63.0403 67.4519 62.6545 67.4519H62.2686C61.4968 67.4519 61.3039 67.072 61.3039 66.6919C61.3039 66.5019 61.4968 65.9319 61.6898 65.3619L63.0403 62.1319C63.0403 61.9419 63.0404 61.9419 63.2333 61.9419H68.2497V62.1319ZM63.4262 60.9919L65.5485 55.2919C65.5485 55.1019 65.5485 55.1019 65.7415 55.1019C65.9344 55.1019 65.9344 55.2919 65.9344 55.2919L68.0567 60.9919C68.0567 60.9919 68.0567 61.1819 67.8638 61.1819H63.4262V60.9919ZM78.8613 57.3819C79.2472 57.7619 81.5624 60.0419 83.6847 62.1319C85.8071 64.2219 88.3152 66.6919 89.6658 67.832C89.8588 68.022 90.2446 68.212 90.4376 68.212C90.6305 68.212 90.8234 68.022 90.8234 67.642L91.0164 55.2919C91.0164 54.1519 91.2093 53.7719 91.7881 53.5819C91.9811 53.5819 92.174 53.5819 92.367 53.5819C92.5599 53.5819 92.7528 53.5819 92.7528 53.3919C92.7528 53.2019 92.5599 53.2019 92.367 53.2019C91.4023 53.2019 90.6305 53.2019 90.4376 53.2019C90.0517 53.2019 88.8941 53.2019 87.9294 53.2019C87.5435 53.2019 87.3506 53.2019 87.3506 53.3919C87.3506 53.5819 87.3506 53.5819 87.7364 53.5819C87.9294 53.5819 88.5082 53.5819 88.7011 53.7719C89.2799 53.9619 89.4729 54.3419 89.4729 55.4819L89.6658 64.2219C89.2799 64.0319 86.5788 61.1819 85.2282 59.8519C82.3342 57.0019 79.2472 53.7719 78.8613 53.5819C78.4754 53.2019 78.2825 53.0119 77.8966 53.0119C77.7037 53.0119 77.5107 53.2019 77.5107 53.5819L77.3178 65.1719C77.3178 66.882 77.3178 67.4519 76.739 67.4519C76.546 67.4519 76.1601 67.642 75.7743 67.642C75.5813 67.642 75.3884 67.642 75.3884 67.832C75.3884 68.022 75.5813 68.022 75.7743 68.022C76.739 68.022 77.7037 68.022 77.8966 68.022C78.2825 68.022 79.2472 68.022 80.5977 68.022C80.7907 68.022 80.9836 68.022 80.9836 67.832C80.9836 67.642 80.7907 67.642 80.5977 67.642C80.2119 67.642 79.826 67.6419 79.4401 67.4519C79.0542 67.2619 78.8613 66.8819 78.6683 65.3619L78.8613 57.3819ZM109.538 64.6019C109.538 63.6519 109.538 62.8919 109.538 62.3219C109.538 61.5619 109.731 61.3719 110.31 61.1819C110.503 61.1819 110.696 61.1819 110.889 61.1819C111.082 61.1819 111.082 61.1819 111.082 60.9919C111.082 60.8019 110.889 60.8019 110.696 60.8019C109.924 60.8019 108.96 60.8019 108.381 60.8019C107.802 60.8019 106.259 60.8019 105.294 60.8019C105.101 60.8019 104.908 60.8019 104.908 60.9919C104.908 61.1819 105.101 61.1819 105.294 61.1819C105.487 61.1819 105.873 61.1819 106.066 61.1819C106.644 61.3719 106.837 61.5619 107.03 62.3219C107.03 62.8919 107.03 63.6519 107.03 64.6019V66.3119C107.03 66.6919 107.03 66.882 106.644 67.072C105.873 67.262 105.487 67.2619 105.101 67.2619C100.663 67.2619 97.9622 64.2219 97.9622 60.0419C97.9622 57.5719 98.7339 56.2419 99.8915 55.2919C101.242 54.1519 102.786 54.1519 103.75 54.1519C106.066 54.1519 107.609 55.1019 108.188 55.6719C108.767 56.2419 108.767 56.8119 108.96 57.1919C108.96 57.3819 108.96 57.3819 109.153 57.3819C109.346 57.3819 109.346 57.1919 109.346 57.0019C109.346 54.5319 109.538 53.9619 109.538 53.7719C109.538 53.5819 109.538 53.5819 109.346 53.5819C108.767 53.5819 108.188 53.3919 107.802 53.3919C107.416 53.2019 105.68 53.0119 104.136 53.0119C102.4 53.0119 100.663 53.2019 98.7339 54.3419C96.8045 55.4819 95.261 57.5719 95.261 60.8019C95.261 66.3119 99.6986 68.402 104.715 68.402C106.259 68.402 108.381 68.212 109.731 67.4519C109.924 67.2619 109.924 67.262 109.924 66.6919V64.6019H109.538ZM114.362 61.7519C114.362 64.6019 115.134 66.1219 116.291 66.8819C117.835 68.212 119.957 68.212 120.922 68.212C122.272 68.212 123.816 68.022 125.166 66.8819C126.903 65.5519 127.096 63.2719 127.096 60.9919V58.9019C127.096 55.8619 127.096 55.2919 127.096 54.7219C127.096 53.9619 127.289 53.7719 127.868 53.5819C128.061 53.5819 128.253 53.5819 128.446 53.5819C128.639 53.5819 128.832 53.5819 128.832 53.3919C128.832 53.2019 128.639 53.2019 128.446 53.2019C127.675 53.2019 126.324 53.2019 126.131 53.2019C126.131 53.2019 124.781 53.2019 123.623 53.2019C123.43 53.2019 123.237 53.2019 123.237 53.3919C123.237 53.5819 123.43 53.5819 123.623 53.5819C123.816 53.5819 124.202 53.5819 124.395 53.5819C124.974 53.7719 125.166 53.9619 125.166 54.7219C125.166 55.2919 125.166 55.8619 125.166 58.9019V61.3719C125.166 63.4619 125.166 65.1719 124.009 66.1219C123.237 66.882 122.079 67.072 121.308 67.072C120.536 67.072 119.571 67.0719 118.799 66.3119C117.835 65.5519 117.256 64.4119 117.256 61.5619V58.9019C117.256 55.8619 117.256 55.2919 117.256 54.7219C117.256 53.9619 117.449 53.7719 118.028 53.5819C118.221 53.5819 118.414 53.5819 118.607 53.5819C118.799 53.5819 118.992 53.5819 118.992 53.3919C118.992 53.2019 118.799 53.2019 118.607 53.2019C117.835 53.2019 116.484 53.2019 115.905 53.2019C115.327 53.2019 113.976 53.2019 112.818 53.2019C112.433 53.2019 112.433 53.2019 112.433 53.3919C112.433 53.5819 112.625 53.5819 112.818 53.5819C113.011 53.5819 113.397 53.5819 113.59 53.5819C114.169 53.7719 114.362 53.9619 114.555 54.7219C114.555 55.2919 114.555 55.8619 114.555 58.9019V61.7519H114.362ZM135.006 68.212C136.164 68.212 137.514 68.0219 138.479 67.4519C140.023 66.3119 140.602 65.1719 140.602 63.8419C140.602 62.1319 139.83 60.6119 137.129 59.0919L136.357 58.7119C134.427 57.7619 134.235 57.0019 134.235 56.0519C134.235 54.7219 135.585 53.9619 136.936 53.9619C138.286 53.9619 138.865 54.5319 139.251 54.9119C139.637 55.4819 139.83 56.0519 139.83 56.2419C139.83 56.4319 139.83 56.6219 140.023 56.6219C140.216 56.6219 140.216 56.4319 140.216 56.0519C140.216 54.5319 140.216 53.9619 140.216 53.7719C140.216 53.5819 140.023 53.5819 140.023 53.5819C139.444 53.3919 138.479 53.2019 137.129 53.2019C134.235 53.2019 131.919 54.7219 131.919 57.1919C131.919 58.9019 132.691 60.2319 135.199 61.5619L136.357 62.3219C138.093 63.4619 138.286 64.2219 138.286 65.1719C138.286 66.5019 137.129 67.642 135.392 67.642C134.042 67.642 132.498 67.072 132.112 65.7419C131.919 65.3619 131.919 64.9819 131.919 64.7919C131.919 64.6019 131.919 64.4119 131.726 64.4119C131.533 64.4119 131.533 64.6019 131.533 64.9819C131.533 65.3619 131.34 66.5019 131.34 67.642C131.34 68.022 131.34 68.212 131.726 68.212C132.691 68.212 133.849 68.212 135.006 68.212Z" fill="white"/>
<path d="M82.1412 129.203C82.1412 129.963 82.1412 130.533 82.1412 130.913C82.1412 131.103 82.1412 131.293 81.9483 131.293H81.7553C81.9483 131.293 82.1412 131.293 82.3341 131.293C82.5271 131.293 82.72 131.293 82.72 131.293C82.913 131.293 83.1059 131.293 83.2988 131.293C83.4918 131.293 83.6847 131.293 83.8776 131.293C85.4211 131.293 86 130.343 86 129.583C86 128.633 85.2282 128.063 84.6494 127.873C85.0353 127.493 85.4212 127.113 85.4212 126.543C85.4212 126.163 85.2282 125.403 83.6847 125.403C83.4918 125.403 83.1059 125.403 82.72 125.403C82.5271 125.403 82.1412 125.403 81.5624 125.403C81.7553 125.403 81.7553 125.403 81.9483 125.403C82.1412 125.403 82.3341 125.593 82.3341 125.783C82.3341 125.973 82.3341 126.163 82.3341 127.493V129.203H82.1412ZM83.1059 125.973C83.2988 125.783 83.2988 125.783 83.4918 125.783C84.2635 125.783 84.4565 126.543 84.4565 126.923C84.4565 127.303 84.2635 127.493 84.0706 127.683C83.8776 128.063 83.6847 128.063 83.4918 128.063C83.2988 128.063 83.1059 128.063 83.1059 128.063V125.973ZM84.8423 130.153C84.8423 130.913 84.2635 131.103 83.8776 131.103C83.6847 131.103 83.4918 131.103 83.2988 130.913C83.1059 130.723 83.1059 130.723 83.1059 130.153V128.253H83.4918C83.8776 128.253 84.0706 128.253 84.0706 128.443C84.6494 129.013 84.8423 129.773 84.8423 130.153ZM92.7528 129.203C92.7528 129.963 92.7528 130.533 92.7528 130.913C92.7528 131.103 92.7528 131.293 92.5599 131.293H92.3669C92.5599 131.293 92.7528 131.293 92.9457 131.293C93.1387 131.293 93.3316 131.293 93.3316 131.293C93.5246 131.293 93.9104 131.293 94.1034 131.293C94.4892 131.293 94.8751 131.293 95.4539 131.293C95.8398 131.293 95.8398 131.293 95.8398 131.103C95.8398 130.913 96.0328 130.343 96.0328 130.153V129.963C96.0328 129.963 96.0328 129.963 96.0328 130.153C96.0328 130.533 95.8398 130.723 95.6469 130.723C95.4539 130.913 95.0681 130.913 94.8751 130.913C94.1034 130.913 93.9104 130.723 93.9104 130.343C93.9104 130.153 93.9104 129.393 93.9104 129.203V128.633C94.1034 128.633 94.8751 128.633 95.0681 128.633C95.261 128.633 95.4539 128.823 95.4539 129.013C95.4539 129.013 95.4539 128.633 95.4539 128.443C95.4539 128.063 95.4539 127.873 95.4539 127.873C95.4539 127.873 95.4539 127.873 95.261 128.063C95.261 128.063 95.0681 128.063 94.8751 128.253C94.6822 128.253 93.7175 128.253 93.5245 128.253V126.353C93.7175 126.353 94.4892 126.353 94.6822 126.353C95.0681 126.353 95.0681 126.543 95.261 126.733V126.923V127.113C95.261 127.113 95.261 126.733 95.261 126.543C95.261 126.163 95.261 126.163 95.261 125.973C95.261 125.973 95.261 125.973 95.0681 125.973C95.0681 125.973 94.8751 125.973 94.6822 125.973H92.7528C92.5599 125.973 92.5599 125.973 92.174 125.973H91.5952C91.7881 125.973 91.7881 125.973 91.981 125.973C92.174 125.973 92.3669 126.163 92.3669 126.353C92.3669 126.543 92.3669 126.733 92.3669 128.063V129.203H92.7528ZM102.786 129.203C102.786 129.963 102.786 130.533 102.786 130.913C102.786 131.103 102.786 131.293 102.593 131.293H102.4C102.593 131.293 102.786 131.293 102.979 131.293C103.171 131.293 103.364 131.293 103.364 131.293C103.557 131.293 103.943 131.293 104.136 131.293C104.522 131.293 104.908 131.293 105.487 131.293C105.873 131.293 105.873 131.293 105.873 131.103C105.873 130.913 106.066 130.343 106.066 130.153V129.963C106.066 129.963 106.066 129.963 106.066 130.153C106.066 130.533 105.873 130.723 105.68 130.723C105.487 130.913 105.101 130.913 104.908 130.913C104.136 130.913 103.943 130.723 103.943 130.343V129.203V128.633C104.136 128.633 104.908 128.633 105.101 128.633C105.487 128.633 105.487 128.823 105.487 129.013C105.487 129.013 105.487 128.633 105.487 128.443C105.487 128.063 105.487 127.873 105.487 127.873C105.487 127.873 105.487 127.873 105.294 128.063C105.294 128.063 105.101 128.063 104.908 128.253C104.715 128.253 103.75 128.253 103.557 128.253V126.353C103.75 126.353 104.522 126.353 104.715 126.353C105.101 126.353 105.101 126.543 105.294 126.733V126.923V127.113C105.294 127.113 105.294 126.733 105.294 126.543C105.294 126.163 105.294 126.163 105.294 125.973C105.294 125.973 105.294 125.973 105.101 125.973C105.101 125.973 104.908 125.973 104.715 125.973H102.786C102.593 125.973 102.4 125.973 102.207 125.973H101.628C101.821 125.973 101.821 125.973 102.014 125.973C102.207 125.973 102.4 126.163 102.4 126.353C102.4 126.543 102.4 126.733 102.4 128.063V129.203H102.786ZM113.976 128.633C114.169 128.633 114.941 128.633 115.134 128.633C115.327 128.633 115.52 128.823 115.52 128.823V129.013V129.203C115.52 129.203 115.52 129.203 115.52 129.013C115.52 128.823 115.52 128.633 115.52 128.443C115.52 128.253 115.52 128.063 115.52 127.873C115.52 127.873 115.52 127.873 115.327 127.873C115.327 128.063 115.134 128.063 114.941 128.063C114.748 128.063 114.748 128.063 114.555 128.063H113.59V126.163V125.973H114.748C115.134 125.973 115.134 126.163 115.327 126.163C115.327 126.353 115.327 126.353 115.327 126.543V126.733C115.327 126.733 115.327 126.733 115.327 126.543V125.973C115.327 125.783 115.327 125.593 115.327 125.593C115.327 125.593 115.327 125.593 115.134 125.593C115.134 125.593 114.941 125.593 114.748 125.593H112.625C112.432 125.593 112.432 125.593 112.047 125.593H111.468C111.661 125.593 111.661 125.593 111.854 125.593C112.047 125.593 112.24 125.783 112.24 125.973C112.24 126.163 112.24 126.353 112.24 127.683V129.013C112.24 129.773 112.24 130.343 112.24 130.723C112.24 130.913 112.24 131.103 112.047 131.103H111.854H111.661C111.661 131.103 111.661 131.103 111.854 131.103C112.24 131.103 112.625 131.103 112.818 131.103C113.011 131.103 113.59 131.103 113.976 131.103C113.783 131.103 113.783 131.103 113.59 131.103C113.397 131.103 113.397 130.913 113.204 130.723C113.204 130.343 113.204 129.773 113.204 129.013V128.633H113.976Z" fill="#D7B46A"/>
<path fill-rule="evenodd" clip-rule="evenodd" d="M109.924 108.873C109.538 109.443 107.609 109.253 107.03 109.063C106.837 108.873 106.644 107.923 106.451 107.733C105.487 106.212 106.837 105.072 105.68 102.412C104.522 106.403 106.451 107.733 106.644 109.063C105.68 109.253 104.136 109.253 103.364 108.873C102.786 106.593 102.979 107.543 102.979 106.213C103.172 104.312 101.435 97.4725 101.435 97.4725C100.277 96.9025 98.3481 97.2825 96.8045 97.2825C96.0328 97.2825 95.261 97.2825 94.4893 97.4725C93.3317 97.8525 93.3317 97.6625 93.1387 98.0425C93.1387 98.0425 93.1387 98.2325 92.9458 98.4225C92.174 98.2325 91.4023 97.6625 90.4376 97.2825C86.9647 95.9524 85.0353 93.8624 82.3342 94.0524C81.5624 95.5724 82.3342 96.9025 80.9836 98.0425C80.7907 98.2325 80.5977 98.0425 80.4048 98.4225C79.633 100.322 81.3695 104.502 82.1412 106.403C82.5271 107.353 83.1059 107.733 83.2989 108.683C83.1059 109.063 82.1412 109.063 81.5624 108.873C80.4048 108.873 80.4048 109.063 79.826 108.493C79.4401 107.543 79.633 107.543 79.0542 107.163C79.4401 106.022 79.4401 106.212 79.0542 104.882C78.2825 102.602 77.8966 102.412 77.1248 100.702C76.9319 100.132 76.739 99.3725 76.3531 98.8025C75.7743 100.132 75.0025 102.032 74.6167 103.742C73.8449 107.923 75.0025 107.163 75.5813 108.873C75.3884 109.633 72.8802 109.063 72.6873 108.873C72.1085 106.973 71.9155 107.923 72.1085 107.163C72.3014 106.022 72.3014 105.452 72.3014 104.312C72.3014 102.032 72.3014 100.892 72.6873 98.8025C71.9155 98.9925 71.9155 99.3725 71.3367 99.5625C70.5649 97.8525 70.372 97.6625 70.565 95.3824C70.7579 93.8624 70.9508 92.3424 71.1438 91.0124C71.7226 88.1624 72.3014 85.3124 72.8802 82.4624C74.8096 73.3423 79.633 76.7624 90.4376 77.9024C91.7882 78.0924 93.3317 78.4724 94.8752 78.4724C98.1551 78.6624 101.242 78.4724 104.136 77.5224C104.908 77.3324 107.416 76.5724 107.995 76.1924C109.153 75.6223 109.538 74.6723 111.275 74.4823C113.204 74.1023 114.169 74.6723 115.905 74.6723C116.484 74.6723 117.256 74.2923 117.642 73.9123C119.764 72.3923 118.8 72.3923 120.343 73.5323C121.308 74.2923 122.465 74.4823 123.623 76.3824C124.588 77.9024 127.482 79.2324 127.482 80.5624C127.482 81.3224 127.096 81.3224 126.71 81.7024C126.324 82.0824 126.324 82.4624 125.552 82.6524C124.588 82.8424 124.781 82.4624 124.009 83.0324C119.571 85.8824 118.8 81.3224 114.941 91.7724C112.24 99.1825 110.889 97.4725 110.117 98.9925C109.924 99.7525 109.731 101.462 109.538 102.412C109.153 103.932 109.153 104.502 109.153 106.213C108.574 107.733 109.346 107.353 109.924 108.873Z" fill="white"/>
<path d="M88.3152 166.253C88.3152 166.253 80.0189 155.803 60.918 153.713C42.3959 150.483 19.6292 131.863 13.0693 103.553C5.73769 75.8125 16.1563 45.0323 30.0479 29.8322C43.9394 14.0622 57.2522 10.6421 56.8663 10.4521C57.2522 10.8322 44.1324 14.6322 30.6267 30.4022C17.121 45.6023 7.08825 76.0025 14.6128 102.983C21.1727 130.533 43.5536 148.203 61.4968 151.243C65.7415 151.623 69.6002 152.383 73.0731 153.523C74.0378 153.903 75.0025 154.093 75.9672 154.473L84.8423 158.843C88.8941 161.503 90.8234 163.593 90.8234 163.593L88.3152 166.253Z" fill="#D7B46A"/>
<path d="M55.1298 136.422C55.1298 136.422 60.3391 137.942 62.0756 142.502C64.3908 148.202 63.6191 153.142 63.6191 153.142C63.6191 153.142 58.4098 150.482 56.4804 147.442C53.9722 143.262 55.1298 136.422 55.1298 136.422Z" fill="#D7B46A"/>
<path d="M46.6406 162.833C46.6406 162.833 51.8499 164.163 55.7087 161.313C60.3392 157.513 62.0756 152.953 62.0756 152.953C62.0756 152.953 56.2875 152.383 53.2005 154.093C48.9558 156.373 46.6406 162.833 46.6406 162.833Z" fill="#D7B46A"/>
<path d="M46.8334 132.052C46.8334 132.052 51.6569 134.523 52.6216 139.273C53.9721 145.163 52.4286 149.913 52.4286 149.913C52.4286 149.913 47.7981 146.303 46.4476 143.073C44.9041 138.513 46.8334 132.052 46.8334 132.052Z" fill="#D7B46A"/>
<path d="M34.8713 156.183C34.8713 156.183 39.6947 158.463 43.7464 156.373C48.7628 153.713 51.0781 149.343 51.0781 149.343C51.0781 149.343 45.6758 147.823 42.3959 148.773C38.1512 150.293 34.8713 156.183 34.8713 156.183Z" fill="#D7B46A"/>
<path d="M39.5019 126.163C39.5019 126.163 43.7466 129.583 43.9395 134.333C44.3254 140.413 42.2031 144.593 42.2031 144.593C42.2031 144.593 38.3443 140.223 37.5725 136.803C36.6079 132.053 39.5019 126.163 39.5019 126.163Z" fill="#D7B46A"/>
<path d="M24.4526 147.253C24.4526 147.253 28.6973 150.483 32.9419 149.153C38.1512 147.443 41.0453 143.833 41.0453 143.833C41.0453 143.833 36.0289 141.173 32.9419 141.553C28.3114 142.123 24.4526 147.253 24.4526 147.253Z" fill="#D7B46A"/>
<path d="M33.135 118.752C33.135 118.752 36.6079 122.932 36.222 127.682C35.6432 133.573 32.942 137.373 32.942 137.373C32.942 137.373 29.855 132.433 29.6621 128.822C29.4691 123.882 33.135 118.752 33.135 118.752Z" fill="#D7B46A"/>
<path d="M15.5775 136.423C15.5775 136.423 19.2433 140.413 23.295 139.843C28.5044 139.273 31.7843 136.233 31.7843 136.233C31.7843 136.233 27.3467 132.813 24.2597 132.433C20.0151 132.243 15.5775 136.423 15.5775 136.423Z" fill="#D7B46A"/>
<path d="M28.1185 110.202C28.1185 110.202 30.8196 114.952 29.662 119.512C28.3115 125.212 25.0315 128.252 25.0315 128.252C25.0315 128.252 22.9092 122.742 23.1021 119.322C23.8739 114.382 28.1185 110.202 28.1185 110.202Z" fill="#D7B46A"/>
<path d="M8.63171 123.883C8.63171 123.883 11.5258 128.443 15.5775 128.823C20.5939 129.203 24.2597 126.923 24.2597 126.923C24.2597 126.923 20.5939 122.743 17.6998 121.793C13.6481 120.652 8.63171 123.883 8.63171 123.883Z" fill="#D7B46A"/>
<path d="M24.4527 100.703C24.4527 100.703 26.3821 105.833 24.6456 110.013C22.5233 115.333 19.0504 117.803 19.0504 117.803C19.0504 117.803 17.6998 112.103 18.6645 108.683C19.8222 103.933 24.4527 100.703 24.4527 100.703Z" fill="#D7B46A"/>
<path d="M3.80823 110.203C3.80823 110.203 5.93055 115.143 9.78931 116.283C14.6128 117.613 18.4715 116.093 18.4715 116.093C18.4715 116.093 15.5775 111.153 12.8763 109.823C9.01756 108.113 3.80823 110.203 3.80823 110.203Z" fill="#D7B46A"/>
<path d="M22.3304 90.6323C22.3304 90.6323 23.2951 95.9524 21.1728 99.7524C18.2787 104.502 14.6129 106.212 14.6129 106.212C14.6129 106.212 14.227 100.132 15.5776 97.0924C17.314 92.9123 22.3304 90.6323 22.3304 90.6323Z" fill="#D7B46A"/>
<path d="M1.10706 95.9521C1.10706 95.9521 2.26468 101.272 5.93051 102.982C10.1752 105.262 14.2269 104.502 14.2269 104.502C14.2269 104.502 12.1045 99.1821 9.78927 97.2821C6.50932 94.8121 1.10706 95.9521 1.10706 95.9521Z" fill="#D7B46A"/>
<path d="M21.9445 79.9922C21.9445 79.9922 22.1374 85.3122 19.4363 88.5422C15.9634 92.5322 12.1046 93.4822 12.1046 93.4822C12.1046 93.4822 12.6834 87.7822 14.4199 84.9322C16.7351 81.3222 21.9445 79.9922 21.9445 79.9922Z" fill="#D7B46A"/>
<path d="M0.721313 81.1321C0.721313 81.1321 1.10719 86.4521 4.1942 88.9221C8.05296 91.9621 11.9117 91.9621 11.9117 91.9621C11.9117 91.9621 10.7541 86.4521 8.82472 84.1721C5.93064 81.1321 0.721313 81.1321 0.721313 81.1321Z" fill="#D7B46A"/>
<path d="M22.9092 69.1621C22.9092 69.1621 22.3304 74.4821 19.2433 77.1421C15.3846 80.3722 11.5258 80.5622 11.5258 80.5622C11.5258 80.5622 12.8764 75.0521 14.9987 72.7721C17.6998 69.3521 22.9092 69.1621 22.9092 69.1621Z" fill="#D7B46A"/>
<path d="M2.4577 66.1221C2.4577 66.1221 2.07183 71.4421 4.58002 74.4821C7.85997 78.2821 11.5258 79.0421 11.5258 79.0421C11.5258 79.0421 11.3329 73.3421 9.78935 70.8721C7.66703 67.0721 2.4577 66.1221 2.4577 66.1221Z" fill="#D7B46A"/>
<path d="M25.6103 58.3322C25.6103 58.3322 24.2598 63.2722 20.7869 65.3622C16.5422 67.8322 12.8764 67.2622 12.8764 67.2622C12.8764 67.2622 14.9987 62.1322 17.314 60.2322C20.5939 57.5722 25.6103 58.3322 25.6103 58.3322Z" fill="#D7B46A"/>
<path d="M6.50946 51.4922C6.50946 51.4922 5.35183 56.6222 7.28121 60.0422C9.78941 64.4123 13.2623 65.7423 13.2623 65.7423C13.2623 65.7423 13.8411 60.2322 12.6835 57.3822C11.3329 53.3922 6.50946 51.4922 6.50946 51.4922Z" fill="#D7B46A"/>
<path d="M30.0479 48.2621C30.0479 48.2621 27.9256 52.8221 24.4527 54.1521C20.0151 55.6721 16.7352 54.3421 16.7352 54.3421C16.7352 54.3421 19.4363 49.7821 21.9445 48.4521C25.2244 46.5521 30.0479 48.2621 30.0479 48.2621Z" fill="#D7B46A"/>
<path d="M12.6835 37.8118C12.6835 37.8118 10.7541 42.5618 12.1046 46.1718C13.8411 50.9218 16.9281 52.8218 16.9281 52.8218C16.9281 52.8218 18.2787 47.5018 17.6999 44.6518C16.9281 40.6618 12.6835 37.8118 12.6835 37.8118Z" fill="#D7B46A"/>
<path d="M35.8361 39.1419C35.8361 39.1419 33.135 43.3219 29.6621 43.7019C25.2245 44.2719 22.1375 42.3719 22.1375 42.3719C22.1375 42.3719 25.4175 38.5719 28.1186 37.6219C31.5915 36.4819 35.8361 39.1419 35.8361 39.1419Z" fill="#D7B46A"/>
<path d="M20.9798 25.6519C20.9798 25.6519 18.4716 29.8319 19.2434 33.8219C20.2081 38.7619 22.9092 41.2319 22.9092 41.2319C22.9092 41.2319 25.0315 36.2919 24.8386 33.4419C24.4527 29.0719 20.9798 25.6519 20.9798 25.6519Z" fill="#D7B46A"/>
<path d="M42.7818 31.1621C42.7818 31.1621 39.6948 34.5821 36.2219 34.3921C31.7843 34.2021 29.2761 31.7321 29.2761 31.7321C29.2761 31.7321 33.1349 28.6921 35.6431 28.3121C39.116 27.9321 42.7818 31.1621 42.7818 31.1621Z" fill="#D7B46A"/>
<path d="M30.6268 15.2019C30.6268 15.2019 27.5397 18.8119 27.7327 22.8019C27.9256 27.742 30.0479 30.782 30.0479 30.782C30.0479 30.782 32.7491 26.412 33.1349 23.5619C33.5208 19.3819 30.6268 15.2019 30.6268 15.2019Z" fill="#D7B46A"/>
<path d="M50.8852 24.8922C50.8852 24.8922 47.4124 27.7422 44.1324 26.7922C40.0807 25.6522 37.7654 22.8022 37.7654 22.8022C37.7654 22.8022 41.8171 20.5222 44.3253 20.7122C47.7982 20.9022 50.8852 24.8922 50.8852 24.8922Z" fill="#D7B46A"/>
<path d="M41.6242 6.84204C41.6242 6.84204 38.1513 9.69206 37.7654 13.6821C37.1866 18.6221 38.7301 21.8521 38.7301 21.8521C38.7301 21.8521 42.0101 18.2421 42.7818 15.3921C43.7465 11.4021 41.6242 6.84204 41.6242 6.84204Z" fill="#D7B46A"/>
<path d="M59.5675 20.1422C59.5675 20.1422 55.7087 22.2322 52.8146 20.7122C48.9559 18.8122 47.4124 15.5822 47.4124 15.5822C47.4124 15.5822 51.657 14.0622 53.9723 14.8222C57.2522 15.7722 59.5675 20.1422 59.5675 20.1422Z" fill="#D7B46A"/>
<path d="M53.3933 0.761719C53.3933 0.761719 49.7275 2.85173 48.5699 6.65175C47.4123 11.2118 48.377 14.8218 48.377 14.8218C48.377 14.8218 52.0428 11.9718 53.2004 9.31176C54.7439 5.70174 53.3933 0.761719 53.3933 0.761719Z" fill="#D7B46A"/>
<path d="M53.7792 11.972C53.7792 11.972 56.6733 13.492 59.1815 12.352C62.2685 10.832 63.812 8.36197 63.812 8.36197C63.812 8.36197 60.5321 7.03197 58.6027 7.60197C55.9016 8.36197 53.7792 11.972 53.7792 11.972Z" fill="#D7B46A"/>
<path d="M107.802 166.253C107.802 166.253 116.098 155.803 135.199 153.713C153.721 150.483 176.488 131.863 183.048 103.743C190.38 75.8125 179.961 45.0323 166.069 30.0222C152.178 14.0622 139.058 10.6421 139.251 10.4521C138.865 10.8322 151.985 14.6322 165.49 30.4022C178.996 45.6023 189.029 76.0025 181.504 102.983C174.944 130.533 152.564 148.203 134.62 151.243C130.376 151.623 126.517 152.383 123.044 153.523C122.079 153.903 121.115 154.093 120.15 154.473L111.275 158.843C107.223 161.503 105.294 163.593 105.294 163.593L107.802 166.253Z" fill="#D7B46A"/>
<path d="M141.18 136.422C141.18 136.422 135.971 137.942 134.234 142.502C131.919 148.202 132.691 153.142 132.691 153.142C132.691 153.142 137.9 150.482 139.83 147.442C142.145 143.262 141.18 136.422 141.18 136.422Z" fill="#D7B46A"/>
<path d="M149.477 162.833C149.477 162.833 144.267 164.163 140.408 161.313C135.778 157.513 134.042 152.953 134.042 152.953C134.042 152.953 139.83 152.383 142.917 154.093C147.161 156.373 149.477 162.833 149.477 162.833Z" fill="#D7B46A"/>
<path d="M149.284 132.052C149.284 132.052 144.46 134.523 143.496 139.273C142.145 145.163 143.689 149.913 143.689 149.913C143.689 149.913 148.319 146.303 149.67 143.073C151.406 138.513 149.284 132.052 149.284 132.052Z" fill="#D7B46A"/>
<path d="M161.246 156.183C161.246 156.183 156.422 158.463 152.371 156.373C147.354 153.713 145.039 149.343 145.039 149.343C145.039 149.343 150.441 147.823 153.721 148.773C158.159 150.293 161.246 156.183 161.246 156.183Z" fill="#D7B46A"/>
<path d="M156.615 126.163C156.615 126.163 152.371 129.583 152.178 134.333C151.792 140.413 153.914 144.593 153.914 144.593C153.914 144.593 157.773 140.223 158.545 136.803C159.702 132.053 156.615 126.163 156.615 126.163Z" fill="#D7B46A"/>
<path d="M171.858 147.253C171.858 147.253 167.613 150.483 163.368 149.153C158.159 147.443 155.265 143.833 155.265 143.833C155.265 143.833 160.281 141.173 163.368 141.553C167.806 142.123 171.858 147.253 171.858 147.253Z" fill="#D7B46A"/>
<path d="M162.982 118.752C162.982 118.752 159.51 122.932 159.895 127.682C160.474 133.573 163.175 137.373 163.175 137.373C163.175 137.373 166.262 132.433 166.455 128.822C166.648 123.882 162.982 118.752 162.982 118.752Z" fill="#D7B46A"/>
<path d="M180.54 136.423C180.54 136.423 176.874 140.413 172.822 139.843C167.613 139.273 164.333 136.233 164.333 136.233C164.333 136.233 168.77 132.813 171.857 132.433C176.102 132.243 180.54 136.423 180.54 136.423Z" fill="#D7B46A"/>
<path d="M167.999 110.202C167.999 110.202 165.298 114.952 166.455 119.512C167.806 125.212 171.086 128.252 171.086 128.252C171.086 128.252 173.208 122.742 173.015 119.322C172.436 114.382 167.999 110.202 167.999 110.202Z" fill="#D7B46A"/>
<path d="M187.679 123.883C187.679 123.883 184.784 128.443 180.733 128.823C175.523 129.203 172.051 126.923 172.051 126.923C172.051 126.923 175.716 122.743 178.61 121.793C182.662 120.652 187.679 123.883 187.679 123.883Z" fill="#D7B46A"/>
<path d="M171.665 100.703C171.665 100.703 169.735 105.833 171.472 110.013C173.594 115.333 177.067 117.803 177.067 117.803C177.067 117.803 178.417 112.103 177.453 108.683C176.488 103.933 171.665 100.703 171.665 100.703Z" fill="#D7B46A"/>
<path d="M192.502 110.203C192.502 110.203 190.379 115.143 186.521 116.283C181.697 117.613 177.839 116.093 177.839 116.093C177.839 116.093 180.733 111.153 183.434 109.823C187.1 108.113 192.502 110.203 192.502 110.203Z" fill="#D7B46A"/>
<path d="M173.787 90.6323C173.787 90.6323 172.822 95.9524 175.137 99.7524C178.031 104.502 181.697 106.212 181.697 106.212C181.697 106.212 182.083 100.322 180.733 97.2824C178.803 92.9123 173.787 90.6323 173.787 90.6323Z" fill="#D7B46A"/>
<path d="M195.01 95.9521C195.01 95.9521 193.852 101.272 190.187 102.982C185.942 105.262 182.083 104.502 182.083 104.502C182.083 104.502 184.205 99.1821 186.521 97.2821C189.801 94.8121 195.01 95.9521 195.01 95.9521Z" fill="#D7B46A"/>
<path d="M174.366 79.9922C174.366 79.9922 174.173 85.3122 176.874 88.5422C180.347 92.5322 184.206 93.4822 184.206 93.4822C184.206 93.4822 183.627 87.7822 181.89 84.9322C179.575 81.3222 174.366 79.9922 174.366 79.9922Z" fill="#D7B46A"/>
<path d="M195.396 81.1321C195.396 81.1321 195.01 86.4521 191.923 88.9221C188.064 91.9621 184.206 91.9621 184.206 91.9621C184.206 91.9621 185.363 86.4521 187.293 84.1721C190.187 81.1321 195.396 81.1321 195.396 81.1321Z" fill="#D7B46A"/>
<path d="M173.208 69.1621C173.208 69.1621 173.787 74.4821 176.874 77.1421C180.733 80.3722 184.591 80.5622 184.591 80.5622C184.591 80.5622 183.241 75.0521 181.118 72.7721C178.417 69.3521 173.208 69.1621 173.208 69.1621Z" fill="#D7B46A"/>
<path d="M193.66 66.1221C193.66 66.1221 194.045 71.4421 191.537 74.4821C188.257 78.2821 184.591 79.0421 184.591 79.0421C184.591 79.0421 184.784 73.3421 186.328 70.8721C188.643 67.0721 193.66 66.1221 193.66 66.1221Z" fill="#D7B46A"/>
<path d="M170.507 58.3322C170.507 58.3322 171.857 63.2722 175.33 65.3622C179.575 67.8322 183.241 67.2622 183.241 67.2622C183.241 67.2622 181.118 62.1322 178.803 60.2322C175.523 57.5722 170.507 58.3322 170.507 58.3322Z" fill="#D7B46A"/>
<path d="M189.608 51.4922C189.608 51.4922 190.765 56.6222 188.836 60.0422C186.328 64.4123 182.855 65.7423 182.855 65.7423C182.855 65.7423 182.276 60.2322 183.434 57.3822C184.977 53.3922 189.608 51.4922 189.608 51.4922Z" fill="#D7B46A"/>
<path d="M166.262 48.2621C166.262 48.2621 168.385 52.8221 171.858 54.1521C176.295 55.6721 179.575 54.3421 179.575 54.3421C179.575 54.3421 176.874 49.7821 174.366 48.4521C170.893 46.5521 166.262 48.2621 166.262 48.2621Z" fill="#D7B46A"/>
<path d="M183.434 37.8118C183.434 37.8118 185.363 42.5618 184.013 46.1718C182.276 50.9218 179.189 52.8218 179.189 52.8218C179.189 52.8218 177.839 47.5018 178.417 44.6518C179.189 40.6618 183.434 37.8118 183.434 37.8118Z" fill="#D7B46A"/>
<path d="M160.474 39.1419C160.474 39.1419 163.175 43.3219 166.648 43.7019C171.086 44.2719 174.173 42.3719 174.173 42.3719C174.173 42.3719 170.893 38.5719 168.192 37.6219C164.526 36.4819 160.474 39.1419 160.474 39.1419Z" fill="#D7B46A"/>
<path d="M175.33 25.6519C175.33 25.6519 177.839 29.8319 177.067 33.8219C176.102 38.7619 173.401 41.2319 173.401 41.2319C173.401 41.2319 171.279 36.2919 171.472 33.4419C171.665 29.0719 175.33 25.6519 175.33 25.6519Z" fill="#D7B46A"/>
<path d="M153.335 31.1621C153.335 31.1621 156.422 34.5821 159.895 34.3921C164.333 34.2021 166.841 31.7321 166.841 31.7321C166.841 31.7321 162.982 28.6921 160.474 28.3121C157.001 27.9321 153.335 31.1621 153.335 31.1621Z" fill="#D7B46A"/>
<path d="M165.684 15.2019C165.684 15.2019 168.771 18.8119 168.578 22.8019C168.385 27.742 166.262 30.782 166.262 30.782C166.262 30.782 163.561 26.412 163.175 23.5619C162.597 19.3819 165.684 15.2019 165.684 15.2019Z" fill="#D7B46A"/>
<path d="M145.232 24.8922C145.232 24.8922 148.705 27.7422 152.178 26.7922C156.229 25.6522 158.545 22.8022 158.545 22.8022C158.545 22.8022 154.493 20.5222 151.985 20.7122C148.319 20.9022 145.232 24.8922 145.232 24.8922Z" fill="#D7B46A"/>
<path d="M154.686 6.84204C154.686 6.84204 158.159 9.69206 158.545 13.6821C159.124 18.6221 157.58 21.8521 157.58 21.8521C157.58 21.8521 154.3 18.2421 153.528 15.3921C152.564 11.4021 154.686 6.84204 154.686 6.84204Z" fill="#D7B46A"/>
<path d="M136.743 20.1422C136.743 20.1422 140.602 22.2322 143.496 20.7122C147.354 18.8122 148.898 15.5822 148.898 15.5822C148.898 15.5822 144.653 14.0622 142.338 14.8222C138.865 15.7722 136.743 20.1422 136.743 20.1422Z" fill="#D7B46A"/>
<path d="M142.917 0.761719C142.917 0.761719 146.582 2.85173 147.547 6.65175C148.705 11.2118 147.74 14.8218 147.74 14.8218C147.74 14.8218 144.074 11.9718 142.917 9.31176C141.566 5.70174 142.917 0.761719 142.917 0.761719Z" fill="#D7B46A"/>
<path d="M142.338 11.972C142.338 11.972 139.444 13.492 136.936 12.352C133.849 10.832 132.305 8.36197 132.305 8.36197C132.305 8.36197 135.778 7.03197 137.707 7.60197C140.409 8.36197 142.338 11.972 142.338 11.972Z" fill="#D7B46A"/>
</g>
<defs>
<clipPath id="clip0_557_1047">
<rect width="194.675" height="165.491" fill="white" transform="translate(0.721313 0.761719)"/>
</clipPath>
</defs>
</svg>
