<svg width="183" height="167" viewBox="0 0 183 167" fill="none" xmlns="http://www.w3.org/2000/svg">
<g clip-path="url(#clip0_557_2071)">
<path d="M91.9802 0.530273C91.8113 0.530273 91.8113 0.530273 91.6424 0.530273C91.4735 0.530273 91.4735 0.530273 91.3046 0.530273C64.2817 0.530273 24.7605 3.19143 21.7205 4.52201V108.973C21.7205 112.964 22.5649 121.779 34.5564 131.093C51.108 143.9 75.0909 154.212 83.5355 159.368C89.7846 163.194 90.798 164.524 91.4735 166.021C92.318 164.524 93.1625 163.194 99.4115 159.368C107.856 154.212 131.839 143.9 148.391 131.093C160.382 121.779 161.227 112.964 161.227 108.973V4.52201C158.524 3.19143 119.003 0.530273 91.9802 0.530273Z" fill="#D7B46A"/>
<path d="M91.9802 4.18921C91.8113 4.18921 91.8113 4.18921 91.6424 4.18921C91.4735 4.18921 91.4735 4.18921 91.3046 4.18921C65.9706 4.18921 28.9829 6.68405 26.1117 8.01462V106.976C26.1117 110.802 26.9562 119.617 38.1031 128.598C53.6414 140.74 75.9353 149.888 84.0422 154.877C89.9535 158.536 90.798 159.701 91.4735 161.198C92.1491 159.867 93.1625 158.536 98.9049 154.877C106.843 149.888 129.306 140.74 144.675 128.598C155.991 119.783 156.666 110.802 156.666 106.976V8.01462C154.302 6.68405 117.314 4.18921 91.9802 4.18921Z" fill="white"/>
<path d="M26.2806 8.01477C26.4495 8.01477 26.7873 7.84845 27.1251 7.68213C26.7873 7.84845 26.4495 7.84845 26.2806 8.01477Z" fill="white"/>
<path d="M27.2941 7.68195C27.6319 7.68195 27.9696 7.51562 28.4763 7.51562C27.9696 7.68195 27.463 7.68195 27.2941 7.68195Z" fill="white"/>
<path d="M44.0145 132.59C43.3389 132.091 42.4944 131.592 41.8188 131.094C42.4944 131.592 43.17 132.091 44.0145 132.59Z" fill="white"/>
<path d="M53.6412 138.578C52.9657 138.245 52.2901 137.746 51.6145 137.414C52.2901 137.913 52.9657 138.245 53.6412 138.578Z" fill="white"/>
<path d="M29.3208 7.34943C29.8275 7.34943 30.5031 7.18311 31.1786 7.18311C30.5031 7.18311 29.9964 7.34943 29.3208 7.34943Z" fill="white"/>
<path d="M28.4762 7.51569C28.814 7.51569 29.1518 7.34937 29.4896 7.34937C28.9829 7.34937 28.814 7.51569 28.4762 7.51569Z" fill="white"/>
<path d="M130.657 5.52002C131.501 5.52002 132.346 5.68634 133.021 5.68634C132.177 5.52002 131.332 5.52002 130.657 5.52002Z" fill="white"/>
<path d="M92.6558 159.867C92.487 160.2 92.3181 160.366 92.1492 160.699C92.1492 160.366 92.3181 160.033 92.6558 159.867Z" fill="white"/>
<path d="M91.4736 160.533C91.4736 160.366 91.3047 160.366 91.3047 160.2C91.3047 160.366 91.3047 160.533 91.4736 160.533Z" fill="white"/>
<path d="M91.6424 161.031C91.6424 160.865 91.4735 160.865 91.4735 160.699C91.6424 160.865 91.6424 160.865 91.6424 161.031Z" fill="white"/>
<path d="M91.8114 6.68414H91.6425H91.4736C67.4907 6.68414 36.4143 8.84634 28.8141 10.0106V106.977C28.8141 114.295 32.5297 120.781 39.9611 126.603C50.2636 134.752 63.944 141.572 74.0776 146.561C78.8066 148.89 83.0289 151.052 85.7312 152.715C88.7713 154.711 90.6292 156.042 91.9803 157.04C93.1626 155.875 95.0204 154.545 98.2294 152.715C100.932 151.052 104.985 149.056 109.883 146.561C119.848 141.572 133.528 134.586 143.831 126.603C150.924 120.781 154.64 114.295 154.64 106.977V9.84427C147.04 8.68001 116.132 6.51782 91.9803 6.51782H91.8114V6.68414Z" fill="#B41A28"/>
<path d="M143.831 6.35132C144.168 6.35132 144.506 6.35132 144.844 6.51764C144.675 6.35132 144.168 6.35132 143.831 6.35132Z" fill="white"/>
<path d="M33.8807 124.44C35.2319 125.771 36.583 127.268 38.4409 128.598C36.583 127.102 35.063 125.771 33.8807 124.44Z" fill="white"/>
<path d="M84.2112 154.877C88.6024 157.539 90.1224 159.035 90.9669 160.033C90.2913 158.869 88.6024 157.539 84.2112 154.877Z" fill="white"/>
<path d="M153.964 7.34937C154.302 7.34937 154.64 7.51569 154.978 7.51569C154.64 7.51569 154.471 7.34937 153.964 7.34937Z" fill="white"/>
<path d="M99.2428 154.877C99.4117 154.711 99.7495 154.545 100.087 154.378C99.7495 154.545 99.5806 154.711 99.2428 154.877Z" fill="white"/>
<path d="M148.56 6.68433C149.066 6.68433 149.573 6.85065 150.08 6.85065C149.573 6.85065 149.066 6.85065 148.56 6.68433Z" fill="white"/>
<path d="M150.08 6.85034C150.586 6.85034 151.093 7.01666 151.6 7.01666C151.093 7.01666 150.586 7.01666 150.08 6.85034Z" fill="white"/>
<path d="M154.978 7.51562C155.991 7.68195 156.835 7.84827 157.004 8.01459V106.976C157.004 107.642 157.004 108.307 156.835 109.139C156.835 108.307 157.004 107.642 157.004 106.976V8.01459C156.835 7.84827 156.16 7.68195 154.978 7.51562Z" fill="white"/>
<path d="M137.413 134.087C134.204 136.249 130.826 138.245 127.617 140.075C130.826 138.079 134.204 136.083 137.413 134.087Z" fill="#DC870F"/>
<path d="M54.9926 139.409C54.4859 139.077 54.1482 138.911 53.6415 138.578C53.9793 138.911 54.4859 139.077 54.9926 139.409Z" fill="#DC870F"/>
<path d="M92.8247 159.701L92.6558 159.867C92.6558 159.701 92.6558 159.701 92.8247 159.701Z" fill="#DC870F"/>
<path d="M45.0279 133.256C44.6901 133.089 44.3523 132.757 44.0145 132.59C44.3523 132.923 44.6901 133.089 45.0279 133.256Z" fill="#DC870F"/>
<path d="M153.795 118.785C153.458 119.284 153.12 119.783 152.782 120.282C153.12 119.949 153.458 119.284 153.795 118.785Z" fill="#DC870F"/>
<path d="M127.448 139.909C119.172 144.566 110.897 148.557 104.985 151.551C111.065 148.557 119.172 144.566 127.448 139.909Z" fill="#DC870F"/>
<path d="M133.021 5.52002C133.866 5.52002 134.542 5.68634 135.386 5.68634C134.542 5.68634 133.866 5.68634 133.021 5.52002Z" fill="#DC870F"/>
<path d="M91.9802 160.532L91.8113 160.699C91.9802 160.699 91.9802 160.699 91.9802 160.532Z" fill="#DC870F"/>
<path d="M91.8115 160.865C91.8115 160.865 91.8115 161.031 91.6426 161.031C91.8115 161.031 91.8115 161.031 91.8115 160.865Z" fill="#DC870F"/>
<path d="M78.2998 151.551C77.4553 151.218 76.6108 150.719 75.7664 150.22C76.7797 150.719 77.6242 151.218 78.2998 151.551Z" fill="#DC870F"/>
<path d="M75.9354 150.387C71.0374 147.892 64.7884 144.898 58.5393 141.405C64.7884 144.898 70.8685 147.892 75.9354 150.387Z" fill="#DC870F"/>
<path d="M91.1357 160.2L90.9668 160.033C91.1357 160.033 91.1357 160.2 91.1357 160.2Z" fill="#DC870F"/>
<path d="M145.013 128.599C142.648 130.428 139.946 132.258 137.413 134.087C140.115 132.258 142.648 130.428 145.013 128.599C148.56 125.771 151.093 123.11 152.782 120.449C151.093 122.944 148.56 125.771 145.013 128.599Z" fill="#DC870F"/>
<path d="M65.6329 4.85455C66.4774 4.85455 67.3219 4.85455 68.3352 4.68823C67.4908 4.68823 66.6463 4.68823 65.6329 4.85455Z" fill="#DC870F"/>
<path d="M45.8723 5.8526C46.5479 5.8526 47.3924 5.68628 48.2368 5.68628C47.2235 5.8526 46.5479 5.8526 45.8723 5.8526Z" fill="#DC870F"/>
<path d="M51.6145 5.51966C53.979 5.35333 56.5124 5.18701 59.2147 5.18701C56.5124 5.18701 54.1479 5.35333 51.6145 5.51966Z" fill="#DC870F"/>
<path d="M60.3971 5.02106C61.2416 5.02106 62.086 5.02106 62.9305 4.85474C62.2549 5.02106 61.2416 5.02106 60.3971 5.02106Z" fill="#DC870F"/>
<path d="M124.239 5.18701C126.435 5.35333 128.461 5.35333 130.488 5.51966C128.461 5.35333 126.435 5.18701 124.239 5.18701Z" fill="#DC870F"/>
<path d="M139.946 6.01904C140.622 6.01904 141.297 6.18537 141.973 6.18537C141.297 6.18537 140.622 6.18537 139.946 6.01904Z" fill="#DC870F"/>
<path d="M135.386 5.68628C136.23 5.68628 136.906 5.8526 137.751 5.8526C136.906 5.8526 136.062 5.8526 135.386 5.68628Z" fill="#DC870F"/>
<path d="M145.013 6.51782C145.688 6.51782 146.195 6.68414 146.871 6.68414C146.195 6.51782 145.519 6.51782 145.013 6.51782Z" fill="#DC870F"/>
<path d="M41.4811 6.18518C42.8322 6.01886 44.3523 6.01886 45.8723 5.85254C44.3523 6.01886 42.8322 6.18518 41.4811 6.18518Z" fill="#DC870F"/>
<path d="M38.4409 6.51764C39.4543 6.51764 40.4676 6.35132 41.481 6.35132C40.4676 6.35132 39.4543 6.35132 38.4409 6.51764Z" fill="#DC870F"/>
<path d="M35.7388 6.68414C36.5832 6.68414 37.4277 6.51782 38.4411 6.51782C37.5966 6.51782 36.5832 6.68414 35.7388 6.68414Z" fill="#DC870F"/>
<path d="M31.1786 7.18292C31.6853 7.18292 32.0231 7.0166 32.5297 7.0166C32.0231 7.0166 31.6853 7.0166 31.1786 7.18292Z" fill="#DC870F"/>
<path d="M34.0498 6.85065C34.5565 6.85065 35.0632 6.68433 35.7387 6.68433C35.2321 6.68433 34.7254 6.85065 34.0498 6.85065Z" fill="#DC870F"/>
<path d="M156.16 23.6489L27.9697 68.2233L28.1386 113.13L156.329 68.556L156.16 23.6489Z" fill="white"/>
<path d="M105.83 79.0342L96.2026 86.3524L99.5805 99.6582L118.834 94.3358L122.381 88.1819V79.2005L114.781 87.5166L105.83 79.0342Z" fill="white"/>
<path d="M39.9611 61.9031L28.983 64.0653L23.4095 73.0467L17.3293 93.5043L23.4095 96.4981L33.8809 93.6707L38.1033 80.8638L42.3256 68.556L39.9611 61.9031Z" fill="white"/>
<path d="M117.652 95.1679L104.985 92.6731L101.269 106.312L112.754 107.642L133.19 100.158L117.652 95.1679Z" fill="white"/>
<path d="M12.7692 106.145C11.5869 106.145 10.5736 105.812 9.72909 105.48C8.37795 104.814 6.52012 103.484 5.84454 100.324C5.33786 98.3278 5.50675 95.8329 6.18233 92.8391C6.35122 92.0075 6.68901 91.1759 6.8579 90.5106C7.0268 90.0117 7.19569 89.5127 7.36458 89.0137C7.19569 87.8495 7.0268 87.0179 7.0268 86.1862C6.01343 86.1862 5.16897 85.8536 4.3245 85.3546C2.97335 84.523 1.79109 83.3588 1.28441 81.8619C0.946626 80.365 0.777732 78.8681 1.11552 77.2048C1.45331 75.7079 2.29777 74.0447 3.48003 72.5478C6.8579 68.2234 9.72909 64.398 12.0936 60.9052C14.4581 57.4125 16.8226 54.2523 19.0182 51.5912C21.2139 48.7637 23.5784 46.6015 25.774 44.772C28.3074 42.7761 31.3475 41.6118 34.7254 40.9465C37.4277 40.4476 39.7922 40.6139 41.8189 41.6118C43.8456 42.4434 45.5345 43.9403 46.8857 45.7699C48.068 47.4331 48.7435 49.5953 48.9124 51.9238C49.0813 54.086 48.9124 56.4145 48.2368 58.743C47.5613 61.0716 46.379 63.4001 44.859 65.5623C44.1834 66.5602 43.3389 67.7245 42.3256 68.5561C43.0011 69.2214 43.5078 69.8866 44.0145 70.5519C45.5345 72.5478 46.379 75.0426 47.0546 77.5375C47.5613 80.0323 47.7302 82.6935 47.3924 85.3546C47.0546 88.1821 46.2101 90.677 44.859 93.1718C43.5078 95.6666 41.65 97.8288 39.4544 99.8247C37.0899 101.821 34.2187 103.317 30.6719 104.315C27.9696 104.981 25.2673 105.147 22.9028 104.648C21.5516 104.315 20.3694 103.983 19.1871 103.484C18.1738 104.315 17.1604 104.814 16.1471 105.313C14.7959 105.979 13.7825 106.145 12.7692 106.145ZM14.9648 89.679L14.627 90.5106C14.4581 91.1759 14.1203 92.0075 13.9514 92.6728C13.7825 93.3381 13.6136 94.0034 13.2759 94.6687C12.6003 96.9972 12.7692 98.1615 12.9381 98.4941C12.9381 98.6604 12.9381 98.6604 13.107 98.8267C13.2759 98.8267 13.2759 98.8267 13.4448 98.6604C14.1203 98.3278 14.7959 97.8288 15.6404 96.8309L16.9915 95.1677L18.1738 92.1739C18.6805 91.0096 19.0182 89.679 19.5249 88.1821C20.0316 86.6852 20.3694 85.022 20.8761 83.3588C21.3828 81.6955 21.7205 79.866 22.2272 78.2028C22.7339 76.3732 23.0717 74.71 23.4095 72.8804C23.0717 73.3794 22.9028 74.0447 22.565 74.5437C21.3828 76.8722 20.3694 78.8681 19.1871 80.8639C18.1738 82.6935 17.3293 84.6893 16.4848 86.3526L14.9648 89.679ZM23.9162 97.6625C24.0851 97.6625 24.0851 97.6625 24.2539 97.6625C25.6051 97.9951 26.9562 97.8288 28.6452 97.4962C31.0097 96.8309 33.0364 95.8329 34.5565 94.5024C36.0765 93.1718 37.4277 91.6749 38.2721 89.8453C39.1166 88.1821 39.7922 86.3526 39.9611 84.523C40.13 82.5272 40.13 80.6976 39.7922 79.0344C39.4544 77.3712 38.7788 75.8743 37.9343 74.5437C37.5965 74.211 37.2588 73.7121 37.0899 73.3794C37.7654 74.5437 38.2721 75.7079 38.6099 77.2048C38.9477 79.0344 39.1166 80.8639 38.9477 82.8598C38.7788 84.8557 38.2721 86.8515 37.4277 88.5148C36.5832 90.3443 35.4009 92.0075 34.0498 93.5044C32.5297 95.1677 30.503 96.1656 28.1385 96.8309C26.6185 97.4962 25.2673 97.6625 23.9162 97.6625ZM29.9963 76.5395C29.6585 77.7038 29.4897 78.8681 29.1519 80.0323C28.6452 81.8619 28.1385 83.6914 27.8007 85.3546C27.294 87.0179 26.9562 88.5148 26.4496 90.0117C27.294 89.679 28.1385 89.3464 28.8141 88.6811C29.6585 87.8495 30.3341 86.8515 30.6719 85.8536C31.1786 84.6893 31.5164 83.5251 31.5164 82.3608C31.6853 81.1966 31.5164 80.0323 31.3475 79.0344C31.1786 78.2028 30.8408 77.3712 30.3341 76.7059C30.3341 76.5395 30.3341 76.5395 29.9963 76.5395C30.1652 76.5395 30.1652 76.5395 29.9963 76.5395ZM10.2358 75.7079C9.89799 76.2069 9.5602 76.5395 9.22241 77.0385C8.71573 77.7038 8.54684 78.0364 8.37795 78.3691L8.54684 78.2028C9.05352 77.8701 9.5602 77.0385 10.2358 75.7079ZM37.0899 47.9321C37.4277 48.2647 37.9343 48.431 38.2721 48.7637C39.4544 49.7616 40.2988 51.2585 40.6366 52.7554C40.9744 54.086 41.1433 55.5829 40.9744 57.2461C40.9744 57.0798 41.1433 56.9135 41.1433 56.7472C41.65 55.2503 41.65 53.9197 41.65 52.5891C41.4811 51.4248 41.1433 50.4269 40.6366 49.7616C40.13 49.0963 39.6233 48.5974 38.7788 48.2647C38.441 47.9321 37.7654 47.9321 37.0899 47.9321Z" fill="white"/>
<path d="M53.6415 88.0162C51.9526 88.0162 50.4325 87.6836 48.9125 87.0183C46.548 86.0204 44.859 84.1908 43.5079 81.5296C42.3256 79.2011 41.819 76.3736 41.9878 72.8809C41.9878 71.2177 42.1567 69.3881 42.6634 67.0596C43.0012 64.8974 43.5079 62.7352 44.1835 60.4067C44.859 58.2445 45.7035 55.916 46.548 53.7538C47.3924 51.4253 48.4058 49.2631 49.5881 47.4336C50.7703 45.4377 52.1215 43.7745 53.3037 42.2776C54.9927 40.6143 56.6816 39.4501 58.5394 38.9511C61.7484 38.1195 64.7885 39.1174 66.6463 41.6123C68.1664 43.7745 68.8419 46.7683 68.3353 50.5937C67.9975 53.9201 66.8152 57.7455 64.6196 62.4026C63.7751 64.0658 62.9307 65.8953 61.7484 67.8912C62.2551 67.3922 62.9307 66.8933 63.6062 66.7269C65.2952 66.0617 66.9841 66.228 68.3353 67.2259C69.1797 67.8912 70.1931 68.8891 70.362 70.885C70.5309 72.2156 70.1931 73.5462 69.5175 74.8768C67.8286 77.7042 66.3085 80.0327 64.6196 81.8623C62.9307 83.6918 61.2417 85.1887 59.5528 86.1867C57.695 87.3509 55.8371 87.8499 53.9793 88.0162C53.9793 88.0162 53.8104 88.0162 53.6415 88.0162ZM50.6014 79.3675C50.9392 79.8664 51.4459 80.3654 51.9526 80.5317C52.2904 80.698 52.797 80.8644 53.1348 80.8644C52.6281 80.698 52.1215 80.3654 51.6148 80.0327C51.277 79.8664 50.9392 79.5338 50.6014 79.3675ZM60.0595 46.4356C60.3973 46.4356 60.5662 46.6019 60.9039 46.6019L61.2417 46.7683C61.0728 46.4356 61.0728 46.103 60.9039 46.103C60.9039 46.103 60.9039 46.103 60.5661 46.103C60.3973 46.103 60.2284 46.2693 60.0595 46.4356Z" fill="white"/>
<path d="M69.0107 84.0238C67.3217 84.0238 65.6328 83.5249 64.2817 82.5269C61.9172 81.03 60.3971 78.7015 59.8904 76.2067C59.3838 74.0445 59.5526 71.5497 60.2282 69.0548C60.9038 66.7263 61.9172 64.5641 63.2683 62.4019C64.6195 60.2397 66.3084 58.4102 68.1662 56.9133C70.1929 55.2501 72.2197 54.0858 74.4153 53.4205C76.442 52.9215 78.2998 52.7552 80.1577 53.2542C80.6644 53.0879 81.3399 52.9215 81.8466 52.7552C83.3666 52.5889 84.7178 52.7552 85.9 53.5868C87.0823 54.2521 87.9268 55.4164 88.4335 56.5806C88.9401 57.7449 88.9401 58.9092 88.7712 60.4061C89.109 60.2397 89.2779 60.0734 89.6157 59.9071C91.1358 59.2418 92.8247 59.4081 94.1758 60.2397C95.3581 60.905 96.2026 62.2356 96.5403 63.8988C96.7092 65.2294 96.5403 66.56 95.6959 67.8906C94.8514 69.3875 93.8381 70.8844 92.9936 72.2149C91.9802 73.7118 90.9669 75.0424 89.9535 76.2067C88.7712 77.5373 87.4201 78.5352 86.0689 79.3668C84.38 80.3648 82.6911 80.6974 80.8332 80.5311C79.8199 80.5311 78.9754 80.1984 78.2998 79.8658C77.962 80.0321 77.7932 80.3647 77.4554 80.5311C76.2731 81.529 74.922 82.3606 73.7397 82.8596C72.0508 83.6912 70.5307 84.0238 69.0107 84.0238ZM66.984 74.2108C66.984 74.3771 66.984 74.5435 66.984 74.7098C67.1529 75.5414 67.4906 76.0404 68.3351 76.5393C68.504 76.7057 68.8418 76.7057 69.0107 76.7057C69.1796 76.7057 69.5174 76.7057 69.6863 76.5393C69.1796 76.373 68.6729 76.0404 68.1662 75.5414C67.6595 75.2088 67.1529 74.7098 66.984 74.2108Z" fill="white"/>
<path d="M90.7979 77.8703C88.7712 77.8703 86.9133 76.8723 85.7311 74.8764C85.0555 73.5459 84.5488 72.049 84.5488 70.2194C84.5488 68.5562 84.7177 66.893 85.2244 65.0634C85.7311 63.2339 86.4067 61.4043 87.42 59.7411C87.5889 59.4085 87.7578 59.2421 87.7578 58.9095C87.7578 58.7432 87.5889 58.4105 87.5889 58.2442L86.9133 55.7494C86.4067 54.0861 86.9133 52.2566 88.2645 51.0923C89.2779 50.2607 90.4601 49.7618 91.9802 49.5954C92.9935 49.5954 93.838 49.7618 94.8513 50.0944C95.0202 49.9281 95.0202 49.9281 95.1891 49.7618C96.2025 48.7638 97.2158 48.0985 98.2292 47.4332C99.4115 46.6016 100.594 46.1027 101.945 45.9363C103.465 45.6037 104.985 45.77 106.505 46.4353C108.363 47.2669 109.545 48.5975 110.221 50.2607C110.727 51.5913 110.896 52.9219 110.896 54.2525C110.896 54.4188 110.896 54.4188 110.896 54.5851C111.234 54.2525 111.572 54.0861 112.078 53.9198C113.936 53.0882 115.456 53.4209 116.301 53.9198C117.821 54.5851 118.665 55.9157 119.003 57.5789C119.172 58.9095 118.834 60.4064 117.99 61.737C116.976 63.5665 115.794 65.3961 114.781 66.893C113.599 68.5562 112.416 70.0531 111.065 71.2174C109.545 72.5479 108.025 73.3795 106.336 73.8785C104.309 74.3775 102.283 74.2112 100.256 73.0469C99.5804 72.7143 98.9048 72.2153 98.3981 71.7163C97.8914 73.0469 97.2159 74.2112 96.3714 75.0428C94.5136 77.3713 92.4868 77.8703 90.7979 77.8703C90.9668 77.8703 90.9668 77.8703 90.7979 77.8703ZM103.296 65.895C103.296 66.2277 103.296 66.394 103.465 66.5603C103.465 66.7266 103.634 66.7266 103.803 66.893C103.972 67.0593 104.14 67.0593 104.309 67.0593C104.478 67.0593 104.647 66.893 104.816 66.893C104.647 66.7266 104.309 66.7266 104.14 66.5603C103.803 66.394 103.465 66.2277 103.296 65.895Z" fill="white"/>
<path d="M122.043 87.0179C121.874 87.0179 121.537 87.0179 121.368 87.0179C120.017 86.8515 118.328 86.3526 116.639 84.523C116.132 84.0241 115.625 83.1924 115.288 82.0282C114.781 82.0282 114.274 82.0282 113.768 82.0282C111.741 81.6955 110.052 80.5313 109.376 78.8681C108.701 77.3712 108.701 75.8742 109.376 74.211C109.883 72.7141 110.896 71.2172 112.585 70.2193C112.585 70.2193 112.585 70.2193 112.754 70.2193C112.585 70.2193 112.416 70.053 112.416 70.053C111.065 69.2214 109.883 68.2234 109.039 66.7265C108.363 65.3959 107.856 64.0654 107.687 62.4021C107.518 60.9052 107.687 59.4083 107.856 57.9114C108.194 56.4145 108.701 54.7513 109.545 53.2544C110.221 51.7575 111.065 50.4269 112.079 49.0963C113.092 47.7658 114.274 46.4352 115.457 45.2709C116.639 44.1067 117.99 43.1087 119.51 42.2771C121.03 41.2792 122.55 40.6139 124.239 40.2813C126.435 39.7823 128.124 39.9486 129.475 40.9465C129.644 41.1129 129.812 41.2792 129.981 41.4455C130.15 41.4455 130.319 41.4455 130.488 41.6118L132.008 41.1129L131.839 42.2771C132.853 42.7761 133.528 43.774 134.035 44.772C134.373 45.6036 134.541 46.6015 134.541 47.7658C134.541 48.0984 134.541 48.4311 134.373 48.7637C134.879 48.4311 135.386 48.2647 135.893 48.0984C137.413 47.7658 138.764 48.0984 139.946 48.93C140.959 49.5953 141.635 50.5932 141.973 51.9238C142.311 52.9218 142.311 54.2523 141.297 56.0819C140.115 58.2441 138.764 60.4063 137.582 62.5685C137.919 62.5685 138.088 62.5685 138.257 62.5685C139.271 62.5685 140.791 62.9011 141.973 63.899C142.817 64.5643 143.324 65.7286 143.493 66.7265C143.493 67.5581 143.324 68.7224 142.142 69.8866C141.297 70.7183 140.115 71.3835 138.257 72.0488C136.568 72.5478 134.879 73.2131 133.021 73.8784C131.67 74.3773 130.488 74.8763 129.137 75.5416C128.968 76.2069 128.968 76.8722 128.799 77.5375C128.63 78.8681 128.63 79.5333 128.63 80.0323C128.63 82.5271 127.955 84.523 126.435 85.8536C124.915 86.6852 123.226 87.0179 122.043 87.0179ZM123.732 62.7348L124.07 62.9011C124.07 62.5685 124.239 62.4021 124.239 62.0695C124.07 62.4021 123.901 62.5685 123.732 62.7348Z" fill="white"/>
<path d="M141.466 64.0654C139.946 64.0654 138.426 63.7328 136.906 62.9012C134.71 61.9032 133.022 60.0737 132.177 57.7452C131.501 55.7493 131.164 53.5871 131.333 51.2586C131.501 49.0964 132.008 46.9342 132.853 44.772C133.697 42.6098 134.879 40.6139 136.399 38.9507C137.244 37.9528 138.426 37.1212 139.608 36.2896C140.96 35.4579 142.311 34.959 143.493 34.7927C145.351 34.6263 147.209 35.2916 148.222 36.6222C148.729 35.9569 149.235 35.2916 149.573 34.6263C150.586 33.4621 151.6 32.6305 152.782 31.9652C154.64 31.1336 156.667 31.1336 158.356 32.1315C159.538 32.7968 160.889 34.1274 161.227 36.7885C161.396 37.7865 161.396 38.9507 161.227 40.115C161.396 39.9487 161.565 39.9487 161.733 39.7823C163.76 38.7844 165.449 39.4497 166.294 39.9487C167.138 40.4476 168.489 41.4456 168.658 43.7741C168.827 45.1047 168.489 46.6016 167.645 47.9321C166.631 49.7617 165.449 51.4249 164.436 53.0881C163.254 54.7514 161.902 56.2483 160.551 57.4125C159.031 58.7431 157.342 59.741 155.653 60.0737C153.964 60.5726 152.275 60.4063 150.586 59.741C150.249 60.0737 149.911 60.4063 149.573 60.5726C148.391 61.5706 147.04 62.2359 145.689 62.9012C144.506 63.7328 142.986 64.0654 141.466 64.0654ZM153.627 42.4435C153.289 43.2751 152.951 43.9404 152.782 44.9383C152.782 44.772 152.951 44.6057 152.951 44.4394C153.12 43.6077 153.289 42.9425 153.627 42.4435Z" fill="white"/>
<path d="M166.462 57.4122C165.787 57.4122 165.28 57.4122 164.605 57.2458C163.085 56.9132 161.733 56.2479 160.551 55.25C159.538 54.252 158.693 52.9215 158.018 51.2582C157.511 49.7613 157.342 47.9318 157.511 46.1022C157.68 44.439 158.018 42.7758 158.524 41.2789C159.031 39.782 159.538 38.4514 160.044 37.2871C160.551 36.1229 161.227 34.9586 161.902 34.127C162.578 33.2954 163.085 32.4638 163.591 31.7985C164.267 30.8006 164.942 30.1353 165.956 29.47C166.294 29.1373 166.631 28.971 166.969 28.8047C165.618 27.8068 164.605 26.4762 164.267 24.6466C163.76 22.6508 163.929 20.4886 164.942 18.8254C165.956 16.9958 167.645 15.8316 169.671 15.1663C171.698 14.6673 173.725 14.8336 175.583 15.8316C177.441 16.8295 178.792 18.4927 179.298 20.4886C179.805 22.4844 179.636 24.6466 178.623 26.3099C177.609 27.9731 176.089 29.3037 174.063 29.8026C174.569 30.6342 174.907 31.7985 174.738 33.6281C174.738 34.2933 174.4 35.125 174.232 36.1229C174.063 36.7882 173.894 37.2871 173.725 37.9524C174.4 37.2871 175.076 36.7882 175.92 36.4555C177.441 35.9566 179.129 36.1229 180.312 37.1208C180.987 37.6198 182.001 38.6177 182.338 40.4473C182.507 41.4452 182.507 42.7758 181.663 44.439C179.805 47.5991 177.947 50.4266 176.089 52.4225C173.894 54.9173 171.529 56.4142 169.165 57.0795C168.151 57.2458 167.307 57.4122 166.462 57.4122ZM164.942 47.7655C164.942 48.2644 165.111 48.5971 165.111 48.9297C165.28 49.4287 165.449 49.7613 165.618 49.9277C165.787 50.094 165.956 50.094 166.125 50.2603C166.462 50.2603 166.8 50.2603 167.138 50.2603C166.969 50.2603 166.8 50.094 166.8 50.094C166.294 49.595 165.449 49.096 164.942 47.7655ZM171.867 21.8192H171.698C171.529 21.8192 171.36 21.9855 171.36 22.1518C171.36 22.3181 171.191 22.3181 171.36 22.6508C171.36 22.8171 171.529 22.9834 171.698 22.9834C171.867 22.9834 171.867 23.1497 172.205 22.9834C172.374 22.9834 172.543 22.8171 172.543 22.6508C172.543 22.4844 172.712 22.4844 172.543 22.1518C172.543 21.9855 172.374 21.8192 172.205 21.8192C172.036 21.8192 171.867 21.8192 171.867 21.8192Z" fill="white"/>
<path d="M118.666 116.291C117.146 116.291 115.626 115.958 114.106 115.126C111.572 113.796 109.883 111.8 108.87 109.305C108.025 107.143 107.856 104.814 108.194 102.319C108.532 99.9909 109.208 97.8288 110.221 95.6666C111.234 93.5044 112.585 91.5085 114.106 90.0116C115.794 88.3484 117.652 87.0178 119.51 86.1862C121.199 85.5209 122.888 85.3546 124.577 85.6872C124.746 85.5209 125.084 85.5209 125.252 85.5209C126.435 85.1882 127.786 85.1883 129.475 85.6872C130.15 85.8535 130.826 86.0199 131.502 86.1862C132.008 86.3525 132.515 86.3525 133.022 86.5188C133.528 86.5188 134.204 86.5188 135.048 86.5188C135.893 86.5188 136.906 86.3525 137.92 86.1862C139.946 85.8535 141.466 86.5188 142.311 87.1841C143.493 88.1821 144 89.5126 144 90.8432C144 92.0075 143.662 93.1717 142.817 94.1697C142.142 95.1676 141.128 95.8329 139.777 96.3319C138.426 96.8308 137.244 97.1635 136.062 97.3298C135.048 97.4961 134.035 97.6624 133.19 97.6624C133.19 98.1614 133.19 98.494 133.022 98.993C132.853 100.989 132.346 102.818 131.67 104.648C130.995 106.478 130.15 108.141 129.137 109.804C128.124 111.467 126.773 112.798 125.421 113.962C123.901 115.126 122.212 115.958 120.355 116.291C119.848 116.124 119.341 116.291 118.666 116.291Z" fill="white"/>
<path d="M125.421 132.091C123.394 132.091 121.537 131.426 120.185 130.262C118.834 129.098 117.821 127.434 117.483 125.438C117.145 123.276 117.314 121.114 118.328 119.284C119.172 117.621 120.185 116.124 121.706 114.794C122.888 113.63 124.408 112.465 125.928 111.301C126.941 110.469 128.123 109.804 129.137 108.972L129.812 104.814C130.15 102.652 130.657 100.49 131.164 98.3279C131.67 96.1657 132.177 94.0035 132.684 92.0076C133.19 90.0117 133.866 88.1822 134.373 86.6853C134.71 85.521 135.555 84.5231 136.568 83.5252C137.075 83.0262 137.413 82.6936 137.919 82.3609C136.399 81.363 135.386 79.8661 134.879 78.0365C134.373 76.0407 134.541 73.8785 135.555 72.2152C136.568 70.3857 138.257 69.2214 140.284 68.5562C142.311 68.0572 144.337 68.2235 146.195 69.2214C148.053 70.2194 149.404 71.8826 149.911 73.8785C150.417 75.8743 150.249 78.0365 149.066 79.8661C148.222 81.363 147.04 82.3609 145.52 83.0262C146.026 84.0241 146.364 85.3547 146.026 87.3506C145.857 88.3485 145.688 89.1801 145.52 90.1781V90.3444C145.688 90.1781 145.857 90.1781 146.026 90.0117C148.222 89.0138 149.911 89.5128 150.755 90.0117C151.6 90.5107 152.951 91.5086 153.12 94.0035C153.289 95.3341 152.951 96.6646 152.106 98.1615C150.249 101.322 148.56 103.983 146.702 106.311C145.182 108.141 143.493 109.97 141.973 111.634C141.297 114.96 140.453 117.788 139.439 120.116C138.257 122.944 136.906 125.106 135.555 126.935C134.035 128.765 132.346 130.262 130.657 131.093C128.799 131.759 127.11 132.091 125.421 132.091ZM142.479 75.3754H142.311C142.142 75.3754 141.973 75.5417 141.973 75.708C141.973 75.8743 141.804 75.8743 141.973 76.207C141.973 76.3733 142.142 76.5396 142.142 76.5396C142.311 76.5396 142.311 76.706 142.648 76.5396C142.817 76.5396 142.986 76.3733 142.986 76.207C143.155 76.0407 143.155 76.0407 142.986 75.8743C142.986 75.708 142.817 75.708 142.817 75.5417C142.648 75.3754 142.648 75.3754 142.479 75.3754Z" fill="white"/>
<path d="M151.6 106.977C149.911 106.977 148.222 106.478 146.871 105.48C144.506 103.983 142.986 101.655 142.479 99.1598C141.973 96.8313 142.142 94.5028 142.817 92.0079C143.493 89.6794 144.506 87.5172 145.857 85.355C147.208 83.1929 148.897 81.3633 150.755 79.8664C152.782 78.2032 154.809 77.0389 157.004 76.3736C159.031 75.8747 160.889 75.7083 162.747 76.2073C163.253 76.041 163.929 75.8747 164.436 75.7083C165.956 75.542 167.307 75.7083 168.489 76.54C169.671 77.2053 170.516 78.3695 171.022 79.5338C171.529 80.5317 171.529 81.8623 171.36 83.1929C171.698 83.0265 171.867 82.8602 172.205 82.6939C173.725 82.0286 175.414 82.1949 176.765 83.0265C177.947 83.8581 178.792 85.0224 179.129 86.6856C179.298 88.0162 179.129 89.3468 178.285 90.6774C177.44 92.1743 176.427 93.6712 175.583 95.0017C174.569 96.4987 173.556 97.8292 172.542 98.9935C171.36 100.324 170.009 101.322 168.658 102.154C166.969 103.152 165.28 103.484 163.422 103.318C162.409 103.318 161.564 102.985 160.889 102.653C160.551 102.985 160.382 103.152 160.044 103.318C158.862 104.316 157.511 105.147 156.329 105.646C154.64 106.644 153.12 106.977 151.6 106.977ZM149.404 97.1639C149.404 97.3303 149.404 97.4966 149.404 97.6629C149.573 98.4945 149.911 98.9935 150.755 99.4925C151.093 99.6588 151.262 99.6588 151.431 99.6588C151.6 99.6588 151.937 99.6588 152.106 99.4925C151.6 99.3261 151.093 98.9935 150.586 98.4945C150.249 98.3282 149.742 97.8292 149.404 97.1639Z" fill="white"/>
<path d="M89.278 119.118C88.7714 119.118 88.2647 119.118 87.9269 118.952C86.5757 118.619 85.5624 117.788 84.8868 116.457C84.3801 115.459 84.0423 114.295 84.0423 112.798C84.0423 111.468 84.2112 109.971 84.8868 108.307C85.2246 107.309 85.5624 106.312 85.9002 105.48C84.7179 106.312 83.7046 106.81 82.5223 106.81C79.82 106.977 78.4689 105.646 77.7933 104.648C77.1177 103.817 76.611 102.153 77.1177 99.9913C77.4555 98.328 78.4689 96.8311 80.1578 95.5006C82.0156 94.0037 83.5357 92.6731 84.8868 91.1762C86.238 89.6793 87.5891 88.1824 88.6025 86.6855C89.7847 85.1886 90.7981 83.858 91.8114 82.5274C92.8248 81.0305 94.0071 79.6999 95.1893 78.5357C96.3716 77.2051 97.7227 76.2072 99.2428 75.2092C100.763 74.2113 102.621 73.546 104.647 73.047C107.012 72.5481 109.207 72.7144 111.065 73.546C112.923 74.3776 114.443 75.7082 115.457 77.3714C116.47 79.0346 116.977 80.8642 117.146 83.0264C117.146 85.0222 116.808 87.1844 115.963 89.3466C115.119 91.3425 113.768 93.5047 112.079 95.3342C110.896 96.6648 109.376 97.8291 107.687 98.9933C107.856 99.326 108.025 99.6586 108.025 99.9913C108.363 101.156 108.701 102.32 109.039 103.318C109.376 104.316 109.545 105.314 109.883 106.312C110.052 106.81 110.221 107.309 110.39 107.808C111.403 107.642 112.248 107.808 112.754 107.975C113.599 108.474 114.274 109.139 114.612 110.137C114.95 111.301 114.781 112.465 113.937 113.63C113.43 114.461 112.754 115.293 111.741 115.958C110.728 116.79 109.376 117.289 107.856 117.621C105.83 118.12 104.141 117.954 102.621 117.122C101.269 116.457 100.256 115.293 99.4117 113.962C98.7361 112.798 98.3983 111.468 98.0605 109.971C98.0605 109.804 98.0605 109.804 98.0605 109.638C97.5538 111.301 96.8783 112.798 96.2027 113.962C95.696 115.127 94.8515 115.958 94.0071 116.79C93.1626 117.621 92.1492 118.12 91.1359 118.453C90.6292 119.118 89.9536 119.118 89.278 119.118ZM94.0071 102.486C93.3315 103.65 92.8248 104.815 92.1492 105.813C91.4737 107.143 90.7981 108.474 90.4603 109.971C89.9536 111.468 89.9536 112.299 89.9536 112.632V112.798L90.1225 112.632C90.4603 112.299 90.7981 111.966 90.967 111.468C91.6426 110.303 92.3181 108.474 92.8248 106.478C93.3315 105.314 93.6693 103.983 94.0071 102.486ZM103.296 104.648C103.296 104.981 103.296 105.314 103.465 105.813C103.634 106.977 103.803 108.141 103.972 109.139C104.141 109.971 104.478 110.802 104.816 111.468C105.154 111.966 105.323 112.133 105.492 112.299C105.492 112.299 105.83 112.299 106.167 112.299C105.83 111.966 105.492 111.468 105.323 110.969C104.816 110.137 104.478 109.139 104.141 107.975C103.803 106.977 103.634 105.979 103.296 104.981C103.465 104.815 103.465 104.815 103.296 104.648ZM101.945 92.6731C102.114 92.6731 102.114 92.6731 101.945 92.6731C102.79 92.1741 103.465 91.5088 103.803 91.0099C104.478 90.0119 105.154 89.1803 105.323 88.3487C105.661 87.5171 105.661 86.8518 105.661 86.1865C105.661 85.5212 105.492 85.0222 105.154 84.6896C104.985 84.3569 104.816 84.1906 104.478 84.1906C104.31 84.1906 104.141 84.0243 103.465 84.1906C102.958 84.357 102.621 84.5233 102.114 84.6896C102.114 84.6896 102.114 84.6896 102.114 84.8559C102.452 85.6875 102.621 86.6855 102.452 88.016C102.283 89.3466 102.114 90.8435 101.945 92.1741C102.114 92.1741 102.114 92.3404 101.945 92.6731ZM107.687 78.8683C108.701 79.3673 109.545 80.1989 110.221 81.1968C110.559 81.8621 110.896 82.3611 111.234 83.1927C111.234 82.1948 110.896 81.3631 110.559 80.5315C110.221 79.8662 109.545 79.3673 108.87 79.0346C108.532 78.8683 108.025 78.8683 107.687 78.8683Z" fill="white"/>
<path d="M97.7228 87.1843C97.8917 86.6853 98.0606 86.1864 98.3983 86.02C98.7361 85.6874 98.905 85.5211 99.0739 85.5211C99.2428 85.5211 99.4117 85.6874 99.5806 86.02C99.7495 86.3527 99.7495 86.8517 99.5806 87.5169C99.4117 88.8475 99.2428 90.3444 99.0739 91.675C98.905 93.0056 98.7361 94.3362 98.3983 95.6667C99.0739 95.5004 99.7495 95.3341 100.425 95.5004C101.101 95.6667 101.607 95.8331 102.283 96.1657C103.972 95.1678 105.323 94.1698 106.336 92.8393C107.35 91.675 108.025 90.3444 108.363 89.1802C108.701 88.0159 108.87 86.8517 108.701 85.6874C108.532 84.5231 108.194 83.6915 107.687 82.8599C107.181 82.0283 106.505 81.5293 105.661 81.1967C104.816 80.8641 103.803 80.8641 102.79 81.1967C101.607 81.5293 100.425 82.1946 99.2428 83.1926C98.2294 84.1905 97.0472 85.1884 96.0338 86.519C95.0205 87.8496 94.0071 89.1802 93.1626 90.6771C92.3182 92.174 91.3048 93.6709 90.4603 95.0015C89.6159 96.4984 88.7714 97.8289 87.9269 98.9932C87.0825 100.157 86.238 101.322 85.3935 102.153C84.2113 103.484 83.029 104.149 82.1845 104.149C81.3401 104.149 80.6645 103.983 80.1578 103.318C79.82 102.652 79.6511 101.987 79.82 100.989C79.9889 99.9911 80.6645 98.9932 81.8468 98.1616C83.7046 96.6647 85.3935 95.1678 86.9136 93.5046C88.2647 92.0077 89.6159 90.3444 90.7981 88.8475C91.9804 87.3506 92.9937 85.8537 94.0071 84.5231C95.0205 83.1926 96.0338 81.862 97.2161 80.8641C98.2294 79.6998 99.4117 78.8682 100.763 78.0366C102.114 77.205 103.465 76.706 105.154 76.207C107.012 75.8744 108.532 75.8744 109.714 76.5397C111.065 77.0386 112.079 78.0366 112.754 79.2008C113.43 80.3651 113.937 81.862 113.937 83.3589C113.937 85.0221 113.768 86.6853 112.923 88.5149C112.248 90.3444 111.065 92.0077 109.545 93.6709C108.025 95.3341 105.999 96.831 103.634 98.1616C104.141 99.1595 104.647 100.157 104.985 101.155C105.323 102.32 105.661 103.318 105.999 104.316C106.336 105.313 106.505 106.311 106.843 107.309C107.181 108.307 107.35 108.973 107.687 109.638C108.025 110.303 108.363 110.802 108.87 110.968C109.376 111.301 109.883 111.135 110.559 110.968C110.896 110.802 111.234 110.802 111.234 111.135C111.403 111.467 111.234 111.8 110.896 112.465C110.559 112.964 110.052 113.463 109.376 113.962C108.701 114.461 107.856 114.794 106.674 115.126C105.323 115.459 104.31 115.293 103.465 114.96C102.621 114.461 101.945 113.796 101.438 112.964C100.932 112.133 100.594 110.968 100.425 109.804C100.256 108.64 99.9184 107.476 99.9184 106.145C99.7495 104.981 99.5806 103.817 99.5806 102.652C99.4117 101.488 99.2428 100.49 99.0739 99.8248C98.7361 99.9911 98.2295 99.9911 97.8917 99.9911C97.5539 99.9911 97.2161 99.9911 97.0472 99.9911C96.5405 102.819 95.8649 105.313 95.1894 107.642C94.5138 109.97 93.8382 111.8 92.9937 113.131C92.4871 113.962 92.1493 114.628 91.4737 115.126C90.967 115.625 90.2914 115.958 89.6159 116.124C88.9403 116.291 88.4336 116.291 87.9269 116.291C87.4203 116.124 86.9136 115.792 86.7447 115.293C86.4069 114.794 86.238 113.962 86.238 113.131C86.238 112.133 86.4069 110.968 86.9136 109.472C87.4203 107.808 88.0958 106.311 88.7714 104.814C89.6159 103.318 90.4603 101.821 91.3048 100.157C92.1493 98.4942 93.1626 96.6647 94.176 94.6688C95.8649 92.3403 96.8783 90.0118 97.7228 87.1843Z" fill="black"/>
<path d="M26.6184 57.2462C26.9562 56.4146 27.294 55.583 27.8007 54.9177C28.3073 54.2524 28.814 53.7534 29.1518 53.5871C29.6585 53.4208 29.8274 53.4208 30.1652 53.9197C30.3341 54.2524 30.503 55.084 30.3341 56.4146C30.1652 57.4125 29.9963 58.9094 29.6585 61.2379C29.3207 63.4001 28.814 65.8949 28.1385 68.7224C28.9829 68.3898 29.9963 68.2235 31.3474 68.0571C32.5297 67.0592 33.7119 66.0613 34.5564 64.897C35.4009 63.7328 36.0765 62.4022 36.5831 61.2379C37.0898 59.9073 37.4276 58.7431 37.4276 57.4125C37.5965 56.2483 37.4276 55.084 37.2587 54.0861C36.9209 53.0881 36.5831 52.2565 35.9076 51.7575C35.232 51.0923 34.3875 50.7596 33.3742 50.7596C32.1919 50.7596 30.8408 51.0923 29.6585 51.9239C28.4762 52.7555 27.294 53.9197 26.1117 55.2503C24.9295 56.5809 23.7472 58.2441 22.7339 60.0737C21.5516 61.9032 20.5382 63.8991 19.5249 65.8949C18.5115 67.8908 17.4982 69.8867 16.4848 71.8826C15.3025 73.5458 14.4581 75.3753 13.6136 77.0386C12.7691 78.7018 11.9247 80.0324 11.0802 80.864C10.2357 81.6956 9.22237 82.1945 8.3779 82.5272C7.53343 82.6935 6.85785 82.6935 6.18228 82.3609C5.5067 82.0282 5.00002 81.5293 4.83113 80.6976C4.66224 79.866 4.49334 79.0344 4.83113 78.0365C5.00002 77.0386 5.6756 76.0406 6.52007 74.8764C9.89794 70.552 12.7691 66.5602 15.3025 63.0675C17.667 59.5747 19.8627 56.5809 21.8894 53.9197C23.9161 51.4249 26.1117 49.2627 28.1385 47.7658C30.1652 46.1026 32.6986 45.1046 35.5698 44.6057C37.4276 44.273 39.1165 44.4394 40.6366 44.9383C42.1566 45.6036 43.17 46.4352 44.0145 47.7658C44.8589 49.0964 45.3656 50.5933 45.5345 52.2565C45.7034 54.0861 45.5345 55.9156 45.0278 57.7452C44.5211 59.741 43.5078 61.5706 42.1566 63.5664C40.8055 65.5623 38.9477 67.3918 36.752 68.8888C38.6099 69.7204 39.961 70.8846 41.1433 72.7142C42.3255 74.3774 43.17 76.3733 43.5078 78.3691C43.8456 80.365 44.0145 82.6935 43.6767 85.022C43.3389 87.3505 42.6633 89.5127 41.4811 91.6749C40.2988 93.8371 38.7788 95.6667 36.9209 97.3299C34.8942 98.9931 32.5297 100.157 29.6585 100.989C27.4629 101.654 25.4362 101.654 23.5783 101.322C21.7205 100.989 20.0316 100.324 18.5115 99.3258C17.3293 100.823 16.147 101.654 14.7959 102.153C13.4447 102.652 12.4313 102.652 11.418 102.32C10.4046 101.821 9.89794 100.989 9.39126 99.6584C8.88458 98.3278 9.22236 96.332 9.72905 94.0034C9.89794 93.1718 10.2357 92.5065 10.4046 91.8413C10.5735 91.176 10.9113 90.3443 11.2491 89.5127C10.7424 87.1842 10.7424 85.6873 11.0802 85.022C11.5869 84.3567 12.2625 84.5231 13.1069 85.1884C13.9514 83.3588 14.9647 81.3629 15.9781 79.5334C16.9915 77.5375 18.1737 75.5417 19.1871 73.2131C20.3693 70.8846 21.5516 68.5561 22.7339 65.8949C24.085 63.2338 25.2673 60.4063 26.6184 57.2462ZM30.3341 72.5478C29.8274 72.7142 29.3207 73.0468 28.6451 73.2131C28.1385 73.3795 27.4629 73.5458 26.9562 73.8784C26.6184 75.708 26.1117 77.3712 25.6051 79.2007C25.0984 81.0303 24.7606 82.8598 24.2539 84.5231C23.7472 86.1863 23.2405 87.8495 22.9028 89.5127C22.3961 91.0096 21.8894 92.5065 21.3827 93.6708C23.0716 94.3361 24.9295 94.3361 26.9562 93.6708C28.6451 93.1718 29.9963 92.3402 31.1785 91.176C32.3608 90.0117 33.2053 88.6811 33.8808 87.1842C34.5564 85.6873 34.8942 84.1904 35.0631 82.5272C35.232 80.864 35.0631 79.3671 34.7253 78.0365C34.3875 76.7059 33.8808 75.3753 33.0364 74.3774C32.5297 73.5458 31.5163 72.8805 30.3341 72.5478Z" fill="black"/>
<path d="M59.5528 42.6097C61.4106 42.1108 62.7618 42.6097 63.7751 43.9403C64.7885 45.2709 65.1263 47.4331 64.7885 50.4269C64.4507 53.2544 63.2684 56.9134 61.4106 61.2378C59.5528 65.5622 56.5127 70.3856 52.2904 75.5416C52.6281 76.2068 53.1348 76.7058 53.6415 77.0385C54.486 77.7038 55.4993 78.0364 56.5127 77.8701C57.5261 77.7038 58.3705 77.3711 59.3839 76.7058C60.2284 76.0405 61.0728 75.3752 61.9173 74.3773C62.7618 73.3794 63.2684 72.5478 63.944 71.5498C64.4507 70.7182 64.7885 70.2192 65.2952 70.0529C65.8018 69.8866 66.1396 69.8866 66.4774 70.0529C66.8152 70.2192 66.9841 70.7182 66.9841 71.2172C66.9841 71.7161 66.9841 72.3814 66.4774 73.0467C64.9574 75.7079 63.4373 77.8701 62.0862 79.5333C60.5661 81.1965 59.215 82.3608 57.8638 83.1924C56.5127 84.024 55.1615 84.3566 53.9793 84.523C52.797 84.523 51.6148 84.3566 50.4325 83.8577C48.9125 83.1924 47.7302 82.0281 46.8858 80.1986C46.0413 78.369 45.5346 76.0405 45.7035 73.213C45.7035 71.7161 45.8724 70.0529 46.2102 68.057C46.548 66.0612 47.0547 64.0653 47.7302 61.9031C48.4058 59.7409 49.0814 57.5787 49.9258 55.4165C50.7703 53.2544 51.7837 51.2585 52.797 49.5953C53.8104 47.7657 54.9927 46.2688 56.1749 45.1046C57.1883 43.774 58.3705 42.9424 59.5528 42.6097ZM59.3839 49.9279C59.0461 49.7616 58.5394 50.0942 58.0327 50.5932C57.5261 51.2585 56.8505 52.0901 56.3438 53.2544C55.6682 54.4186 55.1615 55.7492 54.486 57.2461C53.8104 58.743 53.3037 60.4062 52.797 62.0694C52.2904 63.7327 51.9526 65.3959 51.7837 67.0591C51.6148 68.7223 51.4459 70.2192 51.6148 71.7161C52.797 69.8866 54.1482 67.7244 55.3304 65.3959C56.5127 63.0674 57.5261 60.7389 58.3705 58.5767C59.215 56.4145 59.7217 54.4186 60.0595 52.9217C60.2284 51.2585 60.0595 50.2606 59.3839 49.9279Z" fill="black"/>
<path d="M66.3085 79.5331C64.7885 78.5351 63.7751 77.0382 63.4373 75.375C63.0995 73.7118 63.0995 71.8822 63.6062 69.8864C64.1129 67.8905 64.9574 66.061 66.3085 64.2314C67.4908 62.4019 69.0108 60.7386 70.5309 59.4081C72.0509 58.0775 73.7398 57.0795 75.5977 56.5806C77.2866 56.0816 78.9755 56.2479 80.6645 56.9132C81.34 56.4143 81.8467 56.2479 82.5223 56.0816C83.1979 55.9153 83.7046 56.0816 84.2112 56.4142C84.7179 56.7469 85.0557 57.0795 85.2246 57.7448C85.3935 58.4101 85.5624 59.0754 85.3935 59.907C85.0557 61.4039 84.7179 62.9008 84.2112 64.3977C83.7046 65.8946 83.029 67.3915 82.1845 68.8884C82.3534 69.5537 82.3534 70.0527 82.5223 70.3853C82.6912 70.718 83.029 71.0506 83.3668 71.0506C84.0423 71.217 84.8868 70.8843 86.0691 69.8864C87.2513 68.8884 88.6025 67.0589 89.9536 64.3977C90.2914 63.7324 90.7981 63.2335 91.3048 63.0671C91.8115 62.9008 92.1492 62.9008 92.487 63.0671C92.8248 63.2335 92.9937 63.5661 93.1626 64.0651C93.1626 64.5641 93.1626 65.2293 92.6559 65.7283C91.8115 67.2252 90.967 68.5558 90.1225 69.8864C89.278 71.2169 88.2647 72.3812 87.4202 73.3791C86.4069 74.3771 85.3935 75.2087 84.3801 75.874C83.3668 76.5393 82.3534 76.7056 81.34 76.7056C79.9889 76.5393 78.9755 75.874 78.1311 74.7097C77.1177 75.874 76.2732 76.7056 75.2599 77.5372C74.2465 78.3688 73.2332 79.0341 72.2198 79.5331C71.2064 80.032 70.1931 80.1984 69.1797 80.1984C67.9975 80.3647 67.153 80.032 66.3085 79.5331ZM77.2866 63.0671C77.4555 62.4019 77.6244 61.7366 77.7933 61.2376C77.9622 60.7386 78.1311 60.2397 78.4689 59.7407C77.7933 59.7407 76.9488 60.0733 76.1043 60.5723C75.2599 61.0713 74.4154 61.9029 73.7398 62.5682C73.0643 63.3998 72.3887 64.2314 71.7131 65.2293C71.0375 66.2273 70.5309 67.2252 70.362 68.2231C70.0242 69.2211 69.8553 70.0527 69.8553 70.8843C69.8553 71.7159 70.1931 72.3812 70.6997 72.8802C71.0375 73.2128 71.3753 73.3791 71.882 73.2128C72.3887 73.2128 72.7265 73.0465 73.4021 72.7139C73.9087 72.3812 74.4154 72.0486 75.091 71.5496C75.7666 71.0506 76.2732 70.5517 76.9488 69.8864C76.4421 68.0568 76.611 65.7283 77.2866 63.0671Z" fill="black"/>
<path d="M90.4602 54.7513C90.2913 54.2523 90.4602 53.9197 90.798 53.5871C91.1358 53.2544 91.4735 53.0881 91.9802 53.0881C92.4869 53.0881 92.9936 53.2544 93.6692 53.5871C94.1758 53.9197 94.6825 54.4187 95.0203 55.084C95.8648 54.086 96.7092 53.2544 97.5537 52.4228C98.3982 51.5912 99.2426 50.9259 100.087 50.4269C100.932 49.928 101.776 49.5953 102.452 49.429C103.296 49.2627 103.972 49.429 104.647 49.5953C105.661 50.0943 106.167 50.5933 106.505 51.4249C106.843 52.2565 107.012 53.0881 107.012 54.086C107.012 55.084 106.843 56.0819 106.505 57.0798C106.167 58.0778 105.998 59.0757 105.829 59.9073C105.661 60.7389 105.492 61.5705 105.492 62.2358C105.492 62.9011 105.661 63.2338 105.998 63.5664C106.505 63.8991 107.181 63.8991 107.687 63.7327C108.194 63.5664 108.701 63.2338 109.207 62.7348C109.714 62.2358 110.221 61.5705 110.727 60.9052C111.234 60.24 111.741 59.4083 112.079 58.5767C112.416 57.9114 112.923 57.5788 113.43 57.2462C113.936 57.0798 114.443 56.9135 114.781 57.0798C115.119 57.2462 115.288 57.5788 115.456 58.0778C115.456 58.5767 115.288 59.242 114.95 59.9073C113.936 61.7369 112.923 63.4001 111.91 64.897C110.896 66.3939 109.883 67.5581 108.701 68.5561C107.687 69.554 106.505 70.2193 105.492 70.3856C104.478 70.7183 103.296 70.552 102.114 69.8867C101.1 69.2214 100.425 68.5561 100.087 67.5581C99.7493 66.5602 99.7493 65.396 99.7493 64.2317C99.9182 63.0674 100.087 61.9032 100.594 60.5726C100.932 59.4083 101.438 58.2441 101.776 57.2462C102.114 56.2482 102.452 55.4166 102.621 54.585C102.789 53.9197 102.789 53.4207 102.452 53.2544C102.114 53.0881 101.776 53.0881 101.269 53.4207C100.763 53.7534 100.256 54.086 99.7493 54.7513C99.2426 55.4166 98.736 56.0819 98.0604 56.9135C97.5537 57.7451 96.8781 58.5767 96.3715 59.5747C96.5403 61.2379 96.5403 63.0674 96.3715 64.7307C96.2026 66.3939 95.8648 68.0571 95.527 69.3877C95.0203 70.7183 94.5136 71.8825 93.838 72.7141C93.1625 73.5458 92.318 74.0447 91.3046 74.0447C90.4602 74.0447 89.7846 73.7121 89.4468 72.8805C88.9401 72.0489 88.7712 71.0509 88.7712 69.8867C88.7712 68.7224 88.9401 67.2255 89.2779 65.7286C89.6157 64.2317 90.2913 62.7348 91.1358 61.0716C91.3046 60.7389 91.4735 60.5726 91.6424 60.24C91.8113 59.9073 91.9802 59.741 92.1491 59.4083C91.9802 58.5767 91.8113 57.9114 91.6424 57.0798C90.9669 56.4145 90.798 55.5829 90.4602 54.7513Z" fill="black"/>
<path d="M125.759 73.712C125.928 73.3794 125.928 73.0468 125.928 72.7141L125.759 73.712Z" fill="black"/>
<path d="M138.257 53.5869C138.595 53.088 138.595 52.589 138.426 52.2563C138.257 51.7574 138.088 51.4247 137.75 51.2584C137.413 51.0921 137.075 50.9258 136.568 51.0921C136.062 51.2584 135.724 51.5911 135.386 52.09C134.879 53.088 134.204 54.0859 133.528 55.2502C132.853 56.4144 132.177 57.5787 131.501 58.7429C130.826 59.9072 130.15 61.0714 129.306 62.2357C128.461 63.4 127.786 64.5642 126.941 65.5621C127.279 63.5663 127.786 61.5704 128.124 59.4082C128.461 57.4123 128.968 55.5828 129.306 53.7533C129.644 52.09 129.981 50.5931 130.15 49.2625C130.319 48.0983 130.488 47.2667 130.488 46.7677C130.488 46.2687 130.488 45.7698 130.319 45.4371C130.15 45.1045 129.981 44.7718 129.644 44.6055C129.306 44.4392 128.968 44.2729 128.63 44.2729C128.292 44.2729 127.955 44.4392 127.617 44.6055C127.617 43.9402 127.279 43.4413 126.941 43.1086C126.603 42.776 125.928 42.776 124.915 43.1086C123.732 43.4413 122.381 43.9402 121.199 44.7718C120.017 45.4371 118.834 46.4351 117.821 47.433C116.808 48.4309 115.794 49.5952 114.95 50.7594C114.105 51.9237 113.261 53.2543 112.754 54.4185C112.079 55.7491 111.741 56.9134 111.403 58.244C111.234 59.4082 111.065 60.5725 111.234 61.7367C111.403 62.7347 111.572 63.7326 112.079 64.5642C112.585 65.3958 113.261 66.0611 114.105 66.5601C115.456 67.3917 116.977 67.3917 118.497 66.7264C120.017 66.0611 121.537 64.7305 122.719 62.901L122.043 64.8969C121.874 65.5621 121.537 66.2274 121.368 67.059C121.03 67.8907 120.861 68.7223 120.523 69.7202L118.834 76.0405C118.665 76.5394 118.665 77.0384 118.497 77.5374C118.497 78.0363 118.328 78.369 118.328 78.8679C118.159 80.1985 118.497 81.3628 119.003 82.0281C119.679 82.8597 120.354 83.1923 121.199 83.3586C122.043 83.3586 122.888 83.1923 123.563 82.527C124.239 81.8617 124.577 80.8638 124.577 79.3669C124.577 78.7016 124.746 77.7037 124.746 76.5394C124.915 75.7078 124.915 74.8762 125.083 73.8783L125.252 72.8803C125.252 72.714 125.252 72.714 125.252 72.5477L125.421 71.8824L125.928 69.0549C125.928 69.0549 127.279 69.2212 129.475 66.5601C130.995 64.7305 132.346 62.7347 133.528 60.7388C135.555 58.244 136.906 55.9154 138.257 53.5869ZM126.941 47.2667C126.941 47.932 126.772 48.9299 126.435 49.9278C126.097 50.9258 125.759 52.09 125.252 53.2543C124.746 54.4185 124.239 55.5828 123.732 56.5807C123.226 57.5787 122.55 58.5766 121.874 59.4082C121.199 60.2398 120.692 60.7388 120.017 61.0714C119.341 61.4041 118.834 61.4041 118.328 61.0714C117.652 60.5725 117.314 59.5745 117.483 58.244C117.652 56.9134 118.159 55.4165 119.003 53.7533C119.848 52.09 120.861 50.5931 122.381 49.2625C123.732 47.7656 125.421 46.7677 127.279 46.1024L126.941 47.2667Z" fill="black"/>
<path d="M139.27 41.4453C139.946 40.6137 140.79 39.9484 141.635 39.4494C142.479 38.9504 143.324 38.6178 143.999 38.4515C144.675 38.4515 145.182 38.6178 145.351 38.9504C145.519 39.4494 145.351 40.281 144.675 41.6116C143.83 43.2748 143.155 44.7717 142.648 46.2686C142.142 47.7655 141.804 49.0961 141.635 50.2604C141.466 51.4246 141.466 52.4226 141.635 53.2542C141.804 54.0858 141.973 54.5847 142.479 54.7511C143.324 55.25 144.168 55.0837 145.351 54.5848C146.364 54.0858 147.377 53.0878 148.56 51.7573C148.391 50.593 148.391 49.2624 148.391 47.9319C148.56 46.6013 148.728 45.2707 149.235 43.9401C149.573 42.6095 150.08 41.279 150.755 40.281C151.431 39.1168 151.937 38.1188 152.613 37.2872C153.289 36.4556 153.964 35.9566 154.64 35.624C155.315 35.2914 155.991 35.2914 156.666 35.624C157.342 35.9566 157.68 36.7883 157.849 37.7862C158.018 38.7841 158.018 39.9484 157.68 41.279C157.342 42.6095 157.004 44.1064 156.329 45.6033C155.653 47.2666 154.977 48.7635 154.133 50.2604C154.302 50.7593 154.64 50.9257 154.977 51.092C155.484 51.2583 155.991 51.2583 156.498 50.9257C157.004 50.7593 157.68 50.2604 158.355 49.7614C159.031 49.2624 159.538 48.4308 160.213 47.5992C160.889 46.7676 161.395 45.7697 162.071 44.7717C162.578 43.9401 163.084 43.4412 163.591 43.2748C164.098 43.1085 164.436 43.1085 164.773 43.2748C165.111 43.4412 165.28 43.7738 165.449 44.4391C165.449 44.9381 165.28 45.6033 164.942 46.435C163.929 48.0982 162.915 49.7614 161.902 51.2583C160.889 52.7552 159.706 53.9195 158.693 54.9174C157.511 55.9153 156.498 56.5806 155.315 56.9133C154.133 57.2459 152.951 57.0796 151.768 56.248C151.431 56.0817 151.093 55.749 150.586 55.4164C149.742 56.4143 148.728 57.2459 147.884 58.0775C146.871 58.9091 145.857 59.4081 144.844 59.9071C143.83 60.406 142.817 60.5724 141.804 60.5724C140.79 60.5724 139.777 60.406 138.764 59.9071C137.413 59.2418 136.399 58.2438 135.892 56.7469C135.386 55.25 135.048 53.5868 135.217 51.9236C135.386 50.094 135.724 48.4308 136.568 46.6013C137.075 44.4391 138.088 42.7759 139.27 41.4453Z" fill="black"/>
<path d="M166.631 33.6285C166.969 32.9632 167.476 32.4642 168.151 32.1316C168.658 31.6326 169.334 31.4663 169.671 31.3C170.009 31.1336 170.516 31.3 170.854 31.4663C171.191 31.7989 171.191 32.2979 171.191 32.9632C171.191 33.4622 171.023 34.1274 170.685 34.9591C170.516 35.7907 170.178 36.6223 169.84 37.6202C169.503 38.6181 169.165 39.6161 168.996 40.614C168.658 41.612 168.489 42.6099 168.32 43.4415C168.151 44.2731 168.151 45.1047 168.151 45.6037C168.151 46.269 168.32 46.6016 168.658 46.7679C169.165 47.1006 169.671 47.1006 170.347 46.7679C171.023 46.4353 171.698 45.9363 172.374 45.4374C173.049 44.7721 173.725 44.1068 174.232 43.2752C174.907 42.4436 175.245 41.7783 175.752 40.9467C176.089 40.2814 176.596 39.7824 176.934 39.6161C177.441 39.4498 177.778 39.4498 178.116 39.7824C178.454 39.9487 178.623 40.4477 178.792 40.7803C178.961 41.2793 178.792 41.7783 178.454 42.2772C176.765 45.271 174.907 47.7659 173.218 49.5954C171.529 51.425 169.84 52.7556 167.982 53.0882C167.138 53.2545 166.125 53.4208 165.28 53.2545C164.436 53.0882 163.591 52.7556 162.916 52.0903C162.24 51.425 161.733 50.7597 161.396 49.5954C161.058 48.5975 160.889 47.2669 161.058 45.9363C161.227 44.4394 161.396 43.1089 161.902 41.7783C162.24 40.4477 162.747 39.2834 163.253 38.2855C163.76 37.2876 164.267 36.2896 164.942 35.458C165.618 35.1254 166.125 34.2938 166.631 33.6285ZM175.92 21.3206C176.258 22.4849 176.089 23.4828 175.583 24.4807C175.076 25.4787 174.232 26.144 173.049 26.4766C171.867 26.8093 170.854 26.6429 169.84 26.144C168.827 25.645 168.151 24.8134 167.814 23.6491C167.476 22.4849 167.645 21.4869 168.151 20.489C168.658 19.4911 169.503 18.8258 170.685 18.4931C171.867 18.1605 172.88 18.3268 173.894 18.8258C174.907 19.3247 175.583 20.1564 175.92 21.3206Z" fill="black"/>
<path d="M116.301 111.467C114.612 110.636 113.43 109.305 112.754 107.642C112.079 105.979 111.91 104.149 112.248 102.32C112.416 100.49 113.092 98.6605 113.936 96.6646C114.781 94.8351 115.963 93.1719 117.145 91.8413C118.497 90.5107 119.848 89.5128 121.199 89.0138C122.719 88.5148 124.07 88.5148 125.59 89.1801C125.759 88.8475 126.266 88.5148 126.772 88.3485C127.279 88.1822 127.955 88.1822 128.968 88.5148C129.644 88.6812 130.319 88.8475 130.995 89.0138C131.67 89.1801 132.346 89.3464 133.19 89.3464C134.035 89.3464 134.879 89.5128 135.724 89.3464C136.737 89.3464 137.75 89.1801 138.933 88.8475C139.608 88.6811 139.946 88.8475 140.284 89.0138C140.622 89.3464 140.791 89.5128 140.791 90.0117C140.791 90.3444 140.622 90.8433 140.284 91.176C139.946 91.5086 139.608 91.8413 138.933 92.0076C137.75 92.3402 136.737 92.6729 135.724 92.8392C134.71 93.0055 133.866 93.1719 133.021 93.1719C132.177 93.1719 131.501 93.1719 130.995 93.1719C130.488 93.1719 129.981 93.0055 129.475 93.0055C129.812 94.5024 129.812 95.9993 129.644 97.6626C129.475 99.3258 129.137 100.989 128.461 102.486C127.955 103.983 127.11 105.48 126.266 106.81C125.421 108.141 124.408 109.305 123.226 110.137C122.212 110.968 121.03 111.467 119.679 111.8C118.834 112.465 117.652 112.133 116.301 111.467ZM119.848 105.313C120.523 105.812 121.368 105.812 122.212 104.981C123.057 104.315 123.732 103.318 124.408 101.987C125.083 100.656 125.59 99.1595 125.928 97.4962C126.266 95.833 126.266 94.3361 126.097 92.8392C125.083 92.3402 124.239 92.1739 123.394 92.3402C122.55 92.6729 121.874 93.1719 121.199 94.0035C120.523 94.8351 120.017 95.833 119.679 96.831C119.341 97.9952 119.003 99.1595 118.834 100.157C118.665 101.322 118.665 102.32 118.834 103.151C118.834 104.315 119.172 104.981 119.848 105.313Z" fill="black"/>
<path d="M138.257 87.517C138.426 86.8517 138.933 86.1864 139.608 85.5211C140.284 84.8558 140.791 84.5232 141.466 84.1905C142.142 83.8579 142.48 83.8579 142.986 84.1905C143.324 84.5232 143.493 85.0221 143.324 86.1864C143.155 87.1843 142.986 88.0159 142.817 89.0139C142.649 90.0118 142.48 91.0097 142.142 92.3403C141.635 93.6709 141.297 95.1678 141.128 96.9973C140.791 98.8269 140.453 100.989 140.115 103.484C141.973 101.488 143.324 99.6585 144.337 98.3279C145.351 96.831 146.195 95.5004 146.871 94.3362C147.378 93.5046 147.884 93.0056 148.391 92.8393C148.898 92.673 149.404 92.5066 149.742 92.8393C150.08 93.0056 150.249 93.3383 150.418 94.0035C150.418 94.5025 150.249 95.1678 149.742 95.9994C148.053 98.9932 146.364 101.488 144.675 103.65C142.986 105.812 141.128 107.642 139.271 109.305C138.595 112.798 137.751 115.792 136.737 118.287C135.724 120.781 134.542 122.777 133.359 124.274C132.177 125.771 130.826 126.935 129.644 127.601C128.293 128.266 127.11 128.599 126.097 128.599C125.084 128.599 124.07 128.266 123.395 127.601C122.55 126.935 122.212 126.104 121.875 124.94C121.537 123.443 121.706 122.112 122.381 120.781C122.888 119.617 123.901 118.453 124.915 117.289C126.097 116.291 127.279 115.126 128.799 114.129C130.319 113.131 131.67 111.966 133.19 110.802C133.528 109.305 133.866 107.476 134.204 105.313C134.542 103.151 135.048 101.155 135.555 98.9932C136.062 96.831 136.568 94.8352 137.075 92.8393C137.244 90.5108 137.751 88.8475 138.257 87.517ZM127.279 121.779C127.617 121.946 127.955 121.946 128.461 121.613C128.799 121.28 129.306 120.948 129.644 120.282C129.981 119.617 130.488 118.952 130.826 117.954C131.164 117.122 131.502 116.124 131.839 115.126C129.813 116.79 128.461 118.287 127.617 119.451C126.772 120.615 126.604 121.28 127.279 121.779ZM147.04 74.3775C147.378 75.5418 147.209 76.5397 146.702 77.5376C146.195 78.5356 145.182 79.2008 144.169 79.5335C142.986 79.8661 141.973 79.6998 140.96 79.2008C139.946 78.7019 139.271 77.8703 138.933 76.706C138.595 75.5418 138.764 74.5438 139.271 73.5459C139.777 72.548 140.622 71.8827 141.804 71.55C142.986 71.2174 144 71.3837 145.013 71.8827C146.026 72.3816 146.702 73.2132 147.04 74.3775Z" fill="black"/>
<path d="M149.235 102.153C147.715 101.155 146.702 99.8247 146.364 97.9951C146.026 96.3319 146.026 94.5024 146.533 92.5065C147.04 90.5106 147.884 88.6811 149.235 86.8515C150.417 85.022 151.937 83.3588 153.457 82.0282C154.978 80.6976 156.666 79.866 158.524 79.2007C160.213 78.7017 161.902 78.868 163.591 79.5333C164.267 79.0344 164.773 78.868 165.449 78.7017C166.125 78.5354 166.631 78.7017 167.138 79.0344C167.645 79.367 167.982 79.6997 168.151 80.3649C168.32 81.0302 168.489 81.6955 168.32 82.5271C167.982 84.024 167.645 85.5209 167.138 87.0178C166.631 88.5147 165.956 90.0117 165.111 91.5086C165.28 92.1738 165.28 92.6728 165.449 93.0055C165.618 93.3381 165.956 93.6707 166.293 93.6707C166.969 93.8371 167.813 93.5044 168.996 92.5065C170.178 91.5086 171.36 89.679 172.88 87.0178C173.218 86.3526 173.725 85.8536 174.231 85.6873C174.738 85.5209 175.076 85.5209 175.414 85.6873C175.751 85.8536 175.92 86.1862 176.089 86.6852C176.089 87.1842 176.089 87.8495 175.583 88.3484C174.738 89.8453 173.894 91.1759 173.049 92.5065C172.205 93.8371 171.191 95.0013 170.347 95.9993C169.333 96.9972 168.32 97.8288 167.307 98.4941C166.293 99.1594 165.28 99.3257 164.267 99.3257C162.916 99.1594 161.902 98.4941 161.058 97.3298C160.044 98.4941 159.2 99.3257 158.187 100.157C157.173 100.989 156.16 101.654 155.146 101.987C154.133 102.486 153.12 102.652 152.106 102.652C150.924 102.985 150.08 102.652 149.235 102.153ZM160.213 85.6873C160.382 85.022 160.551 84.3567 160.72 83.8577C160.889 83.3587 161.058 82.8598 161.395 82.3608C160.72 82.3608 159.875 82.6935 159.031 83.1924C158.187 83.6914 157.342 84.523 156.666 85.1883C155.991 86.0199 155.315 86.8515 154.64 87.8495C153.964 88.8474 153.457 89.8453 153.289 90.8433C153.12 91.8412 152.782 92.6728 152.782 93.5044C152.782 94.336 153.12 95.0013 153.626 95.5003C153.964 95.8329 154.302 95.9993 154.809 95.8329C155.315 95.8329 155.653 95.6666 156.16 95.334C156.666 95.0013 157.173 94.6687 157.849 94.1697C158.524 93.6707 159.031 93.1718 159.707 92.5065C159.369 90.6769 159.538 88.1821 160.213 85.6873Z" fill="black"/>
</g>
<defs>
<clipPath id="clip0_557_2071">
<rect width="181.561" height="165.491" fill="white" transform="translate(0.946411 0.530273)"/>
</clipPath>
</defs>
</svg>
