<svg width="23" height="23" viewBox="0 0 23 23" fill="none" xmlns="http://www.w3.org/2000/svg">
<g id="button-icon">
<path id="Vector" d="M17.3041 14.0486C17.2124 14.1403 17.0291 14.2319 16.9374 14.3236L14.7374 14.6903L16.2958 17.9903C16.4791 18.3569 16.2958 18.7236 15.9291 18.9069L13.3624 20.0986C13.2708 20.1903 13.1791 20.1903 13.0874 20.1903C12.8124 20.1903 12.5374 20.0069 12.4458 19.8236L10.9791 16.5236L9.23744 17.8986C9.14578 17.9903 8.96244 18.0819 8.77911 18.0819C8.41244 18.0819 8.04578 17.8069 8.04578 17.3486V6.8986C8.04578 6.44027 8.32078 6.16527 8.77911 6.16527C8.96244 6.16527 9.14578 6.25693 9.23744 6.3486L17.2124 13.1319C17.4874 13.3153 17.5791 13.7736 17.3041 14.0486ZM6.21244 11.0236H4.37911V3.69027H19.0458V11.0236H17.5791L19.5958 12.7653C20.3291 12.4903 20.7874 11.8486 20.7874 11.0236V3.69027C20.7874 2.68193 19.9624 1.85693 18.9541 1.85693H4.37911C3.37078 1.85693 2.54578 2.68193 2.54578 3.69027V11.0236C2.54578 12.0319 3.37078 12.8569 4.37911 12.8569H6.21244V11.0236Z" fill="#1D1D1B"/>
</g>
</svg>
