<svg width="33" height="33" viewBox="0 0 33 33" fill="none" xmlns="http://www.w3.org/2000/svg">
<mask id="mask0_523_423" style="mask-type:alpha" maskUnits="userSpaceOnUse" x="0" y="0" width="33" height="33">
<rect x="0.5" y="0.00537109" width="32" height="32" fill="#D9D9D9"/>
</mask>
<g mask="url(#mask0_523_423)">
<path d="M27.0333 28.0054C24.3889 28.0054 21.7222 27.3887 19.0333 26.1554C16.3444 24.922 13.8667 23.172 11.6 20.9054C9.33333 18.6387 7.58333 16.1609 6.35 13.472C5.11667 10.7831 4.5 8.11648 4.5 5.47204C4.5 5.05722 4.64074 4.70907 4.92223 4.4276C5.2037 4.14612 5.55184 4.00537 5.96667 4.00537H10.8778C11.1889 4.00537 11.4592 4.11463 11.6889 4.33314C11.9185 4.55167 12.0704 4.82019 12.1444 5.1387L13.0333 9.49424C13.0778 9.82017 13.0704 10.1091 13.0111 10.3609C12.9518 10.6128 12.8333 10.8276 12.6555 11.0054L9.35553 14.3387C9.88887 15.2646 10.4722 16.1369 11.1055 16.9554C11.7389 17.7739 12.437 18.5535 13.2 19.2943C13.9778 20.0869 14.7963 20.8146 15.6556 21.4776C16.5148 22.1406 17.4185 22.7313 18.3667 23.2498L21.5222 20.0276C21.7371 19.798 21.9945 19.6369 22.2945 19.5443C22.5945 19.4517 22.8926 19.4276 23.1889 19.472L27.3667 20.3609C27.6926 20.4498 27.963 20.622 28.1778 20.8776C28.3926 21.1332 28.5 21.4202 28.5 21.7387V26.5387C28.5 26.9535 28.3593 27.3017 28.0778 27.5831C27.7963 27.8646 27.4482 28.0054 27.0333 28.0054Z" fill="#D5B16C"/>
</g>
</svg>
