<svg width="269" height="63" viewBox="0 0 269 63" fill="none" xmlns="http://www.w3.org/2000/svg">
<g clip-path="url(#clip0_538_666)">
<path d="M0 0.286865V4.84647C3.46269 4.75004 8.53946 5.03932 13.2989 6.95408C22.404 10.6183 30.7641 16.1697 30.7641 16.1697C30.7641 16.1697 31.4125 11.4035 37.7861 11.4724C44.1458 11.555 48.8225 14.1172 48.8225 14.1172C48.8225 14.1172 32.0747 11.7065 38.6138 19.7375C41.4695 23.2364 45.9255 22.9196 49.264 19.8201C49.264 19.8201 49.4985 22.9196 44.6563 27.6307L45.8151 51.7649C45.8151 51.7649 45.7047 52.4537 45.0012 52.5776C44.3114 52.6878 41.4143 52.922 39.5657 52.5776C37.7171 52.2333 37.0273 53.7348 32.0471 49.3405C27.0669 44.9462 28.005 43.3345 28.005 43.3345C28.005 43.3345 21.2866 49.9328 19.6035 62.5371H56.148V0.286865H0Z" fill="#005640"/>
<path d="M267.455 59.479C266.586 59.479 265.896 60.154 265.896 60.9943C265.896 61.8346 266.586 62.5233 267.455 62.5233C268.324 62.5233 269 61.8483 269 60.9943C269 60.1402 268.324 59.479 267.455 59.479ZM267.455 62.1927C266.779 62.1927 266.282 61.6555 266.282 60.9805C266.282 60.3055 266.779 59.7683 267.455 59.7683C268.131 59.7683 268.614 60.3055 268.614 60.9805C268.614 61.6555 268.131 62.1789 267.455 62.1789M268.076 61.38C268.034 61.1734 267.952 61.0632 267.8 61.0081C267.979 60.9392 268.117 60.8014 268.117 60.6361C268.117 60.4846 268.048 60.3744 267.965 60.3055C267.855 60.2366 267.731 60.1953 267.441 60.1953C267.193 60.1953 267 60.2091 266.862 60.2366V61.7519H267.22V61.1458H267.386C267.579 61.1458 267.676 61.2147 267.703 61.38C267.745 61.5591 267.772 61.6968 267.827 61.7519H268.2C268.2 61.7519 268.131 61.6004 268.089 61.3662M267.4 60.8841H267.234V60.457C267.234 60.457 267.331 60.4433 267.427 60.4433C267.648 60.4433 267.745 60.5397 267.745 60.6774C267.745 60.829 267.593 60.8979 267.4 60.8979" fill="#005640"/>
<path d="M96.3207 37.535C96.2104 34.1739 95.9758 29.9449 93.9479 27.7684C91.7682 25.4404 87.7675 25.3853 85.1325 25.3302C81.8492 25.22 78.6072 25.22 75.3377 25.22C72.882 25.22 70.3988 25.2751 67.9846 25.8123C66.7016 26.0878 65.4186 26.625 64.3978 27.7684C62.3974 29.9862 62.1353 34.1739 62.0249 37.535C61.9559 39.6564 61.9146 41.764 61.9146 43.8854C61.9146 46.0068 61.9559 48.1144 62.0249 50.2358C62.1353 53.597 62.3698 57.826 64.3978 60.0024C66.5913 62.3305 70.6196 62.3856 73.2545 62.4407C76.4275 62.5509 79.5867 62.4958 82.7597 62.4958C85.3257 62.4958 87.8502 62.4407 90.3748 61.9034C91.6578 61.6279 92.8994 61.1458 93.9617 60.0024C96.0034 57.7846 96.2242 53.597 96.3345 50.2358C96.4449 48.1144 96.4449 46.0068 96.4449 43.8854C96.4449 41.764 96.4035 39.6564 96.3345 37.535M88.8021 45.993C88.8021 47.7838 88.7607 50.6077 87.6709 51.7924C86.5397 53.0459 84.2358 53.0459 82.8424 53.0459C80.8835 53.1011 78.9245 53.1562 76.9655 53.1562C75.4894 53.1562 71.875 53.1011 70.7437 51.7924C69.6539 50.5389 69.6125 47.894 69.6125 46.0481V43.9267C69.6125 36.1162 69.8056 34.656 75.6136 34.656H81.9871C83.2701 34.656 84.5117 34.656 85.7947 34.9315C87.1191 35.207 87.9468 35.6892 88.4021 37.6452C88.8849 39.7115 88.8159 43.665 88.8159 45.993" fill="#005640"/>
<path d="M145.212 62.5095V25.22H131.417L123.912 49.4231L116.448 25.22H102.57V62.5095H110.116L109.923 34.6147H111.289L120.753 62.5095H127.112L136.576 34.6147H137.859L137.68 62.5095H145.212Z" fill="#005640"/>
<path d="M173.714 25.22H161.795L148.482 62.4957H157.228L159.38 56.1729H176.004L178.156 62.4957H186.834L173.714 25.22ZM162.098 48.018L166.927 33.9259H168.472L173.328 48.018H162.098Z" fill="#005640"/>
<path d="M223.475 62.5095V25.22H215.446V38.582H198.146V25.22H190.117V62.5095H198.146V48.9823H215.446V62.5095H223.475Z" fill="#005640"/>
<path d="M251.976 25.22H240.057L226.744 62.4957H235.491L237.643 56.1729H254.266L256.418 62.4957H265.096L251.976 25.22ZM240.36 48.018L245.189 33.9259H246.734L251.604 48.018H240.374H240.36Z" fill="#005640"/>
<path d="M88.071 8.44174C88.071 8.29021 88.0434 8.11114 88.0434 7.95961H74.303V11.3759H82.2078C82.2078 11.8855 82.263 12.6019 82.0009 13.0702C81.5319 13.7865 79.6557 13.7865 78.8279 13.7865C77.5587 13.7865 76.2895 13.8141 75.0066 13.8141C74.0547 13.8141 73.1166 13.7865 72.1647 13.7865C71.2128 13.7865 69.4745 13.8416 68.7572 13.2768C68.4261 13.0151 68.2881 12.7672 68.1639 12.3815C67.7777 11.1279 67.9294 9.54376 67.9294 8.23511C67.9294 7.4086 67.957 5.75557 68.7572 5.17701C69.7642 4.48825 73.6684 4.58468 75.0617 4.58468C76.3585 4.58468 77.6691 4.58468 78.9659 4.63978C79.5315 4.66733 80.0557 4.66733 80.6214 4.7362C80.9524 4.7913 81.2697 4.86018 81.5319 5.03926C82.0423 5.36986 82.0009 5.9622 82.0009 6.47188H88.0158C88.0158 5.08058 88.0434 3.16583 86.9259 2.06381C85.436 0.548533 82.0285 0.438332 79.8626 0.369456C78.4417 0.314355 77.0207 0.286804 75.5722 0.286804C72.4958 0.286804 69.2676 0.217928 66.2464 0.755162C63.1424 1.2924 62.2181 3.05563 62.0111 5.60404C61.887 7.14687 61.887 8.67592 61.887 10.1912C61.887 11.5825 61.9146 13.6212 62.425 14.9023C62.7561 15.7013 63.1975 16.2661 63.9977 16.7207C65.7497 17.74 68.5226 17.7951 70.6058 17.8502C72.6475 17.9053 74.6617 17.9053 76.7034 17.9053C79.2832 17.9053 84.6359 17.988 86.5535 16.39C87.7399 15.412 87.8226 14.2687 87.9192 12.9325C88.002 11.4447 88.0296 9.92947 88.071 8.44174Z" fill="#005640"/>
<path d="M116.724 9.65401C117.4 8.64842 117.373 7.326 117.373 6.19643C117.373 4.97043 117.428 3.42761 116.669 2.32559C115.303 0.397056 112.82 0.603685 110.572 0.576134C109.564 0.576134 108.557 0.548584 107.523 0.548584H92.8029V17.6436H98.8177V13.3044H108.709C109.896 13.3044 110.778 13.3871 111.082 14.5304C111.261 15.1779 111.261 15.8666 111.261 16.5003V17.6299H117.18V14.8335C117.18 12.4779 116.738 11.1968 113.717 11.0178C114.931 10.8662 116.09 10.6045 116.738 9.64023M108.626 8.9928C108.185 8.9928 107.743 9.02035 107.302 9.02035H98.8315V4.83268H108.902C110.861 4.83268 111.386 5.09441 111.386 6.85764C111.386 8.91015 110.792 8.96525 108.626 9.00657" fill="#005640"/>
<path d="M143.874 17.6436V13.5386H127.83V10.7974H142.95V7.06427H127.83V4.57095H143.75V0.548584H121.911V17.6436H143.874Z" fill="#005640"/>
<path d="M165.271 0.548584H155.918L145.461 17.6436H152.331L154.014 14.7508H167.064L168.748 17.6436H175.549L165.271 0.548584ZM156.152 11.004L159.946 4.5434H161.16L164.981 11.004H156.166H156.152Z" fill="#005640"/>
<path d="M198.022 4.90156V0.548584H174.128V4.90156H182.916V17.6436H189.22V4.90156H198.022Z" fill="#005640"/>
<path d="M223.033 17.6436V13.5386H206.989V10.7974H222.109V7.06427H206.989V4.57095H222.909V0.548584H201.071V17.6436H223.033Z" fill="#005640"/>
<path d="M251.3 9.65401C251.976 8.64842 251.949 7.326 251.949 6.19643C251.949 4.97043 252.004 3.42761 251.231 2.32559C249.865 0.397056 247.382 0.603685 245.134 0.576134C244.126 0.576134 243.119 0.548584 242.085 0.548584H227.379V17.6436H233.394V13.3044H243.285C244.471 13.3044 245.354 13.3871 245.658 14.5304C245.837 15.1779 245.837 15.8666 245.837 16.5003V17.6299H251.755V14.8335C251.755 12.4779 251.314 11.1968 248.293 11.0178C249.507 10.8662 250.666 10.6045 251.314 9.64023M243.202 8.9928C242.761 8.9928 242.319 9.02035 241.864 9.02035H233.394V4.83268H243.464C245.423 4.83268 245.948 5.09441 245.948 6.85764C245.948 8.91015 245.354 8.96525 243.202 9.00657" fill="#005640"/>
</g>
<defs>
<clipPath id="clip0_538_666">
<rect width="269" height="62.2365" fill="white" transform="translate(0 0.286865)"/>
</clipPath>
</defs>
</svg>
