<svg width="217" height="89" viewBox="0 0 217 89" fill="none" xmlns="http://www.w3.org/2000/svg">
<g clip-path="url(#clip0_543_301)">
<path d="M206.514 27.0669C206.859 27.0669 207.203 27.0669 207.548 27.1818C208.122 27.2967 208.582 27.5264 208.926 27.871C209.96 28.6751 210.994 29.5941 212.028 30.3982C212.487 30.7428 212.832 31.0874 213.291 31.432C213.636 31.7766 213.866 32.1212 213.981 32.5807C214.325 33.8443 214.44 35.1078 214.555 36.3714C214.9 38.5539 215.244 40.7365 215.474 42.919C215.818 45.1015 216.048 47.1692 216.393 49.3517C216.508 50.2707 216.623 51.1896 216.737 52.1086C216.852 52.7978 216.737 53.3722 216.278 53.9465C215.589 54.8655 214.9 55.6696 214.095 56.4736C213.636 56.9331 213.176 57.3926 212.717 57.9669C212.143 58.771 211.339 59.0008 210.42 59.0008C206.399 59.0008 202.264 59.0008 198.243 59.0008C197.324 59.0008 196.52 58.6562 196.061 57.8521C195.831 57.3926 195.716 56.9331 195.601 56.4736C195.486 55.5547 195.372 54.6357 195.257 53.7168C195.257 53.6019 195.257 53.3722 195.142 53.1424C194.797 54.0614 193.993 54.6357 193.419 55.4398C192.615 56.3588 191.811 57.1629 191.007 58.0818C190.432 58.6562 189.743 59.0008 188.939 59.0008C186.297 59.0008 183.77 59.0008 181.128 59.0008C180.209 59.0008 179.405 58.5413 178.715 57.9669C177.452 56.8182 176.188 55.7844 174.925 54.6357C174.465 54.1762 174.006 53.7168 173.891 53.0275C173.891 53.0275 173.891 52.9127 173.776 53.0275C173.661 53.9465 172.972 54.5209 172.398 55.0952C171.479 56.129 170.56 57.048 169.641 58.0818C169.066 58.771 168.262 59.1156 167.458 59.1156C164.816 59.1156 162.174 59.1156 159.532 59.1156C158.728 59.1156 158.039 58.8859 157.465 58.3116C156.89 57.8521 156.316 57.2777 155.856 56.8182C155.052 56.0142 154.248 55.3249 153.444 54.5209C152.755 53.9465 152.525 53.2573 152.41 52.4532C152.41 51.9937 152.295 51.4194 152.295 50.9599C152.295 50.7301 152.181 50.6153 151.951 50.6153C149.998 50.6153 148.045 50.6153 145.978 50.6153C145.633 50.6153 145.633 50.7301 145.633 50.9599C145.633 51.8788 145.748 52.6829 145.748 53.6019C145.748 54.5209 145.863 55.4398 145.863 56.3588C145.863 57.048 145.748 57.6223 145.288 58.1967C145.059 58.5413 144.714 58.771 144.255 58.8859C143.795 59.0008 143.221 59.1156 142.761 59.1156C140.923 59.1156 139.085 59.1156 137.133 59.1156C136.673 59.1156 136.214 59.0008 135.869 58.8859C135.065 58.6562 134.605 58.1967 134.491 57.3926C134.261 56.3588 134.261 55.4398 134.261 54.406C134.261 53.2573 134.146 52.1086 134.146 50.9599C134.146 50.7301 134.031 50.6153 133.801 50.6153C132.538 50.6153 131.274 50.6153 129.896 50.6153C129.551 50.6153 129.436 50.6153 129.551 51.0748C129.666 52.9127 129.551 54.8655 129.666 56.7034C129.666 57.048 129.666 57.3926 129.436 57.7372C128.977 58.771 128.173 59.1156 127.139 59.1156C124.956 59.1156 122.774 59.1156 120.706 59.1156C119.558 59.1156 118.753 58.6562 118.294 57.5075C117.949 56.7034 117.834 55.8993 117.834 55.0952C117.834 53.7168 117.834 52.4532 117.834 51.0748C117.834 50.6153 117.834 50.6153 117.375 50.6153C116.801 50.6153 116.111 50.6153 115.537 50.6153C115.078 50.6153 115.078 50.6153 115.078 51.0748C115.078 51.8788 115.078 52.7978 115.078 53.6019C115.078 54.406 115.078 55.3249 114.963 56.129C114.848 57.048 114.503 57.8521 113.814 58.4264C113.24 59.0008 112.55 59.1156 111.861 59.1156C108.875 59.1156 105.888 59.1156 103.016 59.1156C101.293 59.1156 99.5701 59.1156 97.8471 59.1156C97.1579 59.1156 96.4687 59.0008 96.0092 58.5413C95.8943 58.4264 95.6646 58.4264 95.5497 58.5413C94.8605 59.0008 94.0564 59.1156 93.1374 59.1156C88.6575 59.1156 84.0627 59.1156 79.5828 59.1156C79.0084 59.1156 78.4341 59.0008 77.9746 58.771C77.0556 58.1967 76.8259 57.3926 76.8259 56.4736C76.8259 55.7844 76.9408 54.9803 76.9408 54.2911C76.9408 54.1762 76.9408 53.9465 76.9408 53.7168C76.5962 54.0614 76.4813 54.406 76.2516 54.6357C75.3326 55.5547 74.2988 56.4736 73.3798 57.2777C72.9203 57.6223 72.5757 58.0818 72.1162 58.4264C71.5419 59.0008 70.7378 59.1157 70.0486 59.2305C67.4066 59.2305 64.7646 59.2305 62.1226 59.2305C61.3185 59.2305 60.6292 59.0008 60.0549 58.3116C59.0211 57.1629 57.8724 56.0142 56.7237 54.8655C56.4939 54.6357 56.3791 54.6357 56.1493 54.8655C56.0345 54.9803 55.9196 54.9803 55.8047 55.0952C55.4601 55.3249 55.3452 55.5547 55.3452 55.8993C55.3452 56.4736 55.2304 56.9331 55.1155 57.5075C54.8858 58.3116 54.4263 58.771 53.6222 59.0008C53.1627 59.1157 52.7032 59.1156 52.2437 59.1156C50.4058 59.1156 48.453 59.1156 46.6151 59.1156C45.9259 59.1156 45.2367 59.0008 44.6623 58.6562C44.5475 58.5413 44.4326 58.5413 44.3177 58.6562C43.8582 59.0008 43.169 59.1156 42.5947 59.1156C40.527 59.1156 38.4594 59.1156 36.3917 59.1156C36.162 59.1156 35.9322 59.1157 35.7025 59.0008C35.3579 58.8859 35.1281 58.771 34.7835 58.771C34.4389 58.771 34.2092 58.771 33.8646 58.8859C31.2226 60.1495 28.5805 61.413 26.0534 62.6766C24.3304 63.4807 22.7222 64.2848 20.9991 65.0889C19.0463 66.0078 17.0936 67.0417 15.1408 67.9606C14.2218 68.4201 13.3028 68.8796 12.3839 69.3391C11.2352 69.9134 9.74188 69.6837 9.05266 68.535C8.70805 67.9606 8.59318 67.3863 8.70805 66.8119C8.93779 65.6632 9.39727 64.6294 9.62701 63.5956C10.4311 60.8387 11.3501 58.0818 12.1542 55.3249C12.8434 52.9127 13.5326 50.3855 14.3367 47.9733C14.7962 46.5948 15.1408 45.2164 15.6002 43.8379C15.7151 43.4933 15.6002 43.3785 15.3705 43.1487C12.9582 40.6216 10.546 37.9796 8.01884 35.4524C5.83631 33.155 3.76865 30.8576 1.58612 28.6751C1.81586 28.4454 1.58612 28.3305 1.47125 28.2156C0.667162 27.4115 0.437422 26.3777 0.896902 25.3439C1.12664 24.7695 1.58612 24.3101 2.16047 24.1952C3.1943 23.8506 4.11326 23.8506 5.14709 23.6208C6.75527 23.3911 8.24857 23.1614 9.85675 22.9316C10.7757 22.8167 11.6947 22.7019 12.7285 22.587C13.9921 22.4721 15.1408 22.2424 16.4043 22.1275C17.4382 22.0127 18.472 21.8978 19.391 21.668C21.2289 21.4383 23.0668 21.2086 25.0196 20.9788C25.4791 20.864 25.9385 20.9788 26.2831 20.7491C26.6278 20.5193 26.7426 20.0599 26.9724 19.7153C28.3508 17.6476 29.6144 15.4651 30.9928 13.3974C31.7969 12.1338 32.7159 10.7554 33.52 9.49183C34.6687 7.65391 35.8174 5.816 36.966 4.09295C37.4255 3.28886 37.9999 2.59964 38.4594 1.79555C38.9188 0.991459 39.7229 0.761719 40.527 0.761719C41.5608 0.761719 42.2501 1.33607 42.7095 2.25503C43.3988 3.74834 44.088 5.24165 44.7772 6.73496C45.4664 8.34313 46.1556 9.83644 46.8449 11.4446C47.4192 12.8231 48.1084 14.2015 48.6828 15.6948C49.2571 17.0732 49.9464 18.4517 50.5207 19.8301C50.6356 19.945 50.6356 20.0599 50.7504 20.1747C50.7504 20.4045 50.8653 20.4045 51.095 20.4045C51.2099 20.4045 51.3248 20.4045 51.4397 20.4045H164.012C175.614 20.4045 187.216 20.4045 198.933 20.4045C199.852 20.4045 200.656 20.6342 201.46 21.3234C202.723 22.4721 204.102 23.506 205.48 24.6547C206.169 25.229 206.399 26.0331 206.514 27.0669ZM11.4649 67.1565C11.6947 67.1565 11.8095 67.0417 11.9244 66.9268C14.6813 65.5484 17.553 64.1699 20.3099 62.7915C24.675 60.7238 28.9252 58.5413 33.2902 56.4736C33.52 56.3588 33.6348 56.2439 33.6348 55.8993C33.7497 54.9803 33.8646 53.9465 33.8646 53.0275C33.8646 52.5681 33.9794 52.1086 33.9794 51.5342C32.1415 52.4532 30.4185 53.2573 28.6954 54.0614C26.9724 54.9803 25.1344 55.7844 23.4114 56.7034C21.6884 57.5075 19.9653 58.4264 18.1274 59.2305C18.1274 59.0008 18.1274 58.8859 18.1274 58.8859C18.9315 56.2439 19.7356 53.6019 20.4248 50.9599C21.3437 47.8584 22.2627 44.8718 23.1817 41.7703C23.2965 41.5406 23.2965 41.3108 23.0668 40.9662C21.114 39.0134 19.2761 36.9457 17.3233 34.993C15.6002 33.155 13.8772 31.3171 12.1542 29.4792C12.0393 29.3643 11.8095 29.2495 11.8095 29.0197C11.9244 28.9049 12.0393 28.9049 12.1542 28.9049C13.5326 28.6751 14.911 28.5602 16.4043 28.3305C18.8166 27.9859 21.114 27.7562 23.5263 27.4115C25.5939 27.1818 27.6616 26.8372 29.6144 26.6075C29.959 26.6075 30.1887 26.4926 30.3036 26.148C31.3374 24.4249 32.4861 22.7019 33.52 20.9788C35.3579 17.9922 37.3107 15.0056 39.1486 12.019C39.2634 11.9041 39.2634 11.6744 39.4932 11.5595C39.7229 11.6744 39.7229 11.7892 39.8378 11.9041C40.9865 14.5461 42.1352 17.0732 43.2839 19.7153C44.2029 21.7829 45.1218 23.8506 46.0408 26.0331C46.2705 26.4926 46.5003 26.7223 47.0746 26.7223C53.7371 26.7223 60.3995 26.7223 67.062 26.7223C85.7858 26.7223 104.51 26.7223 123.348 26.7223C149.998 26.7223 176.648 26.7223 203.413 26.7223C203.642 26.7223 203.872 26.7223 204.217 26.7223C203.987 26.4926 203.872 26.3777 203.757 26.2628C202.608 25.229 201.345 24.3101 200.196 23.2762C199.852 22.9316 199.392 22.8167 198.933 22.8167C175.614 22.8167 152.295 22.8167 128.977 22.8167C102.672 22.8167 76.3664 22.8167 50.1761 22.8167C49.7166 22.8167 49.4869 22.7019 49.2571 22.2424C48.2233 19.8301 47.0746 17.4179 46.0408 14.8907C44.4326 11.3298 42.9393 7.88365 41.3311 4.32269C41.1014 3.97808 40.9865 3.5186 40.7568 3.05912C40.6419 3.28886 40.527 3.40373 40.4121 3.63347C39.8378 4.55243 39.2634 5.35652 38.804 6.27548C36.2768 10.1811 33.7497 14.0866 31.3374 17.9922C30.3036 19.4855 29.3846 21.0937 28.3508 22.587C28.2359 22.8167 28.1211 22.9316 27.8913 22.9316C25.7088 23.1614 23.5263 23.506 21.3437 23.8506C19.0463 24.1952 16.6341 24.4249 14.3367 24.7695C11.1203 25.229 7.90397 25.6885 4.57274 26.0331C4.22813 26.0331 3.88352 26.148 3.65378 26.148C3.76865 26.3777 3.88352 26.4926 3.99839 26.6075C5.14709 27.7562 6.18092 28.9049 7.32962 30.0536C9.2824 32.1212 11.1203 34.074 13.0731 36.1417C15.0259 38.2093 16.8638 40.1621 18.8166 42.2298C19.1612 42.5744 19.1612 42.919 19.0463 43.2636C18.472 44.9866 18.0125 46.8246 17.4382 48.5476C15.9449 53.6019 14.4515 58.5413 12.9582 63.5956C12.0393 64.8591 11.5798 66.0078 11.4649 67.1565C11.3501 67.1565 11.2352 67.2714 11.4649 67.1565C11.3501 67.2714 11.3501 67.2714 11.4649 67.1565ZM204.676 56.5885C206.629 56.5885 208.582 56.5885 210.534 56.5885C210.879 56.5885 211.109 56.4736 211.339 56.2439C212.372 55.0952 213.291 53.9465 214.325 52.7978C214.555 52.5681 214.67 52.3383 214.555 51.9937C214.325 50.3855 214.095 48.7774 213.866 47.1692C213.176 42.6892 212.487 38.0944 211.913 33.6145C211.913 33.3848 211.798 33.155 211.568 33.0402C210.19 31.8915 208.811 30.7428 207.433 29.5941C207.203 29.4792 207.088 29.3643 206.744 29.3643C202.953 29.3643 199.162 29.3643 195.372 29.3643C194.912 29.3643 194.912 29.3643 195.027 29.8238C195.142 30.7428 195.257 31.6617 195.372 32.5807C195.831 36.0268 196.291 39.4729 196.635 43.0339C197.21 47.3989 197.669 51.764 198.243 56.0142C198.243 56.4736 198.243 56.4736 198.703 56.4736C200.77 56.5885 202.723 56.5885 204.676 56.5885ZM46.2705 56.5885C46.3854 56.5885 46.5003 56.5885 46.6151 56.5885C48.6828 56.5885 50.6356 56.5885 52.7032 56.5885C53.0478 56.5885 53.0478 56.5885 53.1627 56.2439C53.2776 54.0614 53.5073 51.8788 53.6222 49.6963C53.8519 46.7097 54.0817 43.8379 54.3114 40.8513C54.4263 39.0134 54.5411 37.2904 54.656 35.4524C54.7709 33.6145 54.8857 31.6617 55.0006 29.8238C55.0006 29.5941 55.0006 29.4792 54.656 29.4792C52.7032 29.4792 50.7504 29.4792 48.7976 29.4792C48.5679 29.4792 48.453 29.5941 48.453 29.8238C48.453 30.6279 48.3382 31.3171 48.2233 32.1212C47.9936 34.5335 47.8787 36.8309 47.649 39.2431C47.649 39.5878 47.6489 39.7026 47.1895 39.7026C46.3854 39.7026 45.5813 39.7026 44.8921 39.7026C44.5475 39.7026 44.5475 39.7026 44.5475 39.358C44.5475 39.2431 44.5475 39.1283 44.5475 39.1283C44.7772 36.2565 45.0069 33.3848 45.3516 30.3982C45.3516 30.1684 45.4664 29.8238 45.3516 29.5941C43.2839 29.5941 41.2162 29.5941 39.1486 29.5941C38.9188 29.5941 38.804 29.7089 38.804 29.9387C38.5742 31.8915 38.4594 33.9591 38.2296 35.9119C38.1147 37.635 37.885 39.358 37.7701 41.1959C37.5404 43.8379 37.3107 46.48 36.966 49.122C36.8512 50.845 36.6214 52.6829 36.5066 54.406C36.3917 55.2101 36.3917 56.0142 36.2768 56.7034C36.3917 56.8182 36.5066 56.8182 36.6214 56.8182C38.6891 56.8182 40.6419 56.8182 42.7095 56.8182C43.169 56.8182 43.169 56.8183 43.169 56.3588C43.3988 53.9465 43.5136 51.6491 43.7434 49.2368C43.8582 48.3179 43.8582 47.5138 43.9731 46.5948C43.9731 46.2502 43.9731 46.2502 44.4326 46.2502C44.8921 46.2502 45.2367 46.2502 45.6962 46.2502C46.1556 46.2502 46.73 46.2502 47.1895 46.2502C46.8449 49.5814 46.6151 53.0275 46.2705 56.5885ZM185.263 56.5885C186.527 56.5885 187.79 56.5885 189.054 56.5885C189.398 56.5885 189.628 56.4736 189.858 56.2439C190.892 55.0952 191.926 53.9465 192.959 52.7978C193.189 52.5681 193.304 52.3383 193.189 51.9937C192.959 50.6153 192.844 49.2368 192.73 47.8584C192.385 45.1015 192.04 42.4595 191.811 39.7026C191.581 37.635 191.351 35.6822 191.121 33.6145C191.121 33.3848 191.007 33.155 190.777 33.0402C189.398 31.8915 188.135 30.7428 186.871 29.7089C186.642 29.4792 186.412 29.4792 186.182 29.4792C183.655 29.4792 181.243 29.4792 178.715 29.4792C178.486 29.4792 178.371 29.4792 178.256 29.7089C177.911 30.0536 177.682 30.3982 177.337 30.7428C176.648 31.5469 175.844 32.351 175.155 33.0402C174.925 33.2699 174.81 33.6145 174.81 33.9591C175.04 36.6011 175.384 39.2431 175.614 41.8852C175.959 45.2164 176.188 48.6625 176.533 51.9937C176.533 52.3383 176.648 52.6829 176.992 52.9127C178.371 54.0614 179.634 55.2101 181.013 56.4736C181.243 56.7034 181.357 56.7034 181.702 56.7034C182.736 56.5885 183.999 56.5885 185.263 56.5885ZM75.2177 42.919C75.3326 42.4595 75.2177 42 75.3326 41.5405C75.4475 39.0134 75.5623 36.3714 75.6772 33.8443C75.6772 33.4996 75.6772 33.2699 75.3326 33.0402C74.1839 32.0063 73.1501 30.8576 72.0014 29.8238C71.7716 29.5941 71.5419 29.4792 71.3121 29.4792C68.8999 29.4792 66.4876 29.4792 64.1902 29.4792C63.8456 29.4792 63.6159 29.5941 63.3861 29.8238C62.2374 30.8576 61.0887 31.8915 59.8252 32.9253C59.4805 33.2699 59.3657 33.4997 59.2508 33.9591C59.1359 35.9119 59.0211 37.9796 58.9062 39.9324C58.6765 44.0677 58.3318 48.0881 58.1021 52.2234C58.1021 52.4532 58.1021 52.5681 58.3318 52.7978C59.4805 53.9465 60.6292 55.2101 61.7779 56.4736C62.0077 56.7034 62.1226 56.7034 62.4672 56.7034C64.9943 56.7034 67.5214 56.7034 70.1634 56.7034C70.3932 56.7034 70.6229 56.7034 70.7378 56.4736C72.0014 55.2101 73.3798 54.0614 74.6434 52.7978C74.7582 52.6829 74.8731 52.4532 74.8731 52.2234C74.988 50.5004 74.988 48.6625 75.1029 46.9394C75.1029 45.561 75.1029 44.1826 75.2177 42.919ZM161.715 29.4792C160.451 29.4792 159.302 29.4792 158.039 29.4792C157.809 29.4792 157.579 29.4792 157.35 29.7089C156.201 30.8576 155.167 32.0063 154.018 33.0402C153.789 33.155 153.789 33.3848 153.789 33.6145C153.904 35.7971 154.018 37.8647 154.248 40.0472C154.478 43.3785 154.708 46.7097 154.937 50.0409C154.937 50.7301 155.052 51.4194 155.052 52.1086C155.052 52.3383 155.167 52.4532 155.282 52.6829C156.66 53.8316 157.924 55.0952 159.188 56.3588C159.417 56.5885 159.647 56.5885 159.877 56.5885C162.404 56.5885 164.931 56.5885 167.458 56.5885C167.803 56.5885 168.033 56.4736 168.147 56.2439C169.181 55.0952 170.33 53.9465 171.479 52.7978C171.708 52.5681 171.708 52.3383 171.708 52.1086C171.594 50.845 171.479 49.4666 171.364 48.203C171.134 45.4461 170.904 42.6892 170.675 39.9324C170.445 37.8647 170.33 35.7971 170.1 33.7294C170.1 33.4997 169.985 33.2699 169.756 33.0402C168.492 31.8915 167.228 30.8576 165.965 29.7089C165.735 29.4792 165.505 29.4792 165.276 29.4792C164.012 29.4792 162.863 29.4792 161.715 29.4792ZM136.443 42.919C136.673 47.284 136.788 51.6491 137.018 56.129C137.018 56.5885 137.018 56.5885 137.477 56.5885C139.315 56.5885 141.268 56.5885 143.106 56.5885C143.795 56.5885 143.795 56.5885 143.795 55.8993C143.68 52.6829 143.45 49.5814 143.336 46.3651C143.336 45.9056 143.336 45.9056 143.68 45.9056C143.795 45.9056 143.91 45.9056 144.025 45.9056C146.207 45.9056 148.505 45.9056 150.687 45.9056C151.147 45.9056 151.147 45.9056 151.147 45.4461C151.032 44.1826 151.032 42.919 150.917 41.6554C150.917 40.9662 150.802 40.3918 150.802 39.7026C150.802 39.4729 150.687 39.358 150.457 39.358C150.343 39.358 150.228 39.358 150.113 39.358C147.93 39.358 145.633 39.358 143.45 39.358C142.991 39.358 142.991 39.358 142.876 38.8985C142.876 37.9796 142.761 36.9458 142.761 36.0268C142.761 35.4524 142.646 35.4524 143.221 35.4524C145.403 35.4524 147.701 35.4524 149.883 35.4524C150.572 35.4524 150.457 35.5673 150.457 34.8781C150.343 33.155 150.228 31.3171 150.113 29.5941C150.113 29.2495 150.113 29.2495 149.653 29.2495C145.173 29.2495 140.694 29.2495 136.214 29.2495C135.754 29.2495 135.754 29.2495 135.754 29.7089C136.099 34.1889 136.329 38.5539 136.443 42.919ZM114.273 29.4792C114.388 29.7089 114.388 29.9387 114.503 30.0536C116.456 34.4186 118.294 38.7837 120.247 43.1487C120.362 43.4933 120.476 43.7231 120.476 44.0677C120.591 48.0881 120.591 52.1086 120.706 56.129C120.706 56.5885 120.706 56.5885 121.166 56.5885C123.118 56.5885 125.071 56.5885 127.024 56.5885C127.484 56.5885 127.484 56.5885 127.484 56.129C127.484 55.7844 127.484 55.4398 127.484 55.0952C127.369 51.4194 127.254 47.7435 127.139 44.0677C127.139 43.7231 127.139 43.4933 127.254 43.1487C128.977 38.7837 130.7 34.3037 132.423 29.9387C132.538 29.8238 132.538 29.5941 132.538 29.4792C132.423 29.3643 132.308 29.4792 132.308 29.4792C130.355 29.4792 128.402 29.4792 126.45 29.4792C126.105 29.4792 125.99 29.5941 125.875 29.9387C125.186 31.7766 124.497 33.6145 123.693 35.5673C123.693 35.6822 123.578 35.7971 123.463 35.9119C123.348 35.7971 123.233 35.5673 123.233 35.3376C122.429 33.6145 121.74 31.7766 120.936 30.0536C120.821 29.7089 120.591 29.4792 120.132 29.4792C118.294 29.4792 116.456 29.4792 114.618 29.4792C114.618 29.4792 114.503 29.4792 114.273 29.4792ZM97.7322 41.5405C97.6174 47.3989 97.6174 51.764 97.5025 56.129C97.5025 56.7034 97.5025 56.5885 97.962 56.5885C102.557 56.5885 107.152 56.5885 111.861 56.5885C112.321 56.5885 112.321 56.5885 112.321 56.129C112.321 54.8655 112.321 53.487 112.321 52.2234C112.321 51.6491 112.321 50.9599 112.321 50.3855C112.321 50.0409 112.321 50.0409 111.861 50.0409C111.746 50.0409 111.631 50.0409 111.517 50.0409C109.219 50.0409 107.037 50.0409 104.739 50.0409C104.28 50.0409 104.28 50.0409 104.28 49.5814C104.28 48.6625 104.28 47.6287 104.28 46.7097C104.28 41.0811 104.28 35.4524 104.28 29.8238C104.28 29.3643 104.28 29.3643 103.82 29.3643C101.982 29.3643 100.144 29.3643 98.1917 29.3643C97.7322 29.3643 97.7322 29.3643 97.7322 29.8238C97.8471 34.3037 97.8471 38.6688 97.7322 41.5405ZM79.353 56.5885C79.4679 56.7034 79.5828 56.5885 79.6977 56.5885C84.2924 56.5885 89.0021 56.5885 93.5969 56.5885C94.0564 56.5885 94.0564 56.5885 94.0564 56.129C94.0564 54.1762 94.1713 52.3383 94.1713 50.3855C94.1713 50.2707 94.1713 50.2707 94.1713 50.1558C94.1713 50.0409 94.0564 49.9261 93.9415 49.9261C93.8266 49.9261 93.7118 49.9261 93.5969 49.9261C91.2995 49.9261 89.0021 49.9261 86.8196 49.9261C86.3601 49.9261 86.3601 49.9261 86.3601 49.4666C86.475 46.0205 86.5898 42.5744 86.5898 39.2431C86.7047 36.1417 86.8196 32.9253 86.8196 29.8238C86.8196 29.3643 86.8196 29.3643 86.3601 29.3643C84.5222 29.3643 82.5694 29.3643 80.7315 29.3643C80.272 29.3643 80.272 29.3643 80.272 29.8238C80.1571 33.6145 79.9274 37.2904 79.8125 41.0811C79.5828 46.0205 79.4679 51.0747 79.2382 56.0142C79.353 56.2439 79.2382 56.3588 79.353 56.5885Z" fill="black"/>
<path d="M11.3495 67.1566C11.5792 66.0079 12.0387 64.8592 12.3833 63.7105C13.8766 58.6562 15.3699 53.7168 16.8632 48.6626C17.4376 46.9395 17.8971 45.1016 18.4714 43.3785C18.5863 42.9191 18.5863 42.6893 18.2417 42.3447C16.2889 40.3919 14.451 38.3243 12.4982 36.2566C10.5454 34.189 8.70748 32.2362 6.75469 30.1685C5.606 29.0198 4.57217 27.8711 3.42347 26.7224C3.3086 26.6075 3.19373 26.4927 3.07886 26.2629C3.42347 26.2629 3.76808 26.1481 3.99782 26.1481C7.21417 25.6886 10.4305 25.2291 13.7618 24.8845C16.0592 24.5399 18.4714 24.3101 20.7688 23.9655C22.9513 23.6209 25.1339 23.3912 27.3164 23.0466C27.5461 23.0466 27.661 22.9317 27.7759 22.702C28.8097 21.2087 29.7287 19.6005 30.7625 18.1072C33.2896 14.2016 35.8168 10.296 38.229 6.39043C38.8034 5.47147 39.3777 4.66738 39.8372 3.74842C39.9521 3.51868 40.067 3.40381 40.1818 3.17407C40.5264 3.51868 40.6413 3.97816 40.7562 4.43764C42.3644 7.99861 43.8577 11.4447 45.4659 15.0057C46.4997 17.4179 47.6484 19.8302 48.6822 22.3573C48.9119 22.8168 49.1417 22.9317 49.6012 22.9317C75.9064 22.9317 102.212 22.9317 128.402 22.9317C151.72 22.9317 175.039 22.9317 198.358 22.9317C198.817 22.9317 199.277 23.0466 199.621 23.3912C200.77 24.425 202.034 25.344 203.182 26.3778C203.297 26.4927 203.412 26.6075 203.642 26.8373C203.297 26.8373 203.067 26.8373 202.838 26.8373C176.188 26.8373 149.538 26.8373 122.773 26.8373C104.049 26.8373 85.3257 26.8373 66.487 26.8373C59.8246 26.8373 53.1621 26.8373 46.4997 26.8373C45.9253 26.8373 45.6956 26.6075 45.4659 26.1481C44.5469 24.0804 43.6279 21.8979 42.709 19.8302C41.5603 17.1882 40.4116 14.6611 39.2629 12.0191C39.2629 11.9042 39.148 11.7893 39.0331 11.6744C38.8034 11.7893 38.8034 11.9042 38.6885 12.1339C36.8506 15.1205 34.8978 18.1072 33.0599 21.0938C32.0261 22.8168 30.8774 24.5399 29.8435 26.2629C29.6138 26.4927 29.4989 26.7224 29.1543 26.7224C27.0867 26.9521 25.019 27.2968 23.0662 27.5265C20.6539 27.8711 18.3566 28.1008 15.9443 28.4455C14.5658 28.6752 13.1874 28.7901 11.6941 29.0198C11.5792 29.0198 11.4644 29.0198 11.3495 29.1347C11.3495 29.3644 11.5792 29.4793 11.6941 29.5942C13.4171 31.4321 15.1402 33.27 16.8632 35.1079C18.816 37.0607 20.654 39.1284 22.6067 41.0812C22.8365 41.3109 22.8365 41.5406 22.7216 41.8852C21.8027 44.9867 20.8837 47.9733 19.9647 51.0748C19.1606 53.7168 18.3566 56.3589 17.6673 59.0009C17.6673 59.1157 17.5525 59.2306 17.6673 59.3455C19.5053 58.5414 21.2283 57.6224 22.9513 56.8183C24.6744 56.0142 26.5123 55.0953 28.2354 54.1763C29.9584 53.3722 31.7963 52.4533 33.5194 51.6492C33.6342 52.2235 33.5194 52.683 33.4045 53.1425C33.2896 54.0615 33.1748 55.0953 33.1748 56.0142C33.1748 56.244 33.0599 56.4737 32.8302 56.5886C28.4651 58.6562 24.2149 60.8388 19.8499 62.9064C17.093 64.2849 14.2212 65.6633 11.4644 67.0418C11.809 67.0418 11.5792 67.1566 11.3495 67.1566Z" fill="#D7B46A"/>
<path d="M204.676 56.5885C202.723 56.5885 200.77 56.5885 198.817 56.5885C198.358 56.5885 198.358 56.5885 198.358 56.1291C197.783 51.764 197.324 47.399 196.75 43.1488C196.29 39.7027 195.831 36.1417 195.486 32.6956C195.371 31.7766 195.256 30.8577 195.141 29.9387C195.141 29.4792 195.141 29.4792 195.486 29.4792C199.277 29.4792 203.067 29.4792 206.858 29.4792C207.088 29.4792 207.318 29.5941 207.547 29.709C208.926 30.8577 210.304 32.0064 211.683 33.1551C211.912 33.27 211.912 33.4997 212.027 33.7294C212.716 38.2094 213.291 42.8042 213.98 47.2841C214.21 48.8923 214.44 50.5004 214.669 52.1086C214.669 52.4532 214.669 52.683 214.44 52.9127C213.406 54.0614 212.372 55.2101 211.453 56.3588C211.223 56.5885 210.993 56.7034 210.649 56.7034C208.581 56.5885 206.628 56.5885 204.676 56.5885ZM205.824 50.041C206.284 50.041 206.628 50.041 207.088 50.041C207.432 50.041 207.432 49.9261 207.432 49.6963C207.432 49.5815 207.432 49.5815 207.432 49.4666C207.088 46.5949 206.628 43.7231 206.284 40.8514C206.054 39.2432 205.824 37.635 205.595 36.0268C205.595 35.6822 205.48 35.6822 205.135 35.6822C204.331 35.6822 203.527 35.6822 202.838 35.6822C202.493 35.6822 202.493 35.6822 202.493 36.1417C202.493 36.4863 202.608 36.7161 202.608 37.0607C203.067 40.7365 203.527 44.2975 204.101 47.9733C204.216 48.5476 204.216 49.122 204.331 49.5815C204.446 50.041 204.446 50.041 204.905 50.041C205.135 50.041 205.48 50.041 205.824 50.041Z" fill="white"/>
<path d="M46.2699 56.5884C46.4997 53.1423 46.8443 49.5814 47.074 46.1353C46.4997 46.0204 46.0402 46.1353 45.5807 46.1353C45.1212 46.1353 44.7766 46.1353 44.3171 46.1353C43.9725 46.1353 43.8577 46.1353 43.8577 46.4799C43.7428 47.3988 43.7428 48.3178 43.6279 49.1219C43.3982 51.5341 43.2833 53.8315 43.0536 56.2438C43.0536 56.7033 43.0536 56.7033 42.5941 56.7033C40.5264 56.7033 38.5736 56.7033 36.506 56.7033C36.3911 56.7033 36.2762 56.7033 36.1614 56.5884C36.2762 55.7843 36.2762 54.9802 36.3911 54.291C36.506 52.568 36.7357 50.7301 36.8506 49.007C37.0803 46.365 37.3101 43.723 37.6547 41.081C37.7696 39.3579 37.9993 37.6349 38.1142 35.797C38.3439 33.8442 38.4588 31.7765 38.6885 29.8237C38.6885 29.594 38.8034 29.4791 39.0331 29.4791C41.1008 29.4791 43.1684 29.4791 45.2361 29.4791C45.351 29.8237 45.2361 30.0535 45.2361 30.2832C45.0064 33.155 44.7766 36.0267 44.432 39.0133C44.432 39.1282 44.432 39.2431 44.432 39.2431C44.432 39.5877 44.432 39.5877 44.7766 39.5877C45.5807 39.5877 46.3848 39.5877 47.074 39.5877C47.4186 39.5877 47.5335 39.5877 47.5335 39.1282C47.7632 36.7159 47.8781 34.4185 48.1078 32.0063C48.2227 31.2022 48.2227 30.513 48.3376 29.7089C48.3376 29.4791 48.4525 29.3643 48.6822 29.3643C50.635 29.3643 52.5878 29.3643 54.5406 29.3643C54.8852 29.3643 54.8852 29.4791 54.8852 29.7089C54.7703 31.5468 54.6554 33.4996 54.5406 35.3375C54.4257 37.1754 54.3108 38.8985 54.196 40.7364C53.9662 43.723 53.7365 46.5947 53.5067 49.5814C53.3919 51.7639 53.1621 53.9464 53.0473 56.1289C53.0473 56.4736 53.0473 56.4736 52.5878 56.4736C50.5201 56.4736 48.5673 56.4736 46.4997 56.4736C46.4997 56.5884 46.3848 56.5884 46.2699 56.5884Z" fill="white"/>
<path d="M185.262 56.5884C183.999 56.5884 182.735 56.5884 181.472 56.5884C181.242 56.5884 181.012 56.4736 180.783 56.3587C179.519 55.21 178.141 53.9464 176.762 52.7977C176.418 52.568 176.303 52.2234 176.303 51.8788C175.958 48.5475 175.728 45.1014 175.384 41.7702C175.154 39.1282 174.924 36.4862 174.58 33.8442C174.58 33.4996 174.58 33.155 174.924 32.9252C175.728 32.236 176.418 31.4319 177.107 30.6278C177.451 30.2832 177.681 29.9386 178.026 29.594C178.141 29.4791 178.255 29.3643 178.485 29.3643C181.012 29.3643 183.425 29.3643 185.952 29.3643C186.181 29.3643 186.411 29.4791 186.641 29.594C187.904 30.7427 189.283 31.8914 190.547 32.9252C190.776 33.0401 190.891 33.2698 190.891 33.4996C191.121 35.5672 191.351 37.52 191.58 39.5877C191.925 42.3446 192.27 44.9866 192.499 47.7434C192.614 49.1219 192.844 50.5003 192.959 51.8788C192.959 52.2234 192.959 52.4531 192.729 52.6828C191.695 53.8315 190.661 54.9802 189.628 56.1289C189.398 56.3587 189.168 56.4736 188.823 56.4736C187.79 56.5884 186.526 56.5884 185.262 56.5884ZM183.08 35.6821C182.735 35.6821 182.391 35.6821 182.046 35.6821C181.472 35.6821 181.472 35.6821 181.587 36.2565C181.702 37.0605 181.702 37.9795 181.816 38.7836C182.046 41.1959 182.276 43.6081 182.62 46.0204C182.735 47.1691 182.85 48.4327 182.965 49.5814C182.965 50.0408 183.08 50.0408 183.425 50.0408C184.229 50.0408 184.918 50.0408 185.722 50.0408C186.181 50.0408 186.181 50.0408 186.181 49.5814C186.067 48.6624 185.952 47.8583 185.952 46.9394C185.722 44.642 185.492 42.4594 185.262 40.162C185.148 38.7836 184.918 37.4052 184.803 35.9118C184.803 35.6821 184.688 35.5672 184.458 35.5672C183.884 35.6821 183.425 35.6821 183.08 35.6821Z" fill="white"/>
<path d="M75.2172 42.804C75.2172 44.1825 75.1023 45.446 75.1023 46.8245C74.9874 48.5475 74.9874 50.3855 74.8726 52.1085C74.8726 52.3382 74.7577 52.4531 74.6428 52.6828C73.3793 53.9464 72.0008 55.0951 70.7372 56.3587C70.5075 56.4736 70.3926 56.5884 70.1629 56.5884C67.6358 56.5884 65.1086 56.5884 62.4666 56.5884C62.2369 56.5884 62.0071 56.4736 61.7774 56.3587C60.6287 55.0951 59.48 53.9464 58.3313 52.7977C58.1016 52.568 58.1016 52.3382 58.1016 52.1085C58.3313 47.9732 58.6759 43.9527 58.9057 39.8174C59.0205 37.8646 59.1354 35.797 59.2503 33.8442C59.2503 33.3847 59.48 33.0401 59.8246 32.8104C60.9733 31.7765 62.122 30.7427 63.3856 29.7089C63.6153 29.4791 63.8451 29.3643 64.1897 29.3643C66.6019 29.3643 69.0142 29.3643 71.3116 29.3643C71.6562 29.3643 71.8859 29.4791 72.0008 29.7089C73.0346 30.8576 74.1833 31.8914 75.332 32.9252C75.5618 33.155 75.6767 33.3847 75.6767 33.7293C75.5618 36.2565 75.4469 38.8985 75.332 41.4256C75.2172 41.8851 75.2172 42.3446 75.2172 42.804ZM68.5547 42.804C68.5547 42.3446 68.5547 41.8851 68.6696 41.4256C68.7845 39.7025 68.8993 37.8646 68.8993 36.1416C68.8993 35.6821 68.8993 35.6821 68.4399 35.6821C67.7506 35.6821 66.9465 35.6821 66.2573 35.6821C65.7978 35.6821 65.7978 35.6821 65.7978 36.1416C65.683 38.3241 65.5681 40.5066 65.4532 42.804C65.4532 43.6081 65.3384 44.5271 65.3384 45.3312C65.2235 46.8245 65.2235 48.3178 65.1086 49.6962C65.1086 50.1557 65.1086 50.1557 65.5681 50.1557C66.2573 50.1557 67.0614 50.1557 67.7506 50.1557C68.2101 50.1557 68.2101 50.1557 68.325 49.5814C68.325 47.284 68.4398 44.9866 68.5547 42.804Z" fill="white"/>
<path d="M161.714 29.4792C162.863 29.4792 164.126 29.4792 165.275 29.4792C165.505 29.4792 165.735 29.5941 165.964 29.709C167.228 30.8577 168.492 32.0064 169.755 33.0402C169.985 33.27 170.1 33.3848 170.1 33.7294C170.215 35.7971 170.444 37.8647 170.674 39.9324C170.904 42.6893 171.134 45.4462 171.363 48.203C171.478 49.4666 171.593 50.845 171.708 52.1086C171.708 52.4532 171.708 52.683 171.478 52.9127C170.329 54.0614 169.296 55.2101 168.147 56.3588C167.917 56.5885 167.687 56.7034 167.458 56.7034C164.931 56.7034 162.403 56.7034 159.876 56.7034C159.647 56.7034 159.417 56.5885 159.187 56.4737C157.924 55.2101 156.545 54.0614 155.282 52.7978C155.052 52.683 155.052 52.4532 155.052 52.2235C155.052 51.5343 154.937 50.845 154.937 50.1558C154.707 46.8246 154.477 43.4934 154.248 40.1621C154.133 37.9796 154.018 35.912 153.788 33.7294C153.788 33.4997 153.788 33.27 154.018 33.1551C155.167 32.0064 156.315 30.9726 157.349 29.8239C157.579 29.5941 157.694 29.5941 158.038 29.5941C159.302 29.4792 160.451 29.4792 161.714 29.4792ZM163.208 50.041C163.667 50.041 164.126 50.041 164.586 50.041C164.816 50.041 164.816 49.9261 164.816 49.8112C164.816 49.6963 164.816 49.5815 164.816 49.5815C164.701 47.5138 164.471 45.4462 164.356 43.3785C164.126 40.9662 164.012 38.554 163.782 36.0268C163.782 35.7971 163.667 35.6822 163.437 35.6822C162.748 35.6822 162.059 35.6822 161.37 35.6822C160.566 35.6822 160.68 35.5674 160.68 36.3714C160.91 39.8175 161.14 43.2636 161.484 46.7097C161.599 47.7436 161.599 48.6625 161.714 49.6963C161.714 49.9261 161.829 50.041 162.059 50.041C162.403 50.041 162.748 50.041 163.208 50.041Z" fill="white"/>
<path d="M136.443 42.9189C136.213 38.5538 136.098 34.1888 135.869 29.8237C135.869 29.3643 135.869 29.3643 136.328 29.3643C140.808 29.3643 145.288 29.3643 149.768 29.3643C150.227 29.3643 150.227 29.3643 150.227 29.7089C150.342 31.4319 150.457 33.2698 150.572 34.9929C150.572 35.5672 150.687 35.5672 149.998 35.5672C147.815 35.5672 145.518 35.5672 143.335 35.5672C142.761 35.5672 142.761 35.4524 142.876 36.1416C142.876 37.0605 142.99 38.0944 142.99 39.0133C142.99 39.4728 142.99 39.4728 143.565 39.4728C145.747 39.4728 148.045 39.4728 150.227 39.4728C150.342 39.4728 150.457 39.4728 150.572 39.4728C150.802 39.4728 150.916 39.5877 150.916 39.8174C150.916 40.3918 151.031 41.081 151.031 41.7702C151.146 43.0338 151.146 44.2973 151.261 45.5609C151.261 46.0204 151.261 46.0204 150.802 46.0204C148.619 46.0204 146.322 46.0204 144.139 46.0204C144.024 46.0204 143.909 46.0204 143.795 46.0204C143.335 46.0204 143.335 46.0204 143.45 46.4799C143.565 49.6962 143.795 52.7977 143.909 56.0141C143.909 56.7033 143.909 56.7033 143.22 56.7033C141.382 56.7033 139.429 56.7033 137.592 56.7033C137.132 56.7033 137.132 56.7033 137.132 56.2438C136.787 51.7639 136.673 47.3988 136.443 42.9189Z" fill="white"/>
<path d="M114.273 29.4793C114.503 29.3644 114.618 29.4793 114.847 29.4793C116.685 29.4793 118.523 29.4793 120.361 29.4793C120.821 29.4793 120.935 29.5941 121.165 30.0536C121.854 31.7767 122.658 33.6146 123.463 35.3376C123.577 35.5674 123.577 35.6823 123.692 35.912C123.807 35.7971 123.807 35.6823 123.922 35.5674C124.611 33.7295 125.3 31.8915 126.105 29.9388C126.219 29.709 126.334 29.4793 126.679 29.4793C128.632 29.4793 130.584 29.4793 132.537 29.4793C132.652 29.4793 132.767 29.4793 132.767 29.4793C132.882 29.709 132.767 29.8239 132.652 29.9388C130.929 34.3038 129.206 38.7837 127.483 43.1488C127.368 43.4934 127.253 43.7231 127.368 44.0678C127.483 47.7436 127.598 51.4194 127.713 55.0953C127.713 55.4399 127.713 55.7845 127.713 56.1291C127.713 56.5886 127.713 56.5886 127.253 56.5886C125.3 56.5886 123.348 56.5886 121.395 56.5886C120.935 56.5886 120.935 56.5886 120.935 56.1291C120.821 52.1086 120.821 48.0882 120.706 44.0678C120.706 43.7231 120.591 43.4934 120.476 43.1488C118.523 38.7837 116.685 34.4187 114.732 30.0536C114.503 29.9388 114.388 29.709 114.273 29.4793Z" fill="white"/>
<path d="M97.7317 41.5406C97.7317 38.6688 97.8465 34.3038 97.8465 29.9387C97.8465 29.4792 97.8465 29.4792 98.306 29.4792C100.144 29.4792 101.982 29.4792 103.935 29.4792C104.394 29.4792 104.394 29.4792 104.394 29.9387C104.394 35.5674 104.394 41.196 104.394 46.8246C104.394 47.7436 104.394 48.7774 104.394 49.6963C104.394 50.041 104.279 50.1558 104.854 50.1558C107.151 50.1558 109.334 50.1558 111.631 50.1558C111.746 50.1558 111.861 50.1558 111.976 50.1558C112.32 50.1558 112.435 50.1558 112.435 50.5004C112.435 51.0748 112.435 51.764 112.435 52.3384C112.435 53.6019 112.435 54.9804 112.435 56.2439C112.435 56.7034 112.435 56.7034 111.976 56.7034C107.381 56.7034 102.786 56.7034 98.0763 56.7034C97.5019 56.7034 97.6168 56.7034 97.6168 56.2439C97.6168 51.764 97.7317 47.3989 97.7317 41.5406Z" fill="white"/>
<path d="M79.3524 56.5885C79.2376 56.4737 79.3524 56.2439 79.3524 56.1291C79.5822 51.1897 79.6971 46.1354 79.9268 41.196C80.0417 37.4053 80.1565 33.7294 80.3863 29.9387C80.3863 29.4792 80.3863 29.4792 80.8458 29.4792C82.6837 29.4792 84.6365 29.4792 86.4744 29.4792C86.9339 29.4792 86.9339 29.4792 86.9339 29.9387C86.819 33.0402 86.7041 36.2566 86.7041 39.3581C86.5892 42.8042 86.4744 46.2502 86.4744 49.5815C86.4744 50.041 86.4744 50.041 86.9339 50.041C89.2313 50.041 91.5287 50.041 93.7112 50.041C93.826 50.041 93.9409 50.041 94.0558 50.041C94.1707 50.041 94.2855 50.041 94.2855 50.2707C94.2855 50.3856 94.2855 50.3856 94.2855 50.5004C94.2855 52.4532 94.1707 54.2911 94.1707 56.2439C94.1707 56.7034 94.1707 56.7034 93.7112 56.7034C89.1164 56.7034 84.4067 56.7034 79.8119 56.7034C79.5822 56.5885 79.4673 56.5885 79.3524 56.5885Z" fill="white"/>
<path d="M11.467 67.1565C11.3499 67.2736 11.3499 67.2736 11.467 67.1565C11.2328 67.2736 11.3499 67.1565 11.467 67.1565C11.3499 67.1565 11.3499 67.1565 11.467 67.1565Z" fill="#ECA03B"/>
<path d="M205.824 50.0409C205.48 50.0409 205.135 50.0409 204.79 50.0409C204.331 50.0409 204.331 50.0409 204.216 49.5814C204.101 49.007 204.101 48.4327 203.986 47.9732C203.527 44.2974 203.067 40.7364 202.493 37.0606C202.493 36.716 202.378 36.4862 202.378 36.1416C202.378 35.6821 202.378 35.6821 202.723 35.6821C203.527 35.6821 204.331 35.6821 205.02 35.6821C205.25 35.6821 205.365 35.797 205.48 36.0267C205.709 37.6349 205.939 39.2431 206.169 40.8513C206.513 43.723 206.973 46.5948 207.318 49.4665C207.318 49.5814 207.318 49.5814 207.318 49.6963C207.432 49.926 207.318 50.0409 206.973 50.0409C206.743 50.0409 206.284 50.0409 205.824 50.0409Z" fill="black"/>
<path d="M183.08 35.6821C183.539 35.6821 183.884 35.6821 184.344 35.6821C184.573 35.6821 184.688 35.797 184.688 36.0267C184.803 37.4052 185.033 38.8985 185.148 40.2769C185.377 42.5743 185.607 44.7569 185.837 47.0542C185.952 47.9732 186.067 48.7773 186.067 49.6963C186.067 50.1557 186.067 50.1557 185.607 50.1557C184.803 50.1557 184.114 50.1557 183.31 50.1557C182.85 50.1557 182.85 50.1557 182.85 49.6963C182.735 48.5476 182.62 47.284 182.506 46.1353C182.276 43.723 182.046 41.3108 181.702 38.8985C181.587 38.0944 181.472 37.1754 181.472 36.3713C181.472 35.797 181.357 35.797 181.931 35.797C182.391 35.6821 182.735 35.6821 183.08 35.6821Z" fill="black"/>
<path d="M68.5547 42.8041C68.4399 45.1015 68.325 47.284 68.2101 49.5814C68.2101 50.1557 68.2101 50.1557 67.6358 50.1557C66.9466 50.1557 66.1425 50.1557 65.4533 50.1557C64.9938 50.1557 64.9938 50.1557 64.9938 49.6963C65.1086 48.2029 65.1086 46.7096 65.2235 45.3312C65.2235 44.5271 65.3384 43.6082 65.3384 42.8041C65.4533 40.6215 65.5681 38.439 65.683 36.1416C65.683 35.6821 65.683 35.6821 66.1425 35.6821C66.8317 35.6821 67.6358 35.6821 68.325 35.6821C68.7845 35.6821 68.7845 35.6821 68.7845 36.1416C68.6696 37.8647 68.5547 39.7026 68.5547 41.4256C68.5547 41.8851 68.5547 42.3446 68.5547 42.8041Z" fill="black"/>
<path d="M163.207 50.0409C162.748 50.0409 162.403 50.0409 161.944 50.0409C161.714 50.0409 161.599 49.9261 161.599 49.6963C161.484 48.6625 161.484 47.7435 161.37 46.7097C161.14 43.2636 160.795 39.8175 160.565 36.3714C160.451 35.5673 160.451 35.6822 161.255 35.6822C161.944 35.6822 162.633 35.6822 163.322 35.6822C163.552 35.6822 163.667 35.7971 163.667 36.0268C163.897 38.4391 164.012 40.8513 164.241 43.3785C164.356 45.4461 164.586 47.5138 164.701 49.5814C164.701 49.6963 164.701 49.8112 164.701 49.8112C164.701 50.0409 164.586 50.0409 164.471 50.0409C164.126 50.0409 163.667 50.0409 163.207 50.0409Z" fill="black"/>
</g>
<defs>
<clipPath id="clip0_543_301">
<rect width="216.3" height="87.6457" fill="white" transform="translate(0.666626 0.761719)"/>
</clipPath>
</defs>
</svg>
