<svg width="241" height="97" viewBox="0 0 241 97" fill="none" xmlns="http://www.w3.org/2000/svg">
<g clip-path="url(#clip0_557_2045)">
<path d="M229.304 29.0608C229.688 29.0608 230.072 29.0608 230.456 29.1868C231.095 29.3128 231.607 29.5648 231.991 29.9428C233.142 30.8247 234.294 31.8327 235.445 32.7147C235.957 33.0927 236.341 33.4707 236.853 33.8487C237.237 34.2267 237.493 34.6047 237.621 35.1087C238.004 36.4947 238.132 37.8807 238.26 39.2667C238.644 41.6606 239.028 44.0546 239.284 46.4486C239.668 48.8426 239.924 51.1105 240.307 53.5045C240.435 54.5125 240.563 55.5205 240.691 56.5285C240.819 57.2845 240.691 57.9145 240.18 58.5445C239.412 59.5525 238.644 60.4345 237.749 61.3165C237.237 61.8204 236.725 62.3244 236.213 62.9544C235.573 63.8364 234.678 64.0884 233.654 64.0884C229.176 64.0884 224.57 64.0884 220.092 64.0884C219.068 64.0884 218.173 63.7104 217.661 62.8284C217.405 62.3244 217.277 61.8204 217.149 61.3165C217.021 60.3085 216.893 59.3005 216.765 58.2925C216.765 58.1665 216.765 57.9145 216.637 57.6625C216.253 58.6705 215.358 59.3005 214.718 60.1825C213.822 61.1905 212.927 62.0724 212.031 63.0804C211.391 63.7104 210.624 64.0884 209.728 64.0884C206.785 64.0884 203.971 64.0884 201.028 64.0884C200.004 64.0884 199.109 63.5844 198.341 62.9544C196.934 61.6944 195.526 60.5605 194.119 59.3005C193.607 58.7965 193.095 58.2925 192.967 57.5365C192.967 57.5365 192.967 57.4105 192.839 57.5365C192.711 58.5445 191.944 59.1745 191.304 59.8045C190.28 60.9385 189.257 61.9464 188.233 63.0804C187.593 63.8364 186.698 64.2144 185.802 64.2144C182.859 64.2144 179.917 64.2144 176.974 64.2144C176.078 64.2144 175.311 63.9624 174.671 63.3324C174.031 62.8284 173.391 62.1984 172.88 61.6944C171.984 60.8125 171.088 60.0565 170.193 59.1745C169.425 58.5445 169.169 57.7885 169.041 56.9065C169.041 56.4025 168.913 55.7725 168.913 55.2685C168.913 55.0165 168.785 54.8905 168.529 54.8905C166.354 54.8905 164.179 54.8905 161.876 54.8905C161.492 54.8905 161.492 55.0165 161.492 55.2685C161.492 56.2765 161.62 57.1585 161.62 58.1665C161.62 59.1745 161.748 60.1825 161.748 61.1905C161.748 61.9464 161.62 62.5764 161.108 63.2064C160.853 63.5844 160.469 63.8364 159.957 63.9624C159.445 64.0884 158.805 64.2144 158.294 64.2144C156.246 64.2144 154.199 64.2144 152.024 64.2144C151.512 64.2144 151.001 64.0884 150.617 63.9624C149.721 63.7104 149.209 63.2064 149.081 62.3244C148.826 61.1905 148.826 60.1825 148.826 59.0485C148.826 57.7885 148.698 56.5285 148.698 55.2685C148.698 55.0165 148.57 54.8905 148.314 54.8905C146.906 54.8905 145.499 54.8905 143.964 54.8905C143.58 54.8905 143.452 54.8905 143.58 55.3945C143.708 57.4105 143.58 59.5525 143.708 61.5685C143.708 61.9464 143.708 62.3244 143.452 62.7024C142.94 63.8364 142.044 64.2144 140.893 64.2144C138.462 64.2144 136.031 64.2144 133.728 64.2144C132.448 64.2144 131.553 63.7104 131.041 62.4504C130.657 61.5685 130.529 60.6865 130.529 59.8045C130.529 58.2925 130.529 56.9065 130.529 55.3945C130.529 54.8905 130.529 54.8905 130.017 54.8905C129.378 54.8905 128.61 54.8905 127.97 54.8905C127.459 54.8905 127.459 54.8905 127.459 55.3945C127.459 56.2765 127.459 57.2845 127.459 58.1665C127.459 59.0485 127.459 60.0565 127.331 60.9385C127.203 61.9464 126.819 62.8284 126.051 63.4584C125.411 64.0884 124.644 64.2144 123.876 64.2144C120.549 64.2144 117.223 64.2144 114.024 64.2144C112.105 64.2144 110.186 64.2144 108.267 64.2144C107.499 64.2144 106.731 64.0884 106.219 63.5844C106.091 63.4584 105.836 63.4584 105.708 63.5844C104.94 64.0884 104.044 64.2144 103.021 64.2144C98.0308 64.2144 92.9129 64.2144 87.923 64.2144C87.2832 64.2144 86.6435 64.0884 86.1317 63.8364C85.1082 63.2064 84.8523 62.3244 84.8523 61.3165C84.8523 60.5605 84.9802 59.6785 84.9802 58.9225C84.9802 58.7965 84.9802 58.5445 84.9802 58.2925C84.5964 58.6705 84.4684 59.0485 84.2125 59.3005C83.189 60.3085 82.0374 61.3165 81.0139 62.1984C80.5021 62.5764 80.1182 63.0804 79.6065 63.4584C78.9667 64.0884 78.0711 64.2144 77.3034 64.3404C74.3606 64.3404 71.4179 64.3404 68.4751 64.3404C67.5795 64.3404 66.8118 64.0884 66.1721 63.3324C65.0205 62.0724 63.7411 60.8125 62.4616 59.5525C62.2057 59.3005 62.0778 59.3005 61.8219 59.5525C61.6939 59.6785 61.566 59.6785 61.438 59.8045C61.0542 60.0565 60.9262 60.3085 60.9262 60.6865C60.9262 61.3165 60.7983 61.8204 60.6703 62.4504C60.4145 63.3324 59.9027 63.8364 59.007 64.0884C58.4953 64.2144 57.9835 64.2144 57.4717 64.2144C55.4245 64.2144 53.2494 64.2144 51.2023 64.2144C50.4346 64.2144 49.6669 64.0884 49.0272 63.7104C48.8993 63.5844 48.7713 63.5844 48.6434 63.7104C48.1316 64.0884 47.3639 64.2144 46.7242 64.2144C44.4211 64.2144 42.1181 64.2144 39.815 64.2144C39.5591 64.2144 39.3033 64.2144 39.0474 64.0884C38.6635 63.9624 38.4076 63.8364 38.0238 63.8364C37.6399 63.8364 37.3841 63.8364 37.0002 63.9624C34.0574 65.3484 31.1147 66.7344 28.2998 68.1204C26.3806 69.0024 24.5894 69.8844 22.6702 70.7664C20.4951 71.7744 18.32 72.9083 16.1449 73.9163C15.1213 74.4203 14.0978 74.9243 13.0742 75.4283C11.7947 76.0583 10.1314 75.8063 9.36373 74.5463C8.97989 73.9163 8.85194 73.2863 8.97989 72.6563C9.23578 71.3964 9.74757 70.2624 10.0035 69.1284C10.8991 66.1044 11.9227 63.0804 12.8183 60.0565C13.586 57.4105 14.3537 54.6385 15.2493 51.9925C15.7611 50.4806 16.1449 48.9686 16.6567 47.4566C16.7846 47.0786 16.6567 46.9526 16.4008 46.7006C13.7139 43.9286 11.027 41.0306 8.21221 38.2587C5.78122 35.7387 3.47818 33.2187 1.0472 30.8247C1.30309 30.5727 1.0472 30.4467 0.919251 30.3207C0.0236247 29.4388 -0.232269 28.3048 0.279518 27.1708C0.535411 26.5408 1.0472 26.0368 1.68693 25.9108C2.83845 25.5328 3.86202 25.5328 5.01354 25.2808C6.8048 25.0288 8.4681 24.7768 10.2594 24.5248C11.2829 24.3988 12.3065 24.2728 13.458 24.1468C14.8654 24.0208 16.1449 23.7688 17.5523 23.6428C18.7038 23.5168 19.8554 23.3908 20.8789 23.1388C22.9261 22.8868 24.9732 22.6348 27.1483 22.3828C27.6601 22.2568 28.1719 22.3828 28.5557 22.1308C28.9396 21.8788 29.0675 21.3748 29.3234 20.9968C30.8588 18.7289 32.2662 16.3349 33.8015 14.0669C34.6972 12.6809 35.7207 11.1689 36.6164 9.78294C37.8958 7.76696 39.1753 5.75098 40.4548 3.861C40.9666 2.97901 41.6063 2.22301 42.1181 1.34102C42.6299 0.459029 43.5255 0.207031 44.4211 0.207031C45.5726 0.207031 46.3403 0.837025 46.8521 1.84502C47.6198 3.483 48.3875 5.12098 49.1551 6.75897C49.9228 8.52295 50.6905 10.1609 51.4582 11.9249C52.0979 13.4369 52.8656 14.9489 53.5053 16.5869C54.1451 18.0989 54.9127 19.6108 55.5525 21.1228C55.6804 21.2488 55.6804 21.3748 55.8084 21.5008C55.8084 21.7528 55.9363 21.7528 56.1922 21.7528C56.3202 21.7528 56.4481 21.7528 56.5761 21.7528H181.964C194.886 21.7528 207.809 21.7528 220.86 21.7528C221.883 21.7528 222.779 22.0048 223.674 22.7608C225.082 24.0208 226.617 25.1548 228.153 26.4148C228.92 27.0448 229.176 27.9268 229.304 29.0608ZM12.0506 73.0343C12.3065 73.0343 12.4345 72.9083 12.5624 72.7823C15.6331 71.2704 18.8318 69.7584 21.9025 68.2464C26.7645 65.9784 31.4985 63.5844 36.3605 61.3165C36.6164 61.1905 36.7443 61.0645 36.7443 60.6865C36.8723 59.6785 37.0002 58.5445 37.0002 57.5365C37.0002 57.0325 37.1282 56.5285 37.1282 55.8985C35.081 56.9065 33.1618 57.7885 31.2426 58.6705C29.3234 59.6785 27.2763 60.5605 25.3571 61.5685C23.4379 62.4504 21.5187 63.4584 19.4715 64.3404C19.4715 64.0884 19.4715 63.9624 19.4715 63.9624C20.3671 61.0645 21.2628 58.1665 22.0305 55.2685C23.054 51.8665 24.0776 48.5906 25.1012 45.1886C25.2291 44.9366 25.2291 44.6846 24.9732 44.3066C22.7981 42.1646 20.751 39.8967 18.5759 37.7547C16.6567 35.7387 14.7375 33.7227 12.8183 31.7067C12.6903 31.5807 12.4345 31.4547 12.4345 31.2027C12.5624 31.0767 12.6903 31.0767 12.8183 31.0767C14.3537 30.8247 15.889 30.6987 17.5523 30.4467C20.2392 30.0687 22.7981 29.8168 25.485 29.4388C27.7881 29.1868 30.0911 28.8088 32.2662 28.5568C32.65 28.5568 32.9059 28.4308 33.0339 28.0528C34.1854 26.1628 35.4649 24.2728 36.6164 22.3828C38.6635 19.1069 40.8386 15.8309 42.8858 12.5549C43.0137 12.4289 43.0137 12.1769 43.2696 12.0509C43.5255 12.1769 43.5255 12.3029 43.6534 12.4289C44.9329 15.3269 46.2124 18.0989 47.4918 20.9968C48.5154 23.2648 49.539 25.5328 50.5626 27.9268C50.8185 28.4308 51.0743 28.6828 51.7141 28.6828C59.135 28.6828 66.5559 28.6828 73.9768 28.6828C94.8321 28.6828 115.687 28.6828 136.671 28.6828C166.354 28.6828 196.038 28.6828 225.849 28.6828C226.105 28.6828 226.361 28.6828 226.745 28.6828C226.489 28.4308 226.361 28.3048 226.233 28.1788C224.954 27.0448 223.546 26.0368 222.267 24.9028C221.883 24.5248 221.371 24.3988 220.86 24.3988C194.886 24.3988 168.913 24.3988 142.94 24.3988C113.64 24.3988 84.3405 24.3988 55.1686 24.3988C54.6568 24.3988 54.401 24.2728 54.1451 23.7688C52.9935 21.1228 51.7141 18.4769 50.5626 15.7049C48.7713 11.7989 47.108 8.01896 45.3167 4.11299C45.0609 3.735 44.9329 3.231 44.677 2.72701C44.5491 2.97901 44.4211 3.105 44.2932 3.357C43.6534 4.36499 43.0137 5.24698 42.5019 6.25497C39.6871 10.5389 36.8723 14.8229 34.1854 19.1069C33.0339 20.7448 32.0103 22.5088 30.8588 24.1468C30.7308 24.3988 30.6029 24.5248 30.347 24.5248C27.916 24.7768 25.485 25.1548 23.054 25.5328C20.4951 25.9108 17.8082 26.1628 15.2493 26.5408C11.6668 27.0448 8.08426 27.5488 4.37381 27.9268C3.98997 27.9268 3.60613 28.0528 3.35024 28.0528C3.47818 28.3048 3.60613 28.4308 3.73408 28.5568C5.01354 29.8168 6.16506 31.0767 7.44453 32.3367C9.61963 34.6047 11.6668 36.7467 13.8419 39.0147C16.017 41.2826 18.0641 43.4246 20.2392 45.6926C20.623 46.0706 20.623 46.4486 20.4951 46.8266C19.8554 48.7166 19.3436 50.7326 18.7038 52.6225C17.0405 58.1665 15.3772 63.5844 13.7139 69.1284C12.6903 70.5144 12.1786 71.7744 12.0506 73.0343C11.9227 73.0343 11.7947 73.1603 12.0506 73.0343C11.9227 73.1603 11.9227 73.1603 12.0506 73.0343ZM227.257 61.4424C229.432 61.4424 231.607 61.4424 233.782 61.4424C234.166 61.4424 234.422 61.3165 234.678 61.0645C235.829 59.8045 236.853 58.5445 238.004 57.2845C238.26 57.0325 238.388 56.7805 238.26 56.4025C238.004 54.6385 237.749 52.8745 237.493 51.1105C236.725 46.1966 235.957 41.1566 235.318 36.2427C235.318 35.9907 235.19 35.7387 234.934 35.6127C233.398 34.3527 231.863 33.0927 230.328 31.8327C230.072 31.7067 229.944 31.5807 229.56 31.5807C225.338 31.5807 221.115 31.5807 216.893 31.5807C216.381 31.5807 216.381 31.5807 216.509 32.0847C216.637 33.0927 216.765 34.1007 216.893 35.1087C217.405 38.8887 217.917 42.6686 218.301 46.5746C218.94 51.3625 219.452 56.1505 220.092 60.8125C220.092 61.3165 220.092 61.3165 220.604 61.3165C222.907 61.4425 225.082 61.4424 227.257 61.4424ZM50.8185 61.4424C50.9464 61.4424 51.0743 61.4424 51.2023 61.4424C53.5053 61.4424 55.6804 61.4424 57.9835 61.4424C58.3673 61.4424 58.3673 61.4425 58.4953 61.0645C58.6232 58.6705 58.8791 56.2765 59.007 53.8825C59.2629 50.6066 59.5188 47.4566 59.7747 44.1806C59.9027 42.1646 60.0306 40.2747 60.1586 38.2587C60.2865 36.2427 60.4145 34.1007 60.5424 32.0847C60.5424 31.8327 60.5424 31.7067 60.1586 31.7067C57.9835 31.7067 55.8084 31.7067 53.6333 31.7067C53.3774 31.7067 53.2494 31.8327 53.2494 32.0847C53.2494 32.9667 53.1215 33.7227 52.9935 34.6047C52.7377 37.2507 52.6097 39.7707 52.3538 42.4166C52.3538 42.7946 52.3538 42.9206 51.842 42.9206C50.9464 42.9206 50.0508 42.9206 49.2831 42.9206C48.8993 42.9206 48.8993 42.9206 48.8993 42.5426C48.8993 42.4166 48.8993 42.2906 48.8993 42.2906C49.1551 39.1407 49.411 35.9907 49.7949 32.7147C49.7949 32.4627 49.9228 32.0847 49.7949 31.8327C47.4918 31.8327 45.1888 31.8327 42.8858 31.8327C42.6299 31.8327 42.5019 31.9587 42.5019 32.2107C42.246 34.3527 42.1181 36.6207 41.8622 38.7627C41.7342 40.6526 41.4783 42.5426 41.3504 44.5586C41.0945 47.4566 40.8386 50.3546 40.4548 53.2525C40.3268 55.1425 40.0709 57.1585 39.943 59.0485C39.815 59.9305 39.815 60.8125 39.6871 61.5685C39.815 61.6945 39.943 61.6944 40.0709 61.6944C42.374 61.6944 44.5491 61.6944 46.8521 61.6944C47.3639 61.6944 47.3639 61.6945 47.3639 61.1905C47.6198 58.5445 47.7477 56.0245 48.0036 53.3785C48.1316 52.3705 48.1316 51.4885 48.2595 50.4806C48.2595 50.1026 48.2595 50.1026 48.7713 50.1026C49.2831 50.1026 49.6669 50.1026 50.1787 50.1026C50.6905 50.1026 51.3302 50.1026 51.842 50.1026C51.4582 53.7565 51.2023 57.5365 50.8185 61.4424ZM205.634 61.4424C207.041 61.4424 208.449 61.4424 209.856 61.4424C210.24 61.4424 210.496 61.3165 210.752 61.0645C211.903 59.8045 213.055 58.5445 214.206 57.2845C214.462 57.0325 214.59 56.7805 214.462 56.4025C214.206 54.8905 214.078 53.3785 213.95 51.8665C213.567 48.8426 213.183 45.9446 212.927 42.9206C212.671 40.6526 212.415 38.5107 212.159 36.2427C212.159 35.9907 212.031 35.7387 211.775 35.6127C210.24 34.3527 208.833 33.0927 207.425 31.9587C207.169 31.7067 206.913 31.7067 206.657 31.7067C203.843 31.7067 201.156 31.7067 198.341 31.7067C198.085 31.7067 197.957 31.7067 197.829 31.9587C197.445 32.3367 197.189 32.7147 196.806 33.0927C196.038 33.9747 195.142 34.8567 194.375 35.6127C194.119 35.8647 193.991 36.2427 193.991 36.6207C194.247 39.5187 194.63 42.4166 194.886 45.3146C195.27 48.9686 195.526 52.7485 195.91 56.4025C195.91 56.7805 196.038 57.1585 196.422 57.4105C197.957 58.6705 199.365 59.9305 200.9 61.3165C201.156 61.5685 201.284 61.5685 201.668 61.5685C202.819 61.4425 204.226 61.4424 205.634 61.4424ZM83.061 46.4486C83.189 45.9446 83.061 45.4406 83.189 44.9366C83.3169 42.1646 83.4449 39.2667 83.5728 36.4947C83.5728 36.1167 83.5728 35.8647 83.189 35.6127C81.9095 34.4787 80.758 33.2187 79.4785 32.0847C79.2226 31.8327 78.9667 31.7067 78.7108 31.7067C76.0239 31.7067 73.3371 31.7067 70.7781 31.7067C70.3943 31.7067 70.1384 31.8327 69.8825 32.0847C68.603 33.2187 67.3236 34.3527 65.9162 35.4867C65.5323 35.8647 65.4044 36.1167 65.2764 36.6207C65.1485 38.7627 65.0205 41.0306 64.8926 43.1726C64.6367 47.7086 64.2529 52.1185 63.997 56.6545C63.997 56.9065 63.997 57.0325 64.2529 57.2845C65.5323 58.5445 66.8118 59.9305 68.0913 61.3165C68.3471 61.5685 68.4751 61.5685 68.8589 61.5685C71.6738 61.5685 74.4886 61.5685 77.4314 61.5685C77.6872 61.5685 77.9431 61.5685 78.0711 61.3165C79.4785 59.9305 81.0139 58.6705 82.4213 57.2845C82.5492 57.1585 82.6772 56.9065 82.6772 56.6545C82.8051 54.7645 82.8051 52.7485 82.9331 50.8586C82.9331 49.3466 82.9331 47.8346 83.061 46.4486ZM179.405 31.7067C177.997 31.7067 176.718 31.7067 175.311 31.7067C175.055 31.7067 174.799 31.7067 174.543 31.9587C173.263 33.2187 172.112 34.4787 170.832 35.6127C170.577 35.7387 170.577 35.9907 170.577 36.2427C170.704 38.6367 170.832 40.9046 171.088 43.2986C171.344 46.9526 171.6 50.6066 171.856 54.2605C171.856 55.0165 171.984 55.7725 171.984 56.5285C171.984 56.7805 172.112 56.9065 172.24 57.1585C173.775 58.4185 175.183 59.8045 176.59 61.1905C176.846 61.4425 177.102 61.4424 177.358 61.4424C180.173 61.4424 182.987 61.4424 185.802 61.4424C186.186 61.4424 186.442 61.3165 186.57 61.0645C187.721 59.8045 189.001 58.5445 190.28 57.2845C190.536 57.0325 190.536 56.7805 190.536 56.5285C190.408 55.1425 190.28 53.6305 190.152 52.2445C189.896 49.2206 189.641 46.1966 189.385 43.1726C189.129 40.9046 189.001 38.6367 188.745 36.3687C188.745 36.1167 188.617 35.8647 188.361 35.6127C186.954 34.3527 185.546 33.2187 184.139 31.9587C183.883 31.7067 183.627 31.7067 183.371 31.7067C181.964 31.7067 180.684 31.7067 179.405 31.7067ZM151.257 46.4486C151.512 51.2365 151.64 56.0245 151.896 60.9385C151.896 61.4425 151.896 61.4424 152.408 61.4424C154.455 61.4424 156.63 61.4424 158.677 61.4424C159.445 61.4424 159.445 61.4425 159.445 60.6865C159.317 57.1585 159.061 53.7565 158.933 50.2286C158.933 49.7246 158.933 49.7246 159.317 49.7246C159.445 49.7246 159.573 49.7246 159.701 49.7246C162.132 49.7246 164.691 49.7246 167.122 49.7246C167.634 49.7246 167.634 49.7246 167.634 49.2206C167.506 47.8346 167.506 46.4486 167.378 45.0626C167.378 44.3066 167.25 43.6766 167.25 42.9206C167.25 42.6686 167.122 42.5426 166.866 42.5426C166.738 42.5426 166.61 42.5426 166.482 42.5426C164.051 42.5426 161.492 42.5426 159.061 42.5426C158.55 42.5426 158.55 42.5426 158.422 42.0386C158.422 41.0306 158.294 39.8967 158.294 38.8887C158.294 38.2587 158.166 38.2587 158.805 38.2587C161.236 38.2587 163.795 38.2587 166.226 38.2587C166.994 38.2587 166.866 38.3847 166.866 37.6287C166.738 35.7387 166.61 33.7227 166.482 31.8327C166.482 31.4547 166.482 31.4547 165.97 31.4547C160.981 31.4547 155.991 31.4547 151.001 31.4547C150.489 31.4547 150.489 31.4547 150.489 31.9587C150.873 36.8727 151.129 41.6606 151.257 46.4486ZM126.563 31.7067C126.691 31.9587 126.691 32.2107 126.819 32.3367C128.994 37.1247 131.041 41.9126 133.216 46.7006C133.344 47.0786 133.472 47.3306 133.472 47.7086C133.6 52.1185 133.6 56.5285 133.728 60.9385C133.728 61.4425 133.728 61.4424 134.24 61.4424C136.415 61.4424 138.59 61.4424 140.765 61.4424C141.277 61.4424 141.277 61.4425 141.277 60.9385C141.277 60.5605 141.277 60.1825 141.277 59.8045C141.149 55.7725 141.021 51.7405 140.893 47.7086C140.893 47.3306 140.893 47.0786 141.021 46.7006C142.94 41.9126 144.859 36.9987 146.778 32.2107C146.906 32.0847 146.906 31.8327 146.906 31.7067C146.778 31.5807 146.65 31.7067 146.65 31.7067C144.475 31.7067 142.3 31.7067 140.125 31.7067C139.741 31.7067 139.613 31.8327 139.485 32.2107C138.718 34.2267 137.95 36.2427 137.055 38.3847C137.055 38.5107 136.927 38.6367 136.799 38.7627C136.671 38.6367 136.543 38.3847 136.543 38.1327C135.647 36.2427 134.879 34.2267 133.984 32.3367C133.856 31.9587 133.6 31.7067 133.088 31.7067C131.041 31.7067 128.994 31.7067 126.947 31.7067C126.947 31.7067 126.819 31.7067 126.563 31.7067ZM108.139 44.9366C108.011 51.3625 108.011 56.1505 107.883 60.9385C107.883 61.5685 107.883 61.4424 108.394 61.4424C113.512 61.4424 118.63 61.4424 123.876 61.4424C124.388 61.4424 124.388 61.4425 124.388 60.9385C124.388 59.5525 124.388 58.0405 124.388 56.6545C124.388 56.0245 124.388 55.2685 124.388 54.6385C124.388 54.2605 124.388 54.2605 123.876 54.2605C123.748 54.2605 123.62 54.2605 123.492 54.2605C120.933 54.2605 118.502 54.2605 115.943 54.2605C115.432 54.2605 115.432 54.2605 115.432 53.7565C115.432 52.7485 115.432 51.6145 115.432 50.6066C115.432 44.4326 115.432 38.2587 115.432 32.0847C115.432 31.5807 115.432 31.5807 114.92 31.5807C112.873 31.5807 110.825 31.5807 108.65 31.5807C108.139 31.5807 108.139 31.5807 108.139 32.0847C108.267 36.9987 108.267 41.7866 108.139 44.9366ZM87.6671 61.4424C87.795 61.5684 87.923 61.4424 88.0509 61.4424C93.1688 61.4424 98.4146 61.4424 103.532 61.4424C104.044 61.4424 104.044 61.4425 104.044 60.9385C104.044 58.7965 104.172 56.7805 104.172 54.6385C104.172 54.5125 104.172 54.5125 104.172 54.3865C104.172 54.2605 104.044 54.1345 103.916 54.1345C103.788 54.1345 103.66 54.1345 103.532 54.1345C100.974 54.1345 98.4146 54.1345 95.9836 54.1345C95.4718 54.1345 95.4718 54.1345 95.4718 53.6305C95.5998 49.8506 95.7277 46.0706 95.7277 42.4166C95.8557 39.0147 95.9836 35.4867 95.9836 32.0847C95.9836 31.5807 95.9836 31.5807 95.4718 31.5807C93.4247 31.5807 91.2496 31.5807 89.2024 31.5807C88.6907 31.5807 88.6907 31.5807 88.6907 32.0847C88.5627 36.2427 88.3068 40.2747 88.1789 44.4326C87.923 49.8506 87.795 55.3945 87.5391 60.8125C87.6671 61.0645 87.5391 61.1905 87.6671 61.4424Z" fill="black"/>
<path d="M11.922 73.0344C12.1779 71.7744 12.6897 70.5144 13.0735 69.2544C14.7368 63.7105 16.4001 58.2925 18.0634 52.7486C18.7032 50.8586 19.215 48.8426 19.8547 46.9526C19.9826 46.4486 19.9826 46.1966 19.5988 45.8186C17.4237 43.6767 15.3766 41.4087 13.2015 39.1407C11.0264 36.8727 8.97923 34.7307 6.80413 32.4628C5.52467 31.2028 4.37315 29.9428 3.09368 28.6828C2.96573 28.5568 2.83779 28.4308 2.70984 28.1788C3.09368 28.1788 3.47752 28.0528 3.73341 28.0528C7.31592 27.5488 10.8984 27.0448 14.6089 26.6668C17.1678 26.2888 19.8547 26.0368 22.4136 25.6588C24.8446 25.2808 27.2756 25.0288 29.7066 24.6508C29.9625 24.6508 30.0904 24.5248 30.2184 24.2728C31.3699 22.6348 32.3935 20.8709 33.545 19.2329C36.3598 14.9489 39.1746 10.665 41.8615 6.381C42.5012 5.373 43.141 4.49101 43.6528 3.48302C43.7807 3.23102 43.9087 3.10503 44.0366 2.85303C44.4205 3.23102 44.5484 3.73502 44.6763 4.23901C46.4676 8.14498 48.1309 11.9249 49.9222 15.8309C51.0737 18.4769 52.3531 21.1229 53.5047 23.8948C53.7606 24.3988 54.0164 24.5248 54.5282 24.5248C83.828 24.5248 113.128 24.5248 142.3 24.5248C168.273 24.5248 194.246 24.5248 220.219 24.5248C220.731 24.5248 221.243 24.6508 221.627 25.0288C222.906 26.1628 224.313 27.1708 225.593 28.3048C225.721 28.4308 225.849 28.5568 226.105 28.8088C225.721 28.8088 225.465 28.8088 225.209 28.8088C195.525 28.8088 165.842 28.8088 136.03 28.8088C115.175 28.8088 94.3196 28.8088 73.3364 28.8088C65.9155 28.8088 58.4946 28.8088 51.0737 28.8088C50.4339 28.8088 50.178 28.5568 49.9222 28.0528C48.8986 25.7848 47.875 23.3908 46.8514 21.1229C45.572 18.2249 44.2925 15.4529 43.013 12.5549C43.013 12.4289 42.8851 12.3029 42.7571 12.1769C42.5012 12.3029 42.5012 12.4289 42.3733 12.6809C40.3262 15.9569 38.1511 19.2329 36.1039 22.5088C34.9524 24.3988 33.6729 26.2888 32.5214 28.1788C32.2655 28.4308 32.1376 28.6828 31.7537 28.6828C29.4507 28.9348 27.1476 29.3128 24.9726 29.5648C22.2857 29.9428 19.7267 30.1948 17.0399 30.5728C15.5045 30.8248 13.9691 30.9508 12.3058 31.2028C12.1779 31.2028 12.0499 31.2028 11.922 31.3288C11.922 31.5808 12.1779 31.7068 12.3058 31.8328C14.225 33.8487 16.1442 35.8647 18.0634 37.8807C20.2385 40.0227 22.2857 42.2907 24.4608 44.4326C24.7167 44.6846 24.7167 44.9366 24.5887 45.3146C23.5651 48.7166 22.5416 51.9926 21.518 55.3945C20.6224 58.2925 19.7267 61.1905 18.9591 64.0885C18.9591 64.2145 18.8311 64.3405 18.9591 64.4665C21.0062 63.5845 22.9254 62.5765 24.8446 61.6945C26.7638 60.8125 28.811 59.8045 30.7302 58.7965C32.6494 57.9145 34.6965 56.9065 36.6157 56.0245C36.7436 56.6545 36.6157 57.1585 36.4878 57.6625C36.3598 58.6705 36.2319 59.8045 36.2319 60.8125C36.2319 61.0645 36.1039 61.3165 35.848 61.4425C30.986 63.7105 26.252 66.1044 21.3901 68.3724C18.3193 69.8844 15.1207 71.3964 12.0499 72.9084C12.4338 72.9084 12.1779 73.0344 11.922 73.0344Z" fill="#D7B46A"/>
<path d="M227.256 61.4425C225.081 61.4425 222.906 61.4425 220.731 61.4425C220.219 61.4425 220.219 61.4425 220.219 60.9385C219.579 56.1506 219.067 51.3626 218.428 46.7007C217.916 42.9207 217.404 39.0147 217.02 35.2348C216.892 34.2268 216.764 33.2188 216.636 32.2108C216.636 31.7068 216.636 31.7068 217.02 31.7068C221.243 31.7068 225.465 31.7068 229.687 31.7068C229.943 31.7068 230.199 31.8328 230.455 31.9588C231.99 33.2188 233.525 34.4788 235.061 35.7388C235.317 35.8647 235.317 36.1167 235.445 36.3687C236.212 41.2827 236.852 46.3227 237.62 51.2366C237.876 53.0006 238.132 54.7646 238.387 56.5286C238.387 56.9066 238.387 57.1586 238.132 57.4106C236.98 58.6705 235.828 59.9305 234.805 61.1905C234.549 61.4425 234.293 61.5685 233.909 61.5685C231.606 61.4425 229.431 61.4425 227.256 61.4425ZM228.536 54.2606C229.047 54.2606 229.431 54.2606 229.943 54.2606C230.327 54.2606 230.327 54.1346 230.327 53.8826C230.327 53.7566 230.327 53.7566 230.327 53.6306C229.943 50.4806 229.431 47.3306 229.047 44.1807C228.791 42.4167 228.536 40.6527 228.28 38.8887C228.28 38.5107 228.152 38.5107 227.768 38.5107C226.872 38.5107 225.977 38.5107 225.209 38.5107C224.825 38.5107 224.825 38.5107 224.825 39.0147C224.825 39.3927 224.953 39.6447 224.953 40.0227C225.465 44.0547 225.977 47.9606 226.616 51.9926C226.744 52.6226 226.744 53.2526 226.872 53.7566C227 54.2606 227 54.2606 227.512 54.2606C227.768 54.2606 228.152 54.2606 228.536 54.2606Z" fill="white"/>
<path d="M50.8177 61.443C51.0735 57.663 51.4574 53.7571 51.7133 49.9771C51.0735 49.8511 50.5618 49.9771 50.05 49.9771C49.5382 49.9771 49.1543 49.9771 48.6426 49.9771C48.2587 49.9771 48.1308 49.9771 48.1308 50.3551C48.0028 51.3631 48.0028 52.3711 47.8749 53.2531C47.619 55.8991 47.491 58.419 47.2351 61.065C47.2351 61.569 47.2351 61.569 46.7234 61.569C44.4203 61.569 42.2452 61.569 39.9422 61.569C39.8142 61.569 39.6863 61.569 39.5583 61.443C39.6863 60.561 39.6863 59.679 39.8142 58.923C39.9422 57.0331 40.1981 55.0171 40.326 53.1271C40.5819 50.2291 40.8378 47.3311 41.2217 44.4332C41.3496 42.5432 41.6055 40.6532 41.7334 38.6372C41.9893 36.4953 42.1173 34.2273 42.3732 32.0853C42.3732 31.8333 42.5011 31.7073 42.757 31.7073C45.0601 31.7073 47.3631 31.7073 49.6661 31.7073C49.7941 32.0853 49.6661 32.3373 49.6661 32.5893C49.4102 35.7393 49.1543 38.8892 48.7705 42.1652C48.7705 42.2912 48.7705 42.4172 48.7705 42.4172C48.7705 42.7952 48.7705 42.7952 49.1543 42.7952C50.05 42.7952 50.9456 42.7952 51.7133 42.7952C52.0971 42.7952 52.2251 42.7952 52.2251 42.2912C52.481 39.6452 52.6089 37.1252 52.8648 34.4793C52.9927 33.5973 52.9927 32.8413 53.1207 31.9593C53.1207 31.7073 53.2486 31.5813 53.5045 31.5813C55.6796 31.5813 57.8547 31.5813 60.0298 31.5813C60.4137 31.5813 60.4136 31.7073 60.4136 31.9593C60.2857 33.9753 60.1578 36.1173 60.0298 38.1332C59.9019 40.1492 59.7739 42.0392 59.646 44.0552C59.3901 47.3311 59.1342 50.4811 58.8783 53.7571C58.7503 56.1511 58.4944 58.545 58.3665 60.939C58.3665 61.317 58.3665 61.317 57.8547 61.317C55.5517 61.317 53.3766 61.317 51.0735 61.317C51.0735 61.443 50.9456 61.443 50.8177 61.443Z" fill="white"/>
<path d="M205.633 61.443C204.226 61.443 202.818 61.443 201.411 61.443C201.155 61.443 200.899 61.317 200.643 61.191C199.236 59.931 197.7 58.545 196.165 57.2851C195.781 57.0331 195.653 56.6551 195.653 56.2771C195.269 52.6231 195.014 48.8431 194.63 45.1892C194.374 42.2912 194.118 39.3932 193.734 36.4953C193.734 36.1173 193.734 35.7393 194.118 35.4873C195.014 34.7313 195.781 33.8493 196.549 32.9673C196.933 32.5893 197.189 32.2113 197.573 31.8333C197.7 31.7073 197.828 31.5813 198.084 31.5813C200.899 31.5813 203.586 31.5813 206.401 31.5813C206.657 31.5813 206.913 31.7073 207.169 31.8333C208.576 33.0933 210.111 34.3533 211.519 35.4873C211.775 35.6133 211.903 35.8653 211.903 36.1173C212.158 38.3852 212.414 40.5272 212.67 42.7952C213.054 45.8192 213.438 48.7171 213.694 51.7411C213.822 53.2531 214.078 54.7651 214.206 56.2771C214.206 56.6551 214.206 56.9071 213.95 57.1591C212.798 58.4191 211.647 59.679 210.495 60.939C210.239 61.191 209.983 61.317 209.6 61.317C208.448 61.443 207.041 61.443 205.633 61.443ZM203.202 38.5112C202.818 38.5112 202.435 38.5112 202.051 38.5112C201.411 38.5112 201.411 38.5112 201.539 39.1412C201.667 40.0232 201.667 41.0312 201.795 41.9132C202.051 44.5592 202.307 47.2052 202.69 49.8511C202.818 51.1111 202.946 52.4971 203.074 53.7571C203.074 54.2611 203.202 54.2611 203.586 54.2611C204.482 54.2611 205.249 54.2611 206.145 54.2611C206.657 54.2611 206.657 54.2611 206.657 53.7571C206.529 52.7491 206.401 51.8671 206.401 50.8591C206.145 48.3391 205.889 45.9452 205.633 43.4252C205.505 41.9132 205.249 40.4012 205.121 38.7632C205.121 38.5112 204.993 38.3852 204.738 38.3852C204.098 38.5112 203.586 38.5112 203.202 38.5112Z" fill="white"/>
<path d="M83.0601 46.3232C83.0601 47.8351 82.9322 49.2211 82.9322 50.7331C82.8043 52.6231 82.8042 54.6391 82.6763 56.5291C82.6763 56.7811 82.5484 56.9071 82.4204 57.1591C81.013 58.545 79.4776 59.805 78.0702 61.191C77.8143 61.317 77.6864 61.443 77.4305 61.443C74.6157 61.443 71.8008 61.443 68.8581 61.443C68.6022 61.443 68.3463 61.317 68.0904 61.191C66.8109 59.805 65.5315 58.545 64.252 57.2851C63.9961 57.0331 63.9961 56.7811 63.9961 56.5291C64.252 51.9931 64.6358 47.5832 64.8917 43.0472C65.0197 40.9052 65.1476 38.6372 65.2756 36.4953C65.2756 35.9913 65.5315 35.6133 65.9153 35.3613C67.1948 34.2273 68.4742 33.0933 69.8816 31.9593C70.1375 31.7073 70.3934 31.5813 70.7773 31.5813C73.4641 31.5813 76.151 31.5813 78.71 31.5813C79.0938 31.5813 79.3497 31.7073 79.4776 31.9593C80.6292 33.2193 81.9086 34.3533 83.1881 35.4873C83.444 35.7393 83.5719 35.9913 83.5719 36.3693C83.444 39.1412 83.316 42.0392 83.1881 44.8112C83.0601 45.3152 83.0601 45.8192 83.0601 46.3232ZM75.6392 46.3232C75.6392 45.8192 75.6392 45.3152 75.7672 44.8112C75.8951 42.9212 76.0231 40.9052 76.0231 39.0152C76.0231 38.5112 76.0231 38.5112 75.5113 38.5112C74.7436 38.5112 73.848 38.5112 73.0803 38.5112C72.5685 38.5112 72.5685 38.5112 72.5685 39.0152C72.4406 41.4092 72.3126 43.8032 72.1847 46.3232C72.1847 47.2052 72.0567 48.2131 72.0567 49.0951C71.9288 50.7331 71.9288 52.3711 71.8008 53.8831C71.8008 54.3871 71.8008 54.3871 72.3126 54.3871C73.0803 54.3871 73.9759 54.3871 74.7436 54.3871C75.2554 54.3871 75.2554 54.3871 75.3833 53.7571C75.3833 51.2371 75.5113 48.7171 75.6392 46.3232Z" fill="white"/>
<path d="M179.404 31.7068C180.683 31.7068 182.091 31.7068 183.37 31.7068C183.626 31.7068 183.882 31.8328 184.138 31.9588C185.545 33.2188 186.953 34.4788 188.36 35.6128C188.616 35.8647 188.744 35.9907 188.744 36.3687C188.872 38.6367 189.128 40.9047 189.384 43.1727C189.64 46.1967 189.896 49.2206 190.151 52.2446C190.279 53.6306 190.407 55.1426 190.535 56.5286C190.535 56.9066 190.535 57.1586 190.279 57.4106C189 58.6705 187.848 59.9305 186.569 61.1905C186.313 61.4425 186.057 61.5685 185.801 61.5685C182.986 61.5685 180.172 61.5685 177.357 61.5685C177.101 61.5685 176.845 61.4425 176.589 61.3165C175.182 59.9305 173.646 58.6705 172.239 57.2845C171.983 57.1586 171.983 56.9066 171.983 56.6546C171.983 55.8986 171.855 55.1426 171.855 54.3866C171.599 50.7326 171.343 47.0786 171.087 43.4247C170.959 41.0307 170.831 38.7627 170.576 36.3687C170.576 36.1167 170.576 35.8647 170.831 35.7388C172.111 34.4788 173.39 33.3448 174.542 32.0848C174.798 31.8328 174.926 31.8328 175.31 31.8328C176.717 31.7068 177.996 31.7068 179.404 31.7068ZM181.067 54.2606C181.579 54.2606 182.091 54.2606 182.603 54.2606C182.858 54.2606 182.858 54.1346 182.858 54.0086C182.858 53.8826 182.858 53.7566 182.858 53.7566C182.73 51.4886 182.475 49.2206 182.347 46.9526C182.091 44.3067 181.963 41.6607 181.707 38.8887C181.707 38.6367 181.579 38.5107 181.323 38.5107C180.555 38.5107 179.788 38.5107 179.02 38.5107C178.124 38.5107 178.252 38.3847 178.252 39.2667C178.508 43.0467 178.764 46.8266 179.148 50.6066C179.276 51.7406 179.276 52.7486 179.404 53.8826C179.404 54.1346 179.532 54.2606 179.788 54.2606C180.172 54.2606 180.555 54.2606 181.067 54.2606Z" fill="white"/>
<path d="M151.256 46.4492C151 41.6612 150.872 36.8732 150.616 32.0853C150.616 31.5813 150.616 31.5813 151.128 31.5813C156.118 31.5813 161.108 31.5813 166.098 31.5813C166.609 31.5813 166.609 31.5813 166.609 31.9593C166.737 33.8493 166.865 35.8653 166.993 37.7552C166.993 38.3852 167.121 38.3852 166.353 38.3852C163.922 38.3852 161.363 38.3852 158.932 38.3852C158.293 38.3852 158.293 38.2592 158.421 39.0152C158.421 40.0232 158.549 41.1572 158.549 42.1652C158.549 42.6692 158.549 42.6692 159.188 42.6692C161.619 42.6692 164.178 42.6692 166.609 42.6692C166.737 42.6692 166.865 42.6692 166.993 42.6692C167.249 42.6692 167.377 42.7952 167.377 43.0472C167.377 43.6772 167.505 44.4332 167.505 45.1892C167.633 46.5752 167.633 47.9611 167.761 49.3471C167.761 49.8511 167.761 49.8511 167.249 49.8511C164.818 49.8511 162.259 49.8511 159.828 49.8511C159.7 49.8511 159.572 49.8511 159.444 49.8511C158.933 49.8511 158.933 49.8511 159.06 50.3551C159.188 53.8831 159.444 57.2851 159.572 60.813C159.572 61.569 159.572 61.569 158.805 61.569C156.757 61.569 154.582 61.569 152.535 61.569C152.023 61.569 152.023 61.569 152.023 61.065C151.64 56.1511 151.512 51.3631 151.256 46.4492Z" fill="white"/>
<path d="M126.562 31.7066C126.818 31.5806 126.946 31.7066 127.202 31.7066C129.249 31.7066 131.296 31.7066 133.343 31.7066C133.855 31.7066 133.983 31.8326 134.239 32.3366C135.006 34.2266 135.902 36.2426 136.798 38.1326C136.926 38.3846 136.926 38.5106 137.054 38.7626C137.182 38.6366 137.182 38.5106 137.31 38.3846C138.077 36.3686 138.845 34.3526 139.741 32.2106C139.868 31.9586 139.996 31.7066 140.38 31.7066C142.555 31.7066 144.73 31.7066 146.906 31.7066C147.033 31.7066 147.161 31.7066 147.161 31.7066C147.289 31.9586 147.161 32.0846 147.033 32.2106C145.114 36.9986 143.195 41.9125 141.276 46.7005C141.148 47.0785 141.02 47.3305 141.148 47.7085C141.276 51.7404 141.404 55.7724 141.532 59.8044C141.532 60.1824 141.532 60.5604 141.532 60.9384C141.532 61.4424 141.532 61.4424 141.02 61.4424C138.845 61.4424 136.67 61.4424 134.495 61.4424C133.983 61.4424 133.983 61.4424 133.983 60.9384C133.855 56.5284 133.855 52.1184 133.727 47.7085C133.727 47.3305 133.599 47.0785 133.471 46.7005C131.296 41.9125 129.249 37.1246 127.074 32.3366C126.818 32.2106 126.69 31.9586 126.562 31.7066Z" fill="white"/>
<path d="M108.138 44.9367C108.138 41.7867 108.266 36.9987 108.266 32.2108C108.266 31.7068 108.266 31.7068 108.778 31.7068C110.825 31.7068 112.872 31.7068 115.047 31.7068C115.559 31.7068 115.559 31.7068 115.559 32.2108C115.559 38.3847 115.559 44.5587 115.559 50.7326C115.559 51.7406 115.559 52.8746 115.559 53.8826C115.559 54.2606 115.431 54.3866 116.07 54.3866C118.629 54.3866 121.06 54.3866 123.619 54.3866C123.747 54.3866 123.875 54.3866 124.003 54.3866C124.387 54.3866 124.515 54.3866 124.515 54.7646C124.515 55.3946 124.515 56.1506 124.515 56.7806C124.515 58.1665 124.515 59.6785 124.515 61.0645C124.515 61.5685 124.515 61.5685 124.003 61.5685C118.885 61.5685 113.767 61.5685 108.522 61.5685C107.882 61.5685 108.01 61.5685 108.01 61.0645C108.01 56.1506 108.138 51.3626 108.138 44.9367Z" fill="white"/>
<path d="M87.6664 61.4425C87.5384 61.3165 87.6664 61.0645 87.6664 60.9385C87.9223 55.5206 88.0502 49.9766 88.3061 44.5587C88.434 40.4007 88.562 36.3687 88.8179 32.2108C88.8179 31.7068 88.8179 31.7068 89.3297 31.7068C91.3768 31.7068 93.5519 31.7068 95.5991 31.7068C96.1108 31.7068 96.1108 31.7068 96.1108 32.2108C95.9829 35.6128 95.8549 39.1407 95.8549 42.5427C95.727 46.3226 95.5991 50.1026 95.5991 53.7566C95.5991 54.2606 95.5991 54.2606 96.1108 54.2606C98.6698 54.2606 101.229 54.2606 103.66 54.2606C103.788 54.2606 103.916 54.2606 104.044 54.2606C104.171 54.2606 104.299 54.2606 104.299 54.5126C104.299 54.6386 104.299 54.6386 104.299 54.7646C104.299 56.9066 104.171 58.9225 104.171 61.0645C104.171 61.5685 104.171 61.5685 103.66 61.5685C98.5418 61.5685 93.296 61.5685 88.1782 61.5685C87.9223 61.4425 87.7943 61.4425 87.6664 61.4425Z" fill="white"/>
<path d="M12.0498 73.0342C11.9219 73.1602 11.9219 73.1602 12.0498 73.0342C11.7939 73.1602 11.9219 73.0342 12.0498 73.0342C11.9219 73.0342 11.9219 73.0342 12.0498 73.0342Z" fill="#ECA03B"/>
<path d="M228.536 54.2611C228.152 54.2611 227.768 54.2611 227.384 54.2611C226.872 54.2611 226.872 54.2611 226.744 53.7571C226.616 53.1271 226.616 52.4971 226.488 51.9931C225.977 47.9611 225.465 44.0552 224.825 40.0232C224.825 39.6452 224.697 39.3932 224.697 39.0152C224.697 38.5112 224.697 38.5112 225.081 38.5112C225.977 38.5112 226.872 38.5112 227.64 38.5112C227.896 38.5112 228.024 38.6372 228.152 38.8892C228.408 40.6532 228.663 42.4172 228.919 44.1812C229.303 47.3312 229.815 50.4811 230.199 53.6311C230.199 53.7571 230.199 53.7571 230.199 53.8831C230.327 54.1351 230.199 54.2611 229.815 54.2611C229.559 54.2611 229.047 54.2611 228.536 54.2611Z" fill="black"/>
<path d="M203.202 38.5112C203.714 38.5112 204.098 38.5112 204.609 38.5112C204.865 38.5112 204.993 38.6372 204.993 38.8892C205.121 40.4012 205.377 42.0392 205.505 43.5512C205.761 46.0712 206.017 48.4651 206.273 50.9851C206.401 51.9931 206.529 52.8751 206.529 53.8831C206.529 54.3871 206.529 54.3871 206.017 54.3871C205.121 54.3871 204.354 54.3871 203.458 54.3871C202.946 54.3871 202.946 54.3871 202.946 53.8831C202.818 52.6231 202.69 51.2371 202.562 49.9771C202.306 47.3311 202.051 44.6852 201.667 42.0392C201.539 41.1572 201.411 40.1492 201.411 39.2672C201.411 38.6372 201.283 38.6372 201.923 38.6372C202.434 38.5112 202.818 38.5112 203.202 38.5112Z" fill="black"/>
<path d="M75.6391 46.3232C75.5111 48.8431 75.3832 51.2371 75.2552 53.7571C75.2552 54.3871 75.2552 54.3871 74.6155 54.3871C73.8478 54.3871 72.9522 54.3871 72.1845 54.3871C71.6727 54.3871 71.6727 54.3871 71.6727 53.8831C71.8007 52.2451 71.8007 50.6071 71.9286 49.0951C71.9286 48.2131 72.0566 47.2051 72.0566 46.3232C72.1845 43.9292 72.3125 41.5352 72.4404 39.0152C72.4404 38.5112 72.4404 38.5112 72.9522 38.5112C73.7199 38.5112 74.6155 38.5112 75.3832 38.5112C75.895 38.5112 75.895 38.5112 75.895 39.0152C75.767 40.9052 75.6391 42.9212 75.6391 44.8112C75.6391 45.3152 75.6391 45.8192 75.6391 46.3232Z" fill="black"/>
<path d="M181.067 54.2605C180.556 54.2605 180.172 54.2605 179.66 54.2605C179.404 54.2605 179.276 54.1345 179.276 53.8825C179.148 52.7485 179.148 51.7405 179.02 50.6065C178.764 46.8265 178.381 43.0466 178.125 39.2666C177.997 38.3846 177.997 38.5106 178.892 38.5106C179.66 38.5106 180.428 38.5106 181.195 38.5106C181.451 38.5106 181.579 38.6366 181.579 38.8886C181.835 41.5346 181.963 44.1806 182.219 46.9525C182.347 49.2205 182.603 51.4885 182.731 53.7565C182.731 53.8825 182.731 54.0085 182.731 54.0085C182.731 54.2605 182.603 54.2605 182.475 54.2605C182.091 54.2605 181.579 54.2605 181.067 54.2605Z" fill="black"/>
<path d="M78.4541 79.2085C78.1982 78.7045 77.9423 78.2006 77.5585 77.6966C77.1746 77.1926 76.7908 76.8146 76.279 76.4366C75.7672 76.0586 75.2554 75.8066 74.6157 75.6806C73.976 75.4286 73.3362 75.4286 72.5686 75.4286H71.417V83.1145C71.8009 83.1145 72.1847 83.1145 72.5686 83.1145C72.9524 83.1145 73.2083 82.9885 73.5921 82.8625C73.848 82.7365 74.1039 82.6105 74.3598 82.3585C74.6157 82.1065 74.7437 81.8545 74.8716 81.4765V85.7605C74.7437 85.3825 74.6157 85.1305 74.3598 84.8785C74.1039 84.6265 73.848 84.5005 73.5921 84.3745C73.3362 84.2485 72.9524 84.2485 72.5686 84.1225C72.1847 84.1225 71.8009 84.1225 71.417 84.1225V90.2964H72.5686C73.3362 90.2964 73.976 90.1704 74.6157 90.0444C75.2554 89.7924 75.7672 89.5404 76.279 89.2884C76.7908 88.9104 77.1746 88.5324 77.5585 88.0285C77.9423 87.5245 78.1982 87.0205 78.4541 86.5165V90.9264C78.1982 90.8004 78.0703 90.6744 77.8144 90.5484C77.5585 90.4224 77.3026 90.4224 76.9188 90.4224C76.6629 90.4224 76.5349 90.4224 76.279 90.5484C76.0231 90.5484 75.7672 90.6744 75.3834 90.8004C74.9996 90.9264 74.6157 90.9264 74.2319 91.0524C73.848 91.0524 73.2083 91.1784 72.6965 91.1784H67.3228C67.5786 91.0524 67.9625 90.9264 68.2184 90.6744C68.4743 90.4224 68.6022 90.1704 68.6022 89.6664V76.3106C68.6022 75.9326 68.4743 75.5546 68.2184 75.3026C67.9625 75.0506 67.7066 74.9246 67.3228 74.7986H72.6965C73.3362 74.7986 73.848 74.7986 74.2319 74.9246C74.6157 74.9246 74.9996 75.0506 75.3834 75.1766C75.7672 75.3026 76.0231 75.3026 76.279 75.4286C76.5349 75.4286 76.7908 75.5546 76.9188 75.5546C77.3026 75.5546 77.5585 75.5546 77.8144 75.4286C78.0703 75.3026 78.3262 75.1766 78.4541 75.0506V79.2085Z" fill="#1D1D1B"/>
<path d="M90.0972 89.9185C89.9693 90.0445 89.8413 90.1705 89.7134 90.2965C89.5854 90.4225 89.3295 90.5485 89.2016 90.5485C88.9457 90.6745 88.8177 90.6745 88.5618 90.6745C88.3059 90.6745 88.178 90.6745 88.0501 90.6745H87.1544C86.8985 90.6745 86.7706 90.6745 86.5147 90.5485C86.3867 90.4225 86.1308 90.4225 86.0029 90.2965C85.875 90.1705 85.747 90.0445 85.747 89.7925C85.6191 89.6665 85.6191 89.4145 85.6191 89.2885C85.3632 89.7925 84.9793 90.1705 84.5955 90.4225C84.0837 90.6745 83.6999 90.8005 83.0601 90.8005C82.5483 90.8005 82.0366 90.6745 81.6527 90.5485C81.2689 90.4225 80.885 90.1705 80.6291 89.7925C80.3733 89.5405 80.1174 89.1625 79.9894 88.7845C79.8615 88.4065 79.7335 88.0285 79.7335 87.6505C79.7335 87.1465 79.8615 86.6425 80.1174 86.3905C80.3733 86.0125 80.6291 85.7605 81.013 85.5085C81.3968 85.2565 81.7807 85.0045 82.1645 84.8785C82.5483 84.7525 83.0601 84.5005 83.444 84.3745C83.8278 84.2485 84.3396 83.9965 84.7234 83.7445C85.1073 83.4925 85.3632 83.2405 85.6191 82.8625C85.6191 82.4845 85.6191 82.2326 85.4911 81.9806C85.3632 81.7286 85.3632 81.4766 85.1073 81.2246C84.9793 80.9726 84.8514 80.8466 84.5955 80.7206C84.3396 80.5946 84.2117 80.5946 83.9558 80.5946C83.5719 80.5946 83.1881 80.7206 82.8042 80.9726C82.4204 81.2246 82.1645 81.4766 82.0366 81.8546C82.2925 81.8546 82.5483 81.9806 82.6763 82.2326C82.8042 82.4845 82.9322 82.6105 82.9322 82.9885C82.9322 83.2405 82.8042 83.4925 82.6763 83.7445C82.4204 83.9965 82.1645 83.9965 81.9086 83.9965C81.6527 83.9965 81.3968 83.8705 81.1409 83.7445C80.885 83.6185 80.885 83.3665 80.7571 83.1146C80.7571 82.6106 80.7571 82.2326 81.013 81.8546C81.1409 81.4766 81.3968 81.2246 81.7807 80.9726C82.0366 80.7206 82.4204 80.4686 82.8042 80.3426C83.1881 80.2166 83.5719 80.0906 83.8278 80.0906H84.7234C85.2352 80.0906 85.747 80.2166 86.1309 80.3426C86.5147 80.4686 86.8985 80.7206 87.2824 80.9726C87.5383 81.2246 87.7942 81.4766 88.0501 81.8546C88.178 82.2326 88.3059 82.6105 88.3059 82.9885V89.5405C88.3059 89.6665 88.4339 89.7925 88.5618 89.9185C88.6898 90.0445 88.8177 90.1705 89.0736 90.1705C89.2016 90.1705 89.3295 90.1705 89.4575 90.0445C89.5854 89.9185 89.7134 89.9185 89.8413 89.6665L90.0972 89.9185ZM85.6191 83.3665C85.4911 83.6185 85.3632 83.7445 85.2352 83.8705C85.1073 83.9965 84.8514 84.2485 84.5955 84.3745C84.3396 84.5005 84.2117 84.7525 83.9558 84.8785C83.6999 85.0045 83.5719 85.2565 83.316 85.5085C83.1881 85.7605 82.9322 86.0125 82.8042 86.2645C82.6763 86.5165 82.6763 86.8945 82.6763 87.2725C82.6763 87.5245 82.6763 87.9025 82.8042 88.1545C82.9322 88.4065 83.0601 88.6585 83.1881 88.7845C83.316 88.9105 83.5719 89.0365 83.8278 89.1625C84.0837 89.2885 84.2117 89.2885 84.4675 89.2885C84.7234 89.2885 84.8514 89.2885 85.1073 89.1625C85.2352 89.0365 85.4911 88.9105 85.6191 88.7845V83.3665Z" fill="#1D1D1B"/>
<path d="M96.4945 89.9183C96.3666 90.0443 96.2386 90.1703 96.1107 90.2963C95.9827 90.4223 95.7268 90.5483 95.5989 90.5483C95.4709 90.6743 95.215 90.6743 94.9591 90.6743C94.7032 90.6743 94.5753 90.6743 94.4474 90.6743H93.5517C93.2958 90.6743 93.1679 90.6743 92.912 90.5483C92.7841 90.4223 92.5282 90.4223 92.4002 90.2963C92.2723 90.1703 92.1443 90.0443 92.1443 89.7923C92.1443 89.5403 92.1443 89.5403 92.1443 89.4143V79.9644H90.9928V79.4604C91.3766 79.4604 91.7605 79.3344 92.1443 79.2084C92.5282 79.0824 92.912 78.9564 93.2958 78.7044C93.6797 78.4524 93.9356 78.3264 94.3194 77.9484C94.5753 77.6964 94.8312 77.3184 95.0871 77.0664V79.4604H96.4945V79.9644H95.0871V89.4143C95.0871 89.5403 95.215 89.6663 95.343 89.7923C95.4709 89.9183 95.5989 90.0443 95.8548 90.0443C95.9827 90.0443 96.1107 90.0443 96.2386 89.9183C96.3666 89.7923 96.4945 89.7923 96.6225 89.5403L96.4945 89.9183Z" fill="#1D1D1B"/>
<path d="M108.01 87.9026C107.882 88.6586 105.963 91.4306 103.532 90.2966C102.252 89.6666 101.868 86.8946 104.299 85.1306L104.427 85.3826C103.66 86.3906 104.043 87.5246 104.939 88.1546C106.346 88.9106 107.114 88.9106 108.01 87.9026ZM111.08 88.1546C110.825 89.9186 109.033 90.5486 107.498 90.8006L107.37 90.5486C108.522 90.2966 109.289 89.6666 108.777 88.5326C107.882 86.7686 103.915 85.8866 103.404 82.9887C103.148 81.4767 104.171 79.5867 106.346 79.8387C107.242 79.9647 108.138 80.5947 108.138 81.4767C108.138 82.4847 107.37 82.9887 106.858 83.3667H106.73C107.37 82.3587 107.498 80.7207 106.602 80.7207C105.963 80.7207 105.579 81.8547 105.835 82.4847C106.474 83.6187 107.498 83.9967 108.649 85.0046C109.929 85.7606 111.208 86.8946 111.08 88.1546ZM111.976 83.3667C111.848 84.1227 111.08 84.5006 110.697 84.2486C110.313 83.9967 110.185 83.6187 110.569 82.9887C110.825 82.7367 109.545 83.2407 108.905 84.8786H108.777C108.905 83.9967 109.801 81.8547 111.336 82.3587C111.848 82.6107 111.976 83.1147 111.976 83.3667Z" fill="#1D1D1B"/>
<path d="M128.225 79.2085C127.969 78.7045 127.714 78.2006 127.33 77.6966C126.946 77.1926 126.562 76.8146 126.05 76.4366C125.538 76.0586 125.027 75.8066 124.387 75.6806C123.747 75.4286 123.107 75.4286 122.34 75.4286H121.188V83.1145C121.572 83.1145 121.956 83.1145 122.34 83.1145C122.724 83.1145 122.98 82.9885 123.363 82.8625C123.619 82.7365 123.875 82.6105 124.131 82.3585C124.387 82.1065 124.515 81.8545 124.643 81.4765V85.7605C124.515 85.3825 124.387 85.1305 124.131 84.8785C123.875 84.6265 123.619 84.5005 123.363 84.3745C123.107 84.2485 122.724 84.2485 122.34 84.1225C121.956 84.1225 121.572 84.1225 121.188 84.1225V90.2964H122.34C123.107 90.2964 123.747 90.1704 124.387 90.0444C125.027 89.7924 125.538 89.5404 126.05 89.2884C126.562 88.9104 126.946 88.5324 127.33 88.0285C127.714 87.5245 127.969 87.0205 128.225 86.5165V90.9264C127.969 90.8004 127.842 90.6744 127.586 90.5484C127.33 90.4224 127.074 90.4224 126.69 90.4224C126.434 90.4224 126.306 90.4224 126.05 90.5484C125.794 90.5484 125.538 90.6744 125.155 90.8004C124.771 90.9264 124.387 90.9264 124.003 91.0524C123.619 91.0524 122.98 91.1784 122.468 91.1784H117.094C117.35 91.0524 117.734 90.9264 117.99 90.6744C118.246 90.4224 118.373 90.1704 118.373 89.6664V76.3106C118.373 75.9326 118.246 75.5546 117.99 75.3026C117.734 75.0506 117.478 74.9246 117.094 74.7986H122.468C123.107 74.7986 123.619 74.7986 124.003 74.9246C124.387 74.9246 124.771 75.0506 125.155 75.1766C125.538 75.3026 125.794 75.3026 126.05 75.4286C126.306 75.4286 126.562 75.5546 126.69 75.5546C127.074 75.5546 127.33 75.5546 127.586 75.4286C127.842 75.3026 128.097 75.1766 128.225 75.0506V79.2085Z" fill="#1D1D1B"/>
<path d="M129.633 81.3506C129.889 81.3506 130.273 81.2246 130.656 81.2246C131.04 81.0986 131.424 81.0986 131.936 80.9726C132.32 80.8466 132.704 80.7206 133.087 80.5946C133.471 80.4686 133.727 80.2166 133.983 80.0906V81.3506C133.983 81.2246 134.111 80.9726 134.239 80.8466C134.367 80.7206 134.495 80.5946 134.751 80.4686C134.879 80.3426 135.135 80.2166 135.262 80.2166C135.39 80.0906 135.646 80.0906 135.774 80.0906C136.67 80.0906 137.438 80.2166 138.077 80.5946C138.717 80.9726 139.229 81.3506 139.613 81.8546C139.996 82.3586 140.252 82.9885 140.38 83.6185C140.508 84.2485 140.636 84.8785 140.636 85.5085V89.5405C140.636 89.9185 140.764 90.2965 141.02 90.5485C141.276 90.8005 141.532 90.9265 141.916 91.0525H136.542C136.798 91.0525 137.182 90.8005 137.438 90.5485C137.693 90.2965 137.821 90.0445 137.821 89.5405V85.5085C137.821 84.6265 137.821 83.8705 137.693 83.2405C137.566 82.6106 137.438 82.1066 137.31 81.7286C137.182 81.3506 136.926 81.0986 136.67 80.8466C136.414 80.7206 136.158 80.5946 135.774 80.5946C135.518 80.5946 135.39 80.7206 135.135 80.8466C134.879 80.9726 134.751 81.2246 134.495 81.6026C134.367 81.8546 134.111 82.2326 134.111 82.6106C133.983 82.9885 133.983 83.3665 133.855 83.7445V89.6665C133.855 90.0445 133.983 90.4225 134.239 90.6745C134.495 90.9265 134.751 91.0525 135.135 91.1785H129.761C130.017 91.0525 130.4 90.9265 130.656 90.6745C130.912 90.4225 131.04 90.1705 131.04 89.6665V81.6026L129.633 81.3506Z" fill="#1D1D1B"/>
<path d="M146.906 79.9646V90.8005C146.906 91.4305 146.778 92.1865 146.65 92.8165C146.394 93.4465 146.138 94.0765 145.754 94.5805C145.37 95.0845 144.731 95.4625 144.091 95.8405C143.451 96.0925 142.555 96.3445 141.532 96.3445V95.8405C142.427 95.8405 143.067 95.4625 143.451 94.5805C143.835 93.8245 144.091 92.5645 144.091 90.9265V81.4766H142.683C142.939 81.4766 143.323 81.3506 143.707 81.3506C144.091 81.2246 144.475 81.2246 144.858 81.0986C145.242 80.9726 145.626 80.8466 146.01 80.7206C146.394 80.3426 146.65 80.0906 146.906 79.9646ZM145.114 79.2087C145.37 79.2087 145.626 79.2087 145.882 79.0827C146.138 78.9567 146.266 78.8307 146.522 78.7047C146.65 78.5787 146.778 78.3267 146.906 78.2007C147.034 77.9487 147.034 77.6967 147.034 77.4447C147.034 77.1927 147.034 76.9407 146.906 76.6887C146.778 76.4367 146.65 76.3107 146.522 76.0587C146.394 75.9327 146.138 75.8067 145.882 75.6807C145.626 75.5547 145.37 75.5547 145.114 75.5547C144.858 75.5547 144.603 75.5547 144.347 75.6807C144.091 75.8067 143.963 75.9327 143.707 76.0587C143.579 76.1847 143.451 76.4367 143.323 76.6887C143.195 76.9407 143.195 77.1927 143.195 77.4447C143.195 77.6967 143.195 77.9487 143.323 78.2007C143.451 78.4527 143.579 78.5787 143.707 78.7047C143.835 78.8307 144.091 78.9567 144.347 79.0827C144.603 79.2087 144.858 79.2087 145.114 79.2087Z" fill="#1D1D1B"/>
<path d="M160.596 84.8781C160.724 85.6341 160.596 86.3901 160.34 87.146C160.084 87.776 159.7 88.406 159.189 88.91C158.677 89.414 158.037 89.918 157.397 90.17C156.758 90.548 155.99 90.674 155.222 90.8C155.094 90.8 155.094 90.8 154.966 90.8C154.838 90.8 154.838 90.8 154.71 90.8C154.071 90.8 153.303 90.674 152.663 90.422C152.024 90.17 151.384 89.918 150.872 89.414C150.36 89.036 149.848 88.406 149.593 87.902C149.209 87.272 149.081 86.642 148.953 85.8861C148.825 85.1301 148.953 84.3741 149.209 83.6181C149.465 82.9881 149.848 82.3581 150.36 81.8541C150.872 81.3501 151.512 80.9721 152.151 80.5941C152.791 80.2161 153.559 80.0901 154.327 79.9641C154.454 79.9641 154.454 79.9641 154.582 79.9641C154.71 79.9641 154.71 79.9641 154.838 79.9641C155.478 79.9641 156.246 80.0901 156.885 80.3421C157.525 80.5941 158.165 80.8461 158.677 81.3501C159.189 81.7281 159.7 82.3581 159.956 82.8621C160.34 83.4921 160.468 84.1221 160.596 84.8781ZM155.094 90.296C155.478 90.296 155.862 90.17 156.246 89.918C156.63 89.666 156.885 89.414 157.141 88.91C157.397 88.532 157.525 87.902 157.653 87.398C157.781 86.768 157.781 86.0121 157.653 85.2561C157.525 84.5001 157.397 83.7441 157.269 83.2401C157.141 82.6101 156.885 82.2321 156.63 81.8541C156.374 81.4761 155.99 81.2241 155.734 80.9721C155.35 80.8461 154.966 80.7201 154.582 80.7201H154.454H154.327C153.943 80.7201 153.559 80.8461 153.175 81.0981C152.791 81.3501 152.535 81.6021 152.279 82.1061C152.023 82.4841 151.896 83.1141 151.768 83.6181C151.64 84.2481 151.64 85.0041 151.768 85.7601C151.896 86.5161 152.024 87.272 152.151 87.776C152.279 88.406 152.535 88.784 152.919 89.162C153.175 89.54 153.559 89.792 153.815 90.044C154.199 90.17 154.582 90.296 154.966 90.296C154.966 90.296 154.966 90.296 155.094 90.296Z" fill="#1D1D1B"/>
<path d="M159.572 93.068C159.572 92.816 159.572 92.69 159.7 92.564C159.828 92.438 159.828 92.186 159.956 92.06C160.084 91.934 160.212 91.808 160.468 91.808C160.596 91.682 160.852 91.682 161.108 91.682C161.364 91.682 161.491 91.682 161.619 91.808C161.747 91.934 162.003 91.934 162.131 92.06C162.259 92.186 162.387 92.312 162.387 92.564C162.515 92.69 162.515 92.942 162.515 93.068C162.515 93.32 162.515 93.446 162.387 93.698C162.259 93.824 162.259 94.076 162.131 94.202C162.003 94.328 161.875 94.454 161.619 94.454C161.491 94.58 161.236 94.58 161.108 94.58C160.98 94.58 160.98 94.58 160.852 94.58C160.98 94.832 161.236 95.084 161.491 95.336C161.747 95.462 162.131 95.588 162.387 95.588C162.643 95.588 162.899 95.462 163.155 95.336C163.411 95.21 163.667 94.958 163.922 94.706C164.178 94.454 164.306 94.202 164.562 93.824C164.818 93.446 164.946 93.194 165.074 92.816C165.202 92.438 165.458 92.186 165.586 91.808C165.714 91.43 165.842 91.178 165.97 91.052L161.747 81.6021C161.619 81.2241 161.236 80.8461 160.98 80.5941C160.724 80.3421 160.212 80.2161 159.956 80.0901H165.33C165.074 80.0901 164.818 80.2161 164.69 80.4681C164.562 80.7201 164.562 80.9721 164.69 81.2241L167.505 87.65L170.192 81.4761C170.32 81.0981 170.448 80.7201 170.32 80.4681C170.192 80.2161 169.936 80.0901 169.68 79.9641H173.646C173.263 79.9641 173.007 80.2161 172.623 80.4681C172.239 80.7201 171.983 80.9721 171.855 81.4761L167.633 90.926C167.505 91.178 167.377 91.556 167.249 91.934C167.121 92.312 166.865 92.69 166.609 93.068C166.353 93.446 166.098 93.824 165.842 94.202C165.586 94.58 165.33 94.832 164.946 95.21C164.562 95.462 164.306 95.714 163.795 95.966C163.411 96.092 163.027 96.218 162.515 96.218C162.131 96.218 161.875 96.092 161.491 95.966C161.108 95.84 160.852 95.588 160.468 95.336C160.084 95.084 159.956 94.832 159.828 94.454C159.572 93.824 159.572 93.446 159.572 93.068Z" fill="#1D1D1B"/>
</g>
<defs>
<clipPath id="clip0_557_2045">
<rect width="240.924" height="96.1371" fill="white" transform="translate(0.0229492 0.207031)"/>
</clipPath>
</defs>
</svg>
