<svg width="107" height="64" viewBox="0 0 107 64" fill="none" xmlns="http://www.w3.org/2000/svg">
<g clip-path="url(#clip0_442_1327)">
<path d="M26.2 38.5074V29.6074H29.1V10.3074H26.2V1.30737H26.8C33.1 1.30737 39.4 1.30737 45.8 1.30737C49.3 1.30737 52.8 1.50737 56.2 2.60737C63.2 4.90737 67.2 9.90737 68.3 17.0074C69.1 22.1074 68.2 26.8074 65.2 31.1074C62.5 35.0074 58.8 37.2074 54.1 37.8074C51.3 38.2074 48.5 38.3074 45.7 38.4074C39.5 38.5074 33.2 38.4074 27 38.4074H26.2V38.5074ZM43.5 29.7074C44.6 29.6074 45.7 29.6074 46.8 29.5074C49.6 29.2074 51.5 27.8074 52.3 25.0074C53.1 22.1074 53.1 19.2074 52.5 16.3074C52.4 15.9074 52.3 15.4074 52.2 15.0074C51.3 12.2074 49.4 10.7074 46.3 10.5074C45.4 10.4074 44.5 10.4074 43.5 10.4074V29.7074Z" fill="#D5B16C"/>
<path d="M103.9 49.1074C102.7 51.3074 101.6 53.5074 100.4 55.7074C100.2 56.1074 100.2 56.4074 100.4 56.8074C101.5 58.8074 102.6 60.9074 103.6 62.9074C103.7 63.1074 103.8 63.2074 103.8 63.4074H22C22.1 63.2074 22.2 63.1074 22.2 62.9074C23.3 60.8074 24.4 58.7074 25.5 56.6074C25.7 56.3074 25.7 56.1074 25.5 55.8074C24.3 53.6074 23.1 51.3074 21.9 49.1074H103.9ZM88.1 59.6074C89 59.6074 89.9 59.7074 90.8 59.6074C92.5 59.4074 93.5 58.4074 93.6 56.7074C93.7 55.2074 92.8 53.8074 91.4 53.5074C90.3 53.3074 89.2 53.3074 88.1 53.3074V59.6074ZM65.9 56.5074C65.9 54.7074 64.6 53.3074 62.7 53.3074C60.9 53.3074 59.4 54.7074 59.4 56.5074C59.4 58.3074 60.8 59.7074 62.6 59.7074C64.5 59.7074 65.9 58.3074 65.9 56.5074ZM80 56.5074C80 54.7074 78.6 53.3074 76.8 53.3074C75 53.3074 73.6 54.7074 73.6 56.5074C73.6 58.3074 75 59.7074 76.9 59.7074C78.7 59.7074 80 58.3074 80 56.5074ZM51.1 56.0074H49.2V54.4074H51.8V53.4074H48V59.6074H49.3V57.0074H51.3V56.0074H51.1ZM39.7 54.7074C39.6 54.7074 39.6 54.7074 39.5 54.7074C39.5 54.8074 39.4 54.8074 39.4 54.9074C39.4 55.8074 39.3 56.8074 38.7 57.5074C38.6 57.6074 38.6 57.8074 38.6 58.0074C38.5 59.0074 38.2 59.2074 37.2 59.3074C36.4 59.3074 36 59.0074 35.9 58.1074C35.9 57.8074 35.7 57.6074 35.6 57.3074C35.4 56.7074 35.2 56.1074 35 55.5074C35 55.3074 35 55.0074 35 54.7074C34.9 54.7074 34.9 54.7074 34.8 54.7074C34.7 55.0074 34.5 55.2074 34.5 55.5074C34.6 56.2074 34.9 56.9074 35.1 57.6074C35.2 58.0074 35.4 58.3074 35.5 58.7074C35.6 59.7074 36.2 60.2074 37.2 60.1074C37.3 60.1074 37.4 60.1074 37.4 60.1074C38.1 60.3074 38.5 59.9074 38.8 59.4074C38.9 59.2074 39 58.9074 39 58.6074C39.1 58.3074 39.2 58.0074 39.3 57.6074C39.5 56.9074 39.8 56.2074 40 55.5074C40 55.2074 39.8 54.9074 39.7 54.7074ZM39.5 53.3074C38.9 53.2074 38.4 53.1074 37.9 53.0074C37.5 52.9074 37.2 52.8074 36.8 52.9074C36.2 53.0074 35.5 53.2074 34.9 53.3074C35.1 53.7074 35.4 53.9074 36 53.7074C36.8 53.4074 37.5 53.3074 38.3 53.7074C38.4 53.7074 38.5 53.8074 38.6 53.8074C39.1 53.7074 39.4 53.6074 39.5 53.3074ZM39.7 54.0074C40.4 54.1074 40.4 54.7074 40.6 55.3074C40.6 55.5074 40.8 55.6074 40.9 55.7074C41 55.5074 41.2 55.4074 41.2 55.2074C41.2 54.4074 41.1 53.8074 40.3 53.4074C40.7 52.6074 40.6 52.2074 40.1 51.9074C39.9 52.6074 39.8 53.3074 39.7 54.0074ZM34.3 53.5074C33.7 53.9074 33.3 54.4074 33.4 55.1074C33.4 55.3074 33.6 55.5074 33.7 55.8074C33.8 55.8074 33.8 55.8074 33.9 55.8074C34 55.4074 34 55.0074 34.2 54.7074C34.4 54.4074 34.7 54.1074 34.9 54.0074C34.8 53.6074 34.8 53.2074 34.8 52.9074C34.7 52.6074 34.7 52.4074 34.5 51.9074C33.9 52.5074 34 53.0074 34.3 53.5074Z" fill="white"/>
<path d="M81.8 26.7074C82.4 27.8074 82.9 28.9074 83.6 29.7074C85 31.4074 86.8 31.7074 88.9 31.3074C89.8 31.1074 90.3 30.6074 90.5 29.7074C90.7 28.7074 90.5 27.7074 89.7 27.1074C88.8 26.4074 87.8 25.9074 86.8 25.4074C84.3 24.1074 81.7 22.9074 79.2 21.5074C76.5 20.0074 74.6 17.8074 73.8 14.8074C72.8 10.8074 73.3 7.10743 76.4 4.10743C78.6 1.90743 81.3 1.00743 84.4 0.907427C87.6 0.807427 90.6 1.50743 93.2 3.60743V1.40743H101.6V12.0074C101.4 12.0074 101.3 12.0074 101.1 12.0074C98.7 12.0074 96.2 12.0074 93.8 12.0074C93.4 12.0074 93.3 11.9074 93.1 11.5074C92.8 10.8074 92.4 10.1074 91.9 9.50743C90.7 7.90743 89 7.40743 87 7.70743C86 7.90743 85.3 8.50743 85.2 9.30743C85 10.4074 85.3 11.2074 86.3 11.8074C87.9 12.7074 89.5 13.5074 91.1 14.3074C93.3 15.5074 95.6 16.6074 97.8 17.9074C102.5 20.8074 104.5 27.2074 102.1 32.2074C100.4 35.8074 97.5 38.0074 93.5 38.7074C89.5 39.4074 85.7 38.7074 82.3 36.4074C82.2 36.3074 82.1 36.3074 81.9 36.2074V38.5074H73.6V26.7074H81.8Z" fill="#D5B16C"/>
<path d="M4.19998 10.2075H0.799976V1.40747H21.7V10.2075H18.6V10.9075C18.6 18.2075 18.6 25.6075 18.6 32.9075C18.6 35.4075 18.5 37.9075 18.3 40.4075C18 43.9075 15.5 48.5075 9.89997 49.6075C7.29997 50.1075 2.59998 50.1075 0.0999756 49.5075V40.5075C0.899976 40.5075 1.59998 40.6075 2.39998 40.5075C3.29998 40.4075 3.79998 39.9075 3.89998 39.0075C4.09998 37.4075 4.19998 35.8075 4.19998 34.1075C4.19998 26.3075 4.19998 18.6075 4.19998 10.8075V10.2075Z" fill="#D5B16C"/>
<path d="M105.6 43.2074C106.4 43.2074 106.9 43.5074 106.9 44.0074C106.9 44.6074 106.5 44.8074 105.7 44.8074C77.8 44.8074 21.6 44.8074 21.4 44.8074C21 44.7074 20.8 44.5074 20.8 44.1074C20.8 43.7074 21 43.4074 21.4 43.3074C21.4 43.1074 91.6 43.2074 105.6 43.2074Z" fill="white"/>
<path d="M89.4 54.5074C90.4 54.5074 91.4 54.3074 92 55.4074C92.5 56.2074 92.5 57.0074 92 57.8074C91.4 58.8074 90.4 58.6074 89.4 58.6074V54.5074Z" fill="white"/>
<path d="M64.5 56.5075C64.5 57.7075 63.8 58.5075 62.6 58.5075C61.4 58.5075 60.7 57.7075 60.7 56.4075C60.7 55.2075 61.4 54.4075 62.6 54.4075C63.8 54.4075 64.5 55.2075 64.5 56.5075Z" fill="white"/>
<path d="M78.7 56.5074C78.7 57.8074 78 58.6074 76.9 58.6074C75.7 58.6074 75 57.8074 75 56.6074C75 55.3074 75.7 54.5074 76.9 54.5074C78 54.4074 78.7 55.2074 78.7 56.5074Z" fill="white"/>
</g>
<defs>
<clipPath id="clip0_442_1327">
<rect width="106.8" height="62.5" fill="white" transform="translate(0 0.907471)"/>
</clipPath>
</defs>
</svg>
