<svg width="153" height="79" viewBox="0 0 153 79" fill="none" xmlns="http://www.w3.org/2000/svg">
<g clip-path="url(#clip0_442_1418)">
<path d="M27.6334 53.3075C28.1334 53.5075 28.7334 53.7075 29.5334 53.7075C30.5334 53.7075 31.4334 53.3075 32.0334 52.4075C32.6334 51.5075 33.0334 50.0075 33.0334 47.7075V27.1075H29.3334V21.7075H44.9334V27.1075H41.5334V47.6075C41.5334 49.4075 41.3334 51.1075 40.9334 52.5075C40.5334 53.9075 39.8334 55.2075 38.9334 56.1075C38.0334 57.1075 36.8334 57.8075 35.3334 58.3075C33.8334 58.8075 32.0334 59.1075 29.9334 59.1075C29.5334 59.1075 29.1334 59.1075 28.8334 59.0075C28.4334 58.9075 28.1334 58.8075 27.8334 58.7075L27.6334 53.3075Z" fill="#E30F28"/>
<path d="M61.5334 51.5075C59.3334 51.5075 57.3334 51.2075 55.5334 50.5075C53.7334 49.9075 52.1334 48.9075 50.8334 47.6075C49.5334 46.3075 48.5334 44.7075 47.7334 42.8075C47.0334 40.9075 46.6334 38.6075 46.6334 36.0075C46.6334 33.8075 47.0334 31.7075 47.7334 29.9075C48.4334 28.0075 49.4334 26.4075 50.7334 25.1075C52.0334 23.8075 53.5334 22.7075 55.3334 22.0075C57.1334 21.3075 59.1334 20.9075 61.2334 20.9075C63.7334 20.9075 66.0334 21.3075 67.8334 22.0075C69.7334 22.7075 71.2334 23.8075 72.5334 25.1075C73.7334 26.4075 74.6334 28.1075 75.2334 30.0075C75.8334 31.9075 76.1334 34.0075 76.1334 36.4075C76.1334 38.8075 75.8334 40.9075 75.1334 42.7075C74.5334 44.6075 73.5334 46.2075 72.3334 47.5075C71.1334 48.8075 69.5334 49.8075 67.7334 50.5075C65.9334 51.1075 63.9334 51.5075 61.5334 51.5075ZM61.5334 45.0075C62.2334 45.0075 62.8334 44.8075 63.3334 44.4075C63.8334 44.0075 64.3334 43.4075 64.6334 42.7075C65.0334 42.0075 65.3334 41.1075 65.5334 40.0075C65.7334 38.9075 65.8334 37.8075 65.8334 36.5075C65.8334 35.2075 65.7334 34.0075 65.5334 32.9075C65.3334 31.8075 65.0334 30.9075 64.7334 30.0075C64.3334 29.2075 63.8334 28.5075 63.3334 28.1075C62.7334 27.6075 62.0334 27.4075 61.2334 27.4075C60.6334 27.4075 60.0334 27.6075 59.5334 28.0075C59.0334 28.4075 58.5334 29.0075 58.2334 29.8075C57.8334 30.6075 57.5334 31.5075 57.3334 32.6075C57.1334 33.7075 57.0334 34.9075 57.0334 36.1075C57.0334 37.5075 57.1334 38.7075 57.4334 39.8075C57.6334 40.9075 58.0334 41.8075 58.4334 42.6075C58.8334 43.4075 59.3334 44.0075 59.9334 44.4075C60.2334 44.8075 60.8334 45.0075 61.5334 45.0075Z" fill="#E30F28"/>
<path d="M77.8334 21.7075H91.3334C93.7334 21.7075 95.7334 21.9075 97.2334 22.4075C98.7334 22.8075 99.9334 23.5075 100.733 24.2075C101.533 25.0075 102.133 25.9075 102.433 26.9075C102.733 27.9075 102.833 29.1075 102.833 30.2075C102.833 31.0075 102.633 31.8075 102.333 32.4075C102.033 33.1075 101.633 33.7075 101.033 34.2075C100.533 34.7075 99.8334 35.1075 99.1334 35.5075C98.4334 35.8075 97.6334 36.1075 96.7334 36.2075C97.4334 36.3075 98.1334 36.5075 98.8334 36.9075C99.5334 37.2075 100.033 37.7075 100.533 38.2075C101.033 38.7075 101.433 39.3075 101.733 40.0075C102.033 40.7075 102.233 41.4075 102.233 42.1075C102.233 43.0075 102.333 43.7075 102.433 44.2075C102.533 44.7075 102.833 44.9075 103.233 44.9075C103.833 44.9075 104.233 44.5075 104.233 43.6075V42.2075H107.033V44.5075C107.033 45.4075 106.933 46.2075 106.733 47.0075C106.533 47.8075 106.233 48.5075 105.733 49.1075C105.233 49.7075 104.633 50.2075 103.833 50.6075C103.033 51.0075 102.133 51.2075 100.933 51.2075C98.2334 51.2075 96.1334 50.5075 94.8334 49.2075C93.5334 47.8075 92.8334 45.9075 92.8334 43.5075C92.8334 42.6075 92.8334 41.8075 92.7334 41.2075C92.6334 40.6075 92.4334 40.1075 92.1334 39.8075C91.8334 39.5075 91.4334 39.2075 90.8334 39.1075C90.2334 39.0075 89.5334 38.9075 88.6334 38.9075V45.3075H91.1334V50.8075H77.8334V45.3075H80.1334V27.1075H77.8334V21.7075ZM88.7334 27.1075V34.2075H90.6334C91.8334 34.2075 92.8334 33.9075 93.5334 33.3075C94.2334 32.7075 94.6334 31.9075 94.6334 30.8075C94.6334 29.6075 94.3334 28.6075 93.6334 28.0075C92.9334 27.4075 92.0334 27.1075 90.8334 27.1075H88.7334Z" fill="#E30F28"/>
<path d="M108.433 50.7075V45.2075H111.033V27.2075H108.433V21.7075H121.133C123.633 21.7075 125.933 22.1075 127.833 22.8075C129.833 23.5075 131.433 24.5075 132.733 25.8075C134.033 27.1075 135.133 28.5075 135.833 30.3075C136.533 32.0075 136.933 33.9075 136.933 35.9075C136.933 40.7075 135.533 44.3075 132.833 46.9075C130.133 49.5075 126.133 50.8075 121.033 50.8075H108.433V50.7075ZM127.333 35.8075C127.333 34.7075 127.233 33.6075 126.933 32.6075C126.733 31.6075 126.333 30.6075 125.833 29.8075C125.333 29.0075 124.733 28.4075 123.933 27.9075C123.133 27.4075 122.233 27.2075 121.133 27.2075H119.533V45.2075H121.133C122.233 45.2075 123.233 45.0075 123.933 44.5075C124.733 44.0075 125.333 43.3075 125.833 42.5075C126.333 41.7075 126.733 40.7075 126.933 39.5075C127.233 38.3075 127.333 37.1075 127.333 35.8075Z" fill="#E30F28"/>
<path d="M138.333 21.7075H152.133V27.2075H149.533V45.2075H152.133V50.7075H138.333V45.2075H140.933V27.2075H138.333V21.7075Z" fill="#E30F28"/>
<path d="M42.3334 54.8074H47.6334C48.5334 54.8074 49.3334 54.9074 49.9334 55.1074C50.5334 55.3074 50.9334 55.6074 51.3334 55.9074C51.6334 56.2074 51.8334 56.6074 52.0334 57.1074C52.1334 57.6074 52.2334 58.0074 52.2334 58.5074C52.2334 59.1074 52.1334 59.6074 51.9334 60.0074C51.7334 60.4074 51.4334 60.8074 51.0334 61.1074C50.6334 61.4074 50.2334 61.6074 49.6334 61.7074C49.1334 61.8074 48.5334 61.9074 47.9334 61.9074H46.7334V64.6074H47.7334V66.9074H42.3334V64.6074H43.2334V56.9074H42.3334V54.8074ZM46.6334 57.1074V60.2074H47.3334C47.8334 60.2074 48.2334 60.1074 48.5334 59.8074C48.8334 59.5074 48.9334 59.2074 48.9334 58.7074C48.9334 58.2074 48.8334 57.8074 48.5334 57.5074C48.2334 57.2074 47.9334 57.1074 47.4334 57.1074H46.6334Z" fill="white"/>
<path d="M52.8334 54.8074H58.1334C59.0334 54.8074 59.8334 54.9074 60.4334 55.1074C61.0334 55.3074 61.4334 55.5074 61.8334 55.9074C62.1334 56.2074 62.4334 56.6074 62.5334 57.0074C62.6334 57.4074 62.7334 57.9074 62.7334 58.4074C62.7334 58.7074 62.6334 59.1074 62.5334 59.3074C62.4334 59.6074 62.2334 59.8074 62.0334 60.1074C61.8334 60.3074 61.5334 60.5074 61.2334 60.6074C60.9334 60.7074 60.6334 60.8074 60.3334 60.9074C60.6334 60.9074 60.9334 61.0074 61.1334 61.2074C61.4334 61.3074 61.6334 61.5074 61.8334 61.8074C62.0334 62.0074 62.2334 62.3074 62.3334 62.6074C62.3334 62.8074 62.3334 63.1074 62.3334 63.4074C62.3334 63.8074 62.3334 64.1074 62.4334 64.3074C62.5334 64.5074 62.6334 64.6074 62.7334 64.6074C62.9334 64.6074 63.1334 64.4074 63.1334 64.0074V63.4074H64.2334V64.4074C64.2334 64.8074 64.2334 65.1074 64.1334 65.5074C64.0334 65.8074 63.9334 66.1074 63.7334 66.4074C63.5334 66.7074 63.3334 66.9074 63.0334 67.0074C62.7334 67.2074 62.3334 67.2074 61.9334 67.2074C60.8334 67.2074 60.0334 66.9074 59.5334 66.3074C59.0334 65.7074 58.7334 64.9074 58.7334 63.9074C58.7334 63.5074 58.7334 63.2074 58.7334 62.9074C58.7334 62.6074 58.6334 62.4074 58.5334 62.3074C58.4334 62.2074 58.2334 62.1074 58.0334 62.0074C57.8334 61.9074 57.5334 61.9074 57.1334 61.9074V64.6074H58.1334V66.9074H52.8334V64.6074H53.7334V56.9074H52.8334V54.8074ZM57.0334 57.1074V60.1074H57.7334C58.2334 60.1074 58.6334 60.0074 58.8334 59.7074C59.1334 59.5074 59.2334 59.1074 59.2334 58.6074C59.2334 58.1074 59.1334 57.7074 58.8334 57.4074C58.5334 57.1074 58.2334 57.0074 57.7334 57.0074H57.0334V57.1074Z" fill="white"/>
<path d="M64.8334 54.8074H70.2334V57.1074H69.2334V64.7074H70.2334V67.1074H64.8334V64.7074H65.8334V57.1074H64.8334V54.8074Z" fill="white"/>
<path d="M82.3333 57.9074C82.3333 58.1074 82.2333 58.3074 82.2333 58.5074C82.2333 58.7074 82.1333 59.0074 82.1333 59.2074C82.1333 59.4074 82.0333 59.6074 82.0333 59.8074C82.0333 60.0074 81.9333 60.1074 81.9333 60.2074L80.2333 67.0074H76.8333L75.0333 60.0074C75.0333 59.9074 75.0333 59.8074 74.9333 59.7074C74.9333 59.5074 74.8333 59.4074 74.8333 59.2074C74.8333 59.0074 74.7333 58.8074 74.7333 58.6074C74.7333 58.4074 74.6333 58.2074 74.6333 57.9074H74.5333V64.8074H75.4333V67.1074H71.0333V64.8074H71.9333V57.1074H71.0333V54.8074H77.2333L78.8333 61.4074L80.4333 54.8074H86.6333V57.1074H85.7333V64.8074H86.6333V67.1074H81.5333V64.8074H82.4333L82.3333 57.9074Z" fill="white"/>
<path d="M87.4333 54.8074H97.2334V58.7074H94.4333V57.1074H91.8334V59.5074H94.9333V61.9074H91.8334V64.7074H94.4333V63.1074H97.2334V67.1074H87.4333V64.7074H88.4333V57.1074H87.4333V54.8074Z" fill="white"/>
<path d="M109.733 65.9075C109.533 66.2075 109.233 66.5075 108.733 66.8075C108.233 67.1075 107.733 67.2075 107.133 67.2075C106.433 67.2075 105.733 67.1075 105.133 66.8075C104.533 66.5075 103.933 66.1075 103.533 65.6075C103.033 65.1075 102.733 64.4075 102.433 63.7075C102.133 62.9075 102.033 62.1075 102.033 61.1075C102.033 60.1075 102.133 59.3075 102.433 58.5075C102.733 57.7075 103.133 57.0075 103.533 56.5075C104.033 55.9075 104.533 55.5075 105.133 55.2075C105.733 54.9075 106.333 54.7075 107.033 54.7075C107.633 54.7075 108.133 54.8075 108.533 54.9075C108.933 55.0075 109.233 55.2075 109.433 55.3075C109.633 55.5075 109.833 55.6075 109.933 55.8075C110.033 56.0075 110.133 56.1075 110.233 56.2075L110.533 54.9075H112.933V60.1075H110.033C110.033 59.7075 109.933 59.4075 109.833 59.2075C109.733 58.9075 109.633 58.7075 109.433 58.5075C109.233 58.3075 109.033 58.2075 108.833 58.1075C108.633 58.0075 108.433 58.0075 108.133 58.0075C107.833 58.0075 107.533 58.1075 107.233 58.3075C106.933 58.5075 106.733 58.7075 106.533 59.0075C106.333 59.3075 106.233 59.6075 106.033 60.1075C105.933 60.5075 105.833 60.9075 105.833 61.4075C105.833 61.8075 105.833 62.3075 105.933 62.7075C106.033 63.1075 106.133 63.4075 106.333 63.7075C106.533 64.0075 106.733 64.2075 107.033 64.4075C107.333 64.6075 107.633 64.7075 108.033 64.7075C108.533 64.7075 108.833 64.6075 109.033 64.4075C109.233 64.2075 109.433 64.0075 109.533 63.8075V63.1075H108.533V61.2075H113.933V63.1075H113.233V67.5075H109.933L109.733 65.9075Z" fill="white"/>
<path d="M114.833 54.8074H120.133C121.033 54.8074 121.833 54.9074 122.433 55.1074C123.033 55.3074 123.433 55.5074 123.833 55.9074C124.133 56.2074 124.433 56.6074 124.533 57.0074C124.633 57.4074 124.733 57.9074 124.733 58.4074C124.733 58.7074 124.633 59.1074 124.533 59.3074C124.433 59.6074 124.233 59.8074 124.033 60.1074C123.833 60.3074 123.533 60.5074 123.233 60.6074C122.933 60.7074 122.633 60.8074 122.333 60.9074C122.633 60.9074 122.933 61.0074 123.133 61.2074C123.433 61.3074 123.633 61.5074 123.833 61.8074C124.033 62.0074 124.233 62.3074 124.333 62.6074C124.433 62.9074 124.533 63.2074 124.533 63.5074C124.533 63.9074 124.533 64.2074 124.633 64.4074C124.733 64.6074 124.833 64.7074 124.933 64.7074C125.133 64.7074 125.333 64.5074 125.333 64.1074V63.5074H126.433V64.5074C126.433 64.9074 126.433 65.2074 126.333 65.6074C126.233 65.9074 126.133 66.2074 125.933 66.5074C125.733 66.8074 125.533 67.0074 125.233 67.1074C124.933 67.3074 124.533 67.3074 124.133 67.3074C123.033 67.3074 122.233 67.0074 121.733 66.4074C121.233 65.8074 120.933 65.0074 120.933 64.0074C120.933 63.6074 120.933 63.3074 120.933 63.0074C120.933 62.7074 120.833 62.5074 120.733 62.4074C120.633 62.3074 120.433 62.2074 120.233 62.1074C120.033 62.0074 119.733 62.0074 119.333 62.0074V64.7074H120.333V67.0074H115.033V64.7074H115.933V57.0074H115.033V54.8074H114.833ZM119.133 57.1074V60.1074H119.833C120.333 60.1074 120.733 60.0074 120.933 59.7074C121.233 59.5074 121.333 59.1074 121.333 58.6074C121.333 58.1074 121.233 57.7074 120.933 57.4074C120.633 57.1074 120.333 57.0074 119.833 57.0074H119.133V57.1074Z" fill="white"/>
<path d="M126.833 54.8074H132.233V57.1074H131.233V64.7074H132.233V67.1074H126.833V64.7074H127.833V57.1074H126.833V54.8074Z" fill="white"/>
<path d="M133.033 54.8074H138.233V57.1074H137.333V64.7074H139.433V62.5074H142.133V67.1074H133.033V64.7074H133.933V57.1074H133.033V54.8074Z" fill="white"/>
<path d="M143.033 54.8074H148.133V57.1074H147.233V64.7074H149.333V62.5074H152.133V67.1074H143.033V64.7074H143.933V57.1074H143.033V54.8074Z" fill="white"/>
<path fill-rule="evenodd" clip-rule="evenodd" d="M4.13338 18.6074C1.83338 21.4074 -1.46662 31.6074 1.63338 34.9074C1.93338 35.2074 2.53338 35.4074 2.73338 35.3074C2.83338 35.3074 2.83338 35.2074 2.83338 35.1074C2.83338 34.2074 3.63338 33.3074 4.63338 32.4074C4.33338 28.5074 6.33338 23.0074 7.93338 21.0074C9.43338 19.1074 14.6334 17.7074 15.8334 18.3074C16.1334 18.5074 14.8334 17.6074 14.0334 17.1074C13.2334 16.6074 12.7334 16.0074 12.2334 15.4074C10.4334 15.3074 5.63338 16.7074 4.13338 18.6074Z" fill="#D5B16C"/>
<path fill-rule="evenodd" clip-rule="evenodd" d="M46.1333 10.6075C43.6333 9.60747 40.7333 8.50747 37.8333 8.40747V8.50747H37.7334C35.1334 8.70747 32.5333 9.60747 29.7333 10.6075C25.6333 12.1075 22.5333 12.8075 19.9333 12.7075C18.6333 12.7075 17.3333 12.0075 16.3333 11.4075C15.9333 11.1075 15.4333 10.8075 14.9333 10.4075C15.9333 12.2075 17.7334 13.9075 19.0333 14.7075C20.0333 15.3075 21.0333 15.8075 22.1333 15.8075C24.7333 15.9075 27.7333 15.1075 30.7333 13.9075C33.0333 13.0075 35.3334 12.2075 37.7334 12.0075V11.9075C40.3334 12.0075 42.8334 12.9075 45.2334 13.8075C48.2334 14.9075 51.2334 15.8075 53.8334 15.7075C54.9333 15.7075 55.9333 15.1075 56.9333 14.6075C58.2333 13.9075 60.0333 12.1075 61.0333 10.3075C60.5333 10.7075 60.0333 11.1075 59.5333 11.4075C58.4333 12.0075 57.2333 12.7075 55.9333 12.7075C53.3334 12.8075 50.1333 12.1075 46.1333 10.6075Z" fill="#D5B16C"/>
<path fill-rule="evenodd" clip-rule="evenodd" d="M9.03341 0.407471C8.43341 0.607471 7.33341 3.40747 7.23341 6.00747C7.13341 7.50747 7.13341 9.20747 7.93341 10.5075L8.03341 10.7075C8.53341 11.7075 9.43341 13.1075 10.9334 14.1075L11.1334 14.2075C11.3334 14.3075 11.5334 14.5075 11.7334 14.6075C11.6334 14.4075 11.5334 14.2075 11.4334 14.1075C10.7334 12.9075 10.7334 11.3075 10.8334 10.1075C10.8334 8.80747 11.1334 7.40747 11.5334 6.40747C11.4334 6.20747 11.3334 5.90747 11.1334 5.70747C10.5334 4.40747 10.0334 3.00747 9.63341 2.00747C9.43341 1.30747 9.23341 0.707471 9.13341 0.507471C9.03341 0.407471 9.03341 0.407471 9.03341 0.407471Z" fill="#D5B16C"/>
<path fill-rule="evenodd" clip-rule="evenodd" d="M64.6334 5.70747C64.5334 5.90747 64.4334 6.20747 64.3334 6.40747C64.7334 7.40747 65.0334 8.70747 65.0334 10.0075C65.1334 11.2075 65.1334 12.8075 64.4334 14.0075C64.3334 14.2075 64.2334 14.3075 64.1334 14.5075C64.2334 14.4075 64.4334 14.3075 64.5334 14.2075L64.8334 14.0075C66.3334 13.0075 67.2334 11.6075 67.7334 10.6075L67.8334 10.4075C68.6334 9.10747 68.6334 7.40747 68.5334 5.90747C68.4334 3.40747 67.3334 0.507471 66.8334 0.407471C66.8334 0.407471 66.7334 0.407471 66.7334 0.507471C66.6334 0.707471 66.4334 1.20747 66.1334 2.00747C65.7334 2.90747 65.2334 4.30747 64.6334 5.70747Z" fill="#D5B16C"/>
<path d="M71.7334 18.6076C70.2334 16.7076 65.4334 15.2076 63.5334 15.4076C63.1334 16.0076 62.5334 16.6076 61.7334 17.1076C60.9334 17.6076 59.6334 18.5076 59.9334 18.3076C60.5334 18.0076 62.1334 18.2076 63.7334 18.7076H71.8334C71.7334 18.7076 71.7334 18.6076 71.7334 18.6076Z" fill="#D5B16C"/>
<path d="M46.4334 72.5075C44.8334 75.0075 41.2334 73.3075 38.1334 73.0075C34.9334 73.0075 31.0334 75.1075 29.3334 72.5075C28.0334 70.5075 25.2334 68.5075 24.0334 64.8075C23.1334 62.0075 23.8334 57.6075 22.7334 55.7075C22.3334 55.0075 22.3334 54.7075 21.3334 53.4075C19.0334 50.2075 17.9334 48.9075 16.8334 45.0075C15.9334 41.9075 14.9334 36.9075 14.6334 32.4075C14.6334 32.4075 14.6334 32.4075 14.6334 32.3075C14.6334 32.3075 14.6334 32.3075 14.6334 32.2075C14.6334 32.2075 14.6334 32.1075 14.6334 32.0075C14.5334 30.6075 14.5334 29.3075 14.6334 28.0075C14.6334 27.0075 14.7334 25.9075 14.9334 24.9075C14.5334 24.9075 13.7334 27.4075 12.1334 30.1075C12.0334 30.3075 11.8334 30.5075 11.6334 30.7075C11.9334 36.0075 13.1334 41.9075 14.1334 45.5075C15.3334 49.6075 16.4334 51.2075 18.7334 54.2075L19.2334 54.9075C20.0334 56.0075 20.2334 56.4075 20.5334 56.9075C20.6334 57.1075 20.7334 57.3075 20.9334 57.6075C21.6334 58.8075 21.7334 60.8075 21.8334 62.8075C21.9334 64.6075 22.0334 66.5075 22.4334 67.9075C23.3334 70.7075 25.0334 72.6075 26.5334 74.3075C27.2334 75.1075 27.9334 75.8075 28.4334 76.6075C29.7334 78.6075 32.2334 78.1075 34.8334 77.6075C35.9334 77.4075 37.0334 77.2075 38.1334 77.1075H38.2334C39.2334 77.2075 40.2334 77.4075 41.1334 77.5075C43.7334 78.0075 46.2334 78.5075 47.5334 76.5075C48.0334 75.8075 48.7334 75.0075 49.4334 74.2075C50.6334 72.9075 51.8334 71.5075 52.8334 69.6075H48.6334C47.7334 70.9075 46.9334 71.7075 46.4334 72.5075Z" fill="#D5B16C"/>
</g>
<defs>
<clipPath id="clip0_442_1418">
<rect width="151.8" height="78" fill="white" transform="translate(0.333374 0.407471)"/>
</clipPath>
</defs>
</svg>
