<svg width="151" height="65" viewBox="0 0 151 65" fill="none" xmlns="http://www.w3.org/2000/svg">
<g clip-path="url(#clip0_446_504)">
<mask id="mask0_446_504" style="mask-type:luminance" maskUnits="userSpaceOnUse" x="0" y="0" width="57" height="65">
<path d="M9.95122 9.53075C3.67073 15.8112 0.5 23.3722 0.5 32.2137C0.5 41.1161 3.60976 48.6771 9.89025 54.9576C16.1707 61.2381 23.7317 64.4088 32.6342 64.4088C36.7195 64.4088 40.8049 63.6161 44.9512 61.9698C49.3415 60.2015 52.8171 57.8844 55.3171 54.9576C55.9878 54.1649 56.3537 53.4332 56.3537 52.7625C56.3537 51.9088 56.0488 51.1161 55.3781 50.4454C54.7073 49.7747 53.9147 49.4698 53.061 49.4698C52.3903 49.4698 51.6586 49.8356 50.8659 50.5064C49.5244 51.6039 48.4878 52.4576 47.8781 53.0673C43.5488 56.36 38.4878 58.0064 32.6951 58.0064C25.622 58.0064 19.5854 55.5064 14.5244 50.4454C9.52439 45.4454 6.96342 39.3478 6.96342 32.2137C6.96342 25.1405 9.46342 19.1039 14.5244 14.0429C19.5244 9.04295 25.622 6.48197 32.6951 6.48197C38.4878 6.48197 43.5488 8.12832 47.8781 11.482C49.2195 12.5795 50.2561 13.4942 50.8659 14.0429C51.6586 14.7137 52.3903 15.0795 53.061 15.0795C53.9147 15.0795 54.7073 14.7747 55.3781 14.1039C56.0488 13.4332 56.3537 12.6405 56.3537 11.7869C56.3537 11.0551 55.9878 10.3234 55.3171 9.53075C52.8171 6.6649 49.4025 4.34783 44.9512 2.57954C40.8049 0.933194 36.6586 0.140511 32.6342 0.140511C23.7927 0.0795358 16.2317 3.25027 9.95122 9.53075Z" fill="white"/>
</mask>
<g mask="url(#mask0_446_504)">
<path d="M56.3537 0.0795898H0.5V64.3479H56.3537V0.0795898Z" fill="url(#paint0_linear_446_504)"/>
</g>
<mask id="mask1_446_504" style="mask-type:luminance" maskUnits="userSpaceOnUse" x="16" y="17" width="13" height="33">
<path d="M25.622 19.1648V43.2502C25.622 44.2258 25.2561 45.0795 24.5854 45.8112C23.8537 46.5429 23 46.8477 22.0244 46.8477C20.9878 46.8477 20.1342 46.4209 19.4025 45.6282C18.6708 44.8356 18.183 44.4087 17.8781 44.4087C17.5732 44.4087 17.2683 44.5307 17.0244 44.7746C16.7805 45.0185 16.6586 45.2624 16.6586 45.6282C16.6586 45.8112 16.7195 46.0551 16.8415 46.238C17.2683 47.1526 18 47.8843 19.0366 48.4331C20.0122 48.9819 20.9878 49.2258 22.0244 49.2258C23.6708 49.2258 25.0732 48.616 26.2927 47.4575C27.4513 46.299 28.061 44.8356 28.061 43.1892V19.1648C28.061 18.3721 27.6342 17.9453 26.8415 17.9453C25.9878 17.9453 25.622 18.3721 25.622 19.1648Z" fill="white"/>
</mask>
<g mask="url(#mask1_446_504)">
<path d="M28 17.9453H16.5975V49.2868H28V17.9453Z" fill="url(#paint1_linear_446_504)"/>
</g>
<mask id="mask2_446_504" style="mask-type:luminance" maskUnits="userSpaceOnUse" x="29" y="17" width="22" height="26">
<path d="M32.3292 20.3843H38.3658C41.0487 20.3843 43.3048 21.299 45.1951 23.1892C47.0853 25.0795 48 27.3356 48 30.0185C48 32.7014 47.0853 34.9575 45.1951 36.8477C43.3048 38.738 41.0487 39.6526 38.3658 39.6526H32.3292V20.3843ZM31.1707 17.9453C30.8658 17.9453 30.5609 18.0673 30.317 18.3112C30.0731 18.5551 29.9512 18.8599 29.9512 19.1648V40.8112C29.9512 41.116 30.0731 41.4209 30.317 41.6648C30.5609 41.9087 30.8658 42.0307 31.1707 42.0307H38.3658C41.6585 42.0307 44.5243 40.8721 46.8414 38.4941C49.2195 36.116 50.378 33.3112 50.378 29.9575C50.378 26.6648 49.2195 23.799 46.8414 21.4819C44.4634 19.1038 41.6585 17.9453 38.3658 17.9453H31.1707Z" fill="white"/>
</mask>
<g mask="url(#mask2_446_504)">
<path d="M50.439 17.9453H29.9512V42.0307H50.439V17.9453Z" fill="url(#paint2_linear_446_504)"/>
</g>
<path d="M130.073 12.8236H129.89C130.073 11.4211 133.854 10.3236 134.707 10.3236C135.866 10.2626 136.963 9.46993 138.183 8.67724C139.219 7.94554 140.256 7.21383 141.415 6.90895V6.48212H140.988L142.085 5.20164L143.061 6.23822V4.89676H142.512V4.59188H143.061V3.67725H143.366V4.59188H143.915V4.95773H143.366V6.90895C143.854 7.0309 144.402 7.27481 144.89 7.57968C146.354 8.61627 149.341 11.5431 149.219 11.909C149.219 11.909 149.158 11.9699 149.036 11.9699L149.097 11.787C149.097 11.787 149.097 11.787 149.036 11.787V11.848C148.976 11.6041 146.597 8.92115 144.768 7.76261C144.097 7.33578 143.427 7.09188 142.756 7.0309V7.70163L141.415 7.76261V7.15285C140.317 7.45773 139.28 8.18944 138.305 8.86017C137.085 9.71383 135.927 10.5065 134.707 10.5675C133.793 10.5065 130.195 11.6041 130.073 12.8236ZM141.597 6.2992V7.51871L142.573 7.45773V6.23822H142.817L142.085 5.44554L141.415 6.2992H141.597ZM142.756 6.787C142.878 6.787 142.939 6.787 143.061 6.84798V6.48212H142.756V6.787Z" fill="white"/>
<path d="M68.7927 21.6039C68.8537 21.6039 68.9147 21.6039 68.9756 21.6649L69.4634 22.2137C69.0976 22.5795 68.6708 22.8844 68.122 23.1283C67.6342 23.3722 66.9634 23.4332 66.2317 23.4332C65.622 23.4332 65.0122 23.3112 64.5244 23.1283C64.0366 22.9454 63.5488 22.6405 63.183 22.2747C62.8171 21.9088 62.5122 21.482 62.3293 20.9332C62.1464 20.4454 62.0244 19.8356 62.0244 19.2259C62.0244 18.6161 62.1464 18.0673 62.3293 17.5186C62.5122 16.9698 62.8171 16.5429 63.2439 16.1771C63.6098 15.8112 64.0976 15.5064 64.5854 15.3234C65.1342 15.1405 65.683 15.0186 66.3537 15.0186C66.9634 15.0186 67.5122 15.1405 68 15.3234C68.4878 15.5064 68.9147 15.7503 69.2805 16.0551L68.8537 16.6039C68.8537 16.6649 68.7927 16.6649 68.7317 16.7259C68.6708 16.7259 68.6098 16.7868 68.5488 16.7868C68.4878 16.7868 68.3659 16.7259 68.3049 16.6649C68.2439 16.6039 68.061 16.5429 67.8781 16.421C67.6951 16.36 67.5122 16.2381 67.2683 16.1771C67.0244 16.1161 66.7195 16.0551 66.3537 16.0551C65.9269 16.0551 65.5 16.1161 65.1342 16.2381C64.7683 16.36 64.4634 16.6039 64.2195 16.8478C63.9756 17.0917 63.7317 17.4576 63.6098 17.8234C63.4878 18.1893 63.3659 18.6771 63.3659 19.1039C63.3659 19.5917 63.4269 20.0186 63.6098 20.4454C63.7317 20.8112 63.9756 21.1771 64.2195 21.421C64.4634 21.6649 64.7683 21.9088 65.1342 22.0307C65.5 22.1527 65.8659 22.2137 66.2927 22.2137C66.5366 22.2137 66.7805 22.2137 66.9634 22.1527C67.1464 22.1527 67.3293 22.0917 67.5122 22.0307C67.6951 21.9698 67.8171 21.9088 68 21.7868C68.122 21.7259 68.3049 21.6039 68.4269 21.482C68.4878 21.482 68.4878 21.421 68.5488 21.421C68.7317 21.6039 68.7927 21.6039 68.7927 21.6039Z" fill="white"/>
<path d="M78.8536 19.287C78.8536 19.8967 78.7317 20.4455 78.5487 20.9333C78.3658 21.4211 78.0609 21.8479 77.6341 22.2748C77.2682 22.6406 76.7804 22.9455 76.2317 23.1284C75.6829 23.3114 75.0731 23.4333 74.4634 23.4333C73.7926 23.4333 73.2439 23.3114 72.6951 23.1284C72.1463 22.9455 71.7195 22.6406 71.2926 22.2748C70.9268 21.9089 70.6219 21.4821 70.378 20.9333C70.1951 20.4455 70.0731 19.8967 70.0731 19.287C70.0731 18.6772 70.1951 18.1284 70.378 17.6406C70.5609 17.1528 70.8658 16.665 71.2926 16.2992C71.6585 15.9333 72.1463 15.6284 72.6951 15.4455C73.2439 15.2626 73.8536 15.1406 74.4634 15.1406C75.1341 15.1406 75.6829 15.2626 76.2317 15.4455C76.7804 15.6284 77.2073 15.9333 77.6341 16.2992C78 16.665 78.3048 17.0918 78.5487 17.6406C78.7317 18.1284 78.8536 18.6772 78.8536 19.287ZM77.5121 19.287C77.5121 18.7992 77.4512 18.3723 77.2682 18.0065C77.1463 17.6406 76.9024 17.2748 76.6585 17.0309C76.4146 16.787 76.0487 16.5431 75.6829 16.4211C75.317 16.2992 74.8902 16.1772 74.4024 16.1772C73.9146 16.1772 73.5487 16.2382 73.1219 16.4211C72.756 16.5431 72.4512 16.787 72.1463 17.0309C71.9024 17.2748 71.6585 17.6406 71.5365 18.0065C71.4146 18.3723 71.2926 18.7992 71.2926 19.287C71.2926 19.7748 71.3536 20.2016 71.5365 20.5675C71.6585 20.9333 71.9024 21.2992 72.1463 21.5431C72.3902 21.787 72.756 22.0309 73.1219 22.1528C73.4878 22.2748 73.9146 22.3357 74.4024 22.3357C74.8902 22.3357 75.256 22.2748 75.6829 22.1528C76.1097 22.0309 76.3536 21.787 76.6585 21.5431C76.9024 21.2992 77.1463 20.9333 77.2682 20.5675C77.4512 20.2016 77.5121 19.7748 77.5121 19.287Z" fill="white"/>
<path d="M87.0854 23.3114H85.9268C85.6829 23.3114 85.5 23.2504 85.439 23.0675L83.2439 20.2626C83.1829 20.1407 83.122 20.0797 83 20.0797C82.939 20.0187 82.8171 20.0187 82.6341 20.0187H81.7805V23.3724H80.5V15.2017H83.061C83.6098 15.2017 84.0976 15.2626 84.5244 15.3846C84.9512 15.5065 85.2561 15.6285 85.561 15.8724C85.8049 16.0553 86.0488 16.2992 86.1707 16.6041C86.2927 16.909 86.3537 17.2139 86.3537 17.5187C86.3537 17.8236 86.2927 18.0675 86.2317 18.3114C86.1098 18.5553 85.9878 18.7992 85.8049 18.9821C85.622 19.1651 85.3781 19.348 85.1342 19.47C84.8902 19.5919 84.5854 19.7139 84.2195 19.7748C84.4024 19.8358 84.5244 20.0187 84.6463 20.1407L87.0854 23.3114ZM83 19.1041C83.3049 19.1041 83.6098 19.0431 83.9146 18.9821C84.1585 18.9212 84.4024 18.7992 84.5854 18.6773C84.7683 18.5553 84.8902 18.3724 84.9512 18.1895C85.0122 18.0065 85.0732 17.7626 85.0732 17.5797C85.0732 17.0919 84.8902 16.787 84.5854 16.5431C84.2805 16.2992 83.7317 16.1773 83.061 16.1773H81.8415V19.1651H83V19.1041Z" fill="white"/>
<path d="M90.8658 15.2017C91.4146 15.2017 91.9024 15.2626 92.3293 15.3846C92.7561 15.5065 93.061 15.6895 93.3659 15.8724C93.6707 16.0553 93.8537 16.3602 93.9756 16.6651C94.0976 16.97 94.1585 17.3358 94.1585 17.7017C94.1585 18.0675 94.0976 18.4334 93.9146 18.7382C93.7927 19.0431 93.5488 19.348 93.3049 19.5919C93 19.8358 92.6951 20.0187 92.2683 20.1407C91.8415 20.2626 91.3537 20.3236 90.8658 20.3236H89.5244V23.3114H88.2439V15.2017H90.8658ZM90.8658 19.409C91.1707 19.409 91.4756 19.348 91.7195 19.287C91.9634 19.2261 92.2073 19.1041 92.3293 18.9212C92.5122 18.7992 92.6341 18.6163 92.6951 18.3724C92.7561 18.1895 92.8171 17.9456 92.8171 17.7017C92.8171 17.2139 92.6341 16.848 92.3293 16.5431C92.0244 16.2382 91.4756 16.1163 90.8049 16.1163H89.5244V19.348H90.8658V19.409Z" fill="white"/>
<path d="M103.854 19.287C103.854 19.8967 103.732 20.4455 103.549 20.9333C103.366 21.4211 103.061 21.8479 102.634 22.2748C102.268 22.6406 101.781 22.9455 101.232 23.1284C100.683 23.3114 100.073 23.4333 99.4635 23.4333C98.7928 23.4333 98.244 23.3114 97.6952 23.1284C97.1464 22.9455 96.7196 22.6406 96.2928 22.2748C95.9269 21.9089 95.622 21.4821 95.3781 20.9333C95.1952 20.4455 95.0732 19.8967 95.0732 19.287C95.0732 18.6772 95.1952 18.1284 95.3781 17.6406C95.561 17.1528 95.8659 16.665 96.2928 16.2992C96.6586 15.9333 97.1464 15.6284 97.6952 15.4455C98.244 15.2626 98.8537 15.1406 99.4635 15.1406C100.134 15.1406 100.683 15.2626 101.232 15.4455C101.781 15.6284 102.207 15.9333 102.634 16.2992C103 16.665 103.305 17.0918 103.549 17.6406C103.732 18.1284 103.854 18.6772 103.854 19.287ZM102.512 19.287C102.512 18.7992 102.451 18.3723 102.268 18.0065C102.146 17.6406 101.903 17.2748 101.659 17.0309C101.415 16.787 101.049 16.5431 100.683 16.4211C100.317 16.2992 99.8903 16.1772 99.4025 16.1772C98.9147 16.1772 98.5489 16.2382 98.122 16.4211C97.7562 16.5431 97.4513 16.787 97.1464 17.0309C96.9025 17.2748 96.6586 17.6406 96.5367 18.0065C96.4147 18.3723 96.2928 18.7992 96.2928 19.287C96.2928 19.7748 96.3537 20.2016 96.5367 20.5675C96.6586 20.9333 96.9025 21.2992 97.1464 21.5431C97.3903 21.787 97.7562 22.0309 98.122 22.1528C98.4879 22.2748 98.9147 22.3357 99.4025 22.3357C99.8903 22.3357 100.256 22.2748 100.683 22.1528C101.11 22.0309 101.354 21.787 101.659 21.5431C101.903 21.2992 102.146 20.9333 102.268 20.5675C102.451 20.2016 102.512 19.7748 102.512 19.287Z" fill="white"/>
<path d="M112.085 23.3114H110.927C110.683 23.3114 110.5 23.2504 110.439 23.0675L108.244 20.2626C108.183 20.1407 108.122 20.0797 108 20.0797C107.939 20.0187 107.817 20.0187 107.634 20.0187H106.78V23.3724H105.5V15.2017H108.061C108.61 15.2017 109.098 15.2626 109.524 15.3846C109.951 15.5065 110.256 15.6285 110.561 15.8724C110.805 16.0553 111.049 16.2992 111.171 16.6041C111.293 16.909 111.354 17.2139 111.354 17.5187C111.354 17.8236 111.293 18.0675 111.232 18.3114C111.11 18.5553 110.988 18.7992 110.805 18.9821C110.622 19.1651 110.378 19.348 110.134 19.47C109.89 19.5919 109.585 19.7139 109.22 19.7748C109.402 19.8358 109.524 20.0187 109.646 20.1407L112.085 23.3114ZM108 19.1041C108.305 19.1041 108.61 19.0431 108.915 18.9821C109.159 18.9212 109.402 18.7992 109.585 18.6773C109.768 18.5553 109.89 18.3724 109.951 18.1895C110.012 18.0065 110.073 17.7626 110.073 17.5797C110.073 17.0919 109.89 16.787 109.585 16.5431C109.28 16.2992 108.732 16.1773 108.061 16.1773H106.841V19.1651H108V19.1041Z" fill="white"/>
<path d="M120.439 23.3114H119.463C119.341 23.3114 119.281 23.3114 119.159 23.2504C119.098 23.1895 119.037 23.1285 118.976 23.0675L118.183 21.1773H114.281L113.488 23.0675C113.488 23.1285 113.427 23.1895 113.305 23.2504C113.244 23.3114 113.122 23.3114 113 23.3114H112.024L115.5 15.2017H116.841L120.439 23.3114ZM117.878 20.3236L116.598 17.1529C116.476 16.909 116.415 16.6651 116.293 16.3602C116.232 16.5431 116.232 16.6651 116.171 16.787C116.11 16.909 116.049 17.0309 116.049 17.1529L114.768 20.3236H117.878Z" fill="white"/>
<path d="M127.451 21.6039C127.512 21.6039 127.573 21.6039 127.634 21.6649L128.122 22.2137C127.756 22.5795 127.329 22.8844 126.78 23.1283C126.293 23.3722 125.622 23.4332 124.89 23.4332C124.28 23.4332 123.671 23.3112 123.183 23.1283C122.695 22.9454 122.207 22.6405 121.841 22.2747C121.476 21.9088 121.171 21.482 120.988 20.9332C120.805 20.4454 120.683 19.8356 120.683 19.2259C120.683 18.6161 120.805 18.0673 120.988 17.5186C121.171 16.9698 121.476 16.5429 121.902 16.1771C122.268 15.8112 122.756 15.5064 123.244 15.3234C123.793 15.1405 124.341 15.0186 125.012 15.0186C125.622 15.0186 126.171 15.1405 126.658 15.3234C127.146 15.5064 127.573 15.7503 127.939 16.0551L127.512 16.6039C127.512 16.6649 127.451 16.6649 127.39 16.7259C127.329 16.7259 127.268 16.7868 127.207 16.7868C127.146 16.7868 127.024 16.7259 126.963 16.6649C126.902 16.6039 126.719 16.5429 126.537 16.421C126.354 16.36 126.171 16.2381 125.927 16.1771C125.683 16.1161 125.378 16.0551 125.012 16.0551C124.585 16.0551 124.158 16.1161 123.793 16.2381C123.427 16.36 123.122 16.6039 122.878 16.8478C122.634 17.0917 122.39 17.4576 122.268 17.8234C122.146 18.1893 122.024 18.6771 122.024 19.1039C122.024 19.5917 122.085 20.0186 122.268 20.4454C122.39 20.8112 122.634 21.1771 122.878 21.421C123.122 21.6649 123.427 21.9088 123.793 22.0307C124.158 22.1527 124.524 22.2137 124.951 22.2137C125.195 22.2137 125.439 22.2137 125.622 22.1527C125.805 22.1527 125.988 22.0917 126.171 22.0307C126.354 21.9698 126.476 21.9088 126.658 21.7868C126.78 21.7259 126.963 21.6039 127.085 21.482C127.146 21.482 127.146 21.421 127.207 21.421C127.39 21.6039 127.451 21.6039 127.451 21.6039Z" fill="white"/>
<path d="M130.866 15.2017H129.524V23.3114H130.866V15.2017Z" fill="white"/>
<path d="M141.171 19.2867C141.171 19.8964 141.049 20.4452 140.866 20.933C140.683 21.4208 140.378 21.9086 139.951 22.2745C139.585 22.6403 139.098 22.9452 138.549 23.1281C138 23.311 137.39 23.433 136.781 23.433C136.11 23.433 135.561 23.311 135.012 23.1281C134.463 22.9452 134.037 22.6403 133.61 22.2745C133.244 21.9086 132.939 21.4818 132.695 20.933C132.512 20.4452 132.39 19.8964 132.39 19.2867C132.39 18.6769 132.512 18.1281 132.695 17.6403C132.878 17.1525 133.183 16.6647 133.61 16.2989C133.976 15.933 134.463 15.6281 135.012 15.4452C135.561 15.2623 136.171 15.1403 136.781 15.1403C137.451 15.1403 138 15.2623 138.549 15.4452C139.098 15.6281 139.524 15.933 139.951 16.2989C140.317 16.6647 140.622 17.0915 140.866 17.6403C141.049 18.1281 141.171 18.6769 141.171 19.2867ZM139.829 19.2867C139.829 18.7989 139.768 18.372 139.585 18.0062C139.463 17.6403 139.22 17.2745 138.976 17.0306C138.732 16.7867 138.366 16.5428 138 16.4208C137.634 16.2989 137.207 16.1769 136.72 16.1769C136.232 16.1769 135.866 16.2379 135.439 16.4208C135.073 16.5428 134.768 16.7867 134.463 17.0306C134.22 17.2745 133.976 17.6403 133.854 18.0062C133.732 18.372 133.61 18.7989 133.61 19.2867C133.61 19.7745 133.671 20.2013 133.854 20.5671C133.976 20.933 134.22 21.2989 134.463 21.5428C134.707 21.7867 135.073 22.0306 135.439 22.1525C135.805 22.2745 136.232 22.3354 136.72 22.3354C137.207 22.3354 137.573 22.2745 138 22.1525C138.366 22.0306 138.671 21.7867 138.976 21.5428C139.22 21.2989 139.463 20.933 139.585 20.5671C139.768 20.2013 139.829 19.7745 139.829 19.2867ZM139.22 12.8232L137.207 14.4696C137.146 14.5306 137.085 14.5306 137.024 14.5915C136.963 14.5915 136.902 14.5915 136.781 14.5915H135.927L137.329 13.0671C137.39 13.0062 137.39 13.0062 137.451 12.9452C137.512 12.9452 137.512 12.8842 137.573 12.8842C137.634 12.8842 137.634 12.8842 137.695 12.8842C137.756 12.8842 137.817 12.8842 137.878 12.8842H139.22V12.8232Z" fill="white"/>
<path d="M150.012 15.2017V23.3114H149.341C149.22 23.3114 149.159 23.3114 149.098 23.2504C149.037 23.1895 148.976 23.1895 148.915 23.0675L143.915 17.1529C143.915 17.2748 143.915 17.3358 143.915 17.4578C143.915 17.5797 143.915 17.6407 143.915 17.7626V23.3114H142.756V15.2017H143.427C143.549 15.2017 143.61 15.2017 143.671 15.2626C143.732 15.2626 143.793 15.3236 143.854 15.4456L148.854 21.3602C148.854 21.2382 148.854 21.1163 148.854 21.0553C148.854 20.9334 148.854 20.8724 148.854 20.7504V15.2017H150.012Z" fill="white"/>
<path d="M71.2317 41.0551C71.2317 42.3356 71.0487 43.4941 70.7439 44.5307C70.439 45.5673 69.9512 46.4819 69.2804 47.2136C68.6097 47.9453 67.817 48.5551 66.8414 48.921C65.8658 49.3478 64.7073 49.5307 63.4268 49.5307C62.817 49.5307 62.2682 49.4697 61.6585 49.4088C61.1097 49.3478 60.5 49.2258 59.8292 49.1039L60.1341 46.0551C60.1951 45.8112 60.2561 45.5673 60.439 45.3844C60.6219 45.2014 60.8658 45.1405 61.2317 45.1405C61.4146 45.1405 61.5975 45.1405 61.9024 45.2014C62.1463 45.2624 62.4512 45.2624 62.817 45.2624C63.3048 45.2624 63.7926 45.2014 64.1585 45.0795C64.5243 44.9575 64.8292 44.7136 65.1341 44.3478C65.378 44.0429 65.5609 43.6161 65.6829 43.0673C65.8048 42.5185 65.8658 41.9088 65.8658 41.1161V26.4819H71.1707V41.0551H71.2317Z" fill="white"/>
<path d="M97.7561 37.9452C97.7561 39.5916 97.4512 41.116 96.9024 42.5184C96.3536 43.9208 95.5609 45.1403 94.5244 46.2379C93.4878 47.2745 92.2683 48.1281 90.8049 48.6769C89.3414 49.2257 87.7561 49.5916 85.9878 49.5916C84.2195 49.5916 82.5731 49.2867 81.1707 48.6769C79.7073 48.0672 78.4878 47.2745 77.4512 46.2379C76.4146 45.2013 75.6219 43.9818 75.0731 42.5184C74.5244 41.116 74.2195 39.5916 74.2195 37.9452C74.2195 36.2989 74.5244 34.7745 75.0731 33.3721C75.6219 31.9696 76.4146 30.7501 77.4512 29.7135C78.4878 28.6769 79.7073 27.8843 81.1707 27.2745C82.6341 26.6647 84.2195 26.3599 85.9878 26.3599C87.7561 26.3599 89.3414 26.6647 90.8049 27.2745C92.2683 27.8843 93.4878 28.6769 94.5244 29.7135C95.5609 30.7501 96.3536 31.9696 96.9024 33.3721C97.4512 34.7745 97.7561 36.2989 97.7561 37.9452ZM92.3292 37.9452C92.3292 36.8477 92.2073 35.8111 91.9024 34.8964C91.5975 33.9818 91.1707 33.2501 90.6219 32.5794C90.0731 31.9696 89.4024 31.4818 88.6097 31.116C87.817 30.8111 86.9024 30.6282 85.9268 30.6282C84.8902 30.6282 83.9756 30.8111 83.1829 31.116C82.3902 31.4208 81.7195 31.9086 81.1707 32.5794C80.6219 33.1891 80.1951 33.9818 79.8902 34.8964C79.5853 35.8111 79.4634 36.7867 79.4634 37.9452C79.4634 39.1038 79.5853 40.0794 79.8902 40.994C80.1951 41.9086 80.6219 42.6403 81.1707 43.3111C81.7195 43.9208 82.3902 44.4086 83.1829 44.7135C83.9756 45.0184 84.8902 45.2013 85.9268 45.2013C86.9634 45.2013 87.817 45.0184 88.6097 44.7135C89.4024 44.4086 90.0731 43.9208 90.6219 43.3111C91.1707 42.7013 91.5975 41.9086 91.9024 40.994C92.2073 40.0794 92.3292 39.0428 92.3292 37.9452Z" fill="white"/>
<path d="M119.524 49.2869H114.768C113.854 49.2869 113.244 48.982 112.878 48.3113L109.037 41.7259C108.854 41.421 108.671 41.2381 108.427 41.1161C108.183 40.9942 107.878 40.9332 107.512 40.9332H106.171V49.3478H100.866V26.543H108.305C109.951 26.543 111.354 26.7259 112.512 27.0308C113.671 27.3966 114.646 27.8235 115.378 28.4332C116.11 29.043 116.659 29.7747 116.963 30.5674C117.268 31.421 117.451 32.2747 117.451 33.2503C117.451 33.982 117.329 34.7137 117.146 35.3235C116.963 35.9942 116.659 36.6039 116.293 37.1527C115.927 37.7015 115.439 38.1893 114.89 38.6161C114.341 39.043 113.671 39.4088 112.939 39.7137C113.305 39.8966 113.61 40.1405 113.915 40.3844C114.22 40.6283 114.463 40.9942 114.707 41.36L119.524 49.2869ZM108.305 37.2137C109.037 37.2137 109.646 37.1527 110.134 36.9698C110.622 36.7869 111.049 36.543 111.354 36.2381C111.659 35.9332 111.902 35.5674 112.085 35.0796C112.207 34.6527 112.329 34.1649 112.329 33.6771C112.329 32.7015 112.024 31.9088 111.354 31.36C110.683 30.8113 109.707 30.5064 108.305 30.5064H106.171V37.2747H108.305V37.2137Z" fill="white"/>
<path d="M142.085 37.9454C142.085 39.5917 141.78 41.1161 141.232 42.5186C140.683 43.921 139.89 45.1405 138.854 46.1161C137.817 47.1527 136.598 47.9454 135.134 48.4942C133.671 49.043 132.085 49.3478 130.317 49.3478H121.476V26.543H130.317C132.085 26.543 133.671 26.8478 135.134 27.3966C136.598 27.9454 137.817 28.7381 138.854 29.7747C139.89 30.8113 140.683 31.9698 141.232 33.3722C141.78 34.7747 142.085 36.2991 142.085 37.9454ZM136.659 37.9454C136.659 36.8478 136.537 35.8113 136.232 34.8966C135.927 33.982 135.5 33.2503 134.951 32.5796C134.402 31.9698 133.732 31.482 132.939 31.1161C132.146 30.7503 131.232 30.6283 130.256 30.6283H126.719V45.2625H130.256C131.293 45.2625 132.146 45.0796 132.939 44.7747C133.732 44.4088 134.402 43.982 134.951 43.3113C135.5 42.7015 135.927 41.9088 136.232 40.9942C136.537 40.0796 136.659 39.043 136.659 37.9454Z" fill="white"/>
<path d="M150.5 26.543H145.195V49.2869H150.5V26.543Z" fill="white"/>
</g>
<defs>
<linearGradient id="paint0_linear_446_504" x1="0.498318" y1="32.2164" x2="56.3283" y2="32.2164" gradientUnits="userSpaceOnUse">
<stop stop-color="#C39A60"/>
<stop offset="0.0326633" stop-color="#C39A60"/>
<stop offset="0.4709" stop-color="#D8B580"/>
<stop offset="1" stop-color="#C39A60"/>
</linearGradient>
<linearGradient id="paint1_linear_446_504" x1="16.5986" y1="33.629" x2="28.0132" y2="33.629" gradientUnits="userSpaceOnUse">
<stop stop-color="#C39A60"/>
<stop offset="0.0326633" stop-color="#C39A60"/>
<stop offset="0.4709" stop-color="#D8B580"/>
<stop offset="1" stop-color="#C39A60"/>
</linearGradient>
<linearGradient id="paint2_linear_446_504" x1="29.9501" y1="30.0174" x2="50.4103" y2="30.0174" gradientUnits="userSpaceOnUse">
<stop stop-color="#C39A60"/>
<stop offset="0.0326633" stop-color="#C39A60"/>
<stop offset="0.4709" stop-color="#D8B580"/>
<stop offset="1" stop-color="#C39A60"/>
</linearGradient>
<clipPath id="clip0_446_504">
<rect width="150" height="64.2683" fill="white" transform="translate(0.5 0.0795898)"/>
</clipPath>
</defs>
</svg>
