<svg width="268" height="124" viewBox="0 0 268 124" fill="none" xmlns="http://www.w3.org/2000/svg">
<mask id="mask0_431_356" style="mask-type:luminance" maskUnits="userSpaceOnUse" x="3" y="0" width="96" height="118">
<path d="M19.1931 17.2058C8.43252 28.6394 3 42.4041 3 58.4999C3 74.7068 8.32805 88.4715 19.0886 99.905C29.8492 111.339 42.8037 117.111 58.0565 117.111C65.0561 117.111 72.0557 115.668 79.1598 112.671C86.6817 109.452 92.6366 105.233 96.9199 99.905C98.0691 98.462 98.6959 97.1299 98.6959 95.9088C98.6959 94.3548 98.1736 92.9117 97.0244 91.6906C95.8752 90.4696 94.5171 89.9145 93.0545 89.9145C91.9053 89.9145 90.6516 90.5806 89.2935 91.8016C86.9951 93.7997 85.2191 95.3538 84.1744 96.4639C76.7569 102.458 68.0858 105.455 58.161 105.455C46.0423 105.455 35.6996 100.904 27.0285 91.6906C18.4618 82.5882 14.074 71.4876 14.074 58.4999C14.074 45.6233 18.3573 34.6337 27.0285 25.4202C35.5951 16.3178 46.0423 11.6555 58.161 11.6555C68.0858 11.6555 76.7569 14.6527 84.1744 20.758C86.4728 22.7561 88.2488 24.4212 89.2935 25.4202C90.6516 26.6413 91.9053 27.3073 93.0545 27.3073C94.5171 27.3073 95.8752 26.7523 97.0244 25.5312C98.1736 24.3102 98.6959 22.8671 98.6959 21.313C98.6959 19.981 98.0691 18.6489 96.9199 17.2058C92.6366 11.9886 86.7862 7.77034 79.1598 4.55117C72.0557 1.55402 64.9516 0.110946 58.0565 0.110946C42.9081 -5.96568e-05 29.9537 5.77223 19.1931 17.2058Z" fill="white"/>
</mask>
<g mask="url(#mask0_431_356)">
<path d="M98.6959 0H3V117H98.6959V0Z" fill="url(#paint0_linear_431_356)"/>
</g>
<mask id="mask1_431_356" style="mask-type:luminance" maskUnits="userSpaceOnUse" x="30" y="32" width="21" height="58">
<path d="M46.0423 34.7448V78.592C46.0423 80.3681 45.4154 81.9222 44.2662 83.2543C43.0126 84.5863 41.55 85.1413 39.8784 85.1413C38.1024 85.1413 36.6398 84.3643 35.3862 82.9212C34.1325 81.4782 33.2967 80.7011 32.7744 80.7011C32.252 80.7011 31.7297 80.9231 31.3118 81.3672C30.8939 81.8112 30.6849 82.2552 30.6849 82.9212C30.6849 83.2543 30.7894 83.6983 30.9984 84.0313C31.7297 85.6964 32.9833 87.0285 34.7593 88.0275C36.4309 89.0266 38.1024 89.4706 39.8784 89.4706C42.6992 89.4706 45.102 88.3605 47.1914 86.2514C49.1764 84.1423 50.2211 81.4782 50.2211 78.481V34.7448C50.2211 33.3017 49.4898 32.5247 48.1317 32.5247C46.6691 32.5247 46.0423 33.3017 46.0423 34.7448Z" fill="white"/>
</mask>
<g mask="url(#mask1_431_356)">
<path d="M50.1166 32.5247H30.5804V89.5816H50.1166V32.5247Z" fill="url(#paint1_linear_431_356)"/>
</g>
<mask id="mask2_431_356" style="mask-type:luminance" maskUnits="userSpaceOnUse" x="53" y="32" width="36" height="45">
<path d="M57.5342 36.9649H67.8768C72.4736 36.9649 76.339 38.63 79.5777 42.0712C82.8163 45.5123 84.3834 49.6195 84.3834 54.5038C84.3834 59.388 82.8163 63.4952 79.5777 66.9364C76.339 70.3776 72.4736 72.0427 67.8768 72.0427H57.5342V36.9649ZM55.5492 32.5247C55.0269 32.5247 54.5045 32.7467 54.0866 33.1907C53.6687 33.6347 53.4598 34.1897 53.4598 34.7448V74.1518C53.4598 74.7068 53.6687 75.2618 54.0866 75.7059C54.5045 76.1499 55.0269 76.3719 55.5492 76.3719H67.8768C73.5183 76.3719 78.4285 74.2628 82.3984 69.9336C86.4728 65.6044 88.4577 60.4981 88.4577 54.3928C88.4577 48.3985 86.4728 43.1812 82.3984 38.963C78.324 34.6338 73.5183 32.5247 67.8768 32.5247H55.5492Z" fill="white"/>
</mask>
<g mask="url(#mask2_431_356)">
<path d="M88.5622 32.5247H53.4598V76.3719H88.5622V32.5247Z" fill="url(#paint2_linear_431_356)"/>
</g>
<path d="M225.002 23.2002H224.689C225.002 20.647 231.479 18.6489 232.942 18.6489C234.927 18.5379 236.807 17.0949 238.897 15.6518C240.673 14.3197 242.449 12.9876 244.434 12.4326V11.6556H243.702L245.583 9.32446L247.254 11.2116V8.76943H246.314V8.2144H247.254V6.54932H247.777V8.2144H248.717V8.88044H247.777V12.4326C248.613 12.6546 249.553 13.0987 250.389 13.6537C252.896 15.5408 258.015 20.8691 257.806 21.5351C257.806 21.5351 257.702 21.6461 257.493 21.6461L257.597 21.3131C257.597 21.3131 257.597 21.3131 257.493 21.3131V21.4241C257.388 20.9801 253.314 16.0958 250.18 13.9867C249.03 13.2097 247.881 12.7656 246.732 12.6546V13.8757L244.434 13.9867V12.8766C242.553 13.4317 240.777 14.7637 239.106 15.9848C237.016 17.5389 235.031 18.982 232.942 19.093C231.375 18.982 225.211 20.9801 225.002 23.2002ZM244.747 11.3226V13.5427L246.419 13.4317V11.2116H246.837L245.583 9.76848L244.434 11.3226H244.747ZM246.732 12.2106C246.941 12.2106 247.046 12.2106 247.254 12.3216V11.6556H246.732V12.2106Z" fill="white"/>
<path d="M120.008 39.1849C120.113 39.1849 120.217 39.1849 120.322 39.2959L121.157 40.295C120.53 40.961 119.799 41.516 118.859 41.96C118.023 42.4041 116.874 42.5151 115.62 42.5151C114.576 42.5151 113.531 42.2931 112.695 41.96C111.859 41.627 111.024 41.072 110.397 40.406C109.77 39.7399 109.248 38.9629 108.934 37.9638C108.621 37.0758 108.412 35.9657 108.412 34.8557C108.412 33.7456 108.621 32.7466 108.934 31.7475C109.248 30.7485 109.77 29.9714 110.501 29.3054C111.128 28.6394 111.964 28.0843 112.8 27.7513C113.74 27.4183 114.68 27.1963 115.829 27.1963C116.874 27.1963 117.814 27.4183 118.65 27.7513C119.486 28.0843 120.217 28.5284 120.844 29.0834L120.113 30.0824C120.113 30.1934 120.008 30.1934 119.904 30.3044C119.799 30.3044 119.695 30.4155 119.59 30.4155C119.486 30.4155 119.277 30.3044 119.172 30.1934C119.068 30.0824 118.754 29.9714 118.441 29.7494C118.128 29.6384 117.814 29.4164 117.396 29.3054C116.978 29.1944 116.456 29.0834 115.829 29.0834C115.098 29.0834 114.367 29.1944 113.74 29.4164C113.113 29.6384 112.591 30.0824 112.173 30.5265C111.755 30.9705 111.337 31.6365 111.128 32.3026C110.919 32.9686 110.71 33.8566 110.71 34.6337C110.71 35.5217 110.815 36.2988 111.128 37.0758C111.337 37.7418 111.755 38.4079 112.173 38.8519C112.591 39.2959 113.113 39.7399 113.74 39.9619C114.367 40.184 114.994 40.295 115.725 40.295C116.143 40.295 116.561 40.295 116.874 40.184C117.187 40.184 117.501 40.0729 117.814 39.9619C118.128 39.8509 118.337 39.7399 118.65 39.5179C118.859 39.4069 119.172 39.1849 119.381 38.9629C119.486 38.9629 119.486 38.8519 119.59 38.8519C119.904 39.1849 120.008 39.1849 120.008 39.1849Z" fill="white"/>
<path d="M137.246 34.9668C137.246 36.0769 137.037 37.076 136.724 37.964C136.41 38.852 135.888 39.6291 135.156 40.4061C134.53 41.0722 133.694 41.6272 132.754 41.9602C131.813 42.2932 130.769 42.5152 129.724 42.5152C128.575 42.5152 127.635 42.2932 126.694 41.9602C125.754 41.6272 125.023 41.0722 124.291 40.4061C123.665 39.7401 123.142 38.963 122.724 37.964C122.411 37.076 122.202 36.0769 122.202 34.9668C122.202 33.8568 122.411 32.8577 122.724 31.9697C123.038 31.0816 123.56 30.1936 124.291 29.5276C124.918 28.8615 125.754 28.3065 126.694 27.9735C127.635 27.6405 128.679 27.4185 129.724 27.4185C130.873 27.4185 131.813 27.6405 132.754 27.9735C133.694 28.3065 134.425 28.8615 135.156 29.5276C135.783 30.1936 136.306 30.9706 136.724 31.9697C137.037 32.8577 137.246 33.8568 137.246 34.9668ZM134.948 34.9668C134.948 34.0788 134.843 33.3018 134.53 32.6357C134.321 31.9697 133.903 31.3037 133.485 30.8596C133.067 30.4156 132.44 29.9716 131.813 29.7496C131.187 29.5276 130.455 29.3056 129.62 29.3056C128.784 29.3056 128.157 29.4166 127.426 29.7496C126.799 29.9716 126.276 30.4156 125.754 30.8596C125.336 31.3037 124.918 31.9697 124.709 32.6357C124.5 33.3018 124.291 34.0788 124.291 34.9668C124.291 35.8549 124.396 36.6319 124.709 37.298C124.918 37.964 125.336 38.63 125.754 39.0741C126.172 39.5181 126.799 39.9621 127.426 40.1841C128.052 40.4061 128.784 40.5171 129.62 40.5171C130.455 40.5171 131.082 40.4061 131.813 40.1841C132.545 39.9621 132.963 39.5181 133.485 39.0741C133.903 38.63 134.321 37.964 134.53 37.298C134.843 36.6319 134.948 35.8549 134.948 34.9668Z" fill="white"/>
<path d="M151.35 42.2931H149.365C148.947 42.2931 148.633 42.1821 148.529 41.849L144.768 36.7428C144.663 36.5208 144.559 36.4098 144.35 36.4098C144.246 36.2987 144.037 36.2987 143.723 36.2987H142.261V42.4041H140.067V27.5293H144.454C145.395 27.5293 146.23 27.6403 146.962 27.8623C147.693 28.0843 148.215 28.3063 148.738 28.7504C149.156 29.0834 149.574 29.5274 149.783 30.0824C149.991 30.6375 150.096 31.1925 150.096 31.7475C150.096 32.3025 149.991 32.7466 149.887 33.1906C149.678 33.6346 149.469 34.0786 149.156 34.4117C148.842 34.7447 148.424 35.0777 148.006 35.2997C147.589 35.5217 147.066 35.7437 146.439 35.8547C146.753 35.9657 146.962 36.2987 147.171 36.5208L151.35 42.2931ZM144.35 34.6337C144.872 34.6337 145.395 34.5227 145.917 34.4117C146.335 34.3006 146.753 34.0786 147.066 33.8566C147.38 33.6346 147.589 33.3016 147.693 32.9686C147.798 32.6356 147.902 32.1915 147.902 31.8585C147.902 30.9705 147.589 30.4154 147.066 29.9714C146.544 29.5274 145.604 29.3054 144.454 29.3054H142.365V34.7447H144.35V34.6337Z" fill="white"/>
<path d="M157.827 27.5293C158.767 27.5293 159.603 27.6403 160.334 27.8623C161.066 28.0843 161.588 28.4173 162.11 28.7504C162.633 29.0834 162.946 29.6384 163.155 30.1934C163.364 30.7485 163.468 31.4145 163.468 32.0805C163.468 32.7466 163.364 33.4126 163.05 33.9676C162.842 34.5227 162.424 35.0777 162.006 35.5217C161.483 35.9657 160.961 36.2987 160.23 36.5208C159.498 36.7428 158.663 36.8538 157.827 36.8538H155.529V42.2931H153.335V27.5293H157.827ZM157.827 35.1887C158.349 35.1887 158.872 35.0777 159.289 34.9667C159.707 34.8557 160.125 34.6337 160.334 34.3006C160.648 34.0786 160.857 33.7456 160.961 33.3016C161.065 32.9686 161.17 32.5246 161.17 32.0805C161.17 31.1925 160.857 30.5265 160.334 29.9714C159.812 29.4164 158.872 29.1944 157.722 29.1944H155.529V35.0777H157.827V35.1887Z" fill="white"/>
<path d="M180.079 34.9668C180.079 36.0769 179.87 37.076 179.557 37.964C179.244 38.852 178.721 39.6291 177.99 40.4061C177.363 41.0722 176.527 41.6272 175.587 41.9602C174.647 42.2932 173.602 42.5152 172.557 42.5152C171.408 42.5152 170.468 42.2932 169.528 41.9602C168.587 41.6272 167.856 41.0722 167.125 40.4061C166.498 39.7401 165.976 38.963 165.558 37.964C165.244 37.076 165.035 36.0769 165.035 34.9668C165.035 33.8568 165.244 32.8577 165.558 31.9697C165.871 31.0816 166.394 30.1936 167.125 29.5276C167.752 28.8615 168.587 28.3065 169.528 27.9735C170.468 27.6405 171.513 27.4185 172.557 27.4185C173.707 27.4185 174.647 27.6405 175.587 27.9735C176.527 28.3065 177.259 28.8615 177.99 29.5276C178.617 30.1936 179.139 30.9706 179.557 31.9697C179.87 32.8577 180.079 33.8568 180.079 34.9668ZM177.781 34.9668C177.781 34.0788 177.676 33.3018 177.363 32.6357C177.154 31.9697 176.736 31.3037 176.318 30.8596C175.9 30.4156 175.274 29.9716 174.647 29.7496C174.02 29.5276 173.289 29.3056 172.453 29.3056C171.617 29.3056 170.99 29.4166 170.259 29.7496C169.632 29.9716 169.11 30.4156 168.587 30.8596C168.17 31.3037 167.752 31.9697 167.543 32.6357C167.334 33.3018 167.125 34.0788 167.125 34.9668C167.125 35.8549 167.229 36.6319 167.543 37.298C167.752 37.964 168.17 38.63 168.587 39.0741C169.005 39.5181 169.632 39.9621 170.259 40.1841C170.886 40.4061 171.617 40.5171 172.453 40.5171C173.289 40.5171 173.915 40.4061 174.647 40.1841C175.378 39.9621 175.796 39.5181 176.318 39.0741C176.736 38.63 177.154 37.964 177.363 37.298C177.676 36.6319 177.781 35.8549 177.781 34.9668Z" fill="white"/>
<path d="M194.183 42.2931H192.198C191.78 42.2931 191.467 42.1821 191.362 41.849L187.601 36.7428C187.497 36.5208 187.392 36.4098 187.183 36.4098C187.079 36.2987 186.87 36.2987 186.557 36.2987H185.094V42.4041H182.9V27.5293H187.288C188.228 27.5293 189.064 27.6403 189.795 27.8623C190.526 28.0843 191.049 28.3063 191.571 28.7504C191.989 29.0834 192.407 29.5274 192.616 30.0824C192.825 30.6375 192.929 31.1925 192.929 31.7475C192.929 32.3025 192.825 32.7466 192.72 33.1906C192.511 33.6346 192.302 34.0786 191.989 34.4117C191.676 34.7447 191.258 35.0777 190.84 35.2997C190.422 35.5217 189.9 35.7437 189.273 35.8547C189.586 35.9657 189.795 36.2987 190.004 36.5208L194.183 42.2931ZM187.183 34.6337C187.706 34.6337 188.228 34.5227 188.75 34.4117C189.168 34.3006 189.586 34.0786 189.9 33.8566C190.213 33.6346 190.422 33.3016 190.526 32.9686C190.631 32.6356 190.735 32.1915 190.735 31.8585C190.735 30.9705 190.422 30.4154 189.9 29.9714C189.377 29.5274 188.437 29.3054 187.288 29.3054H185.198V34.7447H187.183V34.6337Z" fill="white"/>
<path d="M208.495 42.2931H206.824C206.615 42.2931 206.51 42.2931 206.302 42.182C206.197 42.071 206.093 41.96 205.988 41.849L204.63 38.4079H197.944L196.586 41.849C196.586 41.96 196.481 42.071 196.272 42.182C196.168 42.2931 195.959 42.2931 195.75 42.2931H194.078L200.033 27.5293H202.332L208.495 42.2931ZM204.108 36.8538L201.914 31.0815C201.705 30.6375 201.6 30.1934 201.391 29.6384C201.287 29.9714 201.287 30.1934 201.182 30.4154C201.078 30.6375 200.973 30.8595 200.973 31.0815L198.78 36.8538H204.108Z" fill="white"/>
<path d="M220.51 39.1849C220.614 39.1849 220.719 39.1849 220.823 39.2959L221.659 40.295C221.032 40.961 220.301 41.516 219.361 41.96C218.525 42.4041 217.376 42.5151 216.122 42.5151C215.077 42.5151 214.033 42.2931 213.197 41.96C212.361 41.627 211.525 41.072 210.898 40.406C210.272 39.7399 209.749 38.9629 209.436 37.9638C209.122 37.0758 208.913 35.9657 208.913 34.8557C208.913 33.7456 209.122 32.7466 209.436 31.7475C209.749 30.7485 210.272 29.9714 211.003 29.3054C211.63 28.6394 212.465 28.0843 213.301 27.7513C214.241 27.4183 215.182 27.1963 216.331 27.1963C217.376 27.1963 218.316 27.4183 219.152 27.7513C219.987 28.0843 220.719 28.5284 221.346 29.0834L220.614 30.0824C220.614 30.1934 220.51 30.1934 220.405 30.3044C220.301 30.3044 220.196 30.4155 220.092 30.4155C219.987 30.4155 219.778 30.3044 219.674 30.1934C219.57 30.0824 219.256 29.9714 218.943 29.7494C218.629 29.6384 218.316 29.4164 217.898 29.3054C217.48 29.1944 216.958 29.0834 216.331 29.0834C215.6 29.0834 214.868 29.1944 214.241 29.4164C213.615 29.6384 213.092 30.0824 212.674 30.5265C212.257 30.9705 211.839 31.6365 211.63 32.3026C211.421 32.9686 211.212 33.8566 211.212 34.6337C211.212 35.5217 211.316 36.2988 211.63 37.0758C211.839 37.7418 212.257 38.4079 212.674 38.8519C213.092 39.2959 213.615 39.7399 214.241 39.9619C214.868 40.184 215.495 40.295 216.226 40.295C216.644 40.295 217.062 40.295 217.376 40.184C217.689 40.184 218.002 40.0729 218.316 39.9619C218.629 39.8509 218.838 39.7399 219.152 39.5179C219.361 39.4069 219.674 39.1849 219.883 38.9629C219.987 38.9629 219.987 38.8519 220.092 38.8519C220.405 39.1849 220.51 39.1849 220.51 39.1849Z" fill="white"/>
<path d="M226.36 27.5293H224.062V42.2931H226.36V27.5293Z" fill="white"/>
<path d="M244.016 34.9668C244.016 36.0769 243.807 37.0759 243.493 37.964C243.18 38.852 242.658 39.74 241.926 40.4061C241.3 41.0721 240.464 41.6271 239.524 41.9602C238.583 42.2932 237.539 42.5152 236.494 42.5152C235.345 42.5152 234.404 42.2932 233.464 41.9602C232.524 41.6271 231.793 41.0721 231.061 40.4061C230.435 39.74 229.912 38.963 229.494 37.964C229.181 37.0759 228.972 36.0769 228.972 34.9668C228.972 33.8567 229.181 32.8577 229.494 31.9696C229.808 31.0816 230.33 30.1936 231.061 29.5275C231.688 28.8615 232.524 28.3065 233.464 27.9734C234.404 27.6404 235.449 27.4184 236.494 27.4184C237.643 27.4184 238.583 27.6404 239.524 27.9734C240.464 28.3065 241.195 28.8615 241.926 29.5275C242.553 30.1936 243.076 30.9706 243.493 31.9696C243.807 32.8577 244.016 33.8567 244.016 34.9668ZM241.717 34.9668C241.717 34.0788 241.613 33.3017 241.3 32.6357C241.091 31.9696 240.673 31.3036 240.255 30.8596C239.837 30.4156 239.21 29.9715 238.583 29.7495C237.956 29.5275 237.225 29.3055 236.389 29.3055C235.554 29.3055 234.927 29.4165 234.196 29.7495C233.569 29.9715 233.046 30.4156 232.524 30.8596C232.106 31.3036 231.688 31.9696 231.479 32.6357C231.27 33.3017 231.061 34.0788 231.061 34.9668C231.061 35.8548 231.166 36.6319 231.479 37.2979C231.688 37.964 232.106 38.63 232.524 39.074C232.942 39.518 233.569 39.9621 234.196 40.1841C234.822 40.4061 235.554 40.5171 236.389 40.5171C237.225 40.5171 237.852 40.4061 238.583 40.1841C239.21 39.9621 239.732 39.518 240.255 39.074C240.673 38.63 241.091 37.964 241.3 37.2979C241.613 36.6319 241.717 35.8548 241.717 34.9668ZM240.673 23.2002L237.225 26.1973C237.121 26.3084 237.016 26.3084 236.912 26.4194C236.807 26.4194 236.703 26.4194 236.494 26.4194H235.031L237.434 23.6442C237.539 23.5332 237.539 23.5332 237.643 23.4222C237.748 23.4222 237.748 23.3112 237.852 23.3112C237.956 23.3112 237.956 23.3112 238.061 23.3112C238.165 23.3112 238.27 23.3112 238.374 23.3112H240.673V23.2002Z" fill="white"/>
<path d="M259.164 27.5293V42.2931H258.015C257.806 42.2931 257.702 42.2931 257.597 42.182C257.493 42.071 257.388 42.071 257.284 41.849L248.717 31.0815C248.717 31.3035 248.717 31.4145 248.717 31.6365C248.717 31.8585 248.717 31.9695 248.717 32.1915V42.2931H246.732V27.5293H247.881C248.09 27.5293 248.195 27.5293 248.299 27.6403C248.404 27.6403 248.508 27.7513 248.613 27.9733L257.179 38.7409C257.179 38.5189 257.179 38.2969 257.179 38.1858C257.179 37.9638 257.179 37.8528 257.179 37.6308V27.5293H259.164Z" fill="white"/>
<path d="M124.187 74.5958C124.187 76.9269 123.874 79.036 123.351 80.9231C122.829 82.8102 121.993 84.4753 120.844 85.8074C119.695 87.1394 118.337 88.2495 116.665 88.9155C114.994 89.6926 113.009 90.0256 110.815 90.0256C109.77 90.0256 108.83 89.9146 107.785 89.8036C106.845 89.6926 105.8 89.4706 104.651 89.2485L105.173 83.6983C105.278 83.2542 105.382 82.8102 105.696 82.4772C106.009 82.1442 106.427 82.0332 107.054 82.0332C107.367 82.0332 107.68 82.0332 108.203 82.1442C108.621 82.2552 109.143 82.2552 109.77 82.2552C110.606 82.2552 111.441 82.1442 112.068 81.9222C112.695 81.7002 113.217 81.2561 113.74 80.5901C114.158 80.0351 114.471 79.258 114.68 78.259C114.889 77.2599 114.993 76.1499 114.993 74.7068V48.0654H124.083V74.5958H124.187Z" fill="white"/>
<path d="M169.632 68.9346C169.632 71.9317 169.11 74.7069 168.17 77.26C167.229 79.8131 165.871 82.0333 164.095 84.0314C162.319 85.9185 160.23 87.4725 157.722 88.4716C155.215 89.4706 152.499 90.1367 149.469 90.1367C146.439 90.1367 143.619 89.5816 141.216 88.4716C138.709 87.3615 136.619 85.9185 134.843 84.0314C133.067 82.1443 131.709 79.9241 130.769 77.26C129.829 74.7069 129.306 71.9317 129.306 68.9346C129.306 65.9374 129.829 63.1623 130.769 60.6092C131.709 58.056 133.067 55.8359 134.843 53.9488C136.619 52.0617 138.709 50.6186 141.216 49.5086C143.723 48.3985 146.439 47.8435 149.469 47.8435C152.499 47.8435 155.215 48.3985 157.722 49.5086C160.23 50.6186 162.319 52.0617 164.095 53.9488C165.871 55.8359 167.229 58.056 168.17 60.6092C169.11 63.1623 169.632 65.9374 169.632 68.9346ZM160.334 68.9346C160.334 66.9365 160.125 65.0494 159.603 63.3843C159.081 61.7192 158.349 60.3871 157.409 59.1661C156.469 58.056 155.32 57.168 153.961 56.502C152.603 55.9469 151.036 55.6139 149.365 55.6139C147.589 55.6139 146.022 55.9469 144.663 56.502C143.305 57.057 142.156 57.945 141.216 59.1661C140.276 60.2761 139.544 61.7192 139.022 63.3843C138.5 65.0494 138.291 66.8255 138.291 68.9346C138.291 71.0437 138.5 72.8198 139.022 74.4849C139.544 76.15 140.276 77.482 141.216 78.7031C142.156 79.8131 143.305 80.7012 144.663 81.2562C146.022 81.8112 147.589 82.1443 149.365 82.1443C151.141 82.1443 152.603 81.8112 153.961 81.2562C155.32 80.7012 156.469 79.8131 157.409 78.7031C158.349 77.593 159.081 76.15 159.603 74.4849C160.125 72.8198 160.334 70.9327 160.334 68.9346Z" fill="white"/>
<path d="M206.928 89.5816H198.78C197.213 89.5816 196.168 89.0266 195.541 87.8055L188.959 75.8169C188.646 75.2619 188.333 74.9289 187.915 74.7069C187.497 74.4849 186.974 74.3739 186.348 74.3739H184.049V89.6926H174.96V48.1765H187.706C190.526 48.1765 192.929 48.5095 194.914 49.0646C196.899 49.7306 198.571 50.5076 199.824 51.6177C201.078 52.7277 202.018 54.0598 202.541 55.5029C203.063 57.057 203.376 58.611 203.376 60.3871C203.376 61.7192 203.168 63.0513 202.854 64.1613C202.541 65.3824 202.018 66.4925 201.391 67.4915C200.765 68.4906 199.929 69.3786 198.989 70.1556C198.048 70.9327 196.899 71.5987 195.646 72.1537C196.272 72.4868 196.795 72.9308 197.317 73.3748C197.839 73.8188 198.257 74.4849 198.675 75.1509L206.928 89.5816ZM187.706 67.6025C188.959 67.6025 190.004 67.4915 190.84 67.1585C191.676 66.8255 192.407 66.3814 192.929 65.8264C193.452 65.2714 193.87 64.6054 194.183 63.7173C194.392 62.9403 194.601 62.0522 194.601 61.1642C194.601 59.3881 194.078 57.945 192.929 56.946C191.78 55.9469 190.109 55.3919 187.706 55.3919H184.049V67.7135H187.706V67.6025Z" fill="white"/>
<path d="M245.583 68.9346C245.583 71.9317 245.061 74.7069 244.12 77.26C243.18 79.8131 241.822 82.0332 240.046 83.8093C238.27 85.6964 236.18 87.1395 233.673 88.1386C231.166 89.1376 228.45 89.6926 225.42 89.6926H210.271V48.1765H225.42C228.45 48.1765 231.166 48.7315 233.673 49.7306C236.18 50.7296 238.27 52.1727 240.046 54.0598C241.822 55.9469 243.18 58.056 244.12 60.6091C245.061 63.1623 245.583 65.9374 245.583 68.9346ZM236.285 68.9346C236.285 66.9365 236.076 65.0494 235.554 63.3843C235.031 61.7192 234.3 60.3871 233.36 59.1661C232.419 58.056 231.27 57.168 229.912 56.5019C228.554 55.8359 226.987 55.6139 225.315 55.6139H219.256V82.2553H225.315C227.091 82.2553 228.554 81.9222 229.912 81.3672C231.27 80.7012 232.419 79.9241 233.36 78.7031C234.3 77.593 235.031 76.1499 235.554 74.4849C236.076 72.8198 236.285 70.9327 236.285 68.9346Z" fill="white"/>
<path d="M260 48.1765H250.911V89.5816H260V48.1765Z" fill="white"/>
<defs>
<linearGradient id="paint0_linear_431_356" x1="2.99712" y1="58.5049" x2="98.6524" y2="58.5049" gradientUnits="userSpaceOnUse">
<stop stop-color="#C39A60"/>
<stop offset="0.0326633" stop-color="#C39A60"/>
<stop offset="0.4709" stop-color="#D8B580"/>
<stop offset="1" stop-color="#C39A60"/>
</linearGradient>
<linearGradient id="paint1_linear_431_356" x1="30.5822" y1="61.0768" x2="50.1393" y2="61.0768" gradientUnits="userSpaceOnUse">
<stop stop-color="#C39A60"/>
<stop offset="0.0326633" stop-color="#C39A60"/>
<stop offset="0.4709" stop-color="#D8B580"/>
<stop offset="1" stop-color="#C39A60"/>
</linearGradient>
<linearGradient id="paint2_linear_431_356" x1="53.4579" y1="54.5019" x2="88.513" y2="54.5019" gradientUnits="userSpaceOnUse">
<stop stop-color="#C39A60"/>
<stop offset="0.0326633" stop-color="#C39A60"/>
<stop offset="0.4709" stop-color="#D8B580"/>
<stop offset="1" stop-color="#C39A60"/>
</linearGradient>
</defs>
</svg>
