<svg width="27" height="22" viewBox="0 0 27 22" fill="none" xmlns="http://www.w3.org/2000/svg">
<path d="M2.38889 21.672C1.78889 21.672 1.26852 21.4516 0.827787 21.0109C0.387054 20.5701 0.166687 20.0498 0.166687 19.4498V2.56082C0.166687 1.96082 0.387054 1.44046 0.827787 0.999723C1.26852 0.55899 1.78889 0.338623 2.38889 0.338623H24.6112C25.2112 0.338623 25.7315 0.55899 26.1723 0.999723C26.613 1.44046 26.8334 1.96082 26.8334 2.56082V19.4498C26.8334 20.0498 26.613 20.5701 26.1723 21.0109C25.7315 21.4516 25.2112 21.672 24.6112 21.672H2.38889ZM13.5 11.8497L24.6112 4.67192V2.56082L13.5 9.62752L2.38889 2.56082V4.67192L13.5 11.8497Z" fill="#D5B16C"/>
</svg>
