<svg width="196" height="167" viewBox="0 0 196 167" fill="none" xmlns="http://www.w3.org/2000/svg">
<g clip-path="url(#clip0_557_1124)">
<path d="M87.99 166.253C87.99 166.253 79.6937 155.803 60.5928 153.713C42.0707 150.483 19.304 131.863 12.7441 103.553C5.41249 75.8125 15.8312 45.0323 29.7227 29.8322C43.6143 14.0622 56.927 10.6421 56.5411 10.4521C56.927 10.8322 43.8072 14.6322 30.3015 30.4022C16.7958 45.6023 6.76306 76.0025 14.2876 102.983C20.8475 130.533 43.2284 148.203 61.1716 151.243C65.4163 151.623 69.275 152.383 72.7479 153.523C73.7126 153.903 74.6773 154.093 75.642 154.473L84.5172 158.843C88.5689 161.503 90.4982 163.593 90.4982 163.593L87.99 166.253Z" fill="#CECECD"/>
<path d="M54.8047 136.422C54.8047 136.422 60.014 137.942 61.7505 142.502C64.0657 148.202 63.294 153.142 63.294 153.142C63.294 153.142 58.0846 150.482 56.1552 147.442C53.6471 143.262 54.8047 136.422 54.8047 136.422Z" fill="#CECECD"/>
<path d="M46.3152 162.833C46.3152 162.833 51.5245 164.163 55.3833 161.313C60.0138 157.513 61.7502 152.953 61.7502 152.953C61.7502 152.953 55.9621 152.383 52.8751 154.093C48.6304 156.373 46.3152 162.833 46.3152 162.833Z" fill="#CECECD"/>
<path d="M46.5082 132.052C46.5082 132.052 51.3316 134.523 52.2963 139.273C53.6469 145.163 52.1034 149.913 52.1034 149.913C52.1034 149.913 47.4729 146.303 46.1223 143.073C44.5788 138.513 46.5082 132.052 46.5082 132.052Z" fill="#CECECD"/>
<path d="M34.546 156.183C34.546 156.183 39.3695 158.463 43.4212 156.373C48.4376 153.713 50.7528 149.343 50.7528 149.343C50.7528 149.343 45.3506 147.823 42.0706 148.773C37.826 150.293 34.546 156.183 34.546 156.183Z" fill="#CECECD"/>
<path d="M39.1764 126.163C39.1764 126.163 43.4211 129.583 43.614 134.333C43.9999 140.413 41.8776 144.593 41.8776 144.593C41.8776 144.593 38.0188 140.223 37.247 136.803C36.2824 132.053 39.1764 126.163 39.1764 126.163Z" fill="#CECECD"/>
<path d="M24.1273 147.253C24.1273 147.253 28.372 150.483 32.6166 149.153C37.8259 147.443 40.72 143.833 40.72 143.833C40.72 143.833 35.7036 141.173 32.6166 141.553C27.9861 142.123 24.1273 147.253 24.1273 147.253Z" fill="#CECECD"/>
<path d="M32.8096 118.752C32.8096 118.752 36.2825 122.932 35.8966 127.682C35.3178 133.573 32.6167 137.373 32.6167 137.373C32.6167 137.373 29.5296 132.433 29.3367 128.822C29.1438 123.882 32.8096 118.752 32.8096 118.752Z" fill="#CECECD"/>
<path d="M15.2522 136.423C15.2522 136.423 18.918 140.413 22.9697 139.843C28.1791 139.273 31.459 136.233 31.459 136.233C31.459 136.233 27.0214 132.813 23.9344 132.433C19.6898 132.243 15.2522 136.423 15.2522 136.423Z" fill="#CECECD"/>
<path d="M27.7932 110.202C27.7932 110.202 30.4943 114.952 29.3367 119.512C27.9861 125.212 24.7062 128.252 24.7062 128.252C24.7062 128.252 22.5839 122.742 22.7768 119.322C23.5486 114.382 27.7932 110.202 27.7932 110.202Z" fill="#CECECD"/>
<path d="M8.30652 123.883C8.30652 123.883 11.2006 128.443 15.2523 128.823C20.2687 129.203 23.9345 126.923 23.9345 126.923C23.9345 126.923 20.2687 122.743 17.3746 121.793C13.3229 120.652 8.30652 123.883 8.30652 123.883Z" fill="#CECECD"/>
<path d="M24.1275 100.703C24.1275 100.703 26.0569 105.833 24.3204 110.013C22.1981 115.333 18.7252 117.803 18.7252 117.803C18.7252 117.803 17.3746 112.103 18.3393 108.683C19.497 103.933 24.1275 100.703 24.1275 100.703Z" fill="#CECECD"/>
<path d="M3.48315 110.203C3.48315 110.203 5.60547 115.143 9.46424 116.283C14.2877 117.613 18.1465 116.093 18.1465 116.093C18.1465 116.093 15.2524 111.153 12.5512 109.823C8.69249 108.113 3.48315 110.203 3.48315 110.203Z" fill="#CECECD"/>
<path d="M22.0051 90.6323C22.0051 90.6323 22.9698 95.9524 20.8475 99.7524C17.9534 104.502 14.2876 106.212 14.2876 106.212C14.2876 106.212 13.9017 100.132 15.2523 97.0924C16.9887 92.9123 22.0051 90.6323 22.0051 90.6323Z" fill="#CECECD"/>
<path d="M0.78186 95.9521C0.78186 95.9521 1.93949 101.272 5.60532 102.982C9.84996 105.262 13.9017 104.502 13.9017 104.502C13.9017 104.502 11.7793 99.1821 9.46408 97.2821C6.18413 94.8121 0.78186 95.9521 0.78186 95.9521Z" fill="#CECECD"/>
<path d="M21.6194 79.9922C21.6194 79.9922 21.8123 85.3122 19.1112 88.5422C15.6383 92.5322 11.7795 93.4822 11.7795 93.4822C11.7795 93.4822 12.3584 87.7822 14.0948 84.9322C16.4101 81.3222 21.6194 79.9922 21.6194 79.9922Z" fill="#CECECD"/>
<path d="M0.396118 81.1321C0.396118 81.1321 0.781994 86.4521 3.86901 88.9221C7.72777 91.9621 11.5865 91.9621 11.5865 91.9621C11.5865 91.9621 10.4289 86.4521 8.49952 84.1721C5.60545 81.1321 0.396118 81.1321 0.396118 81.1321Z" fill="#CECECD"/>
<path d="M22.5838 69.1621C22.5838 69.1621 22.005 74.4821 18.918 77.1421C15.0592 80.3722 11.2004 80.5622 11.2004 80.5622C11.2004 80.5622 12.551 75.0521 14.6733 72.7721C17.3745 69.3521 22.5838 69.1621 22.5838 69.1621Z" fill="#CECECD"/>
<path d="M2.13233 66.1221C2.13233 66.1221 1.74645 71.4421 4.25465 74.4821C7.53459 78.2821 11.2004 79.0421 11.2004 79.0421C11.2004 79.0421 11.0075 73.3421 9.46398 70.8721C7.34166 67.0721 2.13233 66.1221 2.13233 66.1221Z" fill="#CECECD"/>
<path d="M25.2851 58.3322C25.2851 58.3322 23.9345 63.2722 20.4616 65.3622C16.217 67.8322 12.5511 67.2622 12.5511 67.2622C12.5511 67.2622 14.6735 62.1322 16.9887 60.2322C20.2687 57.5722 25.2851 58.3322 25.2851 58.3322Z" fill="#CECECD"/>
<path d="M6.18414 51.4922C6.18414 51.4922 5.02651 56.6222 6.95589 60.0422C9.46409 64.4123 12.937 65.7423 12.937 65.7423C12.937 65.7423 13.5158 60.2322 12.3582 57.3822C11.0076 53.3922 6.18414 51.4922 6.18414 51.4922Z" fill="#CECECD"/>
<path d="M29.7226 48.2621C29.7226 48.2621 27.6003 52.8221 24.1274 54.1521C19.6899 55.6721 16.4099 54.3421 16.4099 54.3421C16.4099 54.3421 19.111 49.7821 21.6192 48.4521C24.8992 46.5521 29.7226 48.2621 29.7226 48.2621Z" fill="#CECECD"/>
<path d="M12.3582 37.8118C12.3582 37.8118 10.4288 42.5618 11.7794 46.1718C13.5158 50.9218 16.6028 52.8218 16.6028 52.8218C16.6028 52.8218 17.9534 47.5018 17.3746 44.6518C16.6028 40.6618 12.3582 37.8118 12.3582 37.8118Z" fill="#CECECD"/>
<path d="M35.5107 39.1419C35.5107 39.1419 32.8096 43.3219 29.3367 43.7019C24.8991 44.2719 21.8121 42.3719 21.8121 42.3719C21.8121 42.3719 25.0921 38.5719 27.7932 37.6219C31.2661 36.4819 35.5107 39.1419 35.5107 39.1419Z" fill="#CECECD"/>
<path d="M20.6544 25.6519C20.6544 25.6519 18.1462 29.8319 18.918 33.8219C19.8827 38.7619 22.5838 41.2319 22.5838 41.2319C22.5838 41.2319 24.7061 36.2919 24.5132 33.4419C24.1273 29.0719 20.6544 25.6519 20.6544 25.6519Z" fill="#CECECD"/>
<path d="M42.4565 31.1621C42.4565 31.1621 39.3695 34.5821 35.8966 34.3921C31.459 34.2021 28.9508 31.7321 28.9508 31.7321C28.9508 31.7321 32.8096 28.6921 35.3178 28.3121C38.7907 27.9321 42.4565 31.1621 42.4565 31.1621Z" fill="#CECECD"/>
<path d="M30.3013 15.2019C30.3013 15.2019 27.2143 18.8119 27.4072 22.8019C27.6002 27.742 29.7225 30.782 29.7225 30.782C29.7225 30.782 32.4236 26.412 32.8095 23.5619C33.1954 19.3819 30.3013 15.2019 30.3013 15.2019Z" fill="#CECECD"/>
<path d="M50.5601 24.8922C50.5601 24.8922 47.0872 27.7422 43.8073 26.7922C39.7556 25.6522 37.4403 22.8022 37.4403 22.8022C37.4403 22.8022 41.492 20.5222 44.0002 20.7122C47.4731 20.9022 50.5601 24.8922 50.5601 24.8922Z" fill="#CECECD"/>
<path d="M41.2989 6.84204C41.2989 6.84204 37.8261 9.69206 37.4402 13.6821C36.8614 18.6221 38.4049 21.8521 38.4049 21.8521C38.4049 21.8521 41.6848 18.2421 42.4566 15.3921C43.4213 11.4021 41.2989 6.84204 41.2989 6.84204Z" fill="#CECECD"/>
<path d="M59.2423 20.1422C59.2423 20.1422 55.3835 22.2322 52.4894 20.7122C48.6307 18.8122 47.0872 15.5822 47.0872 15.5822C47.0872 15.5822 51.3318 14.0622 53.6471 14.8222C56.927 15.7722 59.2423 20.1422 59.2423 20.1422Z" fill="#CECECD"/>
<path d="M53.0681 0.761719C53.0681 0.761719 49.4023 2.85173 48.2447 6.65175C47.0871 11.2118 48.0518 14.8218 48.0518 14.8218C48.0518 14.8218 51.7176 11.9718 52.8752 9.31176C54.4187 5.70174 53.0681 0.761719 53.0681 0.761719Z" fill="#CECECD"/>
<path d="M53.454 11.972C53.454 11.972 56.3481 13.492 58.8562 12.352C61.9433 10.832 63.4868 8.36197 63.4868 8.36197C63.4868 8.36197 60.2068 7.03197 58.2774 7.60197C55.5763 8.36197 53.454 11.972 53.454 11.972Z" fill="#CECECD"/>
<path d="M107.477 166.253C107.477 166.253 115.773 155.803 134.874 153.713C153.396 150.483 176.163 131.863 182.723 103.743C190.054 75.8125 179.636 45.0323 165.744 30.0222C151.852 14.0622 138.733 10.6421 138.926 10.4521C138.54 10.8322 151.66 14.6322 165.165 30.4022C178.671 45.6023 188.704 76.0025 181.179 102.983C174.619 130.533 152.238 148.203 134.295 151.243C130.05 151.623 126.192 152.383 122.719 153.523C121.754 153.903 120.789 154.093 119.825 154.473L110.95 158.843C106.898 161.503 104.969 163.593 104.969 163.593L107.477 166.253Z" fill="#CECECD"/>
<path d="M140.855 136.422C140.855 136.422 135.646 137.942 133.909 142.502C131.594 148.202 132.366 153.142 132.366 153.142C132.366 153.142 137.575 150.482 139.504 147.442C141.82 143.262 140.855 136.422 140.855 136.422Z" fill="#CECECD"/>
<path d="M149.151 162.833C149.151 162.833 143.942 164.163 140.083 161.313C135.453 157.513 133.716 152.953 133.716 152.953C133.716 152.953 139.504 152.383 142.591 154.093C146.836 156.373 149.151 162.833 149.151 162.833Z" fill="#CECECD"/>
<path d="M148.958 132.052C148.958 132.052 144.135 134.523 143.17 139.273C141.82 145.163 143.363 149.913 143.363 149.913C143.363 149.913 147.994 146.303 149.344 143.073C151.081 138.513 148.958 132.052 148.958 132.052Z" fill="#CECECD"/>
<path d="M160.921 156.183C160.921 156.183 156.097 158.463 152.045 156.373C147.029 153.713 144.714 149.343 144.714 149.343C144.714 149.343 150.116 147.823 153.396 148.773C157.834 150.293 160.921 156.183 160.921 156.183Z" fill="#CECECD"/>
<path d="M156.29 126.163C156.29 126.163 152.045 129.583 151.853 134.333C151.467 140.413 153.589 144.593 153.589 144.593C153.589 144.593 157.448 140.223 158.22 136.803C159.377 132.053 156.29 126.163 156.29 126.163Z" fill="#CECECD"/>
<path d="M171.532 147.253C171.532 147.253 167.288 150.483 163.043 149.153C157.834 147.443 154.94 143.833 154.94 143.833C154.94 143.833 159.956 141.173 163.043 141.553C167.481 142.123 171.532 147.253 171.532 147.253Z" fill="#CECECD"/>
<path d="M162.657 118.752C162.657 118.752 159.184 122.932 159.57 127.682C160.149 133.573 162.85 137.373 162.85 137.373C162.85 137.373 165.937 132.433 166.13 128.822C166.323 123.882 162.657 118.752 162.657 118.752Z" fill="#CECECD"/>
<path d="M180.214 136.423C180.214 136.423 176.549 140.413 172.497 139.843C167.288 139.273 164.008 136.233 164.008 136.233C164.008 136.233 168.445 132.813 171.532 132.433C175.777 132.243 180.214 136.423 180.214 136.423Z" fill="#CECECD"/>
<path d="M167.673 110.202C167.673 110.202 164.972 114.952 166.13 119.512C167.481 125.212 170.76 128.252 170.76 128.252C170.76 128.252 172.883 122.742 172.69 119.322C172.111 114.382 167.673 110.202 167.673 110.202Z" fill="#CECECD"/>
<path d="M187.353 123.883C187.353 123.883 184.459 128.443 180.407 128.823C175.198 129.203 171.725 126.923 171.725 126.923C171.725 126.923 175.391 122.743 178.285 121.793C182.337 120.652 187.353 123.883 187.353 123.883Z" fill="#CECECD"/>
<path d="M171.339 100.703C171.339 100.703 169.41 105.833 171.146 110.013C173.269 115.333 176.742 117.803 176.742 117.803C176.742 117.803 178.092 112.103 177.128 108.683C176.163 103.933 171.339 100.703 171.339 100.703Z" fill="#CECECD"/>
<path d="M192.177 110.203C192.177 110.203 190.054 115.143 186.196 116.283C181.372 117.613 177.513 116.093 177.513 116.093C177.513 116.093 180.407 111.153 183.109 109.823C186.774 108.113 192.177 110.203 192.177 110.203Z" fill="#CECECD"/>
<path d="M173.462 90.6323C173.462 90.6323 172.497 95.9524 174.812 99.7524C177.706 104.502 181.372 106.212 181.372 106.212C181.372 106.212 181.758 100.322 180.407 97.2824C178.478 92.9123 173.462 90.6323 173.462 90.6323Z" fill="#CECECD"/>
<path d="M194.685 95.9521C194.685 95.9521 193.527 101.272 189.861 102.982C185.617 105.262 181.758 104.502 181.758 104.502C181.758 104.502 183.88 99.1821 186.195 97.2821C189.475 94.8121 194.685 95.9521 194.685 95.9521Z" fill="#CECECD"/>
<path d="M174.04 79.9922C174.04 79.9922 173.847 85.3122 176.549 88.5422C180.021 92.5322 183.88 93.4822 183.88 93.4822C183.88 93.4822 183.301 87.7822 181.565 84.9322C179.25 81.3222 174.04 79.9922 174.04 79.9922Z" fill="#CECECD"/>
<path d="M195.071 81.1321C195.071 81.1321 194.685 86.4521 191.598 88.9221C187.739 91.9621 183.88 91.9621 183.88 91.9621C183.88 91.9621 185.038 86.4521 186.967 84.1721C189.861 81.1321 195.071 81.1321 195.071 81.1321Z" fill="#CECECD"/>
<path d="M172.883 69.1621C172.883 69.1621 173.462 74.4821 176.549 77.1421C180.407 80.3722 184.266 80.5622 184.266 80.5622C184.266 80.5622 182.916 75.0521 180.793 72.7721C178.092 69.3521 172.883 69.1621 172.883 69.1621Z" fill="#CECECD"/>
<path d="M193.334 66.1221C193.334 66.1221 193.72 71.4421 191.212 74.4821C187.932 78.2821 184.266 79.0421 184.266 79.0421C184.266 79.0421 184.459 73.3421 186.003 70.8721C188.318 67.0721 193.334 66.1221 193.334 66.1221Z" fill="#CECECD"/>
<path d="M170.182 58.3322C170.182 58.3322 171.532 63.2722 175.005 65.3622C179.25 67.8322 182.916 67.2622 182.916 67.2622C182.916 67.2622 180.793 62.1322 178.478 60.2322C175.198 57.5722 170.182 58.3322 170.182 58.3322Z" fill="#CECECD"/>
<path d="M189.283 51.4922C189.283 51.4922 190.44 56.6222 188.511 60.0422C186.003 64.4123 182.53 65.7423 182.53 65.7423C182.53 65.7423 181.951 60.2322 183.109 57.3822C184.652 53.3922 189.283 51.4922 189.283 51.4922Z" fill="#CECECD"/>
<path d="M165.937 48.2621C165.937 48.2621 168.059 52.8221 171.532 54.1521C175.97 55.6721 179.25 54.3421 179.25 54.3421C179.25 54.3421 176.548 49.7821 174.04 48.4521C170.567 46.5521 165.937 48.2621 165.937 48.2621Z" fill="#CECECD"/>
<path d="M183.109 37.8118C183.109 37.8118 185.038 42.5618 183.687 46.1718C181.951 50.9218 178.864 52.8218 178.864 52.8218C178.864 52.8218 177.513 47.5018 178.092 44.6518C178.864 40.6618 183.109 37.8118 183.109 37.8118Z" fill="#CECECD"/>
<path d="M160.149 39.1419C160.149 39.1419 162.85 43.3219 166.323 43.7019C170.761 44.2719 173.848 42.3719 173.848 42.3719C173.848 42.3719 170.568 38.5719 167.866 37.6219C164.201 36.4819 160.149 39.1419 160.149 39.1419Z" fill="#CECECD"/>
<path d="M175.005 25.6519C175.005 25.6519 177.513 29.8319 176.742 33.8219C175.777 38.7619 173.076 41.2319 173.076 41.2319C173.076 41.2319 170.953 36.2919 171.146 33.4419C171.339 29.0719 175.005 25.6519 175.005 25.6519Z" fill="#CECECD"/>
<path d="M153.01 31.1621C153.01 31.1621 156.097 34.5821 159.57 34.3921C164.008 34.2021 166.516 31.7321 166.516 31.7321C166.516 31.7321 162.657 28.6921 160.149 28.3121C156.676 27.9321 153.01 31.1621 153.01 31.1621Z" fill="#CECECD"/>
<path d="M165.358 15.2019C165.358 15.2019 168.445 18.8119 168.252 22.8019C168.059 27.742 165.937 30.782 165.937 30.782C165.937 30.782 163.236 26.412 162.85 23.5619C162.271 19.3819 165.358 15.2019 165.358 15.2019Z" fill="#CECECD"/>
<path d="M144.907 24.8922C144.907 24.8922 148.38 27.7422 151.853 26.7922C155.904 25.6522 158.219 22.8022 158.219 22.8022C158.219 22.8022 154.168 20.5222 151.66 20.7122C147.994 20.9022 144.907 24.8922 144.907 24.8922Z" fill="#CECECD"/>
<path d="M154.361 6.84204C154.361 6.84204 157.834 9.69206 158.219 13.6821C158.798 18.6221 157.255 21.8521 157.255 21.8521C157.255 21.8521 153.975 18.2421 153.203 15.3921C152.238 11.4021 154.361 6.84204 154.361 6.84204Z" fill="#CECECD"/>
<path d="M136.417 20.1422C136.417 20.1422 140.276 22.2322 143.17 20.7122C147.029 18.8122 148.573 15.5822 148.573 15.5822C148.573 15.5822 144.328 14.0622 142.013 14.8222C138.54 15.7722 136.417 20.1422 136.417 20.1422Z" fill="#CECECD"/>
<path d="M142.591 0.761719C142.591 0.761719 146.257 2.85173 147.222 6.65175C148.379 11.2118 147.415 14.8218 147.415 14.8218C147.415 14.8218 143.749 11.9718 142.591 9.31176C141.241 5.70174 142.591 0.761719 142.591 0.761719Z" fill="#CECECD"/>
<path d="M142.013 11.972C142.013 11.972 139.119 13.492 136.61 12.352C133.523 10.832 131.98 8.36197 131.98 8.36197C131.98 8.36197 135.453 7.03197 137.382 7.60197C140.083 8.36197 142.013 11.972 142.013 11.972Z" fill="#CECECD"/>
<path d="M146.643 43.7021C138.733 41.9921 113.844 26.412 98.4086 27.362C82.7806 26.412 58.2774 41.8021 50.174 43.7021C44.5788 45.0321 39.7554 43.8921 39.7554 43.8921C45.7365 55.8622 46.3153 109.632 46.3153 109.632C47.8588 132.433 98.2156 153.713 98.4086 153.713C98.4086 153.713 148.765 132.433 150.502 109.632C150.502 109.632 151.081 55.8622 157.062 43.8921C157.062 43.7021 152.238 44.8421 146.643 43.7021Z" fill="#A32624"/>
<path d="M142.399 47.692C135.067 45.982 112.493 31.9219 98.2157 32.8719C83.9383 31.9219 61.5575 46.172 54.2258 47.692C49.2094 48.832 44.7719 47.692 44.7719 47.692C50.3671 58.5221 50.7529 107.732 50.7529 107.732C52.2964 128.632 98.2157 148.012 98.2157 148.012C98.2157 148.012 144.328 128.632 145.871 107.732C145.871 107.732 146.45 58.7121 151.853 47.692C152.046 47.882 147.608 48.832 142.399 47.692Z" fill="#CECECD"/>
<path d="M99.5662 35.9122C108.441 35.9122 120.404 41.6123 129.279 45.6023C133.909 47.8823 137.575 49.5923 139.89 49.9723C141.82 50.3523 143.749 50.5423 145.871 50.5423C146.836 50.5423 147.608 50.5423 148.187 50.5423C143.363 62.1324 142.784 104.883 142.784 106.783C141.434 125.593 101.303 143.263 98.2156 144.593C94.9357 143.263 55.1904 126.163 53.8398 106.973C53.8398 105.073 53.261 62.3223 48.4376 50.7323C49.0164 50.7323 49.7881 50.7323 50.7528 50.7323C52.8752 50.7323 54.8045 50.5423 56.7339 50.1623C59.0492 49.5923 62.715 47.8823 67.3455 45.7923C76.0277 41.6123 88.1828 36.1022 96.8651 36.1022C97.2509 36.1022 97.6368 36.1022 98.0227 36.1022C98.7944 36.1022 99.1803 35.9122 99.5662 35.9122ZM99.5662 35.5322C99.1803 35.5322 98.7944 35.5322 98.4086 35.5322C98.0227 35.5322 97.6368 35.5322 97.2509 35.5322C83.7453 35.5322 63.4868 48.2623 56.9269 49.7823C54.6116 50.3523 52.6822 50.3523 50.9458 50.3523C49.0164 50.3523 47.8588 50.1623 47.8588 50.1623C53.0681 60.6123 53.6469 106.973 53.6469 106.973C54.9975 126.733 96.2862 144.403 98.6015 145.163C98.6015 145.163 142.206 126.733 143.556 106.973C143.556 106.973 144.135 60.6123 149.344 50.1623C149.344 50.1623 148.187 50.3523 146.257 50.3523C144.714 50.3523 142.591 50.1623 140.276 49.7823C133.33 48.2623 113.072 35.5322 99.5662 35.5322Z" fill="black"/>
<path fill-rule="evenodd" clip-rule="evenodd" d="M98.4086 7.22192L100.145 12.922H106.319L101.303 16.532L103.232 22.232L98.4086 18.622L93.3922 22.232L95.3216 16.532L90.4982 12.922H96.4792L98.4086 7.22192Z" fill="#A32624"/>
<path fill-rule="evenodd" clip-rule="evenodd" d="M79.5007 14.0618L82.2019 17.6718L86.4465 16.3418L83.7454 19.9518L86.4465 23.5618L82.2019 22.2318L79.5007 25.8418V21.2818L75.2561 19.9518L79.5007 18.6218V14.0618Z" fill="#A32624"/>
<path fill-rule="evenodd" clip-rule="evenodd" d="M64.0656 20.522L66.9597 23.942L71.2043 22.232L68.8891 26.032L71.7831 29.452L67.3456 28.312L65.0303 32.112L64.6444 27.742L60.3998 26.792L64.4515 25.082L64.0656 20.522Z" fill="#A32624"/>
<path fill-rule="evenodd" clip-rule="evenodd" d="M116.738 14.0618L114.037 17.6718L109.792 16.3418L112.493 19.9518L109.792 23.5618L114.037 22.2318L116.738 25.8418V21.2818L120.982 19.9518L116.738 18.6218V14.0618Z" fill="#A32624"/>
<path fill-rule="evenodd" clip-rule="evenodd" d="M132.173 20.522L129.279 23.942L125.034 22.232L127.349 26.032L124.455 29.452L128.893 28.312L131.208 32.112L131.594 27.742L135.839 26.792L131.787 25.082L132.173 20.522Z" fill="#A32624"/>
<path fill-rule="evenodd" clip-rule="evenodd" d="M106.705 96.7124C106.512 97.0924 104.969 96.9024 104.583 96.9024C104.39 96.7124 104.197 96.1424 104.004 95.9524C103.232 94.8124 104.39 93.8624 103.425 91.9624C102.46 95.0024 104.004 95.9524 104.197 96.9024C103.425 97.0924 102.267 97.0924 101.689 96.7124C101.11 95.0024 101.303 95.7624 101.496 94.6224C101.496 93.2924 100.338 88.1623 100.338 88.1623C99.5663 87.5923 98.0228 87.9723 96.8652 87.9723C96.2863 87.9723 95.7075 87.9723 95.1287 88.1623C94.357 88.3523 94.164 88.3523 94.164 88.7323C94.164 88.7323 94.164 88.9223 94.164 89.1123C93.5852 88.9223 93.0064 88.5423 92.4276 88.1623C89.9194 87.2123 88.3759 85.6923 86.2536 85.6923C85.6747 86.8323 86.2536 87.9723 85.0959 88.7323C84.903 88.9223 84.903 88.7323 84.71 89.1123C84.1312 90.6324 85.4818 93.6724 86.0606 95.1924C86.4465 95.9524 86.6394 96.1424 87.0253 96.9024C86.8324 97.2824 86.2536 97.0924 85.6747 97.0924C84.903 97.0924 84.903 97.0924 84.3242 96.7124C84.1312 96.1424 84.1312 95.9524 83.7454 95.7624C83.9383 94.8124 84.1312 95.0024 83.7454 94.0524C83.1665 92.3424 82.9736 92.1524 82.3948 90.8224C82.2018 90.4424 82.0089 89.8723 81.816 89.3023C81.2372 90.4423 80.8513 91.7724 80.4654 92.9124C79.8866 96.1424 80.6583 95.5724 81.0442 96.7124C80.8513 97.2824 79.1148 96.7124 78.729 96.7124C78.1501 95.1924 78.1501 95.9524 78.1501 95.3824C78.3431 94.6224 78.3431 94.0524 78.3431 93.2924C78.3431 91.5824 78.3431 90.6324 78.536 89.1123C77.9572 89.3023 77.9572 89.4923 77.5713 89.6823C76.9925 88.3523 76.7996 88.3523 76.9925 86.4523C76.9925 85.3123 77.1855 84.1723 77.3784 83.2223C77.7643 81.1323 78.1501 78.8523 78.729 76.7623C80.0795 69.9223 83.7454 72.3923 91.8488 73.3423C93.0064 73.5323 93.9711 73.7223 95.1287 73.7223C97.444 73.9123 99.9522 73.7223 102.074 72.9623C102.653 72.7723 104.583 72.2023 104.969 72.0123C105.74 71.6323 106.126 70.8723 107.477 70.6823C109.02 70.4923 109.599 70.8723 110.95 70.8723C111.336 70.8723 111.914 70.6823 112.3 70.3023C113.844 69.1622 113.265 69.1623 114.23 69.9223C115.001 70.4923 115.773 70.6823 116.738 72.0123C117.51 73.1523 119.632 74.2923 119.632 75.0523C119.632 75.6223 119.246 75.6223 119.053 75.8123C118.667 76.1923 118.86 76.3823 118.281 76.3823C117.51 76.5723 117.702 76.3823 117.124 76.7623C113.844 78.8523 113.265 75.4323 110.178 83.4123C108.056 88.9223 107.091 87.5923 106.512 88.9223C106.319 89.4923 106.319 90.8224 106.126 91.3924C105.74 92.5324 105.74 92.9124 105.933 94.2424C105.933 95.9524 106.512 95.5724 106.705 96.7124Z" fill="black"/>
<path d="M80.4654 97.2823C79.8866 97.2823 78.9219 97.0923 78.9219 96.9023C78.9219 96.9023 78.9219 96.9023 78.7289 96.7123C78.536 95.9523 78.3431 95.7623 78.3431 95.7623C78.1501 95.5723 78.1501 95.5723 78.3431 95.3823C78.536 94.6223 78.536 94.0523 78.536 93.2923C78.536 91.7723 78.536 91.0123 78.7289 89.6823C78.7289 89.4923 78.7289 89.4923 78.7289 89.3023C78.536 89.3023 78.536 89.4923 78.3431 89.4923C78.1501 89.4923 78.1501 89.6823 77.9572 89.8723C77.9572 89.8723 77.9572 89.8723 77.7643 89.8723C77.7643 89.8723 77.7643 89.8723 77.5713 89.8723L77.3784 89.6823C76.7996 88.7323 76.7996 88.3523 76.7996 86.6423C76.7996 85.6923 76.9925 84.7423 77.1854 83.4123C77.3784 82.6523 77.3784 81.8923 77.5713 81.3223C77.7643 79.9923 78.1501 78.4722 78.3431 76.9522C79.5007 71.4422 82.2018 71.8222 87.2182 72.7722C88.5688 72.9622 90.1123 73.3422 91.8487 73.5322C92.2346 73.5322 92.8134 73.7222 93.1993 73.7222C93.7781 73.9122 94.3569 73.9122 95.1287 73.9122C97.8298 74.1022 99.9522 73.9122 102.074 73.1522C102.267 73.1522 102.267 73.1522 102.653 72.9622C103.425 72.7722 104.776 72.3922 104.969 72.2022C105.161 72.0122 105.354 71.8222 105.74 71.8222C106.126 71.4422 106.705 71.0622 107.67 70.8722C108.634 70.6822 109.213 70.8722 109.985 70.8722C110.371 70.8722 110.757 71.0622 111.143 71.0622C111.528 71.0622 112.107 70.8722 112.3 70.4922C112.686 70.3022 112.879 70.1122 113.072 69.9222C113.458 69.5422 113.651 69.5422 114.037 69.9222C114.23 70.1122 114.23 70.1122 114.423 70.3022C114.615 70.4922 114.808 70.4922 115.001 70.6822C115.58 71.0622 116.352 71.4422 116.931 72.3922C117.317 72.9622 117.895 73.3422 118.474 73.9122C119.246 74.4822 119.825 75.0522 119.825 75.6222C119.825 76.1922 119.632 76.1922 119.439 76.3822L119.246 76.5722L119.053 76.7622C118.86 76.9522 118.86 77.1422 118.281 77.1422C118.088 77.1422 117.895 77.1422 117.702 77.1422C117.51 77.1422 117.51 77.1422 117.124 77.3322C115.966 78.0922 115.194 78.0922 114.615 78.2822C113.265 78.4722 112.3 78.6622 110.371 83.9823C109.02 87.7823 108.056 88.3523 107.284 88.9223C107.091 89.1123 106.898 89.3023 106.705 89.4923C106.512 89.6823 106.512 90.0623 106.512 90.6323C106.512 91.0123 106.319 91.5823 106.319 91.9623C105.933 93.1023 105.933 93.4823 106.126 94.6223C106.126 95.3823 106.319 95.5723 106.512 95.7623C106.705 95.9523 106.898 96.1423 107.091 96.7123C107.091 96.7123 107.091 96.7123 107.091 96.9023C106.705 97.4723 104.969 97.0923 104.776 97.0923C104.776 97.0923 104.776 97.2823 104.583 97.2823C103.811 97.4723 102.653 97.4723 101.882 97.0923C101.882 97.0923 101.882 97.0923 101.689 96.9023V96.5223C101.496 95.5723 101.496 95.5723 101.496 95.3823C101.496 95.1923 101.496 95.1923 101.496 94.8123C101.496 93.6723 100.531 88.9223 100.338 88.3523C99.7592 87.9723 98.7945 88.1623 97.8298 88.1623C97.444 88.1623 97.251 88.1623 96.8651 88.1623C96.2863 88.1623 95.7075 88.1623 95.1287 88.3523H94.9358C94.3569 88.5423 94.3569 88.5423 94.164 88.7323C94.164 88.7323 94.164 88.9223 93.9711 89.1123C93.9711 89.1123 93.7781 89.3023 93.7781 89.1123C93.3923 89.1123 93.1993 88.9223 92.8134 88.7323C92.6205 88.5423 92.2346 88.3523 92.0417 88.3523C91.077 87.9723 90.3052 87.5923 89.5335 87.2123C88.3759 86.6423 87.4112 86.0723 86.0606 86.0723C85.8677 86.4523 85.8677 86.8323 85.8677 87.2123C85.8677 87.7823 85.6747 88.5423 85.0959 88.9223C85.0959 88.9223 84.903 88.9223 84.903 89.1123C84.903 89.1123 84.903 89.1123 84.71 89.3023C84.1312 90.6323 85.2888 93.4823 85.8677 95.0023L86.0606 95.3823C86.2535 95.7623 86.2535 95.9523 86.4465 96.1423C86.6394 96.3323 86.8324 96.7123 87.0253 97.0923C87.0253 97.0923 87.0253 97.0923 87.0253 97.2823C86.8324 97.6623 86.2535 97.6623 85.8677 97.6623H85.6747C85.4818 97.6623 85.4818 97.6623 85.2888 97.6623C84.903 97.6623 84.71 97.6623 84.3242 97.2823C84.3242 97.0923 84.3242 97.0923 84.1312 96.9023C84.1312 96.5223 84.1312 96.5223 83.7453 96.3323V96.1423V95.9523C83.9383 95.3823 83.9383 95.3823 83.5524 94.4323C83.1665 93.2923 82.9736 92.9123 82.7806 92.5323C82.5877 92.1523 82.3948 91.9623 82.2018 91.3923C82.2018 91.2023 82.0089 91.0123 82.0089 90.8223C82.0089 90.6323 81.816 90.4423 81.816 90.2523C81.2371 91.3923 80.8513 92.5323 80.6583 93.4823C80.2724 95.5723 80.4654 95.9523 80.8513 96.3323C81.0442 96.5223 81.2371 96.7123 81.2371 97.0923C81.2371 97.0923 81.2371 97.0923 81.2371 97.2823C81.2371 97.2823 81.0442 97.4723 80.8513 97.6623C80.8513 97.2823 80.6583 97.2823 80.4654 97.2823ZM79.1148 96.7123C79.5007 96.9023 80.4654 97.0923 80.8513 96.9023C80.6583 96.5223 80.6583 96.3323 80.4654 96.1423C80.0795 95.5723 79.6936 95.1923 80.2725 92.9123C80.4654 91.7723 81.0442 90.4423 81.623 89.3023C81.623 89.3023 81.623 89.1123 81.816 89.1123C81.816 89.1123 82.0089 89.1123 82.0089 89.3023C82.2018 89.4923 82.2018 89.8723 82.3948 90.2523C82.3948 90.4423 82.5877 90.6323 82.5877 90.8223C82.7806 91.3923 82.9736 91.5823 83.1665 91.9623C83.3595 92.5323 83.7453 92.9123 83.9383 94.0523C84.3242 95.0023 84.3242 95.0023 84.1312 95.7623C84.1312 95.7623 84.1312 95.7623 84.1312 95.9523C84.5171 96.1423 84.5171 96.3323 84.5171 96.7123C84.5171 96.7123 84.5171 96.9023 84.5171 97.0923C84.71 97.2823 84.903 97.2823 85.2888 97.2823C85.4818 97.2823 85.4818 97.2823 85.6747 97.2823C85.6747 97.2823 85.8677 97.2823 86.0606 97.2823C86.4465 97.2823 86.8323 97.2823 86.8323 97.2823C86.6394 96.9023 86.6394 96.7123 86.4465 96.5223C86.2535 96.3323 86.0606 96.1423 86.0606 95.7623L85.8677 95.3823C85.0959 93.6723 84.1312 91.0123 84.71 89.4923C84.71 89.3023 84.903 89.3023 85.0959 89.1123C85.0959 89.1123 85.0959 89.1123 85.2888 89.1123C85.8677 88.7323 85.8677 88.1623 86.0606 87.5923C86.0606 87.2123 86.2535 86.6423 86.4465 86.2623C86.4465 86.2623 86.4465 86.0723 86.6394 86.0723C87.99 86.0723 89.1476 86.6423 90.3052 87.2123C91.077 87.5923 91.8487 87.9723 92.8134 88.3523C93.1993 88.5423 93.3923 88.7323 93.7781 88.7323C93.9711 88.9223 94.3569 89.1123 94.5499 89.1123C94.5499 89.1123 94.5499 89.1123 94.5499 88.9223C94.7428 88.5423 94.7428 88.5423 95.5146 88.3523H95.7075C96.2863 88.1623 96.8651 88.1623 97.6369 88.1623C97.8298 88.1623 98.2157 88.1623 98.6016 88.1623C99.5663 88.1623 100.531 87.9723 101.303 88.3523C101.496 88.5423 102.46 93.8623 102.46 95.0023C102.46 95.3823 102.46 95.5723 102.46 95.5723C102.46 95.7623 102.46 95.7623 102.653 96.5223V96.7123C103.232 96.9023 104.197 96.9023 104.776 96.9023C104.776 96.7123 104.583 96.5223 104.583 96.3323C104.197 95.3823 103.425 94.2423 104.197 91.9623C104.197 91.9623 104.197 91.7723 104.39 91.7723C104.39 91.7723 104.583 91.7723 104.583 91.9623C105.161 93.1023 104.969 93.6723 104.969 94.4323C104.969 95.0023 104.776 95.3823 105.161 95.9523C105.161 96.1423 105.354 96.3323 105.354 96.5223C105.354 96.7123 105.547 96.9023 105.547 97.0923C106.126 97.2823 107.091 97.2823 107.477 97.0923C107.284 96.7123 107.091 96.5223 107.091 96.3323C106.898 96.1423 106.705 95.7623 106.512 95.0023C106.512 93.6723 106.512 93.2923 106.705 92.1523C106.705 91.7723 106.898 91.3923 106.898 91.0123C106.898 90.4423 107.091 89.8723 107.091 89.6823C107.284 89.3023 107.477 89.1123 107.863 88.9223C108.441 88.5423 109.406 87.9723 110.757 84.1723C112.879 78.6623 113.844 78.4722 115.194 78.2822C115.773 78.0922 116.545 78.0922 117.702 77.3322C118.088 77.1422 118.281 77.1422 118.474 77.1422C118.667 77.1422 118.667 77.1422 119.053 77.1422C119.439 77.1422 119.439 76.9522 119.632 76.7622L119.825 76.5722C120.018 76.3822 120.018 76.3822 120.211 76.3822C120.404 76.1922 120.404 76.1922 120.404 75.8122C120.404 75.4322 119.825 74.8622 119.053 74.2922C118.474 73.7222 117.895 73.3422 117.51 72.7722C116.931 71.8222 116.352 71.4422 115.773 71.0622C115.58 70.8722 115.387 70.8722 115.194 70.6822C115.001 70.4922 114.808 70.3022 114.615 70.3022L114.423 70.1122C114.423 70.1122 114.23 70.3022 114.037 70.3022C113.844 70.4922 113.651 70.6822 113.265 70.8722C112.879 71.0622 112.3 71.4422 111.721 71.4422C111.336 71.4422 110.95 71.4422 110.564 71.2522C109.985 71.2522 109.406 71.0622 108.441 71.2522C107.67 71.4422 107.091 71.6322 106.705 72.0122C106.512 72.2022 106.319 72.3922 105.933 72.5822C105.74 72.7722 104.583 73.1522 103.618 73.3422C103.425 73.3422 103.232 73.5322 103.039 73.5322C101.11 74.1022 98.7945 74.4822 96.0934 74.2922C95.5146 74.2922 94.7428 74.1022 94.164 74.1022C93.7781 74.1022 93.1993 73.9122 92.8134 73.9122C91.077 73.7222 89.5335 73.3422 88.1829 73.1522C83.1665 72.2022 80.8513 71.8222 79.8866 77.1422C79.5007 78.6623 79.3078 79.9923 79.1148 81.3223C78.9219 82.0823 78.9219 82.8423 78.7289 83.4123C78.536 84.7423 78.3431 85.6923 78.3431 86.6423C78.1501 88.1623 78.3431 88.5423 78.7289 89.4923V89.6823L78.9219 89.4923C79.1148 89.3023 79.3078 89.3023 79.6936 89.1123H79.8866C79.8866 89.1123 79.8866 89.1123 79.8866 89.3023C79.8866 89.4923 79.8866 89.6823 79.8866 89.8723C79.6936 91.0123 79.6936 91.9623 79.6936 93.4823C79.6936 94.2423 79.6936 94.8123 79.5007 95.7623V95.9523C78.536 95.7623 78.7289 95.9523 79.1148 96.7123ZM103.618 92.3423C103.425 93.4823 103.425 94.4323 103.811 95.1923C103.811 94.8123 103.811 94.6223 103.811 94.2423C103.811 93.6723 103.811 93.1023 103.618 92.3423Z" fill="black"/>
<path d="M64.6445 49.2119C64.8375 49.2119 64.8375 49.2119 64.8375 49.2119C65.0304 49.2119 65.4163 49.2119 65.8022 49.2119C65.9951 49.2119 66.188 49.2119 66.381 49.2119C66.5739 49.2119 66.7669 49.2119 67.1527 49.2119H68.6962C69.0821 49.2119 69.468 49.2119 70.0468 49.2119C71.0115 49.2119 71.5903 49.4019 72.1691 49.5919C72.7479 49.7819 73.1338 50.1619 73.3268 50.7319C73.5197 51.3019 73.7126 51.8719 73.7126 52.2519C73.7126 53.2019 73.3268 53.9619 72.7479 54.5319C72.1691 55.1019 71.2044 55.4819 70.2397 55.4819C69.8539 55.4819 69.6609 55.4819 69.468 55.4819C69.275 55.4819 69.0821 55.2919 68.6962 55.1019C68.5033 55.1019 68.5033 54.9119 68.5033 54.9119H68.6962C68.8892 54.9119 69.0821 55.1019 69.468 55.1019C69.8539 55.1019 70.4327 54.9119 70.8186 54.7219C71.2044 54.5319 71.5903 54.1519 71.7832 53.7719C71.9762 53.3919 72.1691 53.0119 72.1691 52.4419C72.1691 52.0619 71.9762 51.4919 71.7832 51.1119C71.5903 50.7319 71.2044 50.3519 71.0115 50.1619C70.8186 49.9719 70.4327 49.9719 70.0468 49.7819C69.6609 49.5919 69.275 49.5919 69.0821 49.5919C68.3104 49.5919 67.9245 49.5919 67.7315 49.7819V49.9719V50.9219V51.1119C67.7315 51.3019 67.7315 51.4919 67.7315 51.8719C67.7315 53.0119 67.7315 53.7719 67.7315 53.9619V54.5319L67.9245 58.522C67.9245 58.522 67.9245 58.712 67.9245 58.902C67.9245 59.092 67.9245 59.282 67.9245 59.282C67.9245 59.472 67.9245 59.852 67.9245 59.852C68.1174 59.852 68.5033 60.042 69.0821 60.042C69.468 60.042 69.468 60.232 69.6609 60.232C69.6609 60.232 69.6609 60.232 69.8539 60.422V60.612H69.6609C69.6609 60.612 69.468 60.612 69.0821 60.612C68.5033 60.612 68.1174 60.612 67.9245 60.612H66.381H65.4163C65.4163 60.612 65.2234 60.612 64.8375 60.612V60.422L65.9951 60.232C66.188 60.232 66.381 60.042 66.381 60.042C66.381 60.042 66.381 59.852 66.381 59.662C66.381 59.662 66.381 59.472 66.381 59.282C66.381 59.092 66.381 59.092 66.381 58.712C66.381 57.952 66.381 56.6219 66.381 54.3419C66.381 53.3919 66.381 52.2519 66.381 51.3019V51.1119C66.381 50.7319 66.381 50.3519 66.188 50.3519C65.9951 50.1619 65.4163 49.9719 64.6445 49.9719C64.6445 49.4019 64.6445 49.4019 64.6445 49.2119Z" fill="black"/>
<path d="M69.6608 60.422C69.6608 60.422 69.4679 60.422 69.082 60.422C68.5032 60.422 68.1173 60.422 67.9244 60.422H66.3809H65.4162C65.4162 60.422 65.2232 60.422 64.8374 60.422H64.6444V59.852L65.995 59.662C66.1879 59.662 66.1879 59.662 66.1879 59.472C66.1879 59.472 66.1879 59.472 66.1879 59.092C66.1879 59.092 66.1879 58.902 66.1879 58.712C66.1879 58.522 66.1879 58.522 66.1879 58.142C66.1879 57.572 66.1879 56.052 66.1879 53.772C66.1879 52.822 66.1879 51.682 66.1879 50.732V50.542C66.1879 49.972 65.995 49.972 65.995 49.972C65.8021 49.782 65.4162 49.782 64.4515 49.592H64.2585V49.402V49.212C64.4515 49.212 64.4515 49.212 64.4515 49.212C64.6444 49.212 65.0303 49.212 65.4162 49.212C65.6091 49.212 65.8021 49.212 65.8021 49.212C65.995 49.212 66.1879 49.212 66.5738 49.212H68.1173C68.5032 49.212 68.8891 49.212 69.4679 49.212C70.4326 49.212 71.2043 49.402 71.7831 49.592C72.362 49.782 72.7478 50.352 73.1337 50.922C73.5196 51.492 73.5196 52.062 73.5196 52.632C73.5196 53.582 73.1337 54.342 72.5549 55.102C71.9761 55.862 71.0114 56.052 69.8538 56.052C69.4679 56.052 69.2749 56.052 69.082 55.862C68.8891 55.862 68.6961 55.672 68.3103 55.482C68.1173 55.292 68.1173 55.292 68.1173 55.102L68.3103 54.912C68.5032 54.912 68.5032 54.912 68.6961 54.912C68.8891 54.912 69.082 54.912 69.4679 54.912C69.8538 54.912 70.2396 54.722 70.6255 54.532C71.0114 54.342 71.2043 53.962 71.3973 53.582C71.5902 53.202 71.7831 52.822 71.7831 52.442C71.7831 52.062 71.5902 51.682 71.3973 51.302C71.2043 50.922 71.0114 50.542 70.6255 50.352C70.4326 50.162 70.2396 50.162 69.8538 49.972C69.4679 49.972 69.082 49.782 68.8891 49.782C68.1173 49.782 67.9244 49.782 67.7314 49.782V50.732V50.922C67.7314 51.112 67.7314 51.302 67.7314 51.682C67.7314 52.822 67.7314 53.582 67.7314 53.772V54.342L67.9244 58.142C67.9244 58.142 67.9244 58.332 67.9244 58.522C67.9244 58.712 67.9244 58.712 67.9244 58.902C67.9244 59.092 67.9244 59.282 67.9244 59.472C68.1173 59.472 68.5032 59.662 69.082 59.662C69.8538 59.662 69.8538 59.662 69.8538 59.662C69.8538 59.662 70.0467 59.662 70.0467 59.852C70.0467 60.042 70.0467 60.042 69.8538 60.042C69.8538 60.422 69.8538 60.422 69.6608 60.422ZM67.9244 59.852C68.3103 59.852 68.6961 59.852 69.082 59.852C69.4679 59.852 69.4679 59.852 69.4679 59.852C69.4679 59.852 69.2749 59.852 69.082 59.662C68.3102 59.472 67.9244 59.472 67.9244 59.472C67.9244 59.282 67.9244 59.092 67.9244 58.712C67.9244 58.522 67.9244 58.522 67.9244 58.332C67.9244 58.142 67.9244 58.142 67.9244 57.952L67.7314 54.152V53.772C67.7314 53.392 67.7314 52.822 67.7314 51.682C67.7314 51.302 67.7314 51.112 67.7314 50.922V50.732V49.782V49.592C67.9244 49.592 68.1173 49.402 69.082 49.402C69.2749 49.402 69.6608 49.402 70.0467 49.592C70.4326 49.782 70.8184 49.782 71.0114 49.972C71.3973 50.162 71.7831 50.542 71.9761 51.112C72.169 51.492 72.362 52.062 72.362 52.442C72.362 53.012 72.169 53.392 71.9761 53.772C71.7831 54.152 71.3973 54.532 71.0114 54.722C70.6255 54.912 70.0467 55.102 69.6608 55.102C69.4679 55.102 69.2749 55.102 69.082 55.102C69.2749 55.292 69.4679 55.292 69.6608 55.292C69.8538 55.292 70.0467 55.292 70.4326 55.292C71.3973 55.292 72.3619 54.912 72.9408 54.342C73.5196 53.772 73.9055 53.012 73.9055 52.062C73.9055 51.492 73.7125 51.112 73.5196 50.542C73.3266 49.972 72.9408 49.592 72.362 49.402C71.7831 49.212 71.2043 49.022 70.2396 49.022C69.6608 49.022 69.2749 49.022 68.8891 49.022H67.3456C66.9597 49.022 66.5738 49.022 66.5738 49.022C66.5738 49.022 66.3809 49.022 65.995 49.022C65.6091 49.022 65.2232 49.022 65.0303 49.022C65.8021 49.212 66.3809 49.212 66.5738 49.592C66.7667 49.782 66.7667 49.972 66.7667 50.542V50.732C66.7667 51.872 66.7667 52.822 66.7667 53.772C66.7667 55.862 66.7667 57.382 66.7667 58.142C66.7667 58.332 66.7667 58.522 66.7667 58.712C66.7667 58.902 66.7667 58.902 66.7667 59.092C66.7667 59.282 66.7667 59.472 66.5738 59.662C66.5738 59.662 66.3809 59.852 66.1879 59.852H65.8021H66.5738H67.9244Z" fill="#1D1E1C"/>
<path d="M74.6773 59.8519C75.4491 59.8519 75.8349 59.6619 75.8349 59.6619C75.8349 59.6619 76.0279 59.6619 76.0279 59.4719C76.0279 59.2819 76.0279 58.9019 76.0279 58.1419C76.0279 57.9519 76.0279 57.7618 76.0279 57.5718V56.8118V55.8618V54.1518V52.8218C76.0279 52.2518 76.0279 52.0618 75.8349 51.8718C75.8349 51.6818 75.4491 51.6818 75.2561 51.6818C74.8702 51.6818 74.6773 51.6818 74.6773 51.4918C74.6773 51.4918 74.6773 51.4918 74.6773 51.3018C74.6773 51.3018 74.6773 51.3018 74.6773 51.1118C74.6773 51.1118 74.8703 51.1118 75.0632 51.1118C75.0632 51.1118 75.0632 51.1118 75.2561 51.1118C75.4491 51.1118 75.4491 51.1118 75.642 51.1118H76.2208H78.1502C79.1149 51.1118 79.8866 51.1118 80.2725 51.3018C80.6584 51.4918 81.0443 51.6818 81.2372 52.0618C81.4302 52.4418 81.6231 52.8218 81.6231 53.2018C81.6231 53.9618 81.2372 54.7218 80.2725 55.1018C80.0796 55.1018 80.0796 55.2918 79.8866 55.2918C80.0796 55.6718 80.2725 56.0518 80.4655 56.4318L81.4301 57.9518C81.816 58.5219 82.009 58.9019 82.2019 58.9019C82.3948 59.0919 82.5878 59.0919 82.7807 59.2819C82.9737 59.2819 83.3595 59.4719 83.7454 59.4719C83.7454 59.4719 83.7454 59.4719 83.7454 59.6619C83.7454 59.6619 83.7454 59.6619 83.7454 59.8519C83.1666 59.8519 82.3948 59.8519 81.4301 59.8519H81.2372C80.8513 59.2819 80.4655 58.5219 80.0796 57.7618L79.1149 55.8618C78.729 55.8618 78.5361 55.8618 78.5361 55.8618C78.5361 55.8618 78.3431 55.8618 78.1502 55.8618H77.5714H77.3784C77.3784 56.0518 77.3784 56.2418 77.3784 56.8118V59.0919C77.3784 59.0919 77.3784 59.2819 77.3784 59.4719L77.5714 59.6619C77.5714 59.6619 77.9573 59.8519 78.3431 59.8519H78.5361V60.0419C78.3431 60.0419 78.3431 60.0419 78.3431 60.0419C77.9573 60.0419 77.5714 60.0419 77.3784 60.0419H77.1855H76.2208H75.2561C75.2561 60.0419 75.0632 60.0419 74.6773 60.0419H74.4844L74.6773 59.8519ZM77.3784 55.2918C77.5714 55.2918 77.5714 55.2918 77.5714 55.2918C77.9573 55.2918 78.3431 55.2918 78.729 55.1018C79.1149 55.1018 79.3078 54.9118 79.5008 54.7218C79.6937 54.5318 79.8866 54.3418 79.8866 54.1518C80.0796 53.9618 80.0796 53.5818 80.0796 53.3918C80.0796 53.0118 79.8866 52.8218 79.6937 52.4418C79.5008 52.2518 79.3078 51.8718 78.922 51.6818C78.5361 51.4918 78.1502 51.4918 77.5714 51.4918C77.3784 51.4918 77.3784 51.4918 76.9926 51.4918C76.9926 51.6818 76.9926 51.8718 76.9926 52.0618V53.3918V53.9618C77.3784 54.3418 77.3784 54.7218 77.3784 55.2918Z" fill="black"/>
<path d="M81.2372 60.232H81.0443C80.6584 59.662 80.2725 58.902 79.8866 58.142L78.922 56.242C78.729 56.052 78.729 55.862 78.729 55.862H78.5361H77.5714C77.5714 56.052 77.5714 56.242 77.5714 56.622V58.902C77.5714 58.902 77.5714 59.092 77.5714 59.282C77.5714 59.282 77.5714 59.282 77.7643 59.472C77.7643 59.472 77.9573 59.472 78.5361 59.662H78.922C78.922 59.662 78.922 59.852 78.922 60.042V60.232H78.729C78.5361 60.232 78.5361 60.232 78.3431 60.232C77.9573 60.232 77.5714 60.232 77.3784 60.232H77.1855H76.2208H75.2561C75.2561 60.232 75.0632 60.232 74.6773 60.232H74.4844V60.042C74.4844 60.042 74.4844 59.852 74.6773 59.852C75.642 59.662 75.8349 59.662 75.8349 59.662C75.8349 59.472 75.8349 59.092 75.8349 58.332C75.8349 58.142 75.8349 57.952 75.8349 57.762V57.002V56.052V54.342V53.012C75.8349 52.252 75.8349 52.252 75.8349 52.252C75.8349 52.252 75.642 52.062 75.2561 52.062C74.6773 52.062 74.6773 51.872 74.6773 51.872L74.4844 51.682V51.492C74.4844 51.492 74.6773 51.302 74.8702 51.302C74.8702 51.302 74.8702 51.302 75.0632 51.302C75.2561 51.302 75.2561 51.302 75.4491 51.302H76.0279H77.9573C79.1149 51.302 79.6937 51.302 80.2725 51.492C80.6584 51.682 81.0443 51.872 81.4301 52.252C81.6231 52.632 81.816 53.012 81.816 53.582C81.816 54.532 81.2372 55.292 80.2725 55.672C80.2725 55.672 80.0796 55.672 80.0796 55.862C80.2725 56.242 80.4655 56.432 80.6584 56.812L81.6231 58.332C82.009 58.902 82.2019 59.282 82.3948 59.282C82.5878 59.472 82.5878 59.472 82.7807 59.662C82.9737 59.662 83.3595 59.852 83.7454 59.852H83.9383V60.042C83.9383 60.042 83.9383 60.042 83.9383 60.232C83.9383 60.232 83.9383 60.232 83.9383 60.422V60.612H83.7454C82.9737 60.232 82.2019 60.232 81.2372 60.232ZM81.2372 59.852C82.009 59.852 82.5878 59.852 82.9737 59.852C82.7807 59.852 82.5878 59.662 82.5878 59.662C82.3948 59.472 82.2019 59.472 82.009 59.282C81.816 59.092 81.6231 58.712 81.2372 58.142L80.2725 56.622C80.0796 56.242 79.6937 55.672 79.6937 55.482V55.292H79.8866C80.0796 55.292 80.0796 55.102 80.2725 55.102C81.0443 54.722 81.6231 54.152 81.6231 53.392C81.6231 53.012 81.4302 52.632 81.2372 52.252C81.0443 51.872 80.6584 51.682 80.2725 51.492C79.8866 51.302 79.1149 51.302 78.1502 51.302H75.642H75.4491C75.2561 51.302 75.2561 51.302 75.2561 51.302C75.2561 51.302 75.4491 51.302 75.642 51.302C76.0279 51.302 76.2208 51.492 76.4138 51.682C76.4138 51.872 76.6067 52.062 76.6067 52.822V54.152V55.862V56.812V57.572C76.6067 57.762 76.6067 57.952 76.6067 58.142C76.6067 58.902 76.6067 59.282 76.6067 59.472V59.662C76.6067 59.852 76.4138 59.852 76.4138 60.042C76.4138 60.042 76.4138 60.042 76.2208 60.042H76.7996H77.7643H77.9573C78.1502 60.042 78.3431 60.042 78.5361 60.042C77.5714 59.852 77.5714 59.662 77.3784 59.662C77.1855 59.662 77.1855 59.472 77.1855 59.282C77.1855 59.092 77.1855 58.902 77.1855 58.902V56.622C77.1855 56.242 77.1855 55.862 77.1855 55.672V55.482H77.5714H78.1502C78.3431 55.482 78.5361 55.482 78.5361 55.482C78.729 55.482 78.729 55.672 78.922 55.862L79.8866 57.762C80.4655 58.712 80.8513 59.282 81.2372 59.852ZM77.5714 55.482H77.3784H77.1855V55.292C77.1855 54.722 77.1855 54.342 77.1855 53.962V53.392V52.062C77.1855 51.872 77.1855 51.682 77.1855 51.492V51.302H77.3784C77.5714 51.302 77.7643 51.302 77.9573 51.302C78.5361 51.302 78.922 51.492 79.3078 51.682C79.6937 51.872 80.0796 52.062 80.0796 52.442C80.2725 52.822 80.4655 53.202 80.4655 53.582C80.4655 53.962 80.4655 54.152 80.2725 54.532C80.0796 54.912 79.8866 55.102 79.6937 55.292C79.5008 55.482 79.1149 55.482 78.922 55.672C78.3431 55.482 77.9573 55.482 77.5714 55.482ZM77.5714 55.102C77.9573 55.102 78.3431 55.102 78.729 54.912C78.9219 54.912 79.3078 54.722 79.5008 54.722C79.6937 54.532 79.8866 54.342 79.8866 54.152C80.0796 53.962 80.0796 53.582 80.0796 53.392C80.0796 53.202 80.0796 52.822 79.8866 52.442C79.6937 52.252 79.5008 52.062 79.1149 51.872C78.729 51.682 78.3431 51.682 77.9573 51.682C77.9573 51.682 77.7643 51.682 77.5714 51.682C77.5714 51.872 77.5714 52.062 77.5714 52.062V53.392V53.962C77.5714 54.342 77.5714 54.722 77.5714 55.102Z" fill="#1D1E1C"/>
<path d="M83.7454 59.8519C83.9383 59.6619 84.1312 59.6619 84.3242 59.6619C84.7101 59.6619 85.0959 59.6619 85.0959 59.4719C85.0959 59.4719 85.2889 59.2819 85.2889 59.0919V58.5219V56.8118V56.0518V54.3418V52.4418C85.2889 52.0618 85.2889 51.6818 85.2889 51.6818C85.2889 51.6818 84.903 51.4918 84.5171 51.4918C84.3242 51.4918 84.1312 51.4918 84.1312 51.4918C84.1312 51.4918 84.1312 51.4918 84.1312 51.3018C84.1312 51.3018 84.1312 51.3018 84.1312 51.1118C84.1312 51.1118 84.1312 51.1118 84.3242 51.1118H84.5171C84.71 51.1118 85.0959 51.1118 85.2889 51.1118H85.8677H87.0253C87.6041 51.1118 88.1829 51.1118 88.3759 51.1118C88.7618 51.1118 88.9547 51.1118 89.1476 51.1118C89.3406 51.1118 89.5335 51.1118 89.9194 51.1118H90.8841H91.077H91.6558C91.6558 51.1118 91.6558 51.1118 91.6558 51.3018C91.6558 51.3018 91.6558 51.4918 91.6558 51.6818C91.6558 51.8718 91.6558 51.8718 91.6558 51.8718C91.6558 52.4418 91.6558 52.8218 91.6558 53.0118C91.6558 53.0118 91.6558 53.0118 91.4629 53.0118C91.4629 53.0118 91.2699 52.8218 91.2699 52.6318C91.2699 52.4418 91.077 52.0618 90.8841 51.8718C90.6911 51.6818 90.6911 51.4918 90.6911 51.4918C90.6911 51.4918 90.4982 51.4918 90.3053 51.4918C90.3053 51.4918 90.1123 51.4918 89.7264 51.4918C89.5335 51.4918 89.5335 51.4918 89.3406 51.4918H87.4112H87.2182C87.0253 51.4918 86.8324 51.4918 86.8324 51.6818C86.8324 51.8718 86.6394 52.0618 86.6394 52.6318C86.6394 52.6318 86.6394 53.2018 86.6394 54.3418V55.2918H86.8324H87.0253C87.0253 55.2918 87.2182 55.2918 87.4112 55.2918C87.6041 55.2918 87.7971 55.2918 87.99 55.2918H88.1829C88.7618 55.2918 89.3406 55.2918 90.1123 55.2918C90.3053 55.2918 90.4982 55.2918 90.4982 55.1018C90.4982 55.1018 90.6911 54.7218 90.6911 54.5318C90.6911 54.1518 90.8841 53.9618 90.8841 53.9618H91.077C91.077 53.9618 91.077 53.9618 91.077 54.1518C91.077 54.1518 91.077 54.1518 91.077 54.3418C91.077 54.5318 91.077 55.1018 91.077 55.8618C91.077 56.0518 91.077 56.4318 91.077 56.6218C91.077 57.0018 91.077 57.0018 91.077 57.1918V57.3818C91.077 57.1918 90.8841 57.0018 90.8841 56.8118C90.6911 56.4318 90.6911 56.0518 90.4982 55.8618C90.3053 55.6718 90.1123 55.6718 89.9194 55.6718C89.9194 55.6718 89.7264 55.6718 89.5335 55.6718C89.3406 55.6718 89.1476 55.6718 88.7618 55.6718H88.3759C87.7971 55.6718 87.2183 55.6718 87.0253 55.6718V55.8618V57.1918V57.9519V58.7119C87.0253 59.0919 87.0253 59.4719 87.0253 59.4719C87.0253 59.6619 87.2183 59.6619 87.6041 59.6619H87.99C87.99 59.6619 88.1829 59.6619 88.3759 59.6619C88.5688 59.6619 88.9547 59.6619 89.3406 59.6619C90.3053 59.6619 90.8841 59.6619 91.077 59.4719C91.4629 59.4719 91.6558 59.2819 91.8488 59.0919C92.0417 58.9019 92.2346 58.5219 92.6205 57.7618C92.6205 57.5718 92.8135 57.5718 92.8135 57.5718C92.8135 57.5718 92.8135 57.5718 93.0064 57.5718C92.8135 57.9518 92.8135 58.3319 92.8135 58.5219C92.8135 58.9019 92.8135 59.0919 92.8135 59.4719C92.8135 59.6619 92.8135 59.6619 92.6205 59.8519H92.4276H90.4982H89.5335H87.4112H86.6394C86.4465 59.8519 86.4465 59.8519 86.2536 59.8519C85.4818 59.8519 84.7101 59.8519 84.3242 59.8519C83.7454 60.2319 83.7454 60.2319 83.7454 59.8519C83.7454 60.0419 83.7454 60.0419 83.7454 59.8519Z" fill="black"/>
<path d="M83.7453 60.2322C83.5523 60.2322 83.5523 60.2322 83.5523 60.2322L83.3594 60.0422V59.8522C83.3594 59.8522 83.5523 59.8522 83.5523 59.6622C83.5523 59.6622 83.7452 59.6622 83.9382 59.6622C84.3241 59.6622 84.517 59.6622 84.7099 59.6622V59.4722V58.9022V57.1922V56.4322V54.7222V52.8222C84.7099 52.2522 84.7099 52.2522 84.7099 52.0622C84.7099 52.0622 84.517 52.0622 84.1311 52.0622C83.9382 52.0622 83.7452 52.0622 83.5523 52.0622C83.3594 52.0622 83.3594 51.8722 83.3594 51.8722V51.6822C83.5523 51.6822 83.5523 51.6822 83.7453 51.6822C83.9382 51.6822 84.3241 51.6822 84.517 51.6822H85.0958H86.2534C86.8323 51.6822 87.4111 51.6822 87.604 51.6822C87.9899 51.6822 88.1828 51.6822 88.3758 51.6822C88.5687 51.6822 88.7616 51.6822 89.1475 51.6822H90.1122H90.3051H90.884H91.0769V51.8722C91.0769 51.8722 91.0769 52.0622 91.0769 52.2522C91.0769 52.4422 91.0769 52.4422 91.0769 52.4422C91.0769 52.8222 91.0769 53.3922 91.0769 53.5822C91.0769 53.5822 91.0769 53.7722 90.884 53.7722H90.691C90.691 53.7722 90.4981 53.5822 90.4981 53.2022C90.4981 53.0122 90.3052 52.8222 90.1122 52.4422C89.9193 52.2522 89.9193 52.2522 89.9193 52.2522C89.9193 52.2522 89.9193 52.2522 89.5334 52.2522C89.5334 52.2522 89.3405 52.2522 88.9546 52.2522C88.7616 52.2522 88.7616 52.2522 88.5687 52.2522H86.4464C86.2534 52.2522 86.0605 52.2522 86.0605 52.2522C86.0605 52.2522 86.0605 52.4422 86.0605 53.2022C86.0605 53.2022 86.0605 53.3922 86.0605 54.9122V55.6722H86.2534C86.2534 55.6722 86.4464 55.6722 86.6393 55.6722C86.8323 55.6722 87.0252 55.6722 87.2181 55.6722C87.2181 55.6722 87.2181 55.6722 87.4111 55.6722C87.9899 55.6722 88.5687 55.6722 89.3405 55.6722C89.5334 55.6722 89.7263 55.6722 89.7263 55.6722C89.7263 55.6722 89.7263 55.6722 89.9193 55.1022C89.9193 54.9122 89.9193 54.5322 90.3051 54.3422H90.4981V54.5322V54.7222C90.4981 54.9122 90.4981 55.2922 90.4981 56.2422C90.4981 56.4322 90.4981 56.8122 90.4981 57.0022C90.4981 57.3822 90.4981 57.3822 90.4981 57.5722V57.7622H90.3051H90.1122C90.1122 57.5722 89.9193 57.3822 89.9193 57.1922C89.7263 56.6222 89.7263 56.4322 89.5334 56.4322C89.5334 55.8622 89.3405 55.8622 89.1475 55.8622C89.1475 55.8622 88.9546 55.8622 88.7616 55.8622C88.5687 55.8622 88.3758 55.8622 87.9899 55.8622H87.604C87.0252 55.8622 86.6393 55.8622 86.4464 55.8622V57.1922V57.9522V58.7122C86.4464 59.2822 86.4464 59.4722 86.4464 59.4722C86.4464 59.4722 86.4464 59.4722 86.8323 59.4722H87.2181C87.2181 59.4722 87.4111 59.4722 87.604 59.4722C87.797 59.4722 88.1828 59.4722 88.5687 59.4722C89.5334 59.4722 90.1122 59.4722 90.3051 59.2822C90.4981 59.2822 90.884 59.0922 90.884 58.9022C91.0769 58.7122 91.2698 58.3322 91.6557 57.7622C91.6557 57.5722 91.8487 57.3822 92.0416 57.3822H92.2345H92.4275V57.5722C92.2345 57.9522 92.2345 58.3322 92.2345 58.5222C92.2345 58.9022 92.2345 59.0922 92.2345 59.4722C92.2345 59.6622 92.2345 59.8522 92.0416 60.0422H91.8487H89.9193H88.9546H86.8323H86.0605C85.8676 60.0422 85.8676 60.0422 85.6746 60.0422C84.9029 60.2322 84.3241 60.2322 83.7453 60.2322ZM84.9029 51.4922C85.0958 51.4922 85.0958 51.4922 85.0958 51.6822C85.0958 51.6822 85.2888 51.8722 85.2888 52.6322V54.5322V56.2422V57.0022V58.7122V59.2822C85.2888 59.4722 85.2888 59.6622 85.0958 59.8522C85.0958 59.8522 84.9029 59.8522 84.517 60.0422C84.9029 60.0422 85.2888 60.0422 85.6746 60.0422C85.6746 60.0422 85.8676 60.0422 86.0605 60.0422H86.6393C86.4464 60.0422 86.4464 59.8522 86.2534 59.8522C86.2534 59.8522 86.0605 59.6622 86.0605 58.9022V58.1422V57.3822V56.0522V55.6722H86.2534C86.4464 55.6722 86.4464 55.6722 86.6393 55.6722C86.6393 55.6722 86.6393 55.6722 86.4464 55.6722H86.2534H86.0605H85.8676V54.5322C85.8676 53.9622 85.8676 53.0122 85.8676 52.8222C85.8676 52.0622 85.8676 51.8722 86.0605 51.6822L86.2534 51.4922H85.0958H84.9029ZM92.0416 58.1422C91.8487 58.7122 91.4628 59.0922 91.2698 59.2822C91.0769 59.4722 90.691 59.6622 90.4981 59.6622H90.3051H91.8487V59.4722C91.8487 59.0922 91.8487 58.7122 91.8487 58.5222C92.0416 58.5222 92.0416 58.3322 92.0416 58.1422ZM89.5334 55.4822C89.7263 55.4822 89.9193 55.6722 90.1122 55.6722C90.3052 55.8622 90.4981 56.0522 90.4981 56.6222C90.4981 56.2422 90.4981 56.0522 90.4981 55.8622C90.4981 55.1022 90.4981 54.5322 90.4981 54.3422V54.5322C90.4981 55.1022 90.3051 55.2922 90.3051 55.2922C90.1122 55.2922 89.9193 55.4822 89.5334 55.4822ZM90.3051 51.4922C90.4981 51.4922 90.4981 51.6822 90.691 51.8722C90.884 52.2522 91.0769 52.4422 91.0769 52.6322C91.0769 52.4422 91.0769 52.0622 91.0769 51.8722C91.0769 51.8722 91.0769 51.8722 91.0769 51.6822C91.0769 51.4922 91.0769 51.4922 91.0769 51.4922H90.4981H90.3051Z" fill="#1D1E1C"/>
<path d="M92.8134 59.8519C93.0063 59.6619 93.1992 59.6619 93.5851 59.6619C93.971 59.6619 93.971 59.6619 94.1639 59.6619C94.1639 59.6619 94.1639 59.6619 94.1639 59.4719C94.1639 59.2819 94.3569 58.9019 94.3569 58.1419C94.3569 57.1918 94.5498 55.8618 94.5498 54.1518C94.5498 52.8218 94.7427 52.0618 94.7427 51.8718V51.6818C94.3569 51.6818 93.778 51.4918 93.1992 51.4918V51.3018C93.1992 51.3018 93.1992 51.3018 93.1992 51.1118H93.3922H93.5851C93.778 51.1118 94.1639 51.1118 94.5498 51.1118C94.7427 51.1118 94.9357 51.1118 95.1286 51.1118C95.3215 51.1118 95.5145 51.1118 95.5145 51.1118H95.7074C95.7074 51.1118 95.7074 51.1118 95.9004 51.3018L96.2862 51.8718L98.2156 56.2418L98.9874 58.1419C99.5662 56.8118 100.145 55.6718 100.531 54.7218V54.5318C100.531 54.5318 100.531 54.3418 100.724 54.3418C100.724 54.1518 100.917 53.9618 101.11 53.2018C101.303 53.0118 101.303 52.6318 101.303 52.6318C101.496 51.8718 101.689 51.4918 101.689 51.3018H101.881H102.074C102.267 51.3018 102.846 51.3018 103.425 51.3018C103.811 51.3018 104.004 51.3018 104.39 51.3018C104.39 51.3018 104.39 51.3018 104.39 51.4918C104.39 51.4918 104.39 51.4918 104.39 51.6818C104.197 51.6818 104.004 51.8718 103.811 51.8718C103.425 51.8718 103.039 51.8718 103.039 52.0618C102.846 52.0618 102.846 52.2518 102.846 52.2518C102.846 52.2518 102.846 52.4418 102.846 52.8218V53.2018V53.5818C102.846 54.3418 102.846 55.4818 102.846 57.0018V58.3319V59.2819C102.846 59.6619 102.846 59.8519 102.846 59.8519L103.039 60.0419C103.232 60.0419 103.618 60.2319 104.197 60.2319C104.197 60.2319 104.197 60.2319 104.197 60.4219H103.811C103.618 60.4219 103.232 60.4219 102.846 60.4219C102.46 60.4219 102.267 60.4219 102.267 60.4219C101.303 60.4219 100.724 60.4219 100.338 60.4219C100.145 60.4219 99.9521 60.4219 99.9521 60.4219C99.9521 60.4219 99.9521 60.4219 99.7591 60.4219C99.7591 60.4219 99.7591 60.4219 99.7591 60.2319C99.9521 60.2319 100.145 60.0419 100.338 60.0419C100.724 60.0419 100.917 59.8519 100.917 59.8519C100.917 59.6619 100.917 59.2819 100.917 58.7119V57.3818C100.917 57.1918 100.917 57.0018 100.917 56.6218C100.917 56.2418 100.917 55.4818 100.917 54.5318C100.917 53.7718 100.917 53.2018 100.917 52.8218C100.917 53.0118 100.724 53.3918 100.531 53.9618L100.338 54.1518L99.3732 56.6218L98.9874 57.5718L98.6015 58.7119C98.4086 59.2819 98.2156 59.6619 98.0227 60.0419C98.0227 60.2319 97.8297 60.4219 97.8297 60.4219H97.6368C97.058 58.9019 96.4792 57.3818 95.7074 55.6718C94.9357 53.9618 94.5498 53.0118 94.1639 52.4418C94.1639 52.6318 94.1639 53.2018 93.971 54.1518C93.971 55.2918 93.971 56.6218 93.971 57.9519C93.971 58.3319 93.971 58.9019 94.1639 59.4719C94.1639 59.6619 94.1639 59.6619 94.3569 59.8519C94.5498 59.8519 94.7427 60.0419 95.3215 60.0419C95.5145 60.0419 95.7074 60.0419 95.9004 60.0419V60.2319C95.9004 60.2319 95.9004 60.2319 95.9004 60.4219H93.778C93.5851 60.4219 93.3922 60.4219 93.0063 60.4219C93.3922 60.0419 93.1992 60.0419 92.8134 59.8519Z" fill="black"/>
<path d="M100.531 60.2319L100.338 60.0419V59.8519V59.6619C100.531 59.6619 100.724 59.4719 100.917 59.4719C101.11 59.4719 101.303 59.2819 101.496 59.2819C101.496 59.0919 101.496 58.9019 101.496 58.3319V57.0018C101.496 56.8118 101.496 56.6218 101.496 56.0518C101.496 55.6718 101.496 54.9118 101.496 53.9618C101.496 53.5818 101.496 53.2018 101.496 53.0118C101.496 53.2018 101.303 53.2018 101.303 53.3918L101.11 53.7718L100.145 56.2418L99.7591 57.1918L99.1803 58.3319C98.9874 58.9019 98.7945 59.2819 98.6015 59.6619C98.6015 59.8519 98.4086 60.0419 98.4086 60.0419V60.2319H98.0227V60.0419C97.4439 58.5219 96.8651 57.0018 96.0933 55.2918C95.5145 54.1518 95.1286 53.2018 94.7428 52.6318C94.7428 53.0118 94.7428 53.3918 94.7428 53.7718C94.7428 54.9118 94.7428 56.2418 94.7428 57.5718C94.7428 57.9518 94.7427 58.5219 94.9357 59.0919C94.9357 59.2819 94.9357 59.2819 95.1286 59.2819C95.1286 59.2819 95.3216 59.2819 95.9004 59.4719C96.0933 59.4719 96.2863 59.4719 96.4792 59.4719C96.4792 59.6619 96.4792 59.6619 96.4792 59.6619V59.8519V60.0419H94.1639C93.971 60.0419 93.7781 60.0419 93.3922 60.0419C93.1992 60.0419 93.0063 60.0419 92.6204 60.0419H92.4275V59.6619C92.6204 59.4719 92.8134 59.4719 93.1992 59.4719C93.5851 59.4719 93.5851 59.4719 93.5851 59.4719C93.5851 59.4719 93.5851 59.0919 93.7781 58.1419C93.7781 57.1918 93.971 55.8618 93.971 54.1518C93.971 53.0118 94.1639 52.0618 94.1639 51.8718C93.7781 51.8718 93.3922 51.6818 92.6204 51.6818C92.6204 51.4918 92.4275 51.4918 92.4275 51.4918V51.3018C92.6204 51.3018 92.6204 51.3018 92.6204 51.3018C92.6204 51.3018 92.6204 51.3018 92.8134 51.3018C93.0063 51.3018 93.3922 51.3018 93.7781 51.3018C93.971 51.3018 94.1639 51.3018 94.3569 51.3018C94.7427 51.3018 94.7428 51.3018 94.7428 51.3018C94.7428 51.3018 94.9357 51.3018 95.1286 51.3018L95.3216 51.4918L95.7074 52.0618L98.4086 57.9519C98.9874 56.8118 99.3733 55.8618 99.7591 54.9118V54.7218C99.7591 54.7218 99.7591 54.5318 99.9521 54.5318C99.9521 54.3418 100.145 54.1518 100.338 53.3918C100.531 53.2018 100.531 53.0118 100.531 52.8218C100.724 52.0618 100.917 51.6818 100.917 51.4918C101.11 51.4918 101.11 51.4918 101.303 51.4918C101.303 51.4918 101.496 51.4918 101.689 51.4918C101.881 51.4918 102.267 51.4918 103.039 51.4918C103.425 51.4918 103.618 51.4918 104.004 51.4918H104.197V51.6818V51.8718V52.0618C104.004 52.0618 103.811 52.2518 103.618 52.2518C103.039 52.2518 102.846 52.2518 102.846 52.2518C102.653 52.2518 102.653 52.2518 102.653 52.2518C102.653 52.2518 102.653 52.4418 102.653 52.8218V53.2018V53.5818C102.653 54.3418 102.653 55.4818 102.653 57.0018V58.3319V59.2819C102.653 59.6619 102.653 59.8519 102.653 59.8519C102.653 59.8519 102.653 59.8519 102.846 59.8519C103.039 59.8519 103.425 60.0419 104.004 60.0419L104.197 60.2319V60.4219V60.6119H103.618C103.425 60.6119 103.039 60.6119 102.653 60.6119C102.267 60.6119 102.074 60.6119 102.074 60.6119C101.11 60.6119 100.531 60.6119 100.145 60.6119C100.724 60.2319 100.724 60.2319 100.531 60.2319ZM102.846 59.8519C102.846 59.8519 102.846 59.8519 103.425 59.8519C103.618 59.8519 103.618 59.8519 103.811 59.8519C103.618 59.8519 103.425 59.8519 103.232 59.6619C103.039 59.6619 102.846 59.4719 102.846 59.4719C102.846 59.4719 102.846 59.2819 102.846 58.7119V57.7618V56.4318C102.846 54.7218 102.846 53.5818 102.846 53.0118V52.6318V52.2518C102.846 51.6818 102.846 51.6818 102.846 51.4918C102.846 51.3018 103.039 51.3018 103.232 51.3018C103.232 51.3018 103.425 51.3018 104.004 51.1118H104.197C104.004 51.1118 103.811 51.1118 103.618 51.1118C103.039 51.1118 102.653 51.1118 102.267 51.1118C102.074 51.1118 102.074 51.1118 102.074 51.1118C102.074 51.1118 102.074 51.1118 101.881 51.1118C101.881 51.3018 101.689 51.6818 101.496 52.2518L101.689 51.6818V52.2518C101.689 52.6318 101.689 53.2018 101.689 53.9618C101.689 54.9118 101.689 55.6718 101.689 56.0518C101.689 56.4318 101.689 56.8118 101.689 56.8118V58.1419C101.689 58.7119 101.689 59.0919 101.689 59.2819C101.496 59.4719 101.303 59.4719 100.917 59.4719C101.496 59.8519 102.074 59.8519 102.846 59.8519ZM94.7428 56.4318C94.7428 57.1918 94.7428 57.7619 94.7428 58.1419C94.7428 59.0919 94.5498 59.4719 94.5498 59.6619C94.5498 59.6619 94.5498 59.8519 94.3569 59.8519C94.3569 59.8519 94.1639 59.8519 93.7781 60.0419C94.1639 60.0419 94.3569 60.0419 94.5498 60.0419H95.3216H95.1286C94.9357 59.8519 94.9357 59.8519 94.9357 59.6619C94.9357 59.0919 94.7428 58.5219 94.7428 58.1419C94.5498 57.3818 94.5498 56.8118 94.7428 56.4318ZM94.9357 51.6818L95.1286 52.0618C95.5145 52.6318 95.9004 53.5818 96.6721 55.2918C97.4439 56.8118 98.0227 58.3319 98.4086 59.6619V59.4719C98.6015 59.0919 98.7944 58.5219 98.9874 58.1419L99.1803 57.5718C99.1803 57.7618 98.9874 57.9519 98.9874 58.1419L98.7944 58.5219L97.8298 56.4318L95.5145 51.4918H95.3216C95.3216 51.4918 95.3216 51.4918 94.9357 51.4918C94.5498 51.4918 94.3569 51.4918 94.1639 51.4918C93.971 51.4918 93.7781 51.4918 93.5851 51.4918C93.971 51.4918 94.3569 51.4918 94.5498 51.6818H94.7428H94.9357C94.9357 51.8718 94.9357 51.8718 94.9357 52.0618V51.6818Z" fill="#1D1E1C"/>
<path d="M104.969 59.852C105.161 59.852 105.161 59.852 105.354 59.852C106.126 59.852 106.512 59.662 106.512 59.662C106.512 59.662 106.705 58.902 106.705 57.952V57.192V56.432V55.672V55.102V54.532V53.962V53.772V53.392C106.705 53.392 106.705 53.202 106.705 53.012C106.705 52.632 106.705 52.442 106.705 52.062V51.872C106.512 51.872 106.319 51.682 105.933 51.682C105.547 51.682 105.354 51.682 105.354 51.492V51.302H105.933H107.863C108.248 51.302 109.02 51.302 109.792 51.302V51.492C109.792 51.492 109.599 51.492 109.406 51.492C109.02 51.492 108.634 51.682 108.634 51.682C108.634 51.682 108.441 51.682 108.441 51.872C108.441 51.872 108.441 52.062 108.441 52.252V53.202V56.242V57.382C108.441 57.762 108.441 57.952 108.441 58.142C108.441 58.712 108.441 58.902 108.441 59.092C108.441 59.282 108.441 59.282 108.634 59.472C108.634 59.472 108.827 59.662 109.02 59.662C109.213 59.662 109.406 59.662 109.599 59.662C109.792 59.662 109.985 59.662 110.178 59.852V60.042C109.792 60.042 109.406 60.042 109.213 60.042C109.02 60.042 108.827 60.042 108.634 60.042H107.67H105.933H105.74L104.969 59.852Z" fill="black"/>
<path d="M108.441 60.2319C108.248 60.2319 108.056 60.2319 107.863 60.2319H106.898H104.969V59.6619H105.161C105.354 59.6619 105.354 59.6619 105.547 59.6619C106.512 59.6619 106.705 59.4719 106.705 59.4719C106.705 59.4719 106.898 59.0919 106.898 57.7618V56.2418V55.4818V54.9118V53.7718V53.5818V53.2018V53.0118C106.898 52.8218 106.898 52.4418 106.898 52.0618C106.705 52.0618 106.512 51.8718 106.126 51.8718C105.547 51.8718 105.354 51.8718 105.354 51.6818C105.161 51.6818 105.161 51.4918 105.161 51.3018V51.1118H105.933H107.863C108.248 51.1118 109.02 51.1118 109.792 51.1118H109.985V51.3018V51.4918V51.6818H109.792C109.599 51.6818 109.599 51.6818 109.213 51.6818C108.634 51.6818 108.441 51.8718 108.441 51.8718C108.441 51.8718 108.441 52.0618 108.441 52.2518V53.2018V56.2418V57.3818C108.441 57.7618 108.441 57.9519 108.441 58.1419C108.441 58.7119 108.441 59.0919 108.441 59.0919C108.441 59.2819 108.441 59.2819 108.441 59.2819C108.441 59.2819 108.441 59.2819 108.634 59.4719C108.827 59.4719 109.02 59.4719 109.02 59.4719C109.406 59.4719 109.599 59.4719 109.599 59.6619V59.8519V60.0419H109.406C109.02 60.2319 108.634 60.2319 108.441 60.2319ZM107.863 59.8519C108.248 59.8519 108.441 59.8519 108.441 59.8519H108.634C108.441 59.8519 108.441 59.8519 108.248 59.8519C108.056 59.8519 107.863 59.6619 107.863 59.6619C107.863 59.6619 107.67 59.4719 107.67 59.2819C107.67 59.0919 107.67 58.7119 107.67 58.3319C107.67 58.1418 107.67 57.9518 107.67 57.5718V56.4318V53.3918V52.4418C107.67 52.2518 107.67 52.0618 107.863 51.8718L108.056 51.6818C108.056 51.6818 108.056 51.6818 108.248 51.6818C108.056 51.6818 107.67 51.6818 107.477 51.6818H106.126C106.319 51.6818 106.512 51.6818 106.705 51.8718V52.0618C106.705 52.4418 106.705 52.6318 106.705 53.0118C106.705 53.2018 106.705 53.2018 106.705 53.3918V53.7718V53.9618V55.1018V55.6718V56.4318V57.9519C106.705 59.4719 106.705 59.6619 106.512 59.8519C106.512 59.8519 106.319 60.0419 105.74 60.0419H106.512L107.863 59.8519Z" fill="#1D1E1C"/>
<path d="M113.844 51.1118C113.844 51.3018 114.037 51.3018 113.844 51.1118C113.844 51.3018 113.844 51.3018 113.844 51.4918C113.651 51.4918 113.651 51.4918 113.458 51.4918C113.458 51.4918 113.458 51.4918 113.265 51.4918H113.072C112.879 51.4918 112.686 51.4918 112.493 51.6818L112.3 51.8718V52.6318V56.0518C112.3 57.3818 112.3 58.1418 112.493 58.3319C112.493 58.7119 112.686 58.9019 112.879 59.0919C113.072 59.2819 113.265 59.4719 113.651 59.6619C114.037 59.8519 114.422 59.8519 114.808 59.8519C115.58 59.8519 116.159 59.6619 116.545 59.4719C116.931 59.2819 117.317 58.9019 117.509 58.5219C117.702 58.1419 117.702 57.5718 117.702 56.6218C117.702 56.6218 117.702 56.4318 117.702 56.0518V55.8618C117.702 55.8618 117.702 55.6718 117.702 55.4818C117.702 55.2918 117.702 55.1018 117.702 55.1018L117.509 53.2018C117.509 52.4418 117.509 52.0618 117.317 52.0618C117.317 51.8718 117.124 51.8718 117.124 51.8718C116.931 51.6818 116.545 51.6818 116.159 51.4918V51.3018C116.352 51.3018 116.545 51.3018 116.738 51.3018C116.931 51.3018 117.124 51.3018 117.317 51.3018C117.702 51.3018 117.702 51.3018 117.895 51.3018H119.053H119.246V51.4918C118.667 51.4918 118.281 51.6818 118.281 51.6818C118.088 51.8718 118.088 51.8718 118.088 52.2518C118.088 52.4418 118.088 52.6318 118.088 53.2018V54.7218V55.2918V56.0518C118.088 57.0018 118.088 57.5718 118.088 57.9519C118.088 58.3319 117.895 58.7119 117.702 59.0919C117.509 59.2819 117.317 59.6619 117.124 59.8519C116.931 60.0419 116.545 60.2319 116.159 60.4219C115.773 60.6119 115.194 60.6119 114.808 60.6119C114.23 60.6119 113.651 60.6119 113.458 60.4219C112.879 60.2319 112.493 60.0419 112.107 59.8519C111.721 59.6619 111.528 59.2819 111.528 59.0919C111.335 58.7119 111.335 58.3319 111.335 57.5718V57.0018V55.1018V53.5818V52.4418C111.335 52.2518 111.335 52.0618 111.142 51.8718L110.95 51.6818H110.564C110.178 51.6818 109.985 51.6818 109.985 51.4918C109.985 51.4918 109.985 51.4918 109.985 51.3018C109.985 51.3018 109.985 51.3018 109.985 51.1118H110.178H110.371H110.757H111.914H113.844Z" fill="black"/>
<path d="M115.001 60.422C114.23 60.422 113.844 60.422 113.458 60.232C112.879 60.042 112.493 59.852 112.107 59.662C111.721 59.472 111.528 59.092 111.335 58.902C111.142 58.522 111.142 57.952 111.142 57.382V56.812V54.912V53.392V52.252C111.142 51.872 111.142 51.872 111.142 51.872H110.757C110.371 51.872 110.178 51.872 109.985 51.682V51.492C109.985 51.492 109.985 51.302 110.178 51.302C110.178 51.302 110.371 51.302 110.564 51.302H112.3H114.23V51.492C114.23 51.682 114.23 51.682 114.23 51.682V51.872V52.062H114.037C113.844 52.062 113.844 52.062 113.651 52.062H113.458H113.265C113.072 52.062 112.879 52.062 112.879 52.252V53.012V56.432C112.879 57.572 112.879 58.522 113.072 58.712C113.072 58.902 113.265 59.282 113.458 59.472C113.651 59.662 113.844 59.852 114.23 59.852C114.615 60.042 115.001 60.042 115.194 60.042C115.966 60.042 116.545 59.852 116.931 59.662C117.317 59.472 117.509 59.092 117.702 58.712C117.895 58.332 117.895 57.762 117.895 57.002C117.895 57.002 117.895 56.812 117.895 56.432V56.242C117.895 56.242 117.895 56.052 117.895 55.862C117.895 55.672 117.895 55.482 117.895 55.482L117.702 53.582C117.702 52.632 117.702 52.442 117.509 52.442C117.509 52.442 117.509 52.252 117.317 52.252C117.124 52.252 116.931 52.062 116.352 51.872V51.682V51.492H116.545C116.931 51.492 117.317 51.492 117.702 51.492C118.088 51.492 118.088 51.492 118.281 51.492H119.439H119.825V52.062H119.632C118.86 52.062 118.667 52.252 118.667 52.252C118.667 52.252 118.474 52.442 118.474 52.632C118.474 52.822 118.474 53.012 118.474 53.582V55.102V55.672V56.432C118.474 57.382 118.474 57.952 118.474 58.332C118.474 58.712 118.281 59.282 118.088 59.472C117.895 59.852 117.702 60.042 117.509 60.232C117.317 60.422 116.931 60.612 116.352 60.802C115.966 60.422 115.58 60.422 115.001 60.422ZM111.142 51.302C111.335 51.302 111.335 51.302 111.528 51.492C111.528 51.682 111.721 51.872 111.721 52.062V53.202V54.722V57.192C111.721 57.762 111.721 58.332 111.914 58.522C112.107 58.712 112.3 58.902 112.493 59.282C112.879 59.472 113.265 59.662 113.651 59.852C113.844 59.852 114.422 60.042 115.001 60.042C115.387 60.042 115.773 60.042 116.159 59.852C116.545 59.662 116.931 59.472 117.124 59.282C116.931 59.472 116.931 59.472 116.738 59.662C116.352 59.852 115.58 60.042 114.808 60.042C114.422 60.042 114.037 60.042 113.651 59.852C113.265 59.662 112.879 59.472 112.686 59.282C112.493 59.092 112.3 58.712 112.3 58.522C112.3 58.142 112.107 57.382 112.107 56.052V52.632V51.872C112.107 51.682 112.3 51.682 112.3 51.492C112.3 51.492 112.493 51.302 112.686 51.302H111.721H110.178H110.371H111.142ZM118.281 55.482C118.281 55.672 118.281 55.862 118.281 55.862V56.052C118.281 56.242 118.281 56.432 118.281 56.432C118.281 56.242 118.281 56.052 118.281 55.672V55.482ZM117.124 51.302C117.317 51.302 117.509 51.492 117.702 51.492C117.895 51.492 117.895 51.682 117.895 51.872C117.895 52.062 117.895 52.252 118.088 53.202V54.722V54.532V53.202C118.088 52.632 118.088 52.442 118.088 52.252C118.088 51.872 118.088 51.682 118.281 51.492C118.281 51.492 118.474 51.302 118.86 51.302H118.281C118.281 51.302 118.281 51.302 117.702 51.302C117.509 51.302 117.317 51.302 117.124 51.302Z" fill="#1D1E1C"/>
<path d="M120.018 59.8519C120.211 59.6619 120.404 59.6619 120.789 59.6619C121.175 59.6619 121.175 59.6619 121.368 59.6619C121.368 59.6619 121.368 59.6619 121.368 59.4719C121.368 59.2819 121.561 58.9019 121.561 58.1419C121.561 57.1918 121.754 55.8618 121.754 54.1518C121.754 52.8218 121.947 52.0618 121.947 51.8718V51.6818C121.561 51.6818 120.982 51.4918 120.404 51.4918V51.3018C120.404 51.3018 120.404 51.3018 120.404 51.1118H120.597H120.789C120.982 51.1118 121.368 51.1118 121.754 51.1118C121.947 51.1118 122.14 51.1118 122.333 51.1118C122.526 51.1118 122.719 51.1118 122.719 51.1118H122.912C122.912 51.1118 122.912 51.1118 123.105 51.3018L123.491 51.8718L125.42 56.2418L126.192 58.1419C126.771 56.8118 127.349 55.6718 127.735 54.7218V54.5318C127.735 54.5318 127.735 54.3418 127.928 54.3418C127.928 54.1518 128.121 53.9618 128.314 53.2018C128.507 53.0118 128.507 52.6318 128.507 52.6318C128.7 51.8718 128.893 51.4918 128.893 51.3018H129.086H129.279C129.472 51.3018 130.05 51.3018 130.629 51.3018C131.015 51.3018 131.208 51.3018 131.594 51.3018C131.594 51.3018 131.594 51.3018 131.594 51.4918C131.594 51.4918 131.594 51.4918 131.594 51.6818C131.401 51.6818 131.208 51.8718 131.015 51.8718C130.629 51.8718 130.243 51.8718 130.243 52.0618C130.05 52.0618 130.05 52.2518 130.05 52.2518C130.05 52.2518 130.05 52.4418 130.05 52.8218V53.2018V53.5818C130.05 54.3418 130.05 55.4818 130.05 57.0018V58.3319V59.2819C130.05 59.6619 130.05 59.8519 130.05 59.8519L130.243 60.0419C130.436 60.0419 130.822 60.2319 131.401 60.2319C131.401 60.2319 131.401 60.2319 131.401 60.4219H131.594C131.401 60.4219 131.015 60.4219 130.629 60.4219C130.243 60.4219 130.05 60.4219 130.05 60.4219C129.086 60.4219 128.507 60.4219 128.121 60.4219C127.928 60.4219 127.735 60.4219 127.735 60.4219C127.735 60.4219 127.735 60.4219 127.542 60.4219C127.542 60.4219 127.542 60.4219 127.542 60.2319C127.735 60.2319 127.928 60.0419 128.121 60.0419C128.507 60.0419 128.7 59.8519 128.7 59.8519C128.7 59.6619 128.7 59.2819 128.7 58.7119V57.3818C128.7 57.1918 128.7 57.0018 128.7 56.6218C128.7 56.2418 128.7 55.4818 128.7 54.5318C128.7 53.7718 128.7 53.2018 128.7 52.8218C128.7 53.0118 128.507 53.3918 128.314 53.9618L128.121 54.1518L127.156 56.6218L126.771 57.5718L126.385 58.7119C126.192 59.2819 125.999 59.6619 125.806 60.0419C125.806 60.2319 125.613 60.4219 125.613 60.4219H125.42C124.841 58.9019 124.262 57.3818 123.491 55.6718C122.719 53.9618 122.333 53.0118 121.947 52.4418C121.947 52.6318 121.947 53.2018 121.754 54.1518C121.754 55.2918 121.754 56.6218 121.754 57.9519C121.754 58.3319 121.754 58.9019 121.947 59.4719C121.947 59.6619 121.947 59.6619 122.14 59.8519C122.333 59.8519 122.526 60.0419 123.105 60.0419C123.298 60.0419 123.491 60.0419 123.684 60.0419V60.2319C123.684 60.2319 123.684 60.2319 123.684 60.4219H121.561C121.368 60.4219 121.175 60.4219 120.789 60.4219C120.789 60.0419 120.404 60.0419 120.018 59.8519Z" fill="black"/>
<path d="M127.928 60.2319C127.735 60.2319 127.735 60.2319 127.928 60.2319L127.735 60.0419V59.8519V59.6619C127.928 59.6619 128.121 59.4719 128.314 59.4719C128.507 59.4719 128.7 59.2819 128.893 59.2819C128.893 59.0919 128.893 58.9019 128.893 58.3319V57.0018C128.893 56.8118 128.893 56.6218 128.893 56.0518C128.893 55.6718 128.893 54.9118 128.893 53.9618C128.893 53.5818 128.893 53.2018 128.893 53.0118C128.893 53.2018 128.7 53.2018 128.7 53.3918L128.507 53.7718L127.542 56.2418L127.157 57.1918L126.578 58.3319C126.385 58.9019 126.192 59.2819 125.999 59.6619C125.999 59.8519 125.806 60.0419 125.806 60.0419V60.2319H125.42V60.0419C124.841 58.5219 124.263 57.0018 123.491 55.2918C122.912 54.1518 122.526 53.2018 122.14 52.6318C122.14 53.0118 122.14 53.3918 122.14 53.7718C122.14 54.9118 122.14 56.2418 122.14 57.5718C122.14 57.9518 122.14 58.5219 122.333 59.0919C122.333 59.2819 122.333 59.2819 122.526 59.2819C122.526 59.2819 122.719 59.2819 123.298 59.4719C123.491 59.4719 123.684 59.4719 123.877 59.4719C123.877 59.6619 123.877 59.6619 123.877 59.6619V59.8519V60.0419H121.561C121.368 60.0419 121.176 60.0419 120.79 60.0419C120.597 60.0419 120.404 60.0419 120.018 60.0419H119.825V59.6619C120.018 59.4719 120.211 59.4719 120.597 59.4719C120.983 59.4719 120.983 59.4719 120.983 59.4719C120.983 59.4719 120.983 59.0919 121.176 58.1419C121.176 57.1918 121.368 55.8618 121.368 54.1518C121.368 53.0118 121.561 52.0618 121.561 51.8718C121.176 51.8718 120.79 51.6818 120.018 51.6818C120.018 51.4918 119.825 51.4918 119.825 51.4918V51.3018C120.018 51.3018 120.018 51.3018 120.018 51.3018C120.018 51.3018 120.018 51.3018 120.211 51.3018C120.404 51.3018 120.79 51.3018 121.176 51.3018C121.368 51.3018 121.561 51.3018 121.754 51.3018C122.14 51.3018 122.14 51.3018 122.14 51.3018C122.14 51.3018 122.333 51.3018 122.526 51.3018L122.719 51.4918L123.105 52.0618L125.806 57.9519C126.385 56.8118 126.771 55.8618 127.157 54.9118V54.7218C127.157 54.7218 127.157 54.5318 127.35 54.5318C127.35 54.3418 127.542 54.1518 127.735 53.3918C127.928 53.2018 127.928 53.0118 127.928 52.8218C128.121 52.0618 128.314 51.6818 128.314 51.4918C128.507 51.4918 128.507 51.4918 128.7 51.4918C128.7 51.4918 128.893 51.4918 129.086 51.4918C129.279 51.4918 129.665 51.4918 130.437 51.4918C130.822 51.4918 131.015 51.4918 131.401 51.4918H131.594V51.6818V51.8718V52.0618C131.401 52.0618 131.208 52.2518 131.015 52.2518C130.437 52.2518 130.244 52.2518 130.244 52.2518C130.051 52.2518 130.051 52.2518 130.051 52.2518C130.051 52.2518 130.051 52.4418 130.051 52.8218V53.2018V53.5818C130.051 54.3418 130.051 55.4818 130.051 57.0018V58.3319V59.2819C130.051 59.6619 130.051 59.8519 130.051 59.8519C130.051 59.8519 130.051 59.8519 130.244 59.8519C130.437 59.8519 130.822 60.0419 131.401 60.0419L131.594 60.2319V60.4219V60.6119C131.401 60.6119 131.015 60.6119 130.629 60.6119C130.244 60.6119 130.051 60.6119 130.051 60.6119C129.086 60.6119 128.507 60.6119 128.121 60.6119C127.928 60.2319 127.928 60.2319 127.928 60.2319ZM130.051 59.8519C130.051 59.8519 130.051 59.8519 130.629 59.8519C130.822 59.8519 130.822 59.8519 131.015 59.8519C130.822 59.8519 130.629 59.8519 130.437 59.6619C130.244 59.6619 130.051 59.4719 130.051 59.4719C130.051 59.4719 130.051 59.2819 130.051 58.7119V57.7618V56.4318C130.051 54.7218 130.051 53.5818 130.051 53.0118V52.6318V52.2518C130.051 51.6818 130.051 51.6818 130.051 51.4918C130.051 51.3018 130.244 51.3018 130.437 51.3018C130.437 51.3018 130.629 51.3018 131.208 51.1118H131.401C131.208 51.1118 131.015 51.1118 130.822 51.1118C130.244 51.1118 129.858 51.1118 129.472 51.1118C129.279 51.1118 129.279 51.1118 129.279 51.1118C129.279 51.1118 129.279 51.1118 129.086 51.1118C129.086 51.3018 128.893 51.6818 128.7 52.2518L128.893 51.6818V52.2518C128.893 52.6318 128.893 53.2018 128.893 53.9618C128.893 54.9118 128.893 55.6718 128.893 56.0518C128.893 56.4318 128.893 56.8118 128.893 56.8118V58.1419C128.893 58.7119 128.893 59.0919 128.893 59.2819C128.7 59.4719 128.507 59.4719 128.121 59.4719C128.7 59.8519 129.279 59.8519 130.051 59.8519ZM121.947 56.4318C121.947 57.1918 121.947 57.7619 121.947 58.1419C121.947 59.0919 121.754 59.4719 121.754 59.6619C121.754 59.6619 121.754 59.8519 121.561 59.8519C121.561 59.8519 121.368 59.8519 120.983 60.0419C121.368 60.0419 121.561 60.0419 121.754 60.0419H122.526H122.333C122.14 59.6619 121.947 59.4719 121.947 59.2819C121.947 58.7119 121.754 58.1419 121.754 57.7618C121.947 57.3818 121.947 56.8118 121.947 56.4318ZM122.14 51.6818L122.333 52.0618C122.719 52.6318 123.105 53.5818 123.877 55.2918C124.648 56.8118 125.227 58.3319 125.613 59.6619V59.4719C125.806 59.0919 125.999 58.5219 126.192 58.1419L126.385 57.5718C126.385 57.7618 126.192 57.9519 126.192 58.1419L125.999 58.5219L125.034 56.4318L122.719 51.4918H122.526C122.526 51.4918 122.526 51.4918 122.14 51.4918C121.754 51.4918 121.561 51.4918 121.368 51.4918C121.176 51.4918 120.983 51.4918 120.79 51.4918C121.176 51.4918 121.561 51.4918 121.754 51.6818H121.947H122.14C122.14 51.8718 122.14 51.8718 122.14 52.0618V51.6818Z" fill="#1D1E1C"/>
<path d="M77.9572 101.083V100.893H78.1501H78.9218C79.5007 100.893 80.2724 100.703 80.8512 100.703C81.2371 100.703 81.623 100.703 82.2018 100.703C83.1665 100.703 83.7453 100.703 84.1312 100.893C84.71 101.083 85.0959 101.273 85.4817 101.653C85.6747 102.033 85.8676 102.413 85.8676 102.983C85.8676 103.743 85.2888 104.313 84.3241 104.883C84.9029 105.073 85.2888 105.263 85.6747 105.453C86.0606 105.643 86.2535 106.023 86.4464 106.403C86.6394 106.593 86.6394 106.973 86.6394 107.543C86.6394 108.303 86.2535 109.063 85.6747 109.633C84.9029 110.203 83.9382 110.583 82.7806 110.583H81.623H80.4653C79.5007 110.583 78.9218 110.583 78.7289 110.583C78.536 110.583 78.343 110.583 78.1501 110.583V110.393C78.1501 110.393 78.1501 110.393 78.343 110.393C78.9218 110.203 79.3077 110.203 79.5007 110.203L79.6936 110.013C79.6936 109.823 79.6936 109.253 79.6936 108.493C79.6936 108.493 79.6936 108.303 79.6936 108.113C79.6936 107.733 79.6936 107.543 79.6936 107.543V106.783C79.6936 105.453 79.6936 104.313 79.6936 103.363V101.843V101.653C79.3077 101.653 78.9218 101.463 78.536 101.463C78.1501 101.083 78.1501 101.083 77.9572 101.083ZM81.0442 104.883C81.2371 104.883 81.623 104.883 81.8159 104.883C82.9735 104.883 83.7453 104.693 84.1312 104.123C84.5171 103.553 84.71 103.173 84.71 102.603C84.71 102.413 84.71 102.223 84.517 102.033C84.517 101.843 84.3241 101.653 84.1312 101.463C83.9382 101.273 83.7453 101.083 83.5524 101.083C83.1665 100.893 82.5877 100.893 82.2018 100.893C81.8159 100.893 81.43 100.893 81.0442 101.083C81.0442 101.273 81.0442 101.273 81.0442 101.273C81.0442 101.273 81.0442 101.463 81.0442 101.653C81.0442 101.843 81.0442 102.033 81.0442 102.033V102.983V103.553V104.883ZM82.7806 110.013C83.3594 110.013 83.7453 109.823 84.1312 109.633C84.3241 109.633 84.5171 109.443 84.71 109.253C84.9029 109.063 85.0959 108.873 85.2888 108.493C85.4817 108.113 85.4817 107.923 85.4817 107.733C85.4817 107.543 85.4817 107.353 85.2888 106.973C85.2888 106.593 85.0959 106.403 84.9029 106.213C84.71 106.023 84.3241 105.833 83.9382 105.643C83.5524 105.453 83.1665 105.453 82.5877 105.453C81.623 105.453 81.0442 105.453 81.0442 105.453C81.0442 105.643 81.0442 105.643 81.0442 105.643V105.833V106.403V107.163C81.0442 108.303 81.0442 109.063 81.0442 109.253C81.0442 109.443 81.2371 109.633 81.43 109.823C81.623 110.013 82.2018 110.013 82.7806 110.013Z" fill="black"/>
<path d="M86.4465 110.583C86.4465 110.393 86.4465 110.393 86.4465 110.583C86.8324 110.393 87.2183 110.203 87.4112 110.203C87.6042 110.203 87.7971 110.203 87.7971 110.013C87.7971 110.013 87.7971 109.823 87.7971 109.443V107.732V106.592V105.072V104.692C87.7971 103.742 87.7971 103.172 87.7971 102.982V102.792C87.6042 102.792 87.6042 102.792 87.6042 102.602C87.6042 102.602 87.2183 102.602 86.6395 102.412C86.6395 102.412 86.6395 102.412 86.6395 102.222C86.6395 102.222 86.6395 102.222 86.6395 102.032C86.6395 102.032 86.8324 102.032 87.0254 102.032H87.99H88.5689H88.7618C88.7618 102.032 88.7618 102.032 88.9547 102.032C89.1477 102.032 89.3406 102.032 89.3406 102.032H89.9194C90.3053 102.032 90.4982 102.032 90.6912 102.032V102.222C90.6912 102.222 90.4982 102.222 89.9194 102.222C89.5336 102.222 89.3406 102.222 89.1477 102.222C88.9547 102.222 88.9547 102.412 88.9547 102.792C88.9547 102.792 88.9547 102.982 88.9547 103.172V103.552V104.692V105.072V107.162V109.063V109.443C88.9547 109.633 88.9547 109.633 88.9547 109.633C89.1477 109.633 89.3406 109.633 89.9194 109.633H90.3053H91.4629C91.8488 109.633 92.0417 109.633 92.0417 109.633C92.2347 109.633 92.4276 109.443 92.6206 109.253C92.8135 109.063 93.0064 108.873 93.0064 108.873C93.0064 108.873 93.0064 108.873 93.1994 108.683C93.1994 108.493 93.3923 108.303 93.5852 108.113H93.7782C93.7782 108.303 93.7782 108.493 93.7782 108.493C93.5853 109.063 93.5852 109.633 93.5852 110.013V110.203H91.0771C88.9547 110.203 87.7971 110.203 87.4112 110.203C87.2183 110.203 87.2183 110.203 87.0254 110.203H86.4465V110.583Z" fill="black"/>
<path d="M93.1993 110.202H93.5852C93.5852 110.202 93.5852 110.202 93.7782 110.202C94.164 110.202 94.357 110.202 94.357 110.202C94.5499 110.202 94.5499 110.012 94.7429 109.822C94.9358 109.442 95.1287 108.682 95.5146 107.922C95.7075 107.542 95.7075 107.352 95.7075 107.162C95.9005 106.972 95.9005 106.592 96.0934 106.402L96.6722 104.692C96.6722 104.502 97.0581 103.742 97.444 102.792C97.444 102.602 97.6369 102.222 97.8299 101.842H98.0228H98.2157C98.4087 102.222 98.6016 102.602 98.7946 102.982C98.7946 103.172 98.9875 103.552 99.1804 103.932L100.145 106.592L100.724 108.112C100.917 108.872 101.11 109.442 101.303 109.632C101.303 109.822 101.496 110.012 101.496 110.012H101.689C101.689 110.012 101.882 110.012 102.075 110.012C102.267 110.012 102.46 110.202 102.46 110.202C102.46 110.202 102.46 110.202 102.46 110.392C102.267 110.392 102.267 110.392 102.075 110.392C101.882 110.392 101.496 110.392 100.917 110.392H100.338H99.5663H99.3734H99.1804H98.7946C98.7946 110.392 98.7946 110.392 98.6016 110.392V110.202H98.7946H99.5663C99.7592 110.202 99.9522 110.202 99.9522 110.202V110.012C99.9522 110.012 99.9522 109.822 99.7592 109.442C99.7592 109.252 99.5663 109.062 99.5663 108.872C99.5663 108.682 99.1804 108.112 98.7946 106.972C98.6016 106.972 98.4087 106.972 98.4087 106.972H97.0581H96.6722C96.4793 106.972 96.2864 106.972 96.0934 106.972C96.0934 107.162 96.0934 107.162 95.9005 107.162L95.3217 108.872C95.1287 109.632 94.9358 109.822 94.9358 110.012V110.202C94.9358 110.202 95.1287 110.202 95.3217 110.202H96.2864C96.2864 110.202 96.2864 110.202 96.2864 110.392C96.2864 110.392 96.2864 110.392 96.2864 110.582C96.0934 110.582 95.9005 110.582 95.9005 110.582C95.5146 110.582 95.1287 110.582 94.7429 110.582C94.5499 110.582 94.357 110.582 94.357 110.582C94.357 110.582 94.164 110.582 93.9711 110.582C93.7782 110.582 93.7782 110.582 93.5852 110.582C93.3923 110.392 93.1993 110.392 93.1993 110.202C93.1993 110.392 93.1993 110.392 93.1993 110.202ZM96.2864 106.402C96.6722 106.402 97.251 106.402 97.8299 106.402C98.2157 106.402 98.4087 106.402 98.7946 106.402C98.7946 106.212 98.7946 106.022 98.6016 106.022C98.4087 105.262 98.2157 104.882 98.2157 104.882L97.444 103.362V103.172C97.444 103.172 97.251 103.362 97.251 103.742C97.0581 104.312 96.8652 104.882 96.6722 105.262C96.6722 105.452 96.4793 105.642 96.4793 105.832C96.4793 106.022 96.2864 106.022 96.2864 106.212V106.402Z" fill="black"/>
<path d="M108.634 102.603C108.634 102.983 108.634 103.363 108.634 103.553V103.743H108.441C108.441 103.743 108.441 103.743 108.248 103.743C108.056 103.173 107.863 102.793 107.284 102.603C106.898 102.413 106.319 102.223 105.74 102.223C105.354 102.223 105.161 102.223 104.968 102.413C104.583 102.603 104.197 102.793 104.004 102.983C103.618 103.173 103.425 103.553 103.232 103.743C103.039 104.123 102.846 104.503 102.653 104.883C102.46 105.263 102.46 105.833 102.46 106.213C102.46 107.163 102.653 107.923 102.846 108.493C103.039 109.063 103.425 109.443 104.004 109.823C104.583 110.013 104.968 110.203 105.547 110.203H105.933C106.319 110.203 106.512 110.203 106.705 110.013C107.091 110.013 107.284 109.823 107.477 109.633C107.67 109.443 107.863 109.253 108.056 109.063C108.248 108.873 108.441 108.493 108.634 108.303C108.634 108.303 108.634 108.303 108.827 108.303C108.827 108.493 108.827 108.493 108.827 108.493C108.634 109.253 108.441 109.633 108.441 110.013H108.248C107.67 110.203 107.091 110.203 106.126 110.203C105.354 110.203 104.968 110.203 104.583 110.013C104.197 110.013 103.811 109.823 103.425 109.633C103.039 109.443 102.653 109.253 102.46 108.873C102.074 108.493 101.881 108.113 101.689 107.733C101.496 107.163 101.496 106.783 101.496 106.213C101.496 105.643 101.496 105.263 101.689 104.693C101.881 104.313 102.074 103.933 102.46 103.363C102.846 102.983 103.039 102.603 103.618 102.413C104.004 102.223 104.583 102.033 104.968 101.843C105.354 101.843 105.933 101.653 106.512 101.653C106.898 101.653 107.477 101.653 107.863 101.843C108.248 102.413 108.441 102.603 108.634 102.603Z" fill="black"/>
<path d="M108.828 110.393C109.406 110.203 109.792 110.203 109.985 110.013C109.985 110.013 110.178 109.823 110.178 109.633V109.063V107.923V107.352V105.642V104.502C110.178 103.742 110.178 103.362 110.178 103.172V102.982H109.985C109.792 102.982 109.599 102.982 109.213 102.982C109.213 102.982 109.213 102.982 109.213 102.792C109.213 102.792 109.213 102.792 109.213 102.602C109.406 102.602 109.792 102.602 110.564 102.602C110.757 102.602 111.143 102.602 111.143 102.602C111.336 102.602 111.722 102.602 111.915 102.602C112.107 102.602 112.3 102.602 112.493 102.602C112.493 102.602 112.3 102.602 112.107 102.602C111.722 102.602 111.529 102.792 111.336 102.792C111.336 102.792 111.143 102.982 111.143 103.362V103.552V106.022V107.732V109.443C111.143 110.013 111.143 110.203 111.143 110.393C111.143 110.393 111.143 110.393 111.336 110.583C111.529 110.583 111.722 110.773 112.107 110.773H112.3V110.963C112.3 110.963 112.3 110.963 112.3 111.153H112.107C112.107 111.153 111.722 111.153 111.529 111.153C111.143 111.153 110.95 111.153 110.757 111.153C110.564 111.153 110.371 111.153 110.178 111.153C109.985 111.153 109.599 111.153 109.213 111.153H109.02L108.828 110.393ZM111.336 106.402L111.529 106.212C111.722 106.022 112.107 105.832 112.686 105.262L114.423 103.742C115.002 103.362 115.194 102.982 115.387 102.792V102.602L115.194 102.412C115.002 102.412 115.002 102.412 114.809 102.412C114.616 102.412 114.423 102.412 114.423 102.412C114.423 102.412 114.423 102.412 114.423 102.222C114.423 102.222 114.423 102.222 114.423 102.032H114.616C114.809 102.032 115.002 102.032 115.002 102.032C115.194 102.032 115.387 102.032 115.773 102.032C115.966 102.032 115.966 102.032 115.966 102.032H116.931C117.124 102.032 117.124 102.032 117.124 102.032H117.317C117.317 102.222 117.317 102.222 117.317 102.222C116.931 102.222 116.545 102.412 116.352 102.412C116.159 102.412 115.966 102.602 115.58 102.792C115.194 102.982 115.002 103.172 114.809 103.362L113.072 104.692L112.107 105.452C112.107 105.452 112.107 105.452 112.3 105.642C112.686 106.022 113.458 106.592 114.23 107.162C115.002 107.733 115.58 108.303 115.966 108.683C116.545 109.253 117.124 109.633 117.703 109.633C117.896 109.633 117.896 109.633 118.089 109.823C117.896 109.823 117.896 109.823 117.703 109.823C117.51 109.823 117.124 109.823 116.738 109.823C116.545 109.823 116.352 109.823 116.159 109.823C115.58 109.823 114.809 109.823 114.037 109.823V109.633C114.037 109.633 114.23 109.443 114.423 109.443C114.616 109.443 114.809 109.443 115.194 109.253H115.387L115.194 109.063C115.194 109.063 115.194 109.063 115.002 108.873C114.809 108.683 114.809 108.683 114.423 108.493L114.23 108.683L113.072 107.732C112.686 107.352 112.107 106.972 111.336 106.402Z" fill="black"/>
<path d="M68.8892 125.783H69.0821H69.275H69.468C70.0468 125.783 70.2397 125.783 70.4327 125.593C70.6256 125.403 70.8185 125.213 71.0115 125.023C71.3974 124.453 71.7832 123.503 72.1691 122.363C72.362 121.793 72.555 121.413 72.555 121.413C72.7479 121.033 72.9409 120.653 72.9409 120.273L73.9055 117.803C74.0985 117.423 74.2914 116.473 74.8702 115.143C75.0632 114.763 75.2561 114.383 75.4491 113.812H75.642H76.0279C76.2208 114.383 76.6067 114.953 76.7996 115.523C76.9926 115.903 77.1855 116.283 77.3784 117.043L78.9219 120.843L79.6937 122.933C80.0796 124.073 80.4655 124.833 80.4655 125.213C80.6584 125.403 80.6584 125.593 80.8513 125.783C80.8513 125.783 81.0443 125.783 81.2372 125.973C81.4301 125.973 81.6231 125.973 81.6231 126.163C82.009 126.163 82.2019 126.353 82.2019 126.353V126.543C82.2019 126.543 82.2019 126.543 82.2019 126.733C82.009 126.733 81.816 126.733 81.816 126.733C81.4301 126.733 80.8513 126.733 80.0796 126.733H79.1149H77.9573H77.7643H77.5714H77.3784H77.1855V126.543H77.3784H78.3431C78.5361 126.543 78.729 126.543 78.9219 126.353C78.9219 126.163 78.9219 126.163 78.9219 126.163C78.9219 125.973 78.9219 125.783 78.729 125.213C78.5361 124.833 78.5361 124.643 78.3431 124.263C78.3431 124.073 77.9573 123.123 77.3784 121.413C77.1855 121.413 76.7996 121.413 76.6067 121.413H74.4844H73.9055C73.7126 121.413 73.5197 121.413 73.1338 121.413C73.1338 121.603 72.9409 121.793 72.9409 121.793L72.1691 124.453C71.7832 125.403 71.5903 125.973 71.5903 126.163C71.5903 126.163 71.5903 126.353 71.5903 126.543C71.7832 126.543 71.9762 126.543 72.1691 126.733L73.5197 126.923L73.7126 127.113C73.7126 127.113 73.7126 127.113 73.7126 127.303C73.5197 127.303 73.1338 127.303 73.1338 127.303C72.555 127.303 71.9762 127.303 71.3974 127.303C71.0115 127.303 70.8185 127.303 70.8185 127.303C70.8185 127.303 70.4327 127.303 70.0468 127.303C69.8538 127.303 69.6609 127.303 69.6609 127.303C69.468 127.303 69.275 127.303 69.0821 127.303L68.8892 125.783C68.8892 125.973 68.8892 125.973 68.8892 125.783ZM73.5197 120.083C74.2914 120.083 75.0632 120.083 75.8349 120.083C76.4137 120.083 76.7996 120.083 77.1855 120.083C77.1855 119.893 76.9926 119.513 76.9926 119.323C76.6067 118.183 76.4137 117.613 76.2208 117.423L75.2561 115.143L75.0632 114.953C75.0632 114.953 74.8702 115.333 74.6773 115.903C74.2914 116.853 73.9056 117.613 73.7126 118.183C73.7126 118.373 73.5197 118.753 73.5197 118.943C73.5197 119.133 73.3267 119.323 73.3267 119.513C73.5197 119.893 73.5197 120.083 73.5197 120.083Z" fill="black"/>
<path d="M82.5877 116.282V115.902C83.3594 115.902 84.1312 115.902 84.517 115.902C84.71 115.902 84.71 115.902 84.9029 115.902H85.0959C85.2888 116.092 85.4817 116.282 85.6747 116.472C85.6747 116.472 85.6747 116.662 85.8676 116.662L87.6041 118.562L87.797 118.942C88.1829 119.322 88.3758 119.702 88.7617 119.892C88.9546 120.082 89.5334 120.842 90.4981 121.602L92.4275 123.692C92.6204 123.882 92.8134 124.072 93.1993 124.452V124.262C93.1993 123.502 93.1993 123.122 93.1993 123.122V122.552V121.792V121.412C93.1993 121.222 93.1993 120.462 93.1993 119.322C93.1993 119.132 93.1993 118.942 93.1993 118.372C93.1993 117.992 93.1993 117.612 93.1993 117.232C93.1993 116.662 93.1993 116.282 93.0063 116.282C93.0063 116.282 92.8134 116.092 92.2346 116.092C92.0416 116.092 92.0416 116.092 91.8487 116.092C91.6558 116.092 91.4628 116.092 91.4628 116.092C91.4628 116.092 91.4628 116.092 91.2699 115.902V115.712C91.4628 115.712 91.6557 115.712 91.6557 115.712C91.8487 115.712 92.0416 115.712 92.2346 115.712C92.4275 115.712 92.6204 115.712 92.8134 115.712C93.0063 115.712 93.3922 115.712 93.971 115.712C94.3569 115.712 94.5498 115.712 94.5498 115.712H94.7428V115.902C94.7428 115.902 94.5498 115.902 94.3569 115.902C94.1639 115.902 93.971 115.902 93.971 115.902C93.7781 115.902 93.5851 116.092 93.5851 116.092C93.3922 116.282 93.3922 116.282 93.3922 116.472V118.942V120.082V120.462V122.172C93.3922 123.312 93.3922 124.262 93.3922 125.022C93.3922 125.212 93.3922 125.592 93.3922 126.162H93.0063C92.8134 125.972 92.2346 125.212 91.0769 124.072C90.884 123.882 90.6911 123.692 90.4981 123.502L89.7264 122.742C89.5334 122.362 89.3405 122.172 89.1476 122.172L88.9546 121.982C88.3758 121.222 87.6041 120.462 86.6394 119.512C86.4464 119.322 86.0605 118.752 85.4817 118.182C85.0958 117.802 84.9029 117.612 84.9029 117.612C84.9029 117.612 84.71 117.422 84.517 117.422V117.612C84.517 118.752 84.517 120.082 84.517 121.982V124.642C84.517 124.832 84.517 125.022 84.517 125.212H84.71C85.2888 125.212 85.6747 125.402 86.2535 125.402C86.2535 125.402 86.2535 125.402 86.4464 125.402V125.782H86.2535H86.0605C85.4817 125.782 84.9029 125.782 84.1312 125.782C83.5523 125.782 83.1665 125.782 82.5877 125.782H82.3947H82.2018V125.592L82.3947 125.402H82.7806C83.1665 125.402 83.3594 125.212 83.5523 125.212C83.7453 125.212 83.7453 125.212 83.7453 125.022C83.7453 124.642 83.7453 124.072 83.7453 123.312C83.7453 122.932 83.7453 122.362 83.7453 121.412V120.272V117.992C83.7453 117.042 83.7453 116.282 83.5523 116.092C83.5523 115.902 83.3594 115.902 83.3594 115.902C83.1665 115.712 82.9735 115.712 82.5877 115.712C82.9735 116.282 82.5877 116.282 82.5877 116.282Z" fill="black"/>
<path d="M106.319 116.283V117.423C106.319 117.803 106.319 117.993 106.319 118.183H106.126C105.74 117.423 105.354 116.663 104.776 116.283C104.197 115.903 103.618 115.713 102.846 115.713C101.881 115.713 101.11 115.903 100.531 116.093C99.7592 116.473 99.1803 117.043 98.6015 117.803C98.0227 118.563 97.8298 119.513 97.8298 120.843C97.8298 121.603 98.0227 122.173 98.2157 122.553C98.4086 123.123 98.7945 123.503 98.9874 124.073C99.3733 124.453 99.7592 124.833 100.338 125.213C100.724 125.403 101.11 125.593 101.496 125.783C101.689 125.783 102.074 125.783 102.653 125.783C103.039 125.783 103.425 125.783 103.811 125.593C104.197 125.593 104.583 125.403 104.776 125.213C104.968 125.023 105.161 124.833 105.161 124.643C105.161 124.453 105.354 124.073 105.354 123.503C105.354 122.553 105.354 121.983 105.161 121.793C104.968 121.603 104.583 121.603 104.004 121.413H103.618H103.425C103.425 121.413 103.425 121.413 103.232 121.413L103.039 121.223C103.039 121.223 103.039 121.223 103.039 121.033C103.232 121.033 104.004 121.033 104.968 121.033C105.161 121.033 105.547 121.033 105.933 121.033H106.705H107.477C107.67 121.033 107.863 121.033 108.055 121.033V121.223C107.863 121.223 107.67 121.223 107.477 121.223H106.898C106.705 121.223 106.512 121.223 106.512 121.413C106.512 121.413 106.512 121.603 106.512 121.983V123.123C106.512 123.883 106.512 124.263 106.512 124.453C106.512 124.643 106.319 124.643 106.319 124.833C106.126 124.833 105.933 125.023 105.74 125.213C105.161 125.973 104.583 126.163 104.197 126.163C103.425 126.353 102.846 126.353 102.074 126.353C100.917 126.353 100.145 126.163 99.3733 125.973C98.6015 125.783 98.0227 125.403 97.6368 124.833C97.058 124.263 96.8651 123.883 96.4792 123.313C96.0933 122.553 95.9004 121.793 95.9004 121.033C95.9004 120.083 96.0933 119.133 96.6721 118.183C97.251 117.233 98.0227 116.473 99.1803 115.903C99.9521 115.523 101.11 115.333 102.46 115.333C103.425 115.333 104.197 115.333 104.776 115.523C105.547 115.903 105.933 116.093 106.319 116.283Z" fill="black"/>
<path d="M113.072 115.712V115.902C113.072 115.902 113.072 115.902 113.072 116.092C112.879 116.092 112.879 116.092 112.686 116.092H112.493H112.3C112.107 116.092 111.914 116.092 111.721 116.282C111.528 116.282 111.528 116.472 111.528 116.472V117.422V121.412C111.528 122.932 111.528 123.882 111.721 124.072C111.721 124.452 111.914 124.642 112.107 125.022C112.3 125.212 112.686 125.402 113.072 125.592C113.458 125.782 114.037 125.782 114.423 125.782C115.387 125.782 116.159 125.592 116.545 125.402C117.124 125.212 117.317 124.832 117.702 124.262C117.895 123.882 118.088 123.122 118.088 122.172C118.088 122.172 118.088 121.982 118.088 121.602V121.412C118.088 121.412 118.088 121.222 118.088 120.842C118.088 120.652 118.088 120.462 118.088 120.462L117.895 118.182C117.895 117.422 117.895 116.852 117.702 116.852C117.702 116.662 117.51 116.662 117.51 116.472C117.317 116.282 116.931 116.092 116.352 116.092V115.902C116.545 115.902 116.738 115.902 116.931 115.902C117.124 115.902 117.317 115.902 117.702 115.902C118.088 115.902 118.281 115.902 118.281 115.902H119.632H119.825V116.282C119.246 116.282 118.667 116.472 118.667 116.662C118.474 116.852 118.474 117.042 118.474 117.232C118.474 117.422 118.474 117.802 118.474 118.372V120.082V120.842V121.602C118.474 122.742 118.474 123.312 118.474 123.692C118.474 124.262 118.281 124.642 118.088 125.022C117.895 125.402 117.702 125.592 117.317 125.782C116.931 125.972 116.545 126.162 116.159 126.352C115.58 126.542 115.194 126.542 114.615 126.542C113.844 126.542 113.265 126.542 112.879 126.352C112.3 126.162 111.721 125.972 111.336 125.592C110.95 125.212 110.757 125.022 110.564 124.642C110.371 124.262 110.371 123.692 110.371 122.932V122.362V120.082V118.182V117.042C110.371 116.662 110.371 116.472 110.178 116.472L109.985 116.282H109.406C109.02 116.282 108.827 116.282 108.634 116.092C108.634 116.092 108.634 116.092 108.634 115.902C108.634 115.902 108.634 115.902 108.634 115.712H108.827H109.02H109.599H110.95H113.072Z" fill="black"/>
<path d="M126.77 116.092C126.77 116.472 126.77 116.662 126.77 116.662V117.422C126.77 117.802 126.77 117.992 126.77 117.992C126.77 117.992 126.77 117.992 126.578 117.992C126.385 117.232 126.192 116.662 125.613 116.282C125.227 115.902 124.648 115.712 124.069 115.712C123.491 115.712 122.912 115.902 122.526 116.282C122.14 116.662 121.947 117.042 121.947 117.422C121.947 117.802 122.14 118.182 122.333 118.372C122.526 118.752 123.298 119.132 124.455 119.702C125.42 120.082 125.999 120.462 126.385 120.842C126.77 121.032 126.963 121.412 127.156 121.792C127.349 122.172 127.349 122.552 127.349 123.122C127.349 123.692 127.156 124.262 126.963 124.832C126.578 125.402 126.192 125.782 125.806 125.972C125.42 126.162 124.648 126.352 123.683 126.352C122.912 126.352 122.14 126.162 121.561 125.972C121.175 125.782 120.982 125.782 120.789 125.592L120.596 125.402V125.212C120.596 124.642 120.789 124.072 120.789 123.692C120.789 123.502 120.789 123.312 120.789 123.312C120.789 123.312 120.789 123.312 120.982 123.312C120.982 123.312 120.982 123.312 121.175 123.312V123.502C121.175 124.072 121.561 124.832 122.14 125.212C122.719 125.782 123.298 125.972 124.069 125.972C124.455 125.972 124.841 125.972 125.227 125.782C125.613 125.592 125.806 125.402 125.999 125.022C126.192 124.642 126.385 124.452 126.385 124.072C126.385 123.692 126.192 123.312 125.999 122.932C125.613 122.552 125.034 122.172 124.069 121.602C123.105 121.032 122.526 120.842 122.14 120.462C121.754 120.082 121.368 119.702 121.175 119.322C120.982 118.942 120.982 118.562 120.982 118.182C120.982 117.422 121.368 116.852 121.947 116.282C122.526 115.712 123.298 115.522 124.455 115.522C125.034 115.522 125.42 115.522 125.999 115.712C126.192 115.712 126.578 115.902 126.77 116.092Z" fill="black"/>
</g>
<defs>
<clipPath id="clip0_557_1124">
<rect width="194.675" height="165.491" fill="white" transform="translate(0.395996 0.761719)"/>
</clipPath>
</defs>
</svg>
