<svg width="176" height="173" viewBox="0 0 176 173" fill="none" xmlns="http://www.w3.org/2000/svg">
<path d="M133.197 11.3669C134.176 6.44305 132.699 1.03723 126.255 2.8646C126.096 2.90852 126.076 2.98711 126.196 3.10039C128.832 5.53919 131.045 8.31549 132.834 11.4293C133.007 11.7298 133.128 11.709 133.197 11.3669Z" stroke="#E69093" stroke-width="2"/>
<path d="M110.35 10.4168C109.603 11.9032 109.047 13.4497 108.683 15.0563C108.677 15.0801 108.678 15.1051 108.685 15.1285C108.693 15.1519 108.707 15.1727 108.725 15.1885C108.744 15.2044 108.767 15.2147 108.791 15.2183C108.815 15.2219 108.84 15.2186 108.863 15.2088C116.039 12.243 123.45 11.5818 131.094 13.2254C131.125 13.2318 131.157 13.229 131.186 13.2172C131.215 13.2055 131.24 13.1854 131.258 13.1595C131.276 13.1335 131.285 13.1029 131.286 13.0714C131.286 13.04 131.277 13.0091 131.26 12.9827L129.078 9.64697" stroke="#E69093" stroke-width="2"/>
<path d="M129.078 9.64706C127.295 7.10654 125.057 5.11504 122.364 3.67257C121.17 3.03802 120.482 3.39863 119.25 3.6899C115.152 4.66311 112.186 6.90542 110.35 10.4168" stroke="#D59396" stroke-width="2"/>
<path d="M129.078 9.64707C128.882 9.58928 128.673 9.6517 128.452 9.83432C128.359 9.9106 128.282 9.89674 128.22 9.79271C127.691 8.8981 127.213 8.04856 126.386 7.37933C124.934 6.2027 123.395 5.14858 121.772 4.21698C121.624 4.13145 121.479 4.07597 121.336 4.05054C121.124 4.01124 120.969 4.00315 120.873 4.02627C116.227 5.16708 113.418 6.50899 111.267 10.611C111.218 10.7035 111.154 10.7162 111.073 10.6492C110.9 10.4989 110.659 10.4215 110.35 10.4169" stroke="#BC242A" stroke-width="2"/>
<path d="M70.9748 39.9114C64.4959 45.6709 59.0893 52.9491 56.2321 61.1324" stroke="#D59396" stroke-width="2"/>
<path d="M56.2321 61.1324C51.4827 75.0439 55.7167 88.6261 65.2465 99.2609C65.2627 99.2794 65.2811 99.284 65.3019 99.2748C65.3226 99.2655 65.3503 99.2528 65.3849 99.2366C65.3858 99.2366 65.3867 99.2363 65.3874 99.2356C65.388 99.235 65.3884 99.2341 65.3884 99.2332C65.3884 99.2323 65.388 99.2314 65.3874 99.2307C65.3867 99.2301 65.3858 99.2297 65.3849 99.2297C54.5509 83.574 56.4327 64.2392 70.1239 51.1876C70.2438 51.0743 70.3234 51.0974 70.3626 51.257L75.7588 73.0952C75.7888 73.2154 75.8464 73.2305 75.9318 73.1403C76.8657 72.1417 77.802 71.1384 78.7406 70.1305C87.9072 60.3106 99.5403 55.2168 112.806 53.705C112.868 53.698 112.924 53.6667 112.963 53.618C113.002 53.5692 113.02 53.507 113.014 53.4449C112.066 44.6202 109.914 18.5238 122.747 16.4329C127.763 15.6181 132.997 19.1549 136.331 22.501C136.447 22.6189 136.428 22.7079 136.276 22.768L125.729 27.0192C125.697 27.0321 125.669 27.0519 125.646 27.0771C125.622 27.1023 125.605 27.1323 125.594 27.165C125.584 27.1977 125.58 27.2323 125.585 27.2664C125.589 27.3005 125.6 27.3333 125.619 27.3625C131.219 36.1768 134.792 46.3747 135.228 56.8986" stroke="#E69093" stroke-width="2"/>
<path d="M135.228 56.8984C135.806 78.331 122.658 96.4383 102.792 103.678" stroke="#D59396" stroke-width="2"/>
<path d="M102.792 103.678C94.1164 106.693 85.2092 107.477 76.0702 106.029C76.057 106.029 76.0443 106.034 76.034 106.042C76.0236 106.05 76.0163 106.061 76.0131 106.074C76.0099 106.087 76.0111 106.1 76.0164 106.112C76.0217 106.124 76.0309 106.134 76.0425 106.14C85.5159 109.548 95.1714 110.247 105.009 108.238" stroke="#E69093" stroke-width="2"/>
<path d="M105.009 108.238C122.37 104.597 136.439 92.4368 140.538 74.8601" stroke="#D59396" stroke-width="2"/>
<path d="M140.538 74.86C144.083 58.6842 138.217 41.9605 129.451 28.5447C129.442 28.5302 129.436 28.5137 129.434 28.4965C129.432 28.4793 129.434 28.4618 129.44 28.4455C129.445 28.4291 129.454 28.4143 129.467 28.402C129.479 28.3898 129.494 28.3805 129.51 28.3748L141.555 24.0578C141.728 23.9977 141.758 23.8948 141.645 23.7492C135.999 16.5784 126.265 10.5519 117.258 16.3496C107.507 22.6257 105.397 38.6074 105.497 48.9995C105.498 49.1052 105.464 49.2084 105.4 49.2926C105.336 49.3767 105.246 49.4371 105.144 49.4641C94.3216 52.2867 84.9831 57.6624 77.1286 65.5914C77.1108 65.6101 77.088 65.6233 77.063 65.6294C77.0379 65.6355 77.0117 65.6343 76.9873 65.6259C76.9629 65.6175 76.9414 65.6023 76.9254 65.5821C76.9094 65.5618 76.8995 65.5374 76.8969 65.5117L73.4377 37.9763C73.417 37.8237 73.349 37.7983 73.2337 37.9L70.9749 39.9112" stroke="#E69093" stroke-width="2"/>
<path d="M140.538 74.8601C140.335 75.0959 140.118 75.1884 139.887 75.1375C139.77 75.1144 139.697 75.1606 139.669 75.2762C138.099 81.7766 135.153 87.5245 130.831 92.52C128.645 95.0444 126.027 97.1075 123.446 99.2331C122.512 100.001 121.788 100.554 121.274 100.894C119.517 102.056 118.088 102.34 116.642 103.307C115.532 104.049 113.598 104.785 112.412 105.173C110.131 105.922 107.834 106.627 105.521 107.288C105.474 107.302 105.431 107.329 105.4 107.368C105.031 107.802 104.901 108.093 105.009 108.238" stroke="#BC242A" stroke-width="2"/>
<path d="M102.792 103.678C104.483 104.302 106.213 103.124 107.752 102.454C110.059 101.452 112.138 100.013 114.314 98.7198C115.179 98.2032 115.905 97.4299 116.781 96.8578C122.08 93.3799 126.539 88.0122 129.707 82.5683C130.607 81.0252 131.319 79.2048 132.122 77.4918C133.779 73.9619 134.661 70.1477 135.543 66.3993C136.235 63.4589 136.051 60.4526 136.145 57.4914C136.152 57.207 136.079 57.0267 135.927 56.9504C135.763 56.8672 135.53 56.8499 135.228 56.8984" stroke="#BC242A" stroke-width="2"/>
<path d="M56.2321 61.1324C56.6748 61.0145 57.0034 60.7787 57.1902 60.328C60.3242 52.8208 65.0286 46.562 70.9333 40.962C71.0186 40.8811 71.0555 40.7829 71.044 40.6673L70.9748 39.9114" stroke="#BC242A" stroke-width="2"/>
<path d="M127.421 20.5593C127.421 19.979 127.191 19.4225 126.781 19.0122C126.372 18.6019 125.817 18.3713 125.238 18.3713C124.659 18.3713 124.104 18.6019 123.695 19.0122C123.285 19.4225 123.055 19.979 123.055 20.5593C123.055 21.1396 123.285 21.6961 123.695 22.1065C124.104 22.5168 124.659 22.7473 125.238 22.7473C125.817 22.7473 126.372 22.5168 126.781 22.1065C127.191 21.6961 127.421 21.1396 127.421 20.5593Z" stroke="#919090" stroke-width="2"/>
<path d="M134.367 22.0571C133.34 21.0053 132.184 20.1338 130.897 19.4426C130.614 19.29 130.486 19.3744 130.513 19.6957L130.838 23.6278C130.841 23.6586 130.851 23.6883 130.867 23.7146C130.883 23.7409 130.905 23.763 130.931 23.7792C130.958 23.7953 130.987 23.8051 131.018 23.8078C131.049 23.8104 131.08 23.8058 131.108 23.7943L134.256 22.5668C134.549 22.4512 134.586 22.2813 134.367 22.0571Z" stroke="#D59396" stroke-width="2"/>
<path d="M139.545 39.7553C147.082 33.3786 139.22 27.5012 132.471 28.8188C132.448 28.8236 132.426 28.8341 132.408 28.8494C132.39 28.8647 132.376 28.8843 132.368 28.9062C132.36 28.9282 132.357 28.9517 132.361 28.9747C132.364 28.9976 132.374 29.0192 132.388 29.0373C134.98 32.3776 137.246 35.926 139.185 39.6825C139.201 39.7138 139.224 39.7412 139.253 39.7625C139.281 39.7837 139.313 39.7984 139.348 39.8054C139.382 39.8124 139.418 39.8115 139.452 39.8028C139.486 39.7942 139.518 39.7779 139.545 39.7553Z" stroke="#E69093" stroke-width="2"/>
<path d="M63.6346 88.7094C66.0767 96.8961 71.978 102.607 80.4563 103.921C89.8236 105.378 99.2739 102.399 107.365 97.6798C109.295 96.554 111.214 95.4074 113.121 94.24C113.13 94.2354 113.151 94.2273 113.183 94.2158C113.227 94.1996 113.259 94.1649 113.28 94.1117C113.324 93.9938 113.288 93.9615 113.173 94.0146C98.5717 100.807 79.294 106.082 66.6959 92.1318C65.6674 90.9898 64.7 89.8213 63.7937 88.6262C63.781 88.6094 63.7631 88.5979 63.7429 88.5934C63.7227 88.5889 63.7015 88.5918 63.6828 88.6015C63.6641 88.6113 63.6491 88.6274 63.6403 88.647C63.6315 88.6667 63.6295 88.6887 63.6346 88.7094Z" stroke="#E8E9EA" stroke-width="2"/>
<path d="M27.6217 97.4924C25.1657 97.9363 22.7789 98.8644 20.4613 100.277" stroke="#E69093" stroke-width="2"/>
<path d="M20.4613 100.277C15.5309 103.312 12.6022 107.523 11.6751 112.909C8.83174 129.414 32.0459 129.355 28.7494 143.045C27.549 148.028 22.817 149.564 18.1299 149.418" stroke="#D59396" stroke-width="2"/>
<path d="M18.1299 149.418C12.7959 149.151 8.30941 145.822 8.2506 140.139C8.2506 140.026 8.19641 139.989 8.08803 140.028C6.39997 140.627 4.94253 141.532 3.7157 142.743" stroke="#E69093" stroke-width="2"/>
<path d="M3.71573 142.743C1.82014 144.695 0.543721 147.577 1.90661 150.077C4.28995 154.456 12.4569 155.691 16.8085 155.528" stroke="#D59396" stroke-width="2"/>
<path d="M16.8085 155.528L21.4056 154.879" stroke="#E69093" stroke-width="2"/>
<path d="M21.4057 154.879C25.8956 153.904 29.8321 151.915 33.2151 148.912C39.6975 143.163 41.7868 133.426 35.8786 126.498C30.4132 120.087 19.2956 116.397 21.4091 108.034C21.9465 105.909 23.2494 104.431 25.3179 103.599" stroke="#D59396" stroke-width="2"/>
<path d="M25.3179 103.599C26.3487 103.187 27.3588 102.953 28.3481 102.895" stroke="#E69093" stroke-width="2"/>
<path d="M28.3481 102.895C33.6925 102.333 36.5082 104.577 39.3447 108.609C39.4046 108.695 39.4807 108.712 39.573 108.661C41.8248 107.413 44.3638 104.788 44.1632 102.042C43.7066 95.8073 31.4855 96.6117 27.6217 97.4925" stroke="#D59396" stroke-width="2"/>
<path d="M28.3481 102.895C28.4703 102.469 28.4899 102.219 28.4069 102.142C28.375 102.113 28.3546 102.075 28.3486 102.032C28.3426 101.99 28.3511 101.946 28.3731 101.906C28.3951 101.865 28.4295 101.831 28.472 101.806C28.5144 101.781 28.5628 101.768 28.611 101.768C32.0263 101.786 34.8916 102.798 37.2069 104.802C37.8953 105.398 38.4557 106.234 39.0437 106.948C39.181 107.114 39.3714 107.226 39.5822 107.266C39.7931 107.305 40.0111 107.271 40.1991 107.167C41.683 106.348 43.6547 103.852 43.4887 102.049C43.1082 97.8947 35.6987 97.6485 32.8069 97.6866C31.105 97.7074 29.3766 97.6427 27.6217 97.4924" stroke="#BC242A" stroke-width="2"/>
<path d="M25.3179 103.599C25.4009 103.37 25.3629 103.183 25.2037 103.037C25.1624 102.997 25.1105 102.971 25.0542 102.96C24.9978 102.948 24.9393 102.954 24.8855 102.975C22.4745 103.9 21.8484 105.215 20.8349 107.468C20.3748 108.488 20.3956 110.922 20.6792 111.945C21.7273 115.731 25.7261 118.731 28.777 120.933C29.2855 121.297 29.7421 121.883 30.3474 122.25C34.8581 124.997 39.1371 130.645 38.7393 136.228C38.5202 139.33 37.5689 142.08 35.8855 144.477C32.16 149.786 27.8396 152.317 21.6132 154.054C21.5025 154.087 21.4448 154.159 21.4402 154.273L21.4056 154.879" stroke="#BC242A" stroke-width="2"/>
<path d="M16.8085 155.528C16.3219 154.918 15.5275 154.636 14.4252 154.682C11.0306 154.823 7.86094 153.892 4.91607 151.89C2.66764 150.358 1.25287 147.31 3.15192 144.855C3.79993 144.02 3.98788 143.316 3.71576 142.743" stroke="#BC242A" stroke-width="2"/>
<path d="M18.1299 149.418C19.1192 149.342 19.8675 149.481 20.3749 149.834C20.4648 149.899 20.5651 149.929 20.6758 149.924C25.612 149.751 29.3271 146.353 29.8113 141.429C30.3302 136.158 26.622 132.896 22.817 130.035C21.4403 128.999 20.5651 128.317 20.1915 127.989C16.1374 124.424 12.2355 121.449 12.1076 115.516C12.0245 111.494 14.7538 106.081 17.5868 103.321C17.6744 103.236 17.7332 103.133 17.7632 103.013C17.9685 102.176 18.4758 101.767 19.2852 101.785C19.4028 101.788 19.5135 101.761 19.6173 101.705C20.3368 101.319 20.6181 100.843 20.4613 100.277" stroke="#BC242A" stroke-width="2"/>
<path d="M141.098 139.331C141.213 134.37 141.036 129.375 140.565 124.345C140.365 122.184 139.798 120.052 137.566 119.847C135.639 119.672 133.791 120.029 132.025 120.919C131.919 120.972 131.896 121.049 131.956 121.151C132.624 122.265 133.095 123.465 133.367 124.75C134.836 131.69 135.546 138.717 135.498 145.833C135.498 145.958 135.56 146.021 135.685 146.023C139.832 146.11 142.897 143.738 145.47 140.586C147.56 138.024 159.926 121.8 154.281 119.289C152.81 118.635 151.181 118.498 149.397 118.88C149.288 118.903 149.258 118.964 149.307 119.064C150.659 121.72 150.099 124.005 148.957 126.796C147.155 131.21 144.163 135.617 141.326 139.411C141.167 139.621 141.091 139.595 141.098 139.331Z" stroke="#E69093" stroke-width="2"/>
<path d="M61.9086 139.179C66.063 133.197 68.5086 120.992 57.723 119.785" stroke="#D59396" stroke-width="2"/>
<path d="M57.723 119.785C48.9714 119.209 42.3299 127.563 41.5516 135.475C40.8736 142.41 44.9 147.237 52.178 145.954C56.1768 145.25 59.667 142.518 61.9085 139.179" stroke="#E69093" stroke-width="2"/>
<path d="M57.723 119.785C57.8406 119.972 57.9098 120.148 57.9306 120.312C57.9444 120.416 58.0044 120.476 58.1104 120.492C62.5001 121.092 64.2953 123.811 64.6274 128.024C64.918 131.741 63.6762 135.455 61.6249 138.534C61.5834 138.598 61.5926 138.656 61.6526 138.707C61.7794 138.811 61.8647 138.968 61.9086 139.179" stroke="#BC242A" stroke-width="2"/>
<path d="M152.382 138.773C152.869 148.42 164.928 147.005 170.4 143.634C172.431 142.386 173.513 140.902 172.818 138.516C172.808 138.481 172.789 138.449 172.763 138.422C172.736 138.396 172.704 138.377 172.668 138.367C172.632 138.356 172.594 138.355 172.558 138.363C172.521 138.371 172.487 138.388 172.458 138.412C169.428 141.079 161.725 145.389 159.418 139.449C158.131 136.134 162.053 134.973 164.485 134.109C168.543 132.667 175.534 128.228 174.185 123.107C173.676 121.179 172.047 120.066 170.137 119.854C159.888 118.731 151.911 129.345 152.382 138.773Z" stroke="#E69093" stroke-width="2"/>
<path d="M95.6037 127.285C94.6559 131.989 93.8719 135.71 93.2515 138.447C92.6323 141.19 92.1515 145.663 96.2195 146.034C98.6996 146.259 101.349 144.293 102.885 142.445" stroke="#D59396" stroke-width="2"/>
<path d="M102.885 142.445L103.601 141.616C103.689 141.515 103.745 141.53 103.771 141.661C104.322 144.687 106.042 146.18 108.932 146.138C113.256 146.076 117.189 140.944 119.109 137.563C119.124 137.534 119.149 137.512 119.179 137.499C119.209 137.487 119.242 137.486 119.273 137.496C119.304 137.506 119.33 137.526 119.348 137.554C119.365 137.581 119.372 137.614 119.368 137.646C119.019 140.656 118.583 145.399 122.654 146.027C126.521 146.623 131.482 141.166 131.769 137.462C131.774 137.389 131.758 137.315 131.723 137.251C131.688 137.186 131.635 137.133 131.57 137.097C131.506 137.062 131.433 137.046 131.359 137.051C131.286 137.056 131.216 137.082 131.157 137.126C129.576 138.315 128.313 140.091 126.57 140.951C126.523 140.974 126.471 140.986 126.418 140.987C126.365 140.987 126.313 140.976 126.265 140.954C126.218 140.932 126.175 140.899 126.142 140.858C126.108 140.817 126.084 140.77 126.072 140.718C125.65 139.019 125.843 137.885 126.172 135.885C127.011 130.824 128.381 125.912 130.281 121.148C130.321 121.051 130.292 120.981 130.195 120.94C127.787 119.892 125.421 119.334 123.301 121.089C123.204 121.17 123.105 121.173 123.003 121.099C120.212 119.098 116.103 119.726 113.314 121.442C110.665 123.074 108.482 125.481 106.766 128.662" stroke="#E69093" stroke-width="2"/>
<path d="M106.766 128.662C105.101 131.597 104.057 134.766 103.632 138.166C103.624 138.226 103.593 138.281 103.546 138.319L100.159 141.075C100.01 141.198 99.9035 141.168 99.8412 140.985C99.4699 139.91 99.3616 138.927 99.5161 138.034C100.249 133.797 102.093 128.665 102.349 123.79C102.4 122.83 102.276 122.069 101.979 121.505C100.159 118.041 95.7214 120.662 93.7635 122.417" stroke="#D59396" stroke-width="2"/>
<path d="M93.7635 122.417C91.4044 124.47 89.4062 126.839 87.7689 129.525C87.7537 129.549 87.7304 129.566 87.7034 129.575C87.6763 129.583 87.6473 129.582 87.6217 129.571C87.596 129.56 87.5754 129.54 87.5637 129.515C87.552 129.49 87.5499 129.462 87.5579 129.435C88.2981 126.769 89.9101 120.707 86.0912 119.91C81.4733 118.946 75.7554 126.346 73.6453 129.706C73.6325 129.734 73.6088 129.756 73.5797 129.767C73.5505 129.778 73.5181 129.777 73.4896 129.764C73.4612 129.752 73.439 129.728 73.428 129.699C73.417 129.669 73.418 129.637 73.4308 129.608C73.9981 127.632 75.2676 123.44 74.7764 121.529C74.0604 118.745 69.4771 120.274 67.54 121.186C67.4339 121.237 67.3958 121.32 67.4258 121.436C67.8893 123.118 68.0727 124.319 67.9758 125.038C67.0326 131.994 65.25 138.734 62.628 145.257C62.5796 145.375 62.6176 145.45 62.7422 145.483C64.1143 145.85 65.5106 145.985 66.9312 145.888C69.0931 145.739 69.7607 144.297 70.4767 142.476C72.6871 136.842 75.112 131.828 79.5846 126.727C80.0481 126.2 80.6281 125.861 81.3246 125.711C81.3796 125.699 81.4365 125.702 81.4898 125.718C81.5431 125.735 81.591 125.764 81.6289 125.805C81.8688 126.057 81.961 126.38 81.9057 126.775C81.072 132.59 79.3494 138.572 77.9623 144.307C77.9408 144.393 77.9459 144.483 77.9768 144.566C78.0076 144.649 78.0629 144.72 78.1352 144.772C80.1508 146.189 82.2447 146.265 84.417 145.001C84.5069 144.947 84.5381 144.871 84.5104 144.772C83.7252 141.873 92.3176 125.056 95.4066 125.843C95.4591 125.856 95.5069 125.884 95.5452 125.922C95.5835 125.961 95.6109 126.009 95.6246 126.061C95.726 126.456 95.7191 126.864 95.6038 127.285" stroke="#E69093" stroke-width="2"/>
<path d="M93.7635 122.417C94.3032 122.525 94.7102 122.49 94.9846 122.309C97.1569 120.881 100.132 119.137 101.436 121.98C101.941 123.072 101.488 126.12 101.242 127.285C100.754 129.605 100.343 131.945 99.651 134.213C99.3396 135.222 99.3396 136.304 99.011 137.258C98.8519 137.725 98.6963 138.195 98.5441 138.669C98.5095 138.775 98.5106 138.88 98.5475 138.984C98.8969 139.987 98.9764 140.76 99.4261 141.758C99.4861 141.89 99.5818 141.925 99.7132 141.862C101.39 141.074 102.851 139.995 104.096 138.624C104.179 138.534 104.212 138.427 104.196 138.305C104.089 137.403 104.798 135.631 105.168 134.248C105.579 132.72 106.208 131.127 107.057 129.47C107.105 129.377 107.104 129.285 107.053 129.192L106.766 128.662" stroke="#BC242A" stroke-width="2"/>
<path d="M102.885 142.445L102.256 142.459C102.143 142.461 102.045 142.5 101.962 142.577C100.246 144.12 96.7073 146.381 94.7183 144.671C92.456 142.722 94.2651 138.246 94.6249 135.805C95.0192 133.149 95.7837 130.385 96.2472 127.625C96.2656 127.512 96.223 127.431 96.1192 127.382C95.9532 127.304 95.7814 127.271 95.6038 127.285" stroke="#BC242A" stroke-width="2"/>
<path d="M98.2155 168.885C98.2334 168.861 98.258 168.843 98.2861 168.834C98.3142 168.824 98.3446 168.823 98.3732 168.831C98.4019 168.839 98.4275 168.855 98.4469 168.877C98.4662 168.9 98.4784 168.928 98.4818 168.958C98.6617 170.677 100.073 171.076 101.46 170.351C102.752 169.679 103.612 168.584 104.041 167.068C104.051 167.027 104.049 166.984 104.033 166.945C104.018 166.906 103.991 166.873 103.955 166.85C103.92 166.828 103.878 166.817 103.836 166.82C103.794 166.823 103.754 166.839 103.722 166.867L102.097 168.285C102.037 168.337 101.964 168.37 101.886 168.381C101.809 168.393 101.729 168.382 101.657 168.349C101.586 168.317 101.525 168.264 101.482 168.198C101.439 168.132 101.416 168.055 101.415 167.976C101.404 167.068 101.525 166.104 101.778 165.084C102.415 162.509 103.036 159.928 103.643 157.341C103.751 156.881 103.728 156.256 103.574 155.466C103.56 155.396 103.526 155.331 103.476 155.281C103.427 155.23 103.363 155.196 103.293 155.181C102.419 154.999 101.567 155.097 100.737 155.476C100.665 155.509 100.606 155.564 100.569 155.634C100.532 155.704 100.519 155.783 100.533 155.861C100.651 156.502 100.699 157.185 100.547 157.855C99.9566 160.455 99.4112 163.071 98.9108 165.702C98.6444 167.102 98.0425 167.796 96.8837 168.469C96.8603 168.483 96.8342 168.491 96.8072 168.494C96.7801 168.497 96.7528 168.494 96.7271 168.485C96.7014 168.476 96.678 168.461 96.6584 168.442C96.6389 168.423 96.6237 168.4 96.6139 168.375C96.0397 166.891 97.7416 161.454 98.7516 157.282C99.6441 153.593 94.9501 154.984 93.3208 155.327C93.2631 155.339 93.2121 155.373 93.1776 155.421C93.1431 155.469 93.1276 155.528 93.134 155.587C93.2562 156.606 93.0164 157.543 92.4145 158.396C90.1915 161.551 87.8981 164.657 85.5343 167.713C84.2268 169.401 85.5067 170.83 87.3227 170.691C87.4334 170.682 87.5141 170.628 87.5648 170.528C88.4665 168.785 89.5319 167.143 90.7611 165.601C90.7905 165.563 90.8274 165.531 90.8696 165.507C90.9118 165.483 90.9584 165.468 91.0067 165.462L93.8985 165.102C93.9221 165.099 93.946 165.102 93.9683 165.11C93.9905 165.118 94.0104 165.132 94.0264 165.149C94.0423 165.166 94.0537 165.187 94.0598 165.21C94.0658 165.232 94.0663 165.256 94.0611 165.279C93.8282 166.372 93.6829 167.488 93.6252 168.628C93.4488 172.193 97.0843 170.421 98.2155 168.885Z" stroke="#919090" stroke-width="2"/>
<path d="M105.48 156.811C105.708 159.675 109.9 157.629 108.475 156.218C107.738 155.49 106.313 156.01 105.604 156.537C105.512 156.604 105.47 156.695 105.48 156.811Z" stroke="#919090" stroke-width="2"/>
<path d="M150.635 161.964C151.856 161.946 153.592 162.279 153.793 160.559C153.797 160.528 153.793 160.495 153.783 160.465C153.773 160.435 153.757 160.407 153.735 160.384C153.713 160.36 153.687 160.342 153.658 160.33C153.628 160.318 153.597 160.312 153.565 160.313L150.943 160.403C150.809 160.408 150.751 160.344 150.77 160.212L151.206 157.189C151.221 157.08 151.213 156.969 151.182 156.864C151.15 156.758 151.097 156.661 151.024 156.579C150.952 156.497 150.862 156.432 150.762 156.388C150.662 156.344 150.554 156.323 150.445 156.325C149.661 156.344 148.905 156.524 148.179 156.866C148.064 156.92 148.014 157.009 148.03 157.133C148.466 160.649 146.747 164.637 146.384 168.028C146.155 170.171 148.355 171.36 150.13 170.303C151.211 169.66 152.001 168.665 152.499 167.317C152.592 167.07 152.513 166.932 152.264 166.905C152.222 166.9 152.179 166.905 152.138 166.919C152.098 166.933 152.06 166.955 152.029 166.984L150.486 168.43C150.401 168.509 150.299 168.549 150.182 168.552C149.804 168.561 149.521 168.407 149.334 168.091C149.274 167.989 149.248 167.871 149.262 167.754C149.467 165.838 149.858 163.957 150.434 162.113C150.467 162.013 150.533 161.964 150.635 161.964Z" stroke="#919090" stroke-width="2"/>
<path d="M118.863 163.156C119.121 162.084 119.208 160.996 119.122 159.893C119.113 159.784 119.064 159.682 118.984 159.609C116.96 157.744 113.761 161.707 112.82 163.212C112.801 163.241 112.772 163.263 112.739 163.273C112.705 163.283 112.669 163.28 112.638 163.265C112.607 163.251 112.582 163.225 112.569 163.194C112.556 163.162 112.555 163.126 112.567 163.094C112.906 162.061 113.09 160.996 113.117 159.9C113.12 159.786 113.098 159.673 113.051 159.569C113.005 159.464 112.936 159.372 112.85 159.297C112.763 159.223 112.662 159.169 112.552 159.139C112.442 159.109 112.327 159.104 112.215 159.124L110.094 159.505C109.93 159.535 109.865 159.631 109.897 159.793C110.482 162.799 108.901 167.411 107.804 170.272C107.793 170.299 107.789 170.329 107.791 170.358C107.793 170.387 107.802 170.416 107.817 170.442C107.831 170.467 107.851 170.489 107.876 170.506C107.9 170.523 107.927 170.534 107.956 170.539C108.707 170.653 110.443 170.858 110.824 170.001C111.478 168.521 114.01 162.224 115.788 161.821C116.251 161.717 116.43 161.898 116.324 162.362L114.56 169.96C114.546 170.021 114.553 170.084 114.578 170.141C114.604 170.198 114.647 170.245 114.702 170.275C115.509 170.705 116.345 170.747 117.21 170.4C117.332 170.351 117.4 170.261 117.414 170.13C117.625 168.129 120.077 162.754 121.928 161.78C121.991 161.747 122.061 161.732 122.132 161.739C122.203 161.745 122.27 161.771 122.326 161.815C122.382 161.858 122.425 161.917 122.449 161.984C122.472 162.051 122.477 162.123 122.46 162.192C122.004 164.139 121.603 166.069 121.257 167.983C120.541 171.926 124.276 170.948 125.715 168.906C125.798 168.79 125.88 168.79 125.961 168.906C126.847 170.151 128.12 170.753 129.78 170.709C131.589 170.66 134.917 169.994 134.976 167.692C134.977 167.636 134.962 167.581 134.933 167.534C134.903 167.487 134.86 167.449 134.809 167.427C134.759 167.404 134.702 167.397 134.647 167.406C134.593 167.416 134.542 167.442 134.502 167.48C133.146 168.788 128.825 170.466 128.818 166.974C128.817 166.824 128.858 166.677 128.936 166.55C129.015 166.422 129.127 166.319 129.261 166.253C131.043 165.376 136.321 163.496 135.463 160.559C135.079 159.255 133.772 158.871 132.547 159.027C128.421 159.547 125.85 163.413 125.712 167.331C125.707 167.458 125.656 167.561 125.556 167.64L124.667 168.344C124.606 168.392 124.532 168.422 124.454 168.428C124.376 168.434 124.298 168.417 124.23 168.379C124.162 168.341 124.106 168.283 124.071 168.213C124.035 168.143 124.022 168.064 124.031 167.987C124.308 165.587 125.37 162.841 125.387 160.84C125.401 159.127 124.162 158.742 122.813 159.446C121.163 160.303 120.049 161.721 119.012 163.222C119.001 163.238 118.984 163.249 118.966 163.254C118.948 163.259 118.928 163.258 118.911 163.25C118.893 163.242 118.879 163.229 118.87 163.212C118.861 163.195 118.859 163.175 118.863 163.156Z" stroke="#919090" stroke-width="2"/>
<path d="M154.617 170.091C155.115 170.451 155.706 170.673 156.355 170.743C157.004 170.813 157.699 170.73 158.4 170.5C159.102 170.269 159.795 169.895 160.442 169.399C161.089 168.903 161.676 168.294 162.17 167.608C162.663 166.922 163.054 166.172 163.32 165.4C163.585 164.628 163.72 163.85 163.717 163.11C163.714 162.37 163.573 161.683 163.301 161.088C163.03 160.492 162.634 160.001 162.136 159.64C161.638 159.28 161.047 159.059 160.398 158.989C159.749 158.919 159.054 159.001 158.353 159.232C157.651 159.462 156.958 159.836 156.311 160.333C155.664 160.829 155.077 161.437 154.583 162.124C154.09 162.81 153.699 163.56 153.433 164.332C153.168 165.104 153.033 165.882 153.036 166.622C153.039 167.362 153.18 168.049 153.452 168.644C153.723 169.239 154.119 169.731 154.617 170.091Z" stroke="#919090" stroke-width="2"/>
<path d="M169.85 161.263C171.071 163.201 173.119 159.776 170.265 159.158C167.83 158.634 166.123 159.334 165.142 161.26C163.856 163.787 165.962 165.046 167.543 166.405C169.895 168.427 164.876 170.306 164.848 167.168C164.846 167.018 164.772 166.959 164.627 166.991C162.842 167.39 161.932 169.713 164.188 170.403C166.15 171.002 167.838 170.719 169.252 169.554C170.681 168.375 171.303 166.589 170.269 164.942C169.667 163.985 168.311 163.25 167.65 162.484C166.315 160.941 169.041 159.973 169.85 161.263Z" stroke="#919090" stroke-width="2"/>
<path d="M139.718 163.247C140.096 162.132 140.27 160.99 140.24 159.821C140.237 159.684 140.183 159.554 140.09 159.454C139.997 159.355 139.87 159.294 139.735 159.283C138.887 159.207 138.068 159.328 137.279 159.647C137.157 159.696 137.104 159.787 137.12 159.921C137.521 163.132 136.12 167.335 134.944 170.372C134.894 170.502 134.936 170.578 135.072 170.601C136.169 170.785 137.563 171.041 138.109 169.731C139.51 166.374 140.586 164.009 142.848 161.821C142.897 161.775 142.958 161.743 143.025 161.73C143.091 161.716 143.16 161.722 143.222 161.747C143.285 161.771 143.339 161.813 143.378 161.868C143.418 161.922 143.44 161.987 143.443 162.054C143.455 162.257 143.427 162.517 143.36 162.834C142.846 165.206 142.303 167.589 141.731 169.984C141.717 170.046 141.723 170.11 141.748 170.169C141.773 170.227 141.815 170.276 141.87 170.31C142.607 170.768 143.392 170.837 144.222 170.518C144.335 170.474 144.405 170.392 144.433 170.272C145.095 167.394 145.716 164.509 146.297 161.617C146.553 160.348 146.263 158.999 144.665 159.2C142.897 159.425 140.946 161.863 139.877 163.33C139.865 163.349 139.846 163.364 139.824 163.37C139.802 163.376 139.779 163.373 139.759 163.363C139.738 163.352 139.723 163.334 139.715 163.313C139.708 163.291 139.709 163.267 139.718 163.247Z" stroke="#919090" stroke-width="2"/>
<path d="M103.563 170.504C105.357 171.13 106.503 170.633 107.002 169.013C107.917 166.031 108.521 163.038 108.814 160.036C108.831 159.859 108.778 159.684 108.668 159.546C108.557 159.408 108.398 159.319 108.223 159.297C107.374 159.198 106.563 159.322 105.791 159.671C105.738 159.696 105.694 159.736 105.666 159.788C105.638 159.839 105.627 159.898 105.635 159.956C106.078 163.097 104.656 167.432 103.47 170.299C103.428 170.401 103.459 170.469 103.563 170.504Z" stroke="#919090" stroke-width="2"/>
<path d="M126.687 19.8587C126.687 19.7572 126.667 19.6566 126.629 19.5628C126.59 19.469 126.533 19.3837 126.461 19.3119C126.39 19.2401 126.305 19.1832 126.211 19.1443C126.118 19.1054 126.017 19.0854 125.916 19.0854C125.711 19.0854 125.515 19.1669 125.371 19.3119C125.226 19.4569 125.145 19.6536 125.145 19.8587C125.145 20.0638 125.226 20.2605 125.371 20.4055C125.515 20.5505 125.711 20.632 125.916 20.632C126.017 20.632 126.118 20.612 126.211 20.5731C126.305 20.5342 126.39 20.4773 126.461 20.4055C126.533 20.3337 126.59 20.2484 126.629 20.1546C126.667 20.0608 126.687 19.9602 126.687 19.8587Z" stroke="#919090" stroke-width="2"/>
<path d="M50.0264 142.216C51.794 143.381 53.9594 141.949 54.9694 140.434C57.3389 136.883 58.9924 130.253 58.2003 126.061C57.6641 123.221 55.2358 122.486 53.0635 124.269C49.9814 126.796 46.0518 139.598 50.0264 142.216Z" stroke="#E69093" stroke-width="2"/>
<path d="M166.723 123.037C162.666 121.938 160.324 130.759 159.864 133.436C159.845 133.547 159.879 133.565 159.964 133.488C161.03 132.515 162.178 131.663 163.409 130.933C164.931 130.029 165.853 129.419 166.173 129.102C167.374 127.913 169.608 123.821 166.723 123.037Z" stroke="#E69093" stroke-width="2"/>
<path d="M117.161 135.52L117.915 135.347C118.023 135.322 118.108 135.264 118.168 135.174C119.249 133.586 120.144 131.897 120.852 130.108C120.994 129.754 120.855 129.452 120.579 129.237" stroke="#BC242A" stroke-width="2"/>
<path d="M120.579 129.237L121.834 126.075C121.855 126.025 121.864 125.971 121.861 125.917C121.858 125.863 121.843 125.811 121.817 125.763C121.026 124.279 119.816 123.515 118.188 123.471C116.144 123.419 114.349 125.954 113.48 127.594C112.336 129.754 108.534 139.893 111.841 141.134C111.937 141.17 112.044 141.173 112.145 141.141C114.103 140.531 115.988 137.407 117.161 135.521" stroke="#E69093" stroke-width="2"/>
<path d="M120.579 129.237L117.161 135.52" stroke="#D59396" stroke-width="2"/>
<path d="M92.4352 163.132C92.4238 163.149 92.4172 163.169 92.4162 163.189C92.4151 163.209 92.4197 163.229 92.4293 163.247C92.439 163.265 92.4533 163.28 92.4708 163.29C92.4883 163.301 92.5083 163.306 92.5286 163.306L94.3377 163.278C94.3621 163.277 94.3855 163.268 94.4043 163.252C94.4231 163.236 94.4362 163.215 94.4415 163.191L95.2682 159.394C95.2746 159.369 95.2717 159.342 95.26 159.318C95.2484 159.294 95.2288 159.276 95.2046 159.265C95.1805 159.255 95.1535 159.254 95.1284 159.261C95.1033 159.269 95.0817 159.285 95.0676 159.307L92.4352 163.132Z" stroke="#919090" stroke-width="2"/>
<path d="M132.309 160.552C130.534 159.758 129.361 163.715 129.168 164.831C129.145 164.968 129.191 164.998 129.306 164.921C130.067 164.422 130.819 163.915 131.561 163.399C132.201 162.955 133.481 161.072 132.309 160.552Z" stroke="#919090" stroke-width="2"/>
<path d="M157.248 169.205C157.741 169.336 158.334 169.007 158.895 168.291C159.457 167.576 159.942 166.532 160.243 165.39C160.544 164.247 160.637 163.099 160.501 162.199C160.365 161.299 160.012 160.72 159.519 160.589C159.026 160.458 158.433 160.787 157.871 161.503C157.31 162.218 156.825 163.262 156.524 164.405C156.223 165.547 156.13 166.695 156.266 167.595C156.401 168.495 156.755 169.074 157.248 169.205Z" stroke="#919090" stroke-width="2"/>
<path d="M133.197 11.3669C133.128 11.709 133.007 11.7298 132.834 11.4293C131.045 8.31549 128.832 5.53919 126.196 3.10039C126.076 2.98711 126.096 2.90852 126.255 2.8646C132.699 1.03723 134.176 6.44305 133.197 11.3669Z" fill="#CD2027"/>
<path d="M129.078 9.64681C128.882 9.58902 128.673 9.65143 128.452 9.83406C128.359 9.91034 128.282 9.89647 128.22 9.79245C127.691 8.89783 127.213 8.0483 126.386 7.37907C124.934 6.20243 123.395 5.14832 121.772 4.21672C121.624 4.13119 121.479 4.07571 121.336 4.05028C121.124 4.01098 120.969 4.00289 120.873 4.02601C116.227 5.16681 113.418 6.50873 111.267 10.6108C111.218 10.7032 111.154 10.716 111.073 10.6489C110.9 10.4987 110.659 10.4212 110.35 10.4166C112.186 6.90518 115.152 4.66287 119.25 3.68966C120.482 3.39839 121.17 3.03777 122.364 3.67232C125.057 5.1148 127.295 7.10629 129.078 9.64681Z" fill="#AA272C"/>
<path d="M129.078 9.64683L131.26 12.9826C131.277 13.009 131.286 13.0399 131.286 13.0713C131.285 13.1028 131.276 13.1334 131.258 13.1593C131.24 13.1853 131.215 13.2054 131.186 13.2171C131.157 13.2288 131.125 13.2317 131.094 13.2253C123.45 11.5817 116.039 12.2428 108.863 15.2087C108.84 15.2185 108.815 15.2217 108.791 15.2181C108.767 15.2146 108.744 15.2042 108.725 15.1884C108.707 15.1725 108.693 15.1517 108.685 15.1284C108.678 15.105 108.677 15.08 108.683 15.0561C109.047 13.4495 109.603 11.903 110.35 10.4166C110.659 10.4212 110.9 10.4987 111.073 10.6489C111.154 10.716 111.218 10.7033 111.267 10.6108C113.418 6.50875 116.227 5.16683 120.873 4.02603C120.969 4.00291 121.124 4.011 121.336 4.0503C121.479 4.07573 121.624 4.13121 121.772 4.21674C123.395 5.14834 124.934 6.20245 126.386 7.37909C127.213 8.04832 127.691 8.89785 128.22 9.79247C128.282 9.89649 128.359 9.91036 128.452 9.83408C128.673 9.65145 128.882 9.58904 129.078 9.64683Z" fill="#CD2027"/>
<path d="M140.538 74.86C140.335 75.0958 140.118 75.1883 139.887 75.1374C139.77 75.1143 139.697 75.1605 139.67 75.2761C138.099 81.7765 135.153 87.5245 130.831 92.52C128.645 95.0443 126.027 97.1075 123.446 99.233C122.512 100.001 121.788 100.554 121.274 100.894C119.517 102.056 118.088 102.34 116.642 103.307C115.532 104.049 113.598 104.784 112.412 105.173C110.131 105.922 107.834 106.627 105.521 107.288C105.474 107.302 105.432 107.329 105.4 107.368C105.031 107.802 104.901 108.092 105.009 108.238C95.1714 110.247 85.5158 109.548 76.0425 106.14C76.0309 106.134 76.0217 106.124 76.0164 106.112C76.0111 106.1 76.0099 106.087 76.0131 106.074C76.0163 106.061 76.0236 106.05 76.0339 106.042C76.0443 106.034 76.057 106.029 76.0701 106.029C85.2091 107.476 94.1164 106.693 102.792 103.678C104.483 104.303 106.213 103.124 107.752 102.454C110.059 101.452 112.138 100.013 114.314 98.7198C115.179 98.2032 115.905 97.4299 116.781 96.8578C122.08 93.3799 126.539 88.0122 129.707 82.5683C130.607 81.0252 131.319 79.2048 132.122 77.4919C133.779 73.9619 134.661 70.1477 135.543 66.3993C136.235 63.4589 136.051 60.4526 136.145 57.4914C136.152 57.207 136.079 57.0267 135.927 56.9504C135.763 56.8672 135.53 56.8499 135.228 56.8984C134.792 46.3746 131.219 36.1767 125.619 27.3623C125.6 27.3332 125.589 27.3004 125.585 27.2663C125.58 27.2322 125.584 27.1976 125.594 27.1649C125.605 27.1322 125.622 27.1022 125.646 27.077C125.669 27.0518 125.698 27.032 125.729 27.019L136.276 22.7679C136.428 22.7078 136.447 22.6188 136.331 22.5009C132.997 19.1548 127.763 15.6179 122.747 16.4328C109.914 18.5237 112.066 44.62 113.014 53.4448C113.02 53.5069 113.002 53.5691 112.963 53.6178C112.924 53.6666 112.868 53.6979 112.806 53.7049C99.5403 55.2167 87.9072 60.3104 78.7406 70.1304C77.802 71.1383 76.8657 72.1415 75.9318 73.1402C75.8464 73.2303 75.7888 73.2153 75.7588 73.0951L70.3626 51.2568C70.3234 51.0973 70.2438 51.0742 70.1239 51.1875C56.4327 64.2391 54.5509 83.5738 65.3849 99.2296C65.3858 99.2296 65.3867 99.2299 65.3874 99.2306C65.388 99.2312 65.3884 99.2321 65.3884 99.233C65.3884 99.234 65.388 99.2348 65.3874 99.2355C65.3867 99.2361 65.3858 99.2365 65.3849 99.2365C65.3503 99.2527 65.3226 99.2654 65.3019 99.2746C65.2811 99.2839 65.2627 99.2793 65.2465 99.2608C55.7167 88.626 51.4827 75.0438 56.2321 61.1322C56.6748 61.0143 57.0035 60.7785 57.1903 60.3278C60.3242 52.8206 65.0286 46.5618 70.9333 40.9618C71.0187 40.8809 71.0556 40.7827 71.044 40.6671L70.9748 39.9112L73.2337 37.9C73.349 37.7983 73.417 37.8237 73.4377 37.9763L76.8969 65.5117C76.8995 65.5374 76.9094 65.5618 76.9254 65.5821C76.9414 65.6023 76.9629 65.6175 76.9873 65.6259C77.0117 65.6343 77.0379 65.6355 77.063 65.6294C77.088 65.6233 77.1108 65.6101 77.1286 65.5914C84.9831 57.6624 94.3216 52.2867 105.144 49.4641C105.246 49.4371 105.336 49.3767 105.4 49.2926C105.464 49.2084 105.498 49.1052 105.497 48.9995C105.397 38.6074 107.507 22.6257 117.258 16.3496C126.265 10.5519 135.999 16.5784 141.645 23.7492C141.758 23.8948 141.728 23.9977 141.555 24.0578L129.51 28.3748C129.494 28.3805 129.479 28.3898 129.467 28.402C129.454 28.4143 129.445 28.4291 129.44 28.4455C129.434 28.4618 129.432 28.4793 129.434 28.4965C129.436 28.5137 129.442 28.5302 129.451 28.5447C138.217 41.9605 144.083 58.6842 140.538 74.86Z" fill="#CD2027"/>
<path d="M127.421 20.5591C127.421 21.1394 127.191 21.6959 126.781 22.1062C126.372 22.5165 125.817 22.7471 125.238 22.7471C124.659 22.7471 124.104 22.5165 123.695 22.1062C123.285 21.6959 123.055 21.1394 123.055 20.5591C123.055 19.9788 123.285 19.4223 123.695 19.0119C124.104 18.6016 124.659 18.3711 125.238 18.3711C125.817 18.3711 126.372 18.6016 126.781 19.0119C127.191 19.4223 127.421 19.9788 127.421 20.5591ZM126.687 19.8586C126.687 19.7571 126.667 19.6566 126.629 19.5627C126.59 19.4689 126.533 19.3837 126.461 19.3119C126.39 19.2401 126.305 19.1831 126.211 19.1443C126.118 19.1054 126.017 19.0854 125.916 19.0854C125.711 19.0854 125.515 19.1669 125.371 19.3119C125.226 19.4569 125.145 19.6536 125.145 19.8586C125.145 20.0637 125.226 20.2604 125.371 20.4054C125.515 20.5504 125.711 20.6319 125.916 20.6319C126.017 20.6319 126.118 20.6119 126.211 20.573C126.305 20.5342 126.39 20.4772 126.461 20.4054C126.533 20.3336 126.59 20.2484 126.629 20.1546C126.667 20.0607 126.687 19.9602 126.687 19.8586Z" fill="#222020"/>
<path d="M125.916 20.632C126.342 20.632 126.687 20.2858 126.687 19.8587C126.687 19.4316 126.342 19.0854 125.916 19.0854C125.49 19.0854 125.145 19.4316 125.145 19.8587C125.145 20.2858 125.49 20.632 125.916 20.632Z" fill="white"/>
<path d="M134.367 22.0571C134.586 22.2813 134.549 22.4512 134.256 22.5668L131.108 23.7943C131.08 23.8058 131.049 23.8104 131.018 23.8078C130.987 23.8051 130.958 23.7953 130.931 23.7792C130.905 23.763 130.883 23.7409 130.867 23.7146C130.851 23.6883 130.841 23.6586 130.838 23.6278L130.513 19.6957C130.486 19.3744 130.614 19.29 130.897 19.4426C132.184 20.1338 133.34 21.0053 134.367 22.0571Z" fill="#AA272C"/>
<path d="M132.471 28.8186C139.22 27.5009 147.082 33.3783 139.545 39.755C139.518 39.7777 139.486 39.7939 139.452 39.8026C139.418 39.8113 139.382 39.8121 139.348 39.8052C139.313 39.7982 139.281 39.7835 139.252 39.7622C139.224 39.7409 139.201 39.7136 139.185 39.6822C137.246 35.9258 134.98 32.3774 132.388 29.037C132.373 29.0189 132.364 28.9974 132.36 28.9744C132.357 28.9515 132.359 28.9279 132.368 28.906C132.376 28.884 132.39 28.8645 132.408 28.8492C132.426 28.8339 132.448 28.8233 132.471 28.8186Z" fill="#CD2027"/>
<path d="M70.9748 39.9111L71.044 40.667C71.0555 40.7826 71.0186 40.8809 70.9333 40.9618C65.0286 46.5618 60.3242 52.8206 57.1902 60.3277C57.0034 60.7785 56.6748 61.0143 56.2321 61.1322C59.0893 52.9489 64.4959 45.6706 70.9748 39.9111Z" fill="#AA272C"/>
<path d="M135.228 56.8984C135.53 56.8499 135.763 56.8672 135.927 56.9504C136.079 57.0267 136.152 57.207 136.145 57.4914C136.051 60.4526 136.235 63.4589 135.543 66.3993C134.661 70.1477 133.779 73.9619 132.122 77.4918C131.319 79.2048 130.607 81.0252 129.707 82.5683C126.539 88.0122 122.08 93.3799 116.781 96.8578C115.905 97.4299 115.179 98.2032 114.314 98.7198C112.138 100.013 110.059 101.452 107.752 102.454C106.213 103.124 104.483 104.302 102.792 103.678C122.658 96.4382 135.806 78.331 135.228 56.8984Z" fill="#AA272C"/>
<path d="M140.538 74.8601C136.439 92.4368 122.37 104.597 105.009 108.238C104.901 108.093 105.031 107.802 105.4 107.368C105.431 107.329 105.474 107.302 105.521 107.288C107.834 106.627 110.131 105.922 112.412 105.173C113.598 104.785 115.532 104.049 116.642 103.307C118.088 102.34 119.517 102.056 121.274 100.894C121.788 100.554 122.512 100.001 123.446 99.2331C126.027 97.1075 128.645 95.0444 130.831 92.52C135.153 87.5245 138.099 81.7766 139.669 75.2762C139.697 75.1606 139.77 75.1144 139.887 75.1375C140.118 75.1884 140.335 75.0959 140.538 74.8601Z" fill="#AA272C"/>
<path d="M80.4563 103.921C71.978 102.607 66.0767 96.8959 63.6346 88.7091C63.6295 88.6885 63.6315 88.6664 63.6403 88.6468C63.6491 88.6271 63.6641 88.6111 63.6828 88.6013C63.7015 88.5915 63.7227 88.5886 63.7429 88.5931C63.7631 88.5976 63.781 88.6092 63.7937 88.6259C64.7 89.8211 65.6674 90.9896 66.6959 92.1316C79.294 106.081 98.5717 100.807 113.173 94.0144C113.288 93.9612 113.324 93.9936 113.28 94.1115C113.259 94.1647 113.227 94.1993 113.183 94.2155C113.151 94.2271 113.13 94.2352 113.121 94.2398C111.214 95.4072 109.295 96.5538 107.365 97.6795C99.2739 102.399 89.8236 105.377 80.4563 103.921Z" fill="#D1D2D4"/>
<path d="M28.3481 102.895C28.4703 102.469 28.4899 102.219 28.4069 102.142C28.375 102.113 28.3546 102.075 28.3486 102.032C28.3426 101.99 28.3511 101.946 28.3731 101.906C28.3951 101.865 28.4295 101.831 28.472 101.806C28.5144 101.781 28.5628 101.768 28.611 101.768C32.0263 101.786 34.8916 102.798 37.2069 104.802C37.8953 105.398 38.4557 106.234 39.0437 106.948C39.181 107.114 39.3714 107.226 39.5822 107.266C39.7931 107.305 40.0111 107.271 40.1991 107.167C41.683 106.348 43.6547 103.852 43.4887 102.049C43.1082 97.8947 35.6987 97.6485 32.8069 97.6866C31.105 97.7074 29.3766 97.6427 27.6217 97.4925C31.4855 96.6117 43.7066 95.8073 44.1632 102.042C44.3638 104.788 41.8249 107.413 39.573 108.661C39.4807 108.712 39.4046 108.695 39.3447 108.609C36.5082 104.577 33.6925 102.333 28.3481 102.895Z" fill="#AA272C"/>
<path d="M27.6217 97.4924C29.3767 97.6427 31.1051 97.7074 32.807 97.6866C35.6988 97.6485 43.1082 97.8947 43.4887 102.049C43.6548 103.852 41.6831 106.348 40.1991 107.167C40.0112 107.271 39.7931 107.305 39.5823 107.266C39.3714 107.226 39.181 107.114 39.0437 106.948C38.4557 106.234 37.8953 105.398 37.207 104.802C34.8917 102.798 32.0263 101.786 28.611 101.768C28.5629 101.768 28.5144 101.781 28.472 101.806C28.4296 101.831 28.3951 101.865 28.3731 101.906C28.3511 101.946 28.3426 101.99 28.3486 102.032C28.3547 102.075 28.375 102.113 28.407 102.142C28.49 102.219 28.4704 102.469 28.3482 102.895C27.3588 102.953 26.3488 103.187 25.318 103.599C25.401 103.37 25.3629 103.183 25.2038 103.037C25.1625 102.997 25.1106 102.971 25.0543 102.96C24.9979 102.948 24.9394 102.954 24.8856 102.975C22.4746 103.9 21.8485 105.215 20.8349 107.468C20.3749 108.488 20.3956 110.922 20.6793 111.945C21.7274 115.731 25.7261 118.731 28.7771 120.933C29.2856 121.297 29.7422 121.883 30.3475 122.25C34.8582 124.997 39.1371 130.645 38.7393 136.228C38.5203 139.33 37.569 142.08 35.8856 144.477C32.1601 149.786 27.8397 152.317 21.6132 154.054C21.5026 154.087 21.4449 154.159 21.4403 154.273L21.4057 154.879L16.8085 155.528C16.3219 154.918 15.5275 154.636 14.4252 154.682C11.0306 154.823 7.86094 153.892 4.91607 151.89C2.66764 150.358 1.25287 147.31 3.15192 144.855C3.79993 144.02 3.98788 143.316 3.71576 142.743C4.94259 141.532 6.40003 140.627 8.08808 140.028C8.19647 139.989 8.25066 140.026 8.25066 140.139C8.30947 145.822 12.7959 149.151 18.1299 149.418C19.1192 149.342 19.8675 149.481 20.3749 149.834C20.4648 149.899 20.5651 149.929 20.6758 149.924C25.612 149.751 29.3271 146.353 29.8114 141.429C30.3302 136.158 26.622 132.896 22.817 130.035C21.4403 128.999 20.5651 128.317 20.1915 127.989C16.1375 124.424 12.2356 121.449 12.1076 115.516C12.0246 111.494 14.7538 106.081 17.5868 103.321C17.6745 103.236 17.7333 103.133 17.7632 103.013C17.9685 102.176 18.4758 101.767 19.2853 101.785C19.4029 101.788 19.5136 101.761 19.6173 101.705C20.3368 101.319 20.6182 100.843 20.4614 100.277C22.779 98.8644 25.1658 97.9363 27.6217 97.4924Z" fill="#CD2027"/>
<path d="M20.4613 100.277C20.6181 100.843 20.3368 101.319 19.6173 101.705C19.5135 101.761 19.4028 101.788 19.2852 101.785C18.4758 101.767 17.9684 102.176 17.7632 103.013C17.7332 103.133 17.6744 103.236 17.5868 103.321C14.7538 106.081 12.0245 111.494 12.1075 115.516C12.2355 121.449 16.1374 124.424 20.1915 127.989C20.5651 128.317 21.4402 128.999 22.817 130.035C26.622 132.896 30.3302 136.158 29.8113 141.429C29.327 146.353 25.6119 149.751 20.6758 149.924C20.5651 149.929 20.4648 149.899 20.3748 149.834C19.8675 149.481 19.1192 149.342 18.1299 149.418C22.817 149.564 27.549 148.028 28.7494 143.045C32.0459 129.355 8.83174 129.414 11.6751 112.909C12.6022 107.523 15.5309 103.312 20.4613 100.277Z" fill="#AA272C"/>
<path d="M25.3179 103.599C23.2493 104.431 21.9464 105.909 21.4091 108.034C19.2956 116.397 30.4132 120.087 35.8786 126.498C41.7867 133.426 39.6974 143.163 33.2151 148.912C29.832 151.915 25.8956 153.904 21.4056 154.879L21.4402 154.273C21.4448 154.159 21.5025 154.087 21.6132 154.054C27.8396 152.317 32.16 149.786 35.8855 144.477C37.5689 142.08 38.5202 139.33 38.7393 136.228C39.1371 130.645 34.8581 124.997 30.3474 122.25C29.7421 121.883 29.2855 121.297 28.777 120.933C25.7261 118.731 21.7273 115.731 20.6792 111.945C20.3956 110.922 20.3748 108.488 20.8349 107.468C21.8484 105.215 22.4745 103.9 24.8855 102.975C24.9393 102.954 24.9978 102.948 25.0542 102.96C25.1105 102.971 25.1624 102.997 25.2037 103.037C25.3629 103.183 25.4009 103.37 25.3179 103.599Z" fill="#AA272C"/>
<path d="M141.098 139.331C141.091 139.595 141.167 139.621 141.326 139.411C144.163 135.617 147.155 131.21 148.957 126.796C150.099 124.005 150.659 121.72 149.307 119.064C149.258 118.964 149.288 118.903 149.397 118.88C151.181 118.498 152.81 118.635 154.281 119.289C159.926 121.8 147.56 138.024 145.47 140.586C142.897 143.738 139.832 146.11 135.685 146.023C135.56 146.021 135.498 145.958 135.498 145.833C135.546 138.717 134.836 131.69 133.367 124.75C133.095 123.465 132.624 122.265 131.956 121.151C131.896 121.049 131.919 120.972 132.025 120.919C133.791 120.029 135.639 119.672 137.566 119.847C139.798 120.052 140.365 122.184 140.565 124.345C141.036 129.375 141.213 134.37 141.098 139.331Z" fill="#CD2027"/>
<path d="M57.723 119.785C57.8406 119.972 57.9098 120.148 57.9305 120.312C57.9444 120.416 58.0043 120.476 58.1104 120.492C62.5 121.092 64.2953 123.811 64.6274 128.024C64.918 131.741 63.6761 135.455 61.6249 138.534C61.5834 138.598 61.5926 138.656 61.6526 138.707C61.7794 138.811 61.8647 138.968 61.9085 139.179C59.667 142.518 56.1768 145.25 52.178 145.954C44.9 147.237 40.8736 142.41 41.5516 135.475C42.3299 127.563 48.9714 119.209 57.723 119.785ZM50.0265 142.216C51.7941 143.381 53.9595 141.949 54.9695 140.434C57.339 136.883 58.9925 130.253 58.2004 126.061C57.6642 123.221 55.2359 122.486 53.0636 124.268C49.9815 126.796 46.0519 139.598 50.0265 142.216Z" fill="#CD2027"/>
<path d="M170.4 143.634C164.928 147.005 152.869 148.419 152.382 138.773C151.911 129.345 159.888 118.731 170.137 119.854C172.047 120.066 173.676 121.179 174.185 123.107C175.534 128.228 168.543 132.666 164.485 134.109C162.053 134.972 158.131 136.134 159.418 139.449C161.725 145.389 169.428 141.079 172.458 138.412C172.487 138.388 172.521 138.371 172.558 138.363C172.594 138.355 172.632 138.356 172.668 138.367C172.704 138.377 172.736 138.396 172.763 138.422C172.789 138.448 172.808 138.481 172.818 138.516C173.513 140.902 172.431 142.386 170.4 143.634ZM166.723 123.037C162.666 121.938 160.324 130.759 159.864 133.436C159.845 133.547 159.879 133.565 159.964 133.488C161.03 132.515 162.178 131.663 163.409 130.933C164.931 130.029 165.853 129.419 166.173 129.102C167.374 127.913 169.608 123.821 166.723 123.037Z" fill="#CD2027"/>
<path d="M57.7229 119.785C68.5084 120.992 66.0628 133.197 61.9084 139.179C61.8646 138.968 61.7793 138.811 61.6525 138.707C61.5925 138.656 61.5833 138.598 61.6248 138.534C63.676 135.455 64.9179 131.741 64.6273 128.024C64.2952 123.811 62.4999 121.092 58.1103 120.492C58.0042 120.476 57.9443 120.416 57.9304 120.312C57.9097 120.148 57.8405 119.972 57.7229 119.785Z" fill="#AA272C"/>
<path d="M93.7635 122.417C94.3032 122.525 94.7102 122.489 94.9846 122.309C97.1569 120.88 100.132 119.136 101.436 121.98C101.941 123.072 101.488 126.12 101.242 127.285C100.754 129.605 100.343 131.945 99.651 134.213C99.3396 135.222 99.3396 136.304 99.011 137.257C98.8519 137.724 98.6963 138.195 98.544 138.669C98.5095 138.775 98.5106 138.88 98.5475 138.984C98.8969 139.986 98.9764 140.76 99.4261 141.758C99.4861 141.89 99.5818 141.925 99.7132 141.862C101.39 141.074 102.851 139.994 104.096 138.624C104.179 138.534 104.212 138.427 104.196 138.305C104.089 137.403 104.798 135.631 105.168 134.248C105.579 132.72 106.208 131.127 107.057 129.469C107.105 129.377 107.104 129.285 107.053 129.192L106.766 128.662C108.482 125.481 110.665 123.074 113.314 121.442C116.103 119.726 120.212 119.098 123.003 121.099C123.105 121.173 123.204 121.169 123.301 121.089C125.421 119.334 127.787 119.892 130.195 120.939C130.292 120.981 130.321 121.05 130.281 121.147C128.381 125.912 127.011 130.824 126.172 135.884C125.843 137.885 125.65 139.019 126.072 140.718C126.084 140.769 126.108 140.817 126.142 140.858C126.175 140.899 126.218 140.931 126.265 140.954C126.313 140.976 126.365 140.987 126.418 140.987C126.471 140.986 126.523 140.974 126.57 140.95C128.313 140.09 129.576 138.315 131.157 137.126C131.216 137.082 131.286 137.056 131.359 137.05C131.433 137.045 131.506 137.061 131.57 137.097C131.635 137.132 131.688 137.186 131.723 137.25C131.758 137.315 131.774 137.389 131.769 137.462C131.482 141.165 126.521 146.623 122.654 146.027C118.583 145.399 119.019 140.656 119.368 137.646C119.372 137.614 119.365 137.581 119.348 137.553C119.33 137.526 119.304 137.505 119.273 137.495C119.242 137.485 119.209 137.487 119.179 137.499C119.148 137.511 119.124 137.534 119.109 137.563C117.189 140.943 113.256 146.075 108.932 146.138C106.042 146.179 104.322 144.687 103.771 141.661C103.745 141.529 103.689 141.514 103.601 141.616L102.885 142.445L102.256 142.459C102.143 142.461 102.045 142.5 101.962 142.577C100.246 144.12 96.7073 146.38 94.7183 144.671C92.456 142.722 94.2651 138.246 94.6249 135.805C95.0192 133.148 95.7837 130.385 96.2472 127.625C96.2656 127.511 96.223 127.431 96.1192 127.382C95.9532 127.303 95.7814 127.271 95.6038 127.285C95.7191 126.864 95.726 126.456 95.6245 126.061C95.6109 126.008 95.5835 125.96 95.5452 125.922C95.5069 125.884 95.4591 125.856 95.4066 125.842C92.3176 125.055 83.7252 141.873 84.5104 144.772C84.5381 144.871 84.5069 144.947 84.417 145C82.2447 146.265 80.1508 146.189 78.1352 144.772C78.0629 144.72 78.0076 144.648 77.9768 144.565C77.9459 144.483 77.9408 144.392 77.9623 144.307C79.3494 138.572 81.072 132.59 81.9057 126.775C81.961 126.38 81.8688 126.056 81.6289 125.804C81.591 125.764 81.5431 125.734 81.4898 125.718C81.4365 125.701 81.3796 125.699 81.3246 125.711C80.6281 125.861 80.0481 126.2 79.5846 126.727C75.112 131.827 72.6871 136.841 70.4767 142.476C69.7607 144.296 69.0931 145.739 66.9312 145.888C65.5106 145.985 64.1143 145.85 62.7422 145.482C62.6176 145.45 62.5796 145.375 62.628 145.257C65.25 138.733 67.0326 131.994 67.9758 125.038C68.0727 124.319 67.8893 123.118 67.4258 121.435C67.3958 121.32 67.4339 121.236 67.54 121.186C69.4771 120.274 74.0604 118.745 74.7764 121.529C75.2676 123.439 73.9981 127.632 73.4308 129.608C73.418 129.637 73.417 129.669 73.428 129.698C73.439 129.728 73.4612 129.751 73.4896 129.764C73.5181 129.777 73.5505 129.778 73.5797 129.767C73.6088 129.756 73.6325 129.734 73.6453 129.705C75.7554 126.345 81.4733 118.946 86.0912 119.91C89.9101 120.707 88.2981 126.768 87.5579 129.435C87.5499 129.461 87.552 129.49 87.5637 129.515C87.5754 129.54 87.596 129.559 87.6217 129.57C87.6473 129.581 87.6763 129.583 87.7034 129.574C87.7304 129.566 87.7537 129.549 87.7689 129.525C89.4062 126.839 91.4044 124.469 93.7635 122.417ZM117.161 135.52L117.915 135.347C118.024 135.321 118.108 135.264 118.168 135.173C119.249 133.585 120.144 131.897 120.852 130.107C120.994 129.754 120.855 129.452 120.579 129.237L121.834 126.075C121.855 126.025 121.864 125.971 121.861 125.917C121.858 125.863 121.843 125.81 121.817 125.763C121.026 124.279 119.816 123.515 118.188 123.471C116.144 123.419 114.349 125.953 113.481 127.594C112.336 129.754 108.534 139.893 111.841 141.134C111.937 141.17 112.044 141.173 112.145 141.141C114.103 140.531 115.988 137.407 117.161 135.52Z" fill="#CD2027"/>
<path d="M106.766 128.662L107.053 129.192C107.104 129.285 107.105 129.377 107.057 129.47C106.208 131.127 105.579 132.72 105.168 134.248C104.798 135.631 104.089 137.403 104.196 138.305C104.212 138.427 104.179 138.534 104.096 138.624C102.851 139.995 101.39 141.074 99.7132 141.862C99.5818 141.925 99.4861 141.89 99.4261 141.758C98.9764 140.76 98.8969 139.986 98.5475 138.984C98.5106 138.88 98.5095 138.775 98.5441 138.669C98.6963 138.195 98.8519 137.725 99.011 137.258C99.3396 136.304 99.3396 135.222 99.651 134.213C100.343 131.945 100.754 129.605 101.242 127.285C101.488 126.12 101.941 123.072 101.436 121.98C100.132 119.136 97.1569 120.881 94.9846 122.309C94.7102 122.489 94.3032 122.525 93.7635 122.417C95.7214 120.662 100.159 118.041 101.979 121.505C102.276 122.069 102.4 122.83 102.349 123.79C102.093 128.665 100.249 133.797 99.5161 138.034C99.3616 138.927 99.4699 139.91 99.8412 140.985C99.9035 141.168 100.01 141.198 100.159 141.075L103.546 138.319C103.593 138.281 103.624 138.226 103.632 138.166C104.057 134.766 105.101 131.597 106.766 128.662Z" fill="#AA272C"/>
<path d="M95.6037 127.285C95.7813 127.271 95.9531 127.304 96.1191 127.382C96.2229 127.431 96.2656 127.512 96.2471 127.625C95.7836 130.385 95.0191 133.149 94.6248 135.805C94.265 138.246 92.4559 142.722 94.7182 144.671C96.7072 146.381 100.246 144.12 101.962 142.577C102.045 142.5 102.143 142.461 102.256 142.459L102.885 142.445C101.349 144.293 98.6996 146.259 96.2195 146.034C92.1515 145.663 92.6323 141.19 93.2515 138.447C93.8719 135.71 94.6559 131.989 95.6037 127.285Z" fill="#AA272C"/>
<path d="M120.579 129.237C120.855 129.452 120.994 129.754 120.852 130.108C120.144 131.897 119.249 133.586 118.168 135.174C118.108 135.264 118.023 135.322 117.915 135.347L117.161 135.52L120.579 129.237Z" fill="#AA272C"/>
<path d="M3.71573 142.743C3.98785 143.316 3.79991 144.02 3.1519 144.855C1.25284 147.31 2.66762 150.358 4.91605 151.89C7.86091 153.892 11.0306 154.823 14.4252 154.682C15.5275 154.636 16.3219 154.918 16.8085 155.528C12.4569 155.691 4.28995 154.456 1.90661 150.077C0.543721 147.577 1.82014 144.695 3.71573 142.743Z" fill="#AA272C"/>
<path d="M98.2153 168.884C97.0842 170.421 93.4487 172.192 93.6251 168.628C93.6828 167.488 93.828 166.372 94.0609 165.278C94.0661 165.256 94.0657 165.232 94.0597 165.209C94.0536 165.187 94.0422 165.166 94.0262 165.149C94.0103 165.131 93.9904 165.118 93.9682 165.11C93.9459 165.102 93.922 165.099 93.8984 165.101L91.0065 165.462C90.9583 165.468 90.9116 165.483 90.8695 165.507C90.8273 165.53 90.7904 165.562 90.761 165.601C89.5318 167.143 88.4664 168.785 87.5647 170.528C87.514 170.627 87.4333 170.682 87.3226 170.691C85.5065 170.83 84.2267 169.401 85.5342 167.712C87.8979 164.656 90.1913 161.551 92.4144 158.395C93.0163 157.542 93.2561 156.606 93.1339 155.587C93.1274 155.528 93.1429 155.469 93.1774 155.421C93.2119 155.373 93.263 155.339 93.3207 155.327C94.9499 154.983 99.644 153.593 98.7515 157.282C97.7414 161.454 96.0396 166.891 96.6138 168.375C96.6235 168.4 96.6387 168.423 96.6583 168.442C96.6778 168.461 96.7013 168.475 96.727 168.484C96.7527 168.493 96.78 168.496 96.8071 168.494C96.8341 168.491 96.8602 168.482 96.8836 168.468C98.0424 167.796 98.6443 167.102 98.9106 165.701C99.4111 163.071 99.9564 160.455 100.547 157.854C100.699 157.185 100.651 156.502 100.533 155.861C100.519 155.783 100.532 155.703 100.569 155.634C100.606 155.564 100.665 155.508 100.737 155.476C101.567 155.097 102.419 154.998 103.293 155.181C103.363 155.195 103.426 155.23 103.476 155.281C103.526 155.331 103.56 155.395 103.574 155.465C103.728 156.256 103.751 156.881 103.643 157.341C103.036 159.928 102.415 162.509 101.778 165.084C101.525 166.104 101.404 167.067 101.415 167.976C101.416 168.055 101.439 168.132 101.482 168.198C101.525 168.264 101.585 168.317 101.657 168.349C101.729 168.381 101.808 168.393 101.886 168.381C101.964 168.37 102.037 168.336 102.096 168.285L103.722 166.866C103.754 166.839 103.794 166.823 103.836 166.82C103.878 166.817 103.92 166.827 103.955 166.85C103.991 166.872 104.018 166.906 104.033 166.945C104.049 166.984 104.051 167.027 104.041 167.067C103.612 168.584 102.751 169.679 101.46 170.351C100.073 171.076 98.6616 170.677 98.4817 168.957C98.4783 168.928 98.4661 168.9 98.4468 168.877C98.4274 168.855 98.4017 168.838 98.3731 168.831C98.3444 168.823 98.3141 168.824 98.286 168.833C98.2579 168.843 98.2333 168.861 98.2153 168.884ZM92.4352 163.132C92.4237 163.149 92.4172 163.168 92.4161 163.189C92.4151 163.209 92.4196 163.229 92.4293 163.247C92.4389 163.265 92.4533 163.28 92.4708 163.29C92.4883 163.3 92.5083 163.306 92.5286 163.305L94.3377 163.278C94.3621 163.277 94.3855 163.268 94.4043 163.252C94.423 163.236 94.4361 163.215 94.4414 163.191L95.2682 159.394C95.2745 159.368 95.2716 159.341 95.26 159.318C95.2483 159.294 95.2287 159.276 95.2046 159.265C95.1805 159.255 95.1535 159.253 95.1284 159.261C95.1033 159.269 95.0817 159.285 95.0675 159.307L92.4352 163.132Z" fill="#222020"/>
<path d="M108.475 156.218C109.9 157.629 105.708 159.675 105.48 156.811C105.47 156.695 105.512 156.604 105.604 156.537C106.313 156.01 107.738 155.49 108.475 156.218Z" fill="#222020"/>
<path d="M150.434 162.112C149.858 163.957 149.467 165.838 149.262 167.754C149.248 167.871 149.274 167.989 149.334 168.09C149.521 168.407 149.804 168.561 150.182 168.552C150.299 168.549 150.401 168.509 150.486 168.43L152.029 166.984C152.06 166.955 152.098 166.932 152.138 166.919C152.179 166.905 152.222 166.9 152.264 166.905C152.513 166.932 152.592 167.07 152.499 167.317C152.001 168.665 151.211 169.66 150.13 170.303C148.355 171.36 146.155 170.171 146.384 168.028C146.747 164.637 148.466 160.649 148.03 157.133C148.014 157.008 148.064 156.919 148.179 156.866C148.905 156.524 149.661 156.344 150.445 156.325C150.554 156.322 150.662 156.344 150.762 156.388C150.862 156.431 150.952 156.497 151.024 156.579C151.097 156.661 151.15 156.758 151.182 156.864C151.213 156.969 151.221 157.08 151.206 157.189L150.77 160.212C150.751 160.344 150.809 160.408 150.943 160.403L153.565 160.313C153.597 160.312 153.628 160.317 153.658 160.329C153.687 160.342 153.713 160.36 153.735 160.383C153.757 160.407 153.773 160.435 153.783 160.465C153.793 160.495 153.797 160.527 153.793 160.559C153.592 162.279 151.856 161.946 150.635 161.963C150.533 161.963 150.467 162.013 150.434 162.112Z" fill="#222020"/>
<path d="M119.012 163.222C120.049 161.721 121.163 160.302 122.813 159.446C124.162 158.742 125.401 159.127 125.387 160.84C125.369 162.841 124.307 165.587 124.031 167.986C124.021 168.064 124.035 168.143 124.071 168.213C124.106 168.283 124.161 168.34 124.23 168.379C124.298 168.417 124.376 168.434 124.454 168.428C124.532 168.422 124.606 168.392 124.667 168.344L125.556 167.64C125.655 167.561 125.707 167.458 125.712 167.331C125.85 163.413 128.42 159.546 132.547 159.026C133.772 158.87 135.079 159.255 135.463 160.559C136.321 163.496 131.042 165.375 129.261 166.253C129.127 166.319 129.014 166.422 128.936 166.549C128.858 166.677 128.817 166.824 128.818 166.974C128.825 170.466 133.146 168.787 134.502 167.48C134.542 167.442 134.592 167.416 134.647 167.406C134.702 167.397 134.758 167.404 134.809 167.426C134.86 167.449 134.903 167.486 134.933 167.534C134.962 167.581 134.977 167.636 134.975 167.692C134.917 169.994 131.589 170.66 129.78 170.708C128.119 170.752 126.846 170.151 125.961 168.905C125.88 168.79 125.798 168.79 125.715 168.905C124.276 170.948 120.541 171.925 121.257 167.983C121.602 166.069 122.004 164.139 122.46 162.192C122.476 162.123 122.472 162.051 122.449 161.984C122.425 161.917 122.382 161.858 122.326 161.814C122.27 161.771 122.203 161.745 122.132 161.738C122.061 161.732 121.99 161.746 121.928 161.78C120.077 162.754 117.624 168.129 117.413 170.129C117.4 170.261 117.332 170.351 117.209 170.4C116.345 170.746 115.509 170.705 114.702 170.275C114.647 170.245 114.604 170.198 114.578 170.141C114.552 170.084 114.546 170.02 114.56 169.959L116.324 162.362C116.43 161.897 116.251 161.717 115.788 161.821C114.01 162.223 111.478 168.52 110.824 170.001C110.443 170.857 108.707 170.653 107.956 170.538C107.927 170.534 107.9 170.523 107.875 170.506C107.851 170.489 107.831 170.467 107.817 170.441C107.802 170.416 107.793 170.387 107.791 170.358C107.789 170.328 107.793 170.299 107.804 170.271C108.901 167.411 110.481 162.799 109.897 159.793C109.865 159.631 109.93 159.535 110.094 159.505L112.214 159.123C112.327 159.103 112.442 159.109 112.552 159.139C112.661 159.169 112.763 159.223 112.85 159.297C112.936 159.371 113.005 159.464 113.051 159.568C113.097 159.673 113.12 159.786 113.117 159.9C113.09 160.996 112.906 162.06 112.567 163.094C112.555 163.126 112.556 163.162 112.569 163.193C112.582 163.225 112.606 163.251 112.638 163.265C112.669 163.28 112.705 163.282 112.739 163.273C112.772 163.263 112.801 163.241 112.82 163.212C113.761 161.707 116.96 157.743 118.984 159.609C119.064 159.682 119.113 159.784 119.122 159.893C119.208 160.996 119.121 162.084 118.863 163.156C118.859 163.175 118.861 163.194 118.87 163.211C118.879 163.229 118.893 163.242 118.91 163.25C118.928 163.258 118.948 163.259 118.966 163.254C118.984 163.249 119 163.238 119.012 163.222ZM132.308 160.552C130.534 159.758 129.361 163.714 129.168 164.831C129.144 164.967 129.191 164.997 129.306 164.921C130.067 164.422 130.819 163.914 131.561 163.399C132.201 162.955 133.481 161.072 132.308 160.552Z" fill="#222020"/>
<path d="M154.617 170.091C154.119 169.731 153.723 169.239 153.451 168.644C153.18 168.048 153.039 167.361 153.036 166.621C153.033 165.882 153.168 165.103 153.433 164.332C153.699 163.56 154.09 162.809 154.583 162.123C155.077 161.437 155.664 160.829 156.311 160.332C156.957 159.836 157.651 159.462 158.353 159.232C159.054 159.001 159.749 158.918 160.398 158.989C161.047 159.059 161.638 159.28 162.136 159.64C162.634 160 163.03 160.492 163.301 161.087C163.573 161.683 163.714 162.37 163.717 163.11C163.72 163.85 163.585 164.628 163.319 165.4C163.054 166.171 162.663 166.922 162.17 167.608C161.676 168.294 161.089 168.903 160.442 169.399C159.795 169.895 159.101 170.269 158.4 170.5C157.699 170.73 157.004 170.813 156.355 170.743C155.705 170.673 155.115 170.451 154.617 170.091ZM157.248 169.205C157.741 169.335 158.334 169.007 158.895 168.291C159.457 167.576 159.942 166.532 160.243 165.389C160.544 164.247 160.637 163.099 160.501 162.199C160.365 161.299 160.012 160.72 159.519 160.589C159.026 160.458 158.433 160.787 157.871 161.502C157.31 162.218 156.825 163.262 156.524 164.404C156.223 165.547 156.13 166.694 156.266 167.595C156.401 168.495 156.755 169.074 157.248 169.205Z" fill="#222020"/>
<path d="M169.85 161.263C169.041 159.973 166.315 160.941 167.65 162.484C168.311 163.25 169.667 163.985 170.269 164.942C171.303 166.589 170.681 168.375 169.252 169.554C167.838 170.719 166.15 171.002 164.188 170.403C161.932 169.713 162.842 167.39 164.627 166.991C164.772 166.959 164.846 167.018 164.848 167.168C164.876 170.306 169.895 168.427 167.543 166.405C165.962 165.046 163.856 163.787 165.142 161.26C166.123 159.334 167.83 158.634 170.265 159.158C173.119 159.776 171.071 163.201 169.85 161.263Z" fill="#222020"/>
<path d="M139.877 163.33C140.946 161.863 142.897 159.425 144.665 159.2C146.263 158.999 146.553 160.347 146.297 161.617C145.716 164.508 145.095 167.393 144.433 170.271C144.405 170.392 144.335 170.474 144.222 170.518C143.392 170.837 142.607 170.767 141.87 170.31C141.815 170.276 141.773 170.227 141.748 170.168C141.723 170.11 141.717 170.045 141.731 169.984C142.303 167.589 142.846 165.205 143.36 162.834C143.427 162.517 143.455 162.257 143.443 162.053C143.44 161.986 143.418 161.922 143.378 161.867C143.339 161.813 143.285 161.771 143.222 161.747C143.16 161.722 143.091 161.716 143.025 161.729C142.958 161.743 142.897 161.774 142.848 161.821C140.586 164.009 139.51 166.374 138.109 169.731C137.563 171.041 136.169 170.785 135.072 170.601C134.936 170.578 134.894 170.501 134.944 170.372C136.12 167.334 137.521 163.132 137.12 159.921C137.104 159.787 137.157 159.696 137.279 159.647C138.068 159.328 138.887 159.207 139.735 159.283C139.87 159.294 139.997 159.355 140.09 159.454C140.183 159.553 140.237 159.684 140.24 159.82C140.27 160.99 140.096 162.132 139.718 163.246C139.709 163.267 139.708 163.291 139.715 163.312C139.723 163.334 139.738 163.352 139.759 163.363C139.779 163.373 139.802 163.376 139.824 163.369C139.846 163.363 139.865 163.349 139.877 163.33Z" fill="#222020"/>
<path d="M103.563 170.504C103.459 170.469 103.428 170.401 103.47 170.299C104.656 167.432 106.078 163.097 105.635 159.956C105.627 159.898 105.638 159.839 105.666 159.788C105.694 159.736 105.738 159.696 105.791 159.671C106.563 159.322 107.374 159.198 108.223 159.297C108.398 159.319 108.557 159.408 108.668 159.546C108.778 159.684 108.831 159.859 108.814 160.036C108.521 163.038 107.917 166.031 107.002 169.013C106.503 170.633 105.357 171.13 103.563 170.504Z" fill="#222020"/>
</svg>
