<svg width="200" height="169" viewBox="0 0 200 169" fill="none" xmlns="http://www.w3.org/2000/svg">
<g clip-path="url(#clip0_650_970)">
<path d="M112.009 28.8068C112.009 32.0867 110.659 34.7878 108.151 36.91C106.607 38.0676 105.064 38.8394 103.134 39.2253C99.6614 39.8041 96.5744 39.2253 93.8734 37.103C91.944 35.5595 90.5935 33.4372 90.0147 30.9291C89.2429 27.4562 90.2076 24.1763 92.7157 21.6682C94.2592 19.9318 96.3815 18.9671 98.6967 18.3883C102.362 17.8095 105.642 18.5812 108.536 20.8964C110.466 22.6329 111.623 24.7551 112.009 27.2633C112.009 27.8421 112.009 28.228 112.009 28.8068Z" fill="#D7B46A"/>
<path d="M74.387 21.8611C74.5799 21.8611 74.9658 21.8611 75.1587 22.054C75.7375 22.247 76.5092 22.247 77.0881 22.247C78.2457 22.247 79.4033 22.6328 80.3679 23.2116C81.1397 23.5975 81.7185 23.9834 82.4902 24.5622C83.4549 25.141 84.4196 25.3339 85.5772 25.5268C86.3489 25.7198 87.1207 25.7198 87.8924 25.7198C87.8924 25.7198 88.0853 25.7198 88.0853 25.9127C88.0853 26.2986 88.0853 26.6845 88.0853 27.0703C87.8924 27.6491 87.6995 28.035 87.1207 28.035C86.7348 28.035 86.156 28.035 85.7701 28.035C84.6125 27.8421 83.6478 27.6491 82.4902 27.2633C81.3326 26.8774 80.175 26.1057 79.2103 25.3339C78.2457 24.5622 77.281 23.5975 76.1234 23.0187C75.3516 22.4399 74.9658 22.054 74.387 21.8611Z" fill="#D7B46A"/>
<path d="M110.08 4.49707C109.694 4.88294 109.501 5.26881 109.308 5.84761C108.729 7.19816 108.151 8.74164 107.765 10.2851C107.572 11.2498 107.379 12.0215 107.379 12.9862C107.186 14.3367 106.993 15.4944 106.607 16.652C106.414 17.2308 106.221 17.6166 106.221 18.1954C106.221 18.3884 106.221 18.3884 106.028 18.1954C105.45 17.8096 104.678 17.6166 103.906 17.4237C103.713 17.4237 103.713 17.2308 103.713 17.2308C103.906 16.2661 104.292 15.3014 104.678 14.3368C104.871 13.7579 105.064 13.1791 105.257 12.6003C105.257 12.0215 105.257 11.6357 105.257 11.0569C105.257 10.0922 105.642 9.32044 106.028 8.5487C106.607 7.39109 107.379 6.42642 108.344 5.46174C108.729 5.07587 109.115 4.69001 109.501 4.49707C109.694 4.49707 109.887 4.49707 110.08 4.49707Z" fill="#D7B46A"/>
<path d="M78.4386 13.3721C78.8245 13.7579 79.2103 13.9509 79.5962 14.3367C80.3679 14.7226 80.9467 15.3014 81.7185 15.6873C82.8761 16.2661 83.8408 16.8449 84.9984 17.2308C86.5419 17.8096 87.8924 18.7742 89.243 19.7389C89.8218 20.3177 90.4006 20.7036 90.9794 21.0895C91.1723 21.0895 91.1723 21.2824 90.9794 21.2824C90.4006 21.8612 90.0147 22.44 89.6288 23.2117C89.6288 23.4047 89.4359 23.4047 89.4359 23.2117C89.05 22.8259 88.6641 22.44 88.2783 22.0541C87.5065 21.0895 86.5419 20.3177 85.5772 19.546C84.8054 18.9672 84.0337 18.5813 83.262 18.0025C81.9114 17.2308 80.5609 16.2661 79.5962 15.1085C79.2103 14.7226 78.8245 14.1438 78.4386 13.3721Z" fill="#D7B46A"/>
<path d="M112.974 25.1411C113.167 25.1411 113.553 25.1411 113.746 25.1411C114.71 25.1411 115.482 24.7552 116.447 24.3694C117.797 23.7906 119.148 23.0188 120.498 22.44C121.463 22.0542 122.428 21.6683 123.392 21.4753C124.357 21.2824 125.322 21.4753 126.286 21.8612C125.708 22.0542 125.129 22.0542 124.55 22.2471C123.199 22.633 121.849 23.4047 120.691 24.1764C119.341 24.9482 117.99 25.7199 116.64 26.4917C115.482 27.0705 114.517 27.4563 113.167 27.8422C112.974 27.8422 112.974 27.8422 112.974 27.6493C112.974 26.8775 112.974 25.9128 112.781 25.1411C113.167 25.334 113.167 25.334 112.974 25.1411Z" fill="#D7B46A"/>
<path d="M84.6125 8.35572C84.6125 8.54866 84.6126 8.74159 84.8055 8.93453C84.6126 8.54866 84.4196 7.96985 84.2267 7.58398C84.4196 7.58398 84.2267 7.77692 84.4196 7.77692C84.4196 7.77692 84.4196 7.77692 84.4196 7.58398C84.6126 7.77692 84.6126 7.96985 84.8055 8.16279C85.1914 8.74159 85.7702 9.3204 86.349 9.70627C87.6995 10.8639 88.8571 12.0215 90.0147 13.372C91.1723 14.7226 92.3299 16.0731 93.4876 17.2307C93.8734 17.6166 94.4522 18.0025 94.8381 18.1954C94.6452 18.3883 94.4522 18.3883 94.2593 18.5813C93.6805 18.9671 93.2946 19.1601 92.9088 19.5459C92.7158 19.5459 92.7158 19.5459 92.7158 19.5459C91.9441 18.7742 91.1723 18.0025 90.5935 17.2307C89.6289 16.0731 88.8571 15.1084 87.8924 13.9508C87.1207 12.9862 86.7348 11.8286 86.156 10.6709C85.5772 10.2851 85.1914 9.3204 84.6125 8.35572Z" fill="#D7B46A"/>
<path d="M91.944 4.49707C91.944 5.07587 91.944 5.46174 92.1369 6.04055C92.3299 7.19816 92.9087 8.16283 93.6804 9.12751C94.2592 9.89925 95.031 10.8639 95.8027 11.6357C96.3815 12.2145 96.7674 12.9862 97.1533 13.7579C97.5391 14.7226 97.925 15.8802 98.3109 16.8449V17.0378C97.5391 17.2308 96.7674 17.4237 95.9956 17.8096C95.8027 17.8096 95.8027 17.8096 95.8027 17.6166C95.6098 16.652 95.2239 15.6873 94.838 14.7226C94.4522 13.7579 93.8734 12.9862 93.2946 12.2145C92.5228 11.0569 92.137 9.89925 91.944 8.5487C91.7511 7.39109 91.7511 6.23348 91.944 5.07587C91.944 4.88294 91.944 4.69001 91.944 4.49707Z" fill="#D7B46A"/>
<path d="M121.849 14.7227C121.463 15.1085 121.077 15.3015 120.691 15.6873C120.113 16.2661 119.727 16.8449 119.341 17.4237C118.955 18.0025 118.569 18.7743 117.99 19.3531C117.411 19.9319 116.833 20.5107 116.254 20.8966C115.289 21.4754 114.324 22.0542 113.36 22.633C112.974 22.8259 112.395 23.2118 112.009 23.5977C112.009 23.5977 111.816 23.7906 111.816 23.5977C111.43 22.8259 110.852 21.8612 110.273 21.2824V21.0895C110.852 20.7036 111.43 20.3178 112.009 19.9319C112.202 19.739 112.588 19.739 112.974 19.739C113.553 19.739 113.939 19.739 114.517 19.739C115.289 19.739 115.868 19.3531 116.254 18.7743C116.64 18.3884 116.833 18.0025 117.218 17.6167C118.183 16.4591 119.341 15.4944 120.691 14.9156C120.884 14.9156 121.077 14.7227 121.463 14.7227C121.656 14.7227 121.849 14.7227 121.849 14.7227Z" fill="#D7B46A"/>
<path d="M115.482 8.35571C115.482 8.54865 115.482 8.93452 115.482 9.12745C115.096 10.6709 114.517 12.0215 113.746 13.372C112.974 14.9155 112.009 16.266 111.045 17.6166C110.466 18.3883 110.08 19.1601 109.694 19.9318C109.501 20.1247 109.501 20.1247 109.501 19.9318C108.922 19.353 108.151 18.7742 107.379 18.3883C107.186 18.3883 107.186 18.1954 107.379 18.0025C107.958 17.0378 108.729 16.0731 109.308 15.3014C110.273 14.1438 111.43 13.1791 112.588 12.2144C113.553 11.4427 114.324 10.478 114.903 9.51332C115.096 9.32039 115.289 8.93452 115.482 8.35571Z" fill="#D7B46A"/>
<path d="M100.433 3.14648C100.626 3.53235 100.819 3.72529 101.012 4.11116C101.398 5.07583 101.398 6.04051 101.398 7.00518C101.398 7.77692 101.398 8.54866 101.205 9.51334C101.205 10.6709 101.205 11.6356 101.398 12.7932C101.591 14.1438 101.784 15.4943 101.784 16.8449C101.784 17.0378 101.784 17.0378 101.591 17.0378C100.819 17.0378 100.24 17.0378 99.4685 17.0378C99.4685 17.0378 99.2756 17.0378 99.2756 16.8449C99.0826 15.4943 99.0826 13.9508 99.0826 12.6003C99.0826 11.4427 99.4685 10.478 99.6615 9.3204C100.047 8.16279 100.24 7.00518 100.24 5.84757C100.24 5.07583 100.433 4.49703 100.24 3.72529C100.626 3.72529 100.433 3.33942 100.433 3.14648Z" fill="#D7B46A"/>
<path d="M149.246 43.8557C141.142 42.1193 116.061 26.2986 100.433 27.2633C84.6126 26.2986 59.724 42.1193 51.6207 43.8557C46.0256 45.2062 41.0093 44.0486 41.0093 44.0486C47.1832 56.2035 47.762 110.997 47.762 110.997C49.3055 134.149 100.433 155.758 100.433 155.758C100.433 155.758 151.561 134.149 153.104 110.997C153.104 110.997 153.683 56.2035 159.857 44.0486C159.857 44.0486 154.841 45.2062 149.246 43.8557Z" fill="#808080"/>
<path d="M145.001 48.1002C137.67 46.3638 114.71 32.0866 100.24 32.8584C85.7701 31.8937 63.0038 46.3638 55.6723 48.1002C50.463 49.2578 46.0255 48.1002 46.0255 48.1002C51.6206 59.2905 52.1994 109.261 52.1994 109.261C53.7429 130.483 100.24 150.163 100.24 150.163C100.24 150.163 146.93 130.483 148.474 109.261C148.474 109.261 149.053 59.2905 154.648 48.1002C154.648 48.1002 150.21 49.2578 145.001 48.1002Z" fill="white"/>
<path d="M101.591 36.1384C110.466 36.1384 122.814 41.9264 131.689 45.9781C136.512 48.2933 140.178 50.0297 142.493 50.4156C144.422 50.8014 146.545 50.9944 148.667 50.9944C149.632 50.9944 150.403 50.9944 150.982 50.9944C145.966 62.7634 145.58 106.367 145.387 108.296C144.036 127.397 103.327 145.532 100.24 146.883C96.9603 145.34 56.6369 127.975 55.2864 108.296C55.2864 106.367 54.7076 62.7634 49.6913 50.9944C50.2701 50.9944 51.0418 50.9944 52.0065 50.9944C54.1288 50.9944 56.2511 50.8014 58.1804 50.4156C60.4956 49.8368 64.1614 48.1003 68.9848 45.9781C77.8598 41.7335 90.0147 36.1384 98.8897 36.1384C99.2756 36.1384 99.6614 36.1384 100.047 36.1384C100.819 36.1384 101.205 36.1384 101.591 36.1384ZM101.591 35.5596C101.205 35.5596 100.819 35.5596 100.433 35.5596C100.047 35.5596 99.6614 35.5596 99.2756 35.5596C85.5772 35.5596 65.1261 48.4862 58.3734 50.0297C56.0581 50.6085 53.9359 50.6085 52.3924 50.6085C50.463 50.6085 49.3054 50.4156 49.3054 50.4156C54.5147 61.027 55.0935 108.296 55.0935 108.296C56.444 128.554 98.3109 146.304 100.626 147.269C100.626 147.269 144.808 128.554 146.159 108.296C146.159 108.296 146.738 61.027 151.947 50.4156C151.947 50.4156 150.789 50.6085 148.86 50.6085C147.316 50.6085 145.194 50.4156 142.879 50.0297C135.74 48.6791 115.289 35.7525 101.591 35.5596Z" fill="#808080"/>
<path d="M59.7239 80.8992V79.5486C61.8462 79.7416 63.5826 79.7416 64.9331 79.7416C66.2837 79.7416 67.8271 79.7416 69.5636 79.5486C70.1424 80.8992 70.7212 82.4427 71.4929 84.1791C73.6152 89.0025 75.5445 93.247 77.2809 96.5269L81.7184 87.0731C82.4902 85.5296 82.8761 84.1791 83.4549 83.2144C83.8407 82.2497 84.4195 80.8992 84.9983 79.3557C87.1206 79.5486 88.857 79.5486 89.8217 79.5486C90.5935 79.5486 92.1369 79.5486 94.4522 79.3557V80.7063C94.0663 80.7063 93.8733 80.8992 93.6804 80.8992C92.1369 81.0921 91.3652 81.478 91.1723 81.6709C90.9793 81.8639 90.7864 82.2497 90.7864 83.0215C90.7864 83.6003 90.5935 86.3014 90.5935 90.9318C90.5935 96.7199 90.5935 99.8068 90.5935 99.9997C90.5935 100.964 90.7864 101.543 90.7864 101.736C90.9793 101.929 90.9793 102.122 91.1723 102.122C91.5581 102.315 92.3299 102.508 93.6804 102.701L94.4522 102.894V104.244C91.7511 104.051 89.4359 104.051 88.0853 104.051C86.5418 104.051 84.4195 104.051 81.3326 104.244V102.894C83.069 102.508 84.2266 102.315 84.4195 102.315C84.6125 102.315 84.8054 102.122 84.9983 101.929C85.1913 101.736 85.1913 101.543 85.1913 101.35C85.1913 101.157 85.1913 99.8068 85.1913 97.8775C85.1913 93.247 85.1913 89.7742 85.1913 87.266C85.1913 87.0731 85.1913 86.3014 85.1913 84.9508C84.6125 86.3014 82.2973 91.3177 78.2456 100.386L76.5092 104.244H75.1587C73.8081 101.35 70.9141 94.7905 66.2837 84.7579C66.2837 86.3014 66.2837 87.6519 66.2837 88.6166C66.2837 94.4046 66.2837 98.2633 66.4766 99.9997C66.4766 101.157 66.6695 101.736 66.6695 101.736C66.6695 101.929 66.8625 102.122 67.2483 102.315C67.4413 102.508 68.213 102.701 69.5636 102.894C69.7565 102.894 69.9494 102.894 70.3353 103.087V104.437C68.5989 104.244 67.0554 104.244 65.5119 104.244C63.9684 104.244 62.232 104.244 60.3027 104.437V103.087C61.8462 102.894 62.8108 102.701 63.0038 102.508C63.3896 102.315 63.5826 102.122 63.7755 101.929C63.9684 101.736 63.9684 101.157 63.9684 100.386L64.1614 89.3883C64.1614 87.459 64.1614 86.1084 64.1614 85.1438C64.1614 83.6003 64.1614 82.8285 63.9684 82.2497C63.9684 82.0568 63.7755 81.6709 63.3896 81.6709C63.1967 81.478 62.232 81.2851 60.8815 81.0921C60.4956 80.8992 60.1097 80.8992 59.7239 80.8992Z" fill="#2172A0"/>
<path d="M109.308 99.614L110.273 100.965C108.537 102.508 106.8 103.666 105.257 104.244C104.678 104.63 103.713 104.63 102.748 104.63C100.626 104.63 98.8898 104.052 97.7322 102.701C96.3816 101.157 95.6099 99.0352 95.6099 96.3341C95.6099 93.633 96.3816 91.3178 98.118 89.5814C99.8544 87.845 101.784 87.0732 104.292 87.0732C106.607 87.0732 108.151 87.652 109.115 89.0026C109.887 89.9673 110.273 91.3178 110.273 93.0542C109.694 93.4401 109.115 93.826 108.729 94.4048C107.572 94.4048 106.221 94.4048 105.064 94.4048C103.327 94.4048 101.977 94.4048 100.433 94.4048C100.433 94.5977 100.433 94.7906 100.433 94.9836C100.433 96.5271 100.819 98.0705 101.591 99.2281C102.363 100.386 103.52 101.157 104.871 101.157C105.642 101.157 106.221 100.965 106.993 100.772C107.572 100.579 108.344 100.193 109.308 99.614ZM100.433 92.6684C101.012 92.6684 101.591 92.6684 101.977 92.6684C102.941 92.6684 104.099 92.6684 105.642 92.4754C105.642 90.9319 105.257 89.9673 104.871 89.5814C104.485 89.0026 103.906 88.8097 103.134 88.8097C102.363 88.8097 101.784 89.1955 101.205 89.7743C100.819 90.3531 100.433 91.3178 100.433 92.6684Z" fill="#2172A0"/>
<path d="M114.903 93.2472L113.36 93.0542C113.746 91.5107 113.939 89.9673 113.939 88.6167C116.061 87.652 118.183 87.0732 120.498 87.0732C121.849 87.0732 122.814 87.2662 123.778 87.652C124.55 88.0379 125.129 88.6167 125.515 89.3885C125.901 90.1602 125.901 91.3178 125.901 92.8613V98.8423C125.901 99.9999 125.901 100.772 126.094 100.965C126.287 101.35 126.479 101.35 126.865 101.35C127.251 101.35 127.83 101.157 128.602 100.772L129.181 101.736C127.637 102.894 126.479 103.666 125.708 103.859C125.129 104.437 124.743 104.437 124.164 104.437C123.585 104.437 123.007 104.244 122.428 103.859C122.042 103.473 121.656 102.894 121.463 102.315C120.113 103.28 119.148 103.859 118.569 104.052C117.99 104.244 117.412 104.437 116.64 104.437C115.482 104.437 114.517 104.052 113.746 103.28C112.974 102.508 112.588 101.35 112.588 99.9999C112.588 99.0352 112.781 98.2635 113.36 97.2988C113.746 96.72 114.325 96.1412 115.289 95.7553L121.656 92.8613C121.656 91.5107 121.463 90.5461 121.077 90.1602C120.691 89.7743 120.113 89.3885 119.341 89.3885C118.569 89.3885 117.797 89.5814 117.219 90.1602C116.254 90.739 115.675 91.7037 114.903 93.2472ZM121.463 94.5977C119.534 95.5624 118.376 96.1412 117.797 96.72C117.219 97.2988 117.026 98.0705 117.026 99.0352C117.026 99.9999 117.219 100.579 117.604 101.157C117.99 101.543 118.376 101.736 118.955 101.736C119.341 101.736 119.92 101.543 120.306 101.35C120.691 100.965 121.077 100.579 121.077 99.9999C121.27 99.4211 121.27 98.2635 121.27 96.5271C121.463 96.1412 121.463 95.5624 121.463 94.5977Z" fill="#2172A0"/>
<path d="M140.949 87.8448L141.142 88.0377C140.757 88.6165 140.371 89.3883 140.178 89.9671C139.02 89.7742 137.67 89.7742 136.126 89.7742V91.8964V94.2117V96.5269C136.126 98.6492 136.319 100.193 136.705 100.771C137.091 101.35 137.477 101.543 138.055 101.543C138.441 101.543 139.213 101.35 140.178 100.964L140.757 102.122C139.02 103.087 137.863 103.858 137.284 104.051C136.512 104.244 135.74 104.437 134.968 104.437C133.811 104.437 133.039 104.051 132.46 103.473C131.882 102.701 131.496 101.736 131.496 100.386V96.3339L131.689 89.7742H130.338C130.145 89.7742 129.759 89.7742 129.18 89.7742V88.4236C130.338 88.0377 131.303 87.4589 132.267 86.4943C133.232 85.5296 134.197 84.372 135.161 82.4426H136.705C136.319 84.372 136.319 86.1084 136.126 87.6519C137.091 87.6519 137.67 87.6519 138.055 87.6519C138.441 87.8448 139.406 87.8448 140.949 87.8448Z" fill="#2172A0"/>
<path d="M91.1723 57.1683H89.4359C89.05 55.046 88.4712 53.5025 87.6995 52.7308C86.9278 51.959 85.9631 51.5731 84.6125 51.5731C83.4549 51.5731 82.4903 51.959 81.9115 52.5378C81.3327 53.1166 80.9468 53.8884 80.9468 54.853C80.9468 55.6248 81.3327 56.3965 81.9115 57.1683C82.4903 57.94 84.0337 58.7117 86.349 59.8693C88.6642 60.834 90.2077 61.9916 91.1723 63.1492C92.137 64.3068 92.5229 65.8503 92.5229 67.3938C92.5229 69.5161 91.7511 71.2525 90.2077 72.796C88.6642 74.3395 86.156 75.1112 82.6832 75.1112C81.5256 75.1112 80.175 75.1112 79.2104 74.9183C78.4386 74.7253 77.281 74.5324 76.1234 74.1465C76.3163 72.0242 76.5093 70.0949 76.5093 68.1656V67.0079H78.2457C78.6316 69.3232 79.2104 70.8666 79.7892 71.6384C80.7538 72.6031 81.9115 73.1819 83.4549 73.1819C84.6125 73.1819 85.5772 72.796 86.349 72.0242C87.1207 71.2525 87.5066 70.2878 87.5066 69.3232C87.5066 68.5514 87.3136 67.9726 87.1207 67.3938C86.7348 66.815 86.349 66.2362 85.7702 65.8503C85.1913 65.4645 84.0337 64.8857 82.4903 64.1139C79.9821 62.9563 78.4386 61.7987 77.474 60.834C76.7022 59.6764 76.3163 58.5188 76.3163 56.9753C76.3163 54.853 77.0881 53.1166 78.6316 51.7661C80.175 50.4155 82.4903 49.6438 85.3843 49.6438C87.3136 49.6438 89.4359 50.0297 91.7511 50.8014C91.7511 52.5378 91.5582 53.8884 91.5582 54.6601C90.9794 55.2389 90.9794 56.2036 91.1723 57.1683Z" fill="#2172A0"/>
<path d="M112.781 72.0243V73.3748C111.045 73.5677 109.694 73.7607 108.729 74.1465C107.765 74.3395 106.8 74.7253 105.835 75.1112L105.064 74.5324C105.257 73.7607 105.257 72.9889 105.45 72.0243C103.906 73.3748 102.941 74.1465 102.363 74.5324C101.784 74.9183 101.205 74.9183 100.433 74.9183C99.4685 74.9183 98.8897 74.7253 98.118 74.5324C97.3462 74.3395 96.9604 73.7607 96.7674 73.3748C96.3816 72.796 96.1886 72.2172 96.1886 71.4455C96.1886 70.8666 96.1886 69.709 96.1886 67.3938V63.921C96.1886 61.9916 95.9957 60.834 95.8028 60.6411C95.6098 60.2552 94.8381 60.0623 93.4875 60.0623V58.9047C96.1886 58.7117 98.3109 58.3259 100.24 57.7471L100.819 58.1329C100.819 58.7117 100.626 59.4835 100.626 60.6411C100.626 62.7634 100.433 64.4998 100.433 66.0433C100.433 68.3585 100.626 69.902 100.819 70.6737C101.205 71.4454 101.784 71.6384 102.555 71.6384C103.327 71.6384 103.906 71.4454 104.292 71.0596C104.871 70.6737 105.064 69.902 105.257 69.1302C105.45 68.5514 105.45 66.815 105.45 63.7281C105.45 61.9916 105.257 60.834 105.064 60.6411C104.871 60.4482 104.099 60.2552 102.555 60.0623V58.9047C104.485 58.7117 106.028 58.5188 106.8 58.3259C107.572 58.1329 108.536 57.94 109.308 57.7471L110.08 58.3259C109.887 59.2906 109.887 60.4482 109.694 61.2199C109.694 62.7634 109.501 65.0786 109.501 68.1656C109.501 70.2878 109.501 71.4454 109.694 71.6384C109.887 72.0243 110.273 72.2172 110.852 72.2172H111.045C111.816 72.0243 112.202 72.0243 112.781 72.0243Z" fill="#2172A0"/>
<path d="M113.36 61.2199V60.0623C116.254 59.4835 118.569 58.7117 120.306 57.7471L121.077 58.1329C120.884 59.2906 120.691 60.6411 120.691 62.1846C121.849 60.2552 122.814 59.0976 123.392 58.7117C123.971 58.3259 124.55 58.1329 125.322 58.1329C125.901 58.1329 126.479 58.3259 127.058 58.5188C126.672 59.8694 126.479 61.4128 126.286 62.9563H125.129C125.129 62.5704 124.936 62.1846 124.743 61.9916C124.55 61.7987 124.164 61.6058 123.971 61.6058C123.392 61.6058 123.007 61.7987 122.621 62.3775C121.849 63.1492 121.463 63.921 121.27 65.0786C121.077 65.6574 121.077 66.6221 121.077 67.9726C121.077 70.2878 121.077 71.6384 121.077 72.0243C121.077 72.4101 121.27 72.6031 121.463 72.796C121.656 72.9889 122.235 73.1819 123.392 73.3748C123.585 73.3748 123.778 73.3748 124.164 73.5677V74.7253C122.042 74.5324 120.113 74.5324 118.762 74.5324C117.219 74.5324 115.675 74.5324 113.746 74.7253V73.5677C115.096 73.3748 115.868 72.9889 116.061 72.6031C116.254 72.0243 116.447 69.709 116.447 65.4645C116.447 63.1492 116.447 61.9916 116.254 61.6058C116.061 61.2199 115.675 61.2199 115.289 61.2199C114.517 61.027 114.132 61.027 113.36 61.2199Z" fill="#2172A0"/>
<path d="M110.466 168.299C110.466 168.299 118.955 157.687 138.248 155.565C156.963 152.285 180.115 133.377 186.482 104.823C193.814 76.4616 183.395 45.2062 169.311 29.9643C155.42 13.7578 142.107 10.285 142.3 10.092C141.914 10.4779 155.227 14.3366 168.732 30.3502C182.431 45.785 192.463 76.6546 184.939 104.051C178.379 132.027 155.806 149.97 137.67 153.057C133.425 153.443 129.373 154.214 126.094 155.372C125.129 155.758 124.164 155.951 123.2 156.337L114.132 160.774C109.887 163.475 108.151 165.598 108.151 165.598L110.466 168.299Z" fill="#808080"/>
<path d="M144.229 138.008C144.229 138.008 139.02 139.552 137.091 144.182C134.776 149.97 135.547 154.986 135.547 154.986C135.547 154.986 140.949 152.285 142.686 149.198C145.194 144.954 144.229 138.008 144.229 138.008Z" fill="#808080"/>
<path d="M152.718 164.826C152.718 164.826 147.316 166.176 143.651 163.282C138.827 159.424 137.284 154.793 137.284 154.793C137.284 154.793 143.072 154.214 146.159 155.951C150.403 158.266 152.718 164.826 152.718 164.826Z" fill="#808080"/>
<path d="M152.333 133.571C152.333 133.571 147.509 136.079 146.352 140.902C145.001 146.883 146.545 151.706 146.545 151.706C146.545 151.706 151.175 148.041 152.526 144.761C154.455 140.13 152.333 133.571 152.333 133.571Z" fill="#808080"/>
<path d="M164.488 158.073C164.488 158.073 159.664 160.388 155.613 158.266C150.596 155.565 148.281 151.127 148.281 151.127C148.281 151.127 153.876 149.584 156.963 150.549C161.401 152.092 164.488 158.073 164.488 158.073Z" fill="#808080"/>
<path d="M159.857 127.589C159.857 127.589 155.613 131.062 155.227 135.886C154.841 142.059 156.963 146.304 156.963 146.304C156.963 146.304 160.822 141.867 161.594 138.394C162.944 133.57 159.857 127.589 159.857 127.589Z" fill="#808080"/>
<path d="M175.099 149.005C175.099 149.005 170.854 152.285 166.61 150.935C161.401 149.198 158.507 145.532 158.507 145.532C158.507 145.532 163.523 142.831 166.803 143.217C171.24 143.796 175.099 149.005 175.099 149.005Z" fill="#808080"/>
<path d="M166.224 120.065C166.224 120.065 162.751 124.31 163.137 129.133C163.716 135.114 166.417 138.973 166.417 138.973C166.417 138.973 169.504 133.956 169.697 130.29C170.083 125.274 166.224 120.065 166.224 120.065Z" fill="#808080"/>
<path d="M183.974 138.008C183.974 138.008 180.308 142.06 176.064 141.481C170.854 140.902 167.382 137.815 167.382 137.815C167.382 137.815 171.819 134.342 174.906 133.956C179.536 133.763 183.974 138.008 183.974 138.008Z" fill="#808080"/>
<path d="M171.433 111.383C171.433 111.383 168.732 116.206 169.89 120.837C171.24 126.625 174.52 129.712 174.52 129.712C174.52 129.712 176.642 124.117 176.449 120.644C175.678 115.627 171.433 111.383 171.433 111.383Z" fill="#808080"/>
<path d="M191.113 125.274C191.113 125.274 188.219 129.905 184.167 130.291C178.958 130.676 175.292 128.361 175.292 128.361C175.292 128.361 178.958 124.117 181.852 123.152C186.096 121.994 191.113 125.274 191.113 125.274Z" fill="#808080"/>
<path d="M175.099 101.736C175.099 101.736 173.17 106.945 174.906 111.19C177.028 116.592 180.694 119.1 180.694 119.1C180.694 119.1 182.045 113.312 181.08 109.839C179.922 105.016 175.099 101.736 175.099 101.736Z" fill="#808080"/>
<path d="M195.936 111.383C195.936 111.383 193.814 116.399 189.955 117.557C185.132 118.907 181.273 117.364 181.273 117.364C181.273 117.364 184.167 112.348 186.868 110.997C190.727 109.261 195.936 111.383 195.936 111.383Z" fill="#808080"/>
<path d="M177.221 91.5107C177.221 91.5107 176.064 96.9129 178.572 100.772C181.466 105.595 185.132 107.331 185.132 107.331C185.132 107.331 185.517 101.35 184.167 98.2635C182.238 93.826 177.221 91.5107 177.221 91.5107Z" fill="#808080"/>
<path d="M198.637 96.9127C198.637 96.9127 197.479 102.315 193.814 104.051C189.376 106.367 185.517 105.595 185.517 105.595C185.517 105.595 187.64 100.193 189.955 98.2633C193.235 95.7551 198.637 96.9127 198.637 96.9127Z" fill="#808080"/>
<path d="M177.607 80.7063C177.607 80.7063 177.414 86.1085 180.115 89.3884C183.588 93.44 187.447 94.4047 187.447 94.4047C187.447 94.4047 186.868 88.6166 185.132 85.7226C183.009 82.0568 177.607 80.7063 177.607 80.7063Z" fill="#808080"/>
<path d="M199.023 81.8638C199.023 81.8638 198.637 87.266 195.55 89.7741C191.691 92.8611 187.833 92.8611 187.833 92.8611C187.833 92.8611 188.99 87.266 190.92 84.9507C193.814 81.8638 199.023 81.8638 199.023 81.8638Z" fill="#808080"/>
<path d="M176.642 69.709C176.642 69.709 177.221 75.1112 180.501 77.8123C184.36 81.0921 188.219 81.2851 188.219 81.2851C188.219 81.2851 186.868 75.69 184.746 73.3748C181.852 69.9019 176.642 69.709 176.642 69.709Z" fill="#808080"/>
<path d="M197.286 66.6221C197.286 66.6221 197.672 72.0242 195.164 75.1112C191.884 78.9699 188.219 79.7416 188.219 79.7416C188.219 79.7416 188.411 73.9536 189.955 71.4454C192.077 67.5867 197.286 66.6221 197.286 66.6221Z" fill="#808080"/>
<path d="M173.941 58.7117C173.941 58.7117 175.292 63.728 178.765 65.8503C183.009 68.3584 186.675 67.7796 186.675 67.7796C186.675 67.7796 184.553 62.5704 182.238 60.641C178.958 57.9399 173.941 58.7117 173.941 58.7117Z" fill="#808080"/>
<path d="M193.042 51.7661C193.042 51.7661 194.2 56.9754 192.27 60.4482C189.762 64.8857 186.289 66.2362 186.289 66.2362C186.289 66.2362 185.71 60.6411 186.868 57.7471C188.412 53.6955 193.042 51.7661 193.042 51.7661Z" fill="#808080"/>
<path d="M169.504 48.4862C169.504 48.4862 171.626 53.1166 175.099 54.4671C179.537 56.0106 183.009 54.6601 183.009 54.6601C183.009 54.6601 180.115 50.0296 177.607 48.6791C174.134 46.7497 169.504 48.4862 169.504 48.4862Z" fill="#808080"/>
<path d="M186.868 37.8748C186.868 37.8748 188.797 42.6981 187.447 46.3639C185.71 51.1873 182.623 53.1166 182.623 53.1166C182.623 53.1166 181.273 47.7144 181.852 44.8204C182.623 40.7688 186.868 37.8748 186.868 37.8748Z" fill="#808080"/>
<path d="M163.523 39.2252C163.523 39.2252 166.224 43.4698 169.89 43.8556C174.327 44.4344 177.414 42.5051 177.414 42.5051C177.414 42.5051 173.941 38.6464 171.433 37.6817C167.96 36.5241 163.523 39.2252 163.523 39.2252Z" fill="#808080"/>
<path d="M178.765 25.5269C178.765 25.5269 181.273 29.7714 180.501 33.8231C179.537 38.8394 176.835 41.3475 176.835 41.3475C176.835 41.3475 174.713 36.3312 174.906 33.4372C175.099 28.9997 178.765 25.5269 178.765 25.5269Z" fill="#808080"/>
<path d="M156.577 31.1221C156.577 31.1221 159.857 34.5949 163.33 34.402C167.767 34.2091 170.469 31.7009 170.469 31.7009C170.469 31.7009 166.61 28.614 164.102 28.2281C160.243 27.8422 156.577 31.1221 156.577 31.1221Z" fill="#808080"/>
<path d="M168.925 14.9155C168.925 14.9155 172.012 18.5813 171.819 22.6329C171.626 27.6492 169.504 30.7362 169.504 30.7362C169.504 30.7362 166.803 26.2987 166.417 23.4047C166.031 19.1601 168.925 14.9155 168.925 14.9155Z" fill="#808080"/>
<path d="M148.474 24.7553C148.474 24.7553 152.14 27.6493 155.42 26.6846C159.664 25.527 161.787 22.633 161.787 22.633C161.787 22.633 157.735 20.3178 155.034 20.5107C151.368 20.7036 148.474 24.7553 148.474 24.7553Z" fill="#808080"/>
<path d="M157.735 6.42627C157.735 6.42627 161.208 9.32029 161.594 13.3719C162.172 18.3882 160.436 21.6681 160.436 21.6681C160.436 21.6681 157.156 18.0024 156.384 15.1083C155.613 11.0567 157.735 6.42627 157.735 6.42627Z" fill="#808080"/>
<path d="M139.599 19.9317C139.599 19.9317 143.458 22.054 146.545 20.5105C150.403 18.5812 151.947 15.3013 151.947 15.3013C151.947 15.3013 147.702 13.7578 145.387 14.5296C141.914 15.4942 139.599 19.9317 139.599 19.9317Z" fill="#808080"/>
<path d="M145.966 0.252441C145.966 0.252441 149.825 2.37472 150.789 6.23342C151.947 10.8639 150.982 14.5296 150.982 14.5296C150.982 14.5296 147.123 11.6356 146.159 8.93451C144.615 5.26875 145.966 0.252441 145.966 0.252441Z" fill="#808080"/>
<path d="M145.387 11.6356C145.387 11.6356 142.493 13.1791 139.985 12.0215C136.898 10.478 135.354 7.96987 135.354 7.96987C135.354 7.96987 138.634 6.81226 140.564 7.39107C143.458 7.96987 145.387 11.6356 145.387 11.6356Z" fill="#808080"/>
<path d="M89.0501 168.299C89.0501 168.299 80.5609 157.687 61.2674 155.565C42.5527 152.285 19.5935 133.377 13.0337 104.63C5.70218 76.2687 16.1207 45.0133 30.2049 29.7714C44.0962 13.7578 57.6017 10.285 57.2158 10.092C57.6017 10.4779 44.2892 14.3366 30.7837 30.3502C17.0853 45.785 7.05273 76.6546 14.5772 104.051C21.137 132.027 43.7104 149.97 61.8462 153.057C66.0908 153.443 70.1424 154.214 73.4223 155.372C74.387 155.758 75.3517 155.951 76.3164 156.337L85.3843 160.774C89.6289 163.475 91.3653 165.598 91.3653 165.598L89.0501 168.299Z" fill="#808080"/>
<path d="M55.4794 138.008C55.4794 138.008 60.6886 139.552 62.618 144.182C64.9332 149.97 64.1614 154.986 64.1614 154.986C64.1614 154.986 58.7593 152.285 57.0229 149.198C54.3218 144.954 55.4794 138.008 55.4794 138.008Z" fill="#808080"/>
<path d="M46.7972 164.826C46.7972 164.826 52.1994 166.176 55.8652 163.282C60.6886 159.424 62.232 154.793 62.232 154.793C62.232 154.793 56.444 154.214 53.357 155.951C49.3054 158.266 46.7972 164.826 46.7972 164.826Z" fill="#808080"/>
<path d="M47.1832 133.571C47.1832 133.571 52.0065 136.079 53.1641 140.902C54.5147 146.883 52.9712 151.706 52.9712 151.706C52.9712 151.706 48.3408 148.041 46.9902 144.761C45.0609 140.13 47.1832 133.571 47.1832 133.571Z" fill="#808080"/>
<path d="M35.0283 158.073C35.0283 158.073 39.8517 160.388 43.9033 158.266C48.9196 155.565 51.2349 151.127 51.2349 151.127C51.2349 151.127 45.6397 149.584 42.5528 150.549C38.3082 152.092 35.0283 158.073 35.0283 158.073Z" fill="#808080"/>
<path d="M39.6587 127.589C39.6587 127.589 43.9032 131.062 44.2891 135.886C44.675 142.059 42.5527 146.304 42.5527 146.304C42.5527 146.304 38.694 141.867 37.9223 138.394C36.7646 133.57 39.6587 127.589 39.6587 127.589Z" fill="#808080"/>
<path d="M24.4169 149.005C24.4169 149.005 28.6614 152.285 32.906 150.935C38.1152 149.198 41.0093 145.532 41.0093 145.532C41.0093 145.532 35.993 142.831 32.7131 143.217C28.4685 143.796 24.4169 149.005 24.4169 149.005Z" fill="#808080"/>
<path d="M33.2918 120.065C33.2918 120.065 36.7647 124.31 36.3788 129.133C35.8 135.114 33.0989 138.973 33.0989 138.973C33.0989 138.973 30.0119 133.956 29.819 130.29C29.6261 125.274 33.2918 120.065 33.2918 120.065Z" fill="#808080"/>
<path d="M15.5419 138.008C15.5419 138.008 19.2076 142.06 23.4522 141.481C28.6614 140.902 32.1343 137.815 32.1343 137.815C32.1343 137.815 27.6968 134.342 24.6098 133.956C19.9794 133.763 15.5419 138.008 15.5419 138.008Z" fill="#808080"/>
<path d="M28.0827 111.383C28.0827 111.383 30.7838 116.206 29.6261 120.837C28.2756 126.625 24.9957 129.712 24.9957 129.712C24.9957 129.712 22.8734 124.117 23.0664 120.644C23.8381 115.627 28.0827 111.383 28.0827 111.383Z" fill="#808080"/>
<path d="M8.4032 125.274C8.4032 125.274 11.2972 129.905 15.3489 130.291C20.5581 130.676 24.2239 128.361 24.2239 128.361C24.2239 128.361 20.5581 124.117 17.6641 123.152C13.4195 121.994 8.4032 125.274 8.4032 125.274Z" fill="#808080"/>
<path d="M24.6097 101.736C24.6097 101.736 26.5391 106.945 24.8027 111.19C22.6804 116.592 19.0146 119.1 19.0146 119.1C19.0146 119.1 17.6641 113.312 18.6288 109.839C19.7864 105.016 24.6097 101.736 24.6097 101.736Z" fill="#808080"/>
<path d="M3.57983 111.383C3.57983 111.383 5.70212 116.399 9.56082 117.557C14.3842 118.907 18.2429 117.364 18.2429 117.364C18.2429 117.364 15.3489 112.348 12.6478 110.997C8.78908 109.261 3.57983 111.383 3.57983 111.383Z" fill="#808080"/>
<path d="M22.4875 91.5107C22.4875 91.5107 23.6451 96.9129 21.1369 100.772C18.2429 105.595 14.5771 107.331 14.5771 107.331C14.5771 107.331 14.1913 101.35 15.5418 98.2635C17.2782 93.826 22.4875 91.5107 22.4875 91.5107Z" fill="#808080"/>
<path d="M0.878784 96.9127C0.878784 96.9127 2.03639 102.315 5.70216 104.051C10.1397 106.367 13.9984 105.595 13.9984 105.595C13.9984 105.595 12.069 100.193 9.56085 98.2633C6.28096 95.7551 0.878784 96.9127 0.878784 96.9127Z" fill="#808080"/>
<path d="M21.9086 80.7063C21.9086 80.7063 22.1016 86.1085 19.4005 89.3884C15.9277 93.44 12.069 94.4047 12.069 94.4047C12.069 94.4047 12.6478 88.6166 14.3842 85.7226C16.6994 82.0568 21.9086 80.7063 21.9086 80.7063Z" fill="#808080"/>
<path d="M0.49292 81.8638C0.49292 81.8638 0.87879 87.266 3.96575 89.7741C7.82445 92.8611 11.6831 92.8611 11.6831 92.8611C11.6831 92.8611 10.5255 87.266 8.59618 84.9507C5.8951 81.8638 0.49292 81.8638 0.49292 81.8638Z" fill="#808080"/>
<path d="M22.8733 69.709C22.8733 69.709 22.2945 75.1112 19.0146 77.8123C15.1559 81.0921 11.2972 81.2851 11.2972 81.2851C11.2972 81.2851 12.6478 75.69 14.7701 73.3748C17.6641 69.9019 22.8733 69.709 22.8733 69.709Z" fill="#808080"/>
<path d="M2.22937 66.6221C2.22937 66.6221 1.8435 72.0242 4.35165 75.1112C7.63155 78.9699 11.2973 79.7416 11.2973 79.7416C11.2973 79.7416 11.1044 73.9536 9.5609 71.4454C7.43861 67.5867 2.22937 66.6221 2.22937 66.6221Z" fill="#808080"/>
<path d="M25.7674 58.7117C25.7674 58.7117 24.4169 63.728 20.944 65.8503C16.6995 68.3584 13.0337 67.7796 13.0337 67.7796C13.0337 67.7796 15.156 62.5704 17.4712 60.641C20.5582 57.9399 25.7674 58.7117 25.7674 58.7117Z" fill="#808080"/>
<path d="M6.47393 51.7661C6.47393 51.7661 5.31632 56.9754 7.24567 60.4482C9.75382 64.8857 13.2267 66.2362 13.2267 66.2362C13.2267 66.2362 13.8055 60.6411 12.6478 57.7471C11.1044 53.6955 6.47393 51.7661 6.47393 51.7661Z" fill="#808080"/>
<path d="M30.0119 48.4862C30.0119 48.4862 27.8896 53.1166 24.4168 54.4671C19.9793 56.0106 16.5065 54.6601 16.5065 54.6601C16.5065 54.6601 19.4005 50.0296 21.9086 48.6791C25.3815 46.7497 30.0119 48.4862 30.0119 48.4862Z" fill="#808080"/>
<path d="M12.6479 37.8748C12.6479 37.8748 10.7185 42.6981 12.0691 46.3639C13.8055 51.1873 16.8924 53.1166 16.8924 53.1166C16.8924 53.1166 18.243 47.7144 17.6642 44.8204C16.8924 40.7688 12.6479 37.8748 12.6479 37.8748Z" fill="#808080"/>
<path d="M35.993 39.2252C35.993 39.2252 33.2919 43.4698 29.6261 43.8556C25.1886 44.4344 22.1017 42.5051 22.1017 42.5051C22.1017 42.5051 25.5745 38.6464 28.0827 37.6817C31.7484 36.5241 35.993 39.2252 35.993 39.2252Z" fill="#808080"/>
<path d="M20.944 25.5269C20.944 25.5269 18.4358 29.7714 19.2075 33.8231C20.1722 38.8394 22.8733 41.3475 22.8733 41.3475C22.8733 41.3475 24.9956 36.3312 24.8027 33.4372C24.4168 28.9997 20.944 25.5269 20.944 25.5269Z" fill="#808080"/>
<path d="M43.1315 31.1221C43.1315 31.1221 39.8517 34.5949 36.3788 34.402C31.9413 34.2091 29.2402 31.7009 29.2402 31.7009C29.2402 31.7009 33.0989 28.614 35.6071 28.2281C39.2729 27.8422 43.1315 31.1221 43.1315 31.1221Z" fill="#808080"/>
<path d="M30.5908 14.9155C30.5908 14.9155 27.5039 18.5813 27.6968 22.6329C27.8897 27.6492 30.012 30.7362 30.012 30.7362C30.012 30.7362 32.7131 26.2987 33.099 23.4047C33.6778 19.1601 30.5908 14.9155 30.5908 14.9155Z" fill="#808080"/>
<path d="M51.2347 24.7553C51.2347 24.7553 47.569 27.6493 44.2891 26.6846C40.0445 25.527 37.9222 22.633 37.9222 22.633C37.9222 22.633 42.1668 20.3178 44.675 20.5107C48.1478 20.7036 51.2347 24.7553 51.2347 24.7553Z" fill="#808080"/>
<path d="M41.781 6.42627C41.781 6.42627 38.3082 9.32029 37.9223 13.3719C37.3435 18.3882 39.0799 21.6681 39.0799 21.6681C39.0799 21.6681 42.3598 18.0024 43.1316 15.1083C43.9033 11.0567 41.781 6.42627 41.781 6.42627Z" fill="#808080"/>
<path d="M59.9169 19.9317C59.9169 19.9317 56.0582 22.054 52.9713 20.5105C49.1126 18.5812 47.5691 15.3013 47.5691 15.3013C47.5691 15.3013 51.8137 13.7578 54.3218 14.5296C57.6017 15.4942 59.9169 19.9317 59.9169 19.9317Z" fill="#808080"/>
<path d="M53.55 0.252441C53.55 0.252441 49.6913 2.37472 48.7266 6.23342C47.569 10.8639 48.5337 14.5296 48.5337 14.5296C48.5337 14.5296 52.1994 11.6356 53.3571 8.93451C55.0935 5.26875 53.55 0.252441 53.55 0.252441Z" fill="#808080"/>
<path d="M54.1288 11.6357C54.1288 11.6357 57.0228 13.1792 59.531 12.0216C62.6179 10.4781 64.1614 7.777 64.1614 7.777C64.1614 7.777 60.8815 6.61939 58.9522 7.1982C56.2511 7.96994 54.1288 11.6357 54.1288 11.6357Z" fill="#808080"/>
<path d="M84.0337 115.049C83.8407 115.049 83.6478 115.049 83.6478 114.856C83.6478 114.856 82.1043 114.084 83.2619 113.119C84.6125 112.155 84.9983 113.891 84.4195 114.277C84.4195 114.277 84.4195 113.505 83.6478 113.891C82.8761 114.084 84.0337 114.663 84.4195 114.663C86.156 112.733 90.4005 110.225 98.3109 111.962C107.958 114.277 109.694 114.277 111.623 115.82C112.202 116.206 112.588 116.785 112.974 117.364C113.36 117.364 113.746 117.557 114.132 117.75C115.675 118.329 117.604 118.136 117.604 118.329C117.797 119.1 115.675 119.872 114.517 120.258C114.71 120.837 114.903 121.416 114.903 121.801C115.096 123.538 117.797 124.888 117.99 124.503C117.99 124.503 117.797 126.239 117.026 126.625C116.061 127.011 115.482 126.625 115.289 126.432C115.096 126.239 114.324 125.467 113.939 125.467C113.36 125.467 114.903 126.046 115.096 126.432C115.289 126.818 114.903 127.011 114.517 127.204C114.132 127.204 112.009 127.782 110.659 127.204C109.501 126.625 108.729 126.046 107.958 125.66C107.186 125.274 106.221 125.274 106.221 126.432C106.221 127.397 106.993 129.326 107.379 130.291C107.572 130.676 107.765 130.869 107.765 131.062C108.151 131.641 108.536 132.413 107.572 132.027C106.993 131.834 106.414 131.641 106.028 131.062C105.835 130.869 105.835 130.676 105.642 130.483C105.449 130.483 105.449 130.869 105.449 130.869L104.871 131.062C104.871 131.062 104.871 130.676 104.871 129.519C104.871 128.361 104.678 128.168 104.485 127.782C104.292 127.397 104.292 127.011 104.292 127.011C104.292 127.011 104.099 127.011 103.906 127.204C103.713 127.589 103.134 128.361 102.941 129.133C102.748 129.712 102.748 130.291 102.941 130.869C102.941 131.062 102.941 131.062 102.941 131.255C102.941 131.255 102.941 131.448 103.134 131.448C103.713 132.413 103.906 132.992 103.713 133.185C103.52 133.378 102.362 133.378 102.17 132.799C101.977 132.22 101.784 131.641 101.784 131.448C101.784 131.255 101.398 131.255 101.205 131.062C101.205 130.869 101.398 126.818 101.591 125.66C101.591 125.467 101.398 125.467 101.398 125.467C101.398 125.467 101.398 126.046 97.1532 126.239C94.838 126.239 93.1016 126.239 91.944 126.239C91.944 126.432 91.7511 126.818 91.7511 127.011C91.5581 127.397 90.9793 127.589 90.9793 128.168C91.1723 128.747 90.5935 128.94 91.3652 130.098C92.1369 131.255 93.1016 132.22 93.1016 132.413C93.1016 132.413 92.3299 132.606 91.7511 132.413C91.3652 131.834 91.1723 131.448 91.1723 131.062C91.1723 130.676 90.9793 130.676 90.7864 130.676C90.5935 130.676 90.5935 131.062 90.4005 130.869C90.2076 130.869 90.0147 129.905 89.6288 129.133C89.2429 128.361 88.857 127.975 88.6641 127.782C88.4712 127.397 88.4712 127.204 88.4712 127.204C88.4712 127.204 87.8924 127.397 87.5065 127.975C87.1206 128.554 86.3489 129.905 86.7348 130.483C86.9277 131.062 87.5065 132.027 87.5065 132.606C87.6994 132.992 87.3136 132.992 87.1206 132.992C86.9277 132.992 85.7701 132.799 85.5772 132.799C85.5772 132.799 85.5772 132.027 85.5772 131.641C85.5772 131.448 85.3842 131.641 85.1913 131.448C84.9984 131.255 85.1913 130.869 85.1913 130.291C85.1913 129.712 85.3842 129.326 84.9983 128.554C84.8054 127.975 84.8054 127.589 85.1913 127.011C85.5772 126.239 86.156 126.432 86.156 125.66V125.467C86.156 125.274 85.963 125.081 85.963 124.695C85.3842 122.766 85.1913 123.345 84.0337 121.03C82.8761 118.714 82.6831 117.364 83.6478 115.627C83.6478 115.435 83.8407 115.242 84.0337 115.049Z" fill="#1573A7"/>
</g>
<defs>
<clipPath id="clip0_650_970">
<rect width="198.53" height="168.046" fill="white" transform="translate(0.49292 0.252441)"/>
</clipPath>
</defs>
</svg>
