<svg width="199" height="167" viewBox="0 0 199 167" fill="none" xmlns="http://www.w3.org/2000/svg">
<g clip-path="url(#clip0_557_1223)">
<path d="M111.589 28.8819C111.589 32.1119 110.238 34.7719 107.73 36.8619C106.187 38.0019 104.643 38.7619 102.714 39.1419C99.2409 39.7119 96.1539 39.1419 93.4528 37.0519C91.5234 35.5319 90.1728 33.4419 89.594 30.9719C88.8223 27.5519 89.7869 24.3218 92.2951 21.8518C93.8386 20.1418 95.961 19.1918 98.2762 18.6218C101.942 18.0518 105.222 18.8118 108.116 21.0918C110.045 22.8018 111.203 24.8918 111.589 27.3619C111.589 27.9319 111.589 28.3119 111.589 28.8819Z" fill="#D7B46A"/>
<path d="M73.9661 22.042C74.159 22.042 74.5449 22.042 74.7378 22.232C75.3166 22.422 76.0884 22.422 76.6672 22.422C77.8248 22.422 78.9825 22.802 79.9472 23.372C80.7189 23.752 81.2977 24.132 82.0695 24.702C83.0342 25.272 83.9989 25.462 85.1565 25.652C85.9282 25.842 86.7 25.842 87.4717 25.842C87.4717 25.842 87.6647 25.842 87.6647 26.032C87.6647 26.412 87.6647 26.792 87.6647 27.172C87.4717 27.742 87.2788 28.122 86.7 28.122C86.3141 28.122 85.7353 28.122 85.3494 28.122C84.1918 27.932 83.2271 27.742 82.0695 27.362C80.9118 26.982 79.7542 26.222 78.7895 25.462C77.8248 24.702 76.8601 23.752 75.7025 23.182C74.9308 22.612 74.5449 22.232 73.9661 22.042Z" fill="#D7B46A"/>
<path d="M109.659 4.94214C109.274 5.32214 109.081 5.70214 108.888 6.27215C108.309 7.60215 107.73 9.12216 107.344 10.6422C107.151 11.5922 106.958 12.3522 106.958 13.3022C106.765 14.6322 106.572 15.7722 106.187 16.9122C105.994 17.4822 105.801 17.8622 105.801 18.4322C105.801 18.6222 105.801 18.6222 105.608 18.4322C105.029 18.0522 104.257 17.8622 103.485 17.6722C103.292 17.6722 103.292 17.4822 103.292 17.4822C103.485 16.5322 103.871 15.5822 104.257 14.6322C104.45 14.0622 104.643 13.4922 104.836 12.9222C104.836 12.3522 104.836 11.9722 104.836 11.4022C104.836 10.4522 105.222 9.69216 105.608 8.93216C106.187 7.79215 106.958 6.84215 107.923 5.89214C108.309 5.51214 108.695 5.13214 109.081 4.94214C109.274 4.94214 109.467 4.94214 109.659 4.94214Z" fill="#D7B46A"/>
<path d="M78.0178 13.6819C78.4037 14.0619 78.7896 14.2519 79.1754 14.6319C79.9472 15.0119 80.526 15.5819 81.2978 15.9619C82.4554 16.5319 83.4201 17.1019 84.5777 17.4819C86.1212 18.0519 87.4718 19.0019 88.8224 19.9519C89.4012 20.5219 89.98 20.9019 90.5588 21.2819C90.7517 21.2819 90.7517 21.4719 90.5588 21.4719C89.98 22.0419 89.5941 22.6119 89.2082 23.3719C89.2082 23.5619 89.0153 23.5619 89.0153 23.3719C88.6294 22.9919 88.2435 22.6119 87.8577 22.2319C87.0859 21.2819 86.1212 20.5219 85.1565 19.7619C84.3848 19.1919 83.613 18.8119 82.8413 18.2419C81.4907 17.4819 80.1401 16.5319 79.1754 15.3919C78.7896 15.0119 78.4037 14.4419 78.0178 13.6819Z" fill="#D7B46A"/>
<path d="M112.554 25.2722C112.747 25.2722 113.132 25.2722 113.325 25.2722C114.29 25.2722 115.062 24.8922 116.027 24.5122C117.377 23.9422 118.728 23.1822 120.078 22.6122C121.043 22.2322 122.008 21.8522 122.972 21.6622C123.937 21.4722 124.902 21.6622 125.866 22.0422C125.288 22.2322 124.709 22.2322 124.13 22.4222C122.779 22.8022 121.429 23.5622 120.271 24.3222C118.921 25.0822 117.57 25.8422 116.219 26.6022C115.062 27.1722 114.097 27.5522 112.747 27.9322C112.554 27.9322 112.554 27.9322 112.554 27.7422C112.554 26.9822 112.554 26.0322 112.361 25.2722C112.747 25.4622 112.747 25.4622 112.554 25.2722Z" fill="#D7B46A"/>
<path d="M84.1919 8.74169C84.1919 8.93169 84.1919 9.12169 84.3848 9.3117C84.1919 8.93169 83.999 8.36169 83.806 7.98169C83.999 7.98169 83.806 8.17169 83.999 8.17169C83.999 8.17169 83.999 8.17169 83.999 7.98169C84.1919 8.17169 84.1919 8.36169 84.3848 8.55169C84.7707 9.12169 85.3495 9.6917 85.9283 10.0717C87.2789 11.2117 88.4365 12.3517 89.5942 13.6817C90.7518 15.0117 91.9094 16.3417 93.0671 17.4817C93.4529 17.8617 94.0318 18.2417 94.4176 18.4317C94.2247 18.6217 94.0317 18.6217 93.8388 18.8117C93.26 19.1917 92.8741 19.3817 92.4882 19.7617C92.2953 19.7617 92.2953 19.7617 92.2953 19.7617C91.5236 19.0017 90.7518 18.2417 90.173 17.4817C89.2083 16.3417 88.4365 15.3917 87.4719 14.2517C86.7001 13.3017 86.3142 12.1617 85.7354 11.0217C85.1566 10.6417 84.7707 9.6917 84.1919 8.74169Z" fill="#D7B46A"/>
<path d="M91.5232 4.94214C91.5232 5.51214 91.5232 5.89214 91.7162 6.46215C91.9091 7.60215 92.4879 8.55216 93.2597 9.50216C93.8385 10.2622 94.6103 11.2122 95.382 11.9722C95.9608 12.5422 96.3467 13.3022 96.7326 14.0622C97.1184 15.0122 97.5043 16.1522 97.8902 17.1022V17.2922C97.1185 17.4822 96.3467 17.6722 95.5749 18.0522C95.382 18.0522 95.382 18.0522 95.382 17.8622C95.1891 16.9122 94.8032 15.9622 94.4173 15.0122C94.0314 14.0622 93.4526 13.3022 92.8738 12.5422C92.1021 11.4022 91.7162 10.2622 91.5232 8.93216C91.3303 7.79215 91.3303 6.65215 91.5232 5.51214C91.5232 5.32214 91.5232 5.13214 91.5232 4.94214Z" fill="#D7B46A"/>
<path d="M121.429 15.0117C121.043 15.3917 120.657 15.5817 120.271 15.9617C119.693 16.5317 119.307 17.1017 118.921 17.6717C118.535 18.2417 118.149 19.0017 117.57 19.5717C116.991 20.1417 116.413 20.7117 115.834 21.0917C114.869 21.6618 113.904 22.2318 112.94 22.8018C112.554 22.9918 111.975 23.3718 111.589 23.7518C111.589 23.7518 111.396 23.9418 111.396 23.7518C111.01 22.9918 110.431 22.0418 109.853 21.4718V21.2818C110.431 20.9017 111.01 20.5217 111.589 20.1417C111.782 19.9517 112.168 19.9517 112.554 19.9517C113.133 19.9517 113.518 19.9517 114.097 19.9517C114.869 19.9517 115.448 19.5717 115.834 19.0017C116.22 18.6217 116.413 18.2417 116.798 17.8617C117.763 16.7217 118.921 15.7717 120.271 15.2017C120.464 15.2017 120.657 15.0117 121.043 15.0117C121.236 15.0117 121.429 15.0117 121.429 15.0117Z" fill="#D7B46A"/>
<path d="M115.062 8.74194C115.062 8.93194 115.062 9.31195 115.062 9.50195C114.676 11.022 114.097 12.352 113.325 13.682C112.554 15.202 111.589 16.532 110.624 17.862C110.045 18.622 109.66 19.382 109.274 20.142C109.081 20.332 109.081 20.332 109.081 20.142C108.502 19.572 107.73 19.002 106.958 18.622C106.765 18.622 106.765 18.432 106.958 18.242C107.537 17.292 108.309 16.342 108.888 15.582C109.852 14.442 111.01 13.492 112.168 12.542C113.132 11.782 113.904 10.832 114.483 9.88195C114.676 9.69195 114.869 9.31195 115.062 8.74194Z" fill="#D7B46A"/>
<path d="M100.013 3.61182C100.206 3.99182 100.399 4.18182 100.591 4.56182C100.977 5.51183 100.977 6.46183 100.977 7.41184C100.977 8.17184 100.977 8.93184 100.784 9.88185C100.784 11.0219 100.784 11.9719 100.977 13.1119C101.17 14.4419 101.363 15.7719 101.363 17.1019C101.363 17.2919 101.363 17.2919 101.17 17.2919C100.399 17.2919 99.8197 17.2919 99.048 17.2919C99.048 17.2919 98.8551 17.2919 98.8551 17.1019C98.6621 15.7719 98.6621 14.2519 98.6621 12.9219C98.6621 11.7819 99.048 10.8319 99.2409 9.69185C99.6268 8.55184 99.8197 7.41184 99.8197 6.27183C99.8197 5.51183 100.013 4.94182 99.8197 4.18182C100.206 4.18182 100.013 3.80182 100.013 3.61182Z" fill="#D7B46A"/>
<path d="M148.826 43.7021C140.723 41.9921 115.641 26.412 100.013 27.362C84.1917 26.412 59.3026 41.9921 51.1992 43.7021C45.604 45.0321 40.5876 43.8921 40.5876 43.8921C46.7617 55.8622 47.3405 109.822 47.3405 109.822C48.884 132.623 100.013 153.903 100.013 153.903C100.013 153.903 151.141 132.623 152.685 109.822C152.685 109.822 153.264 55.8622 159.438 43.8921C159.438 43.8921 154.421 45.0321 148.826 43.7021Z" fill="#808080"/>
<path d="M144.581 47.8821C137.25 46.1721 114.29 32.1121 99.8196 32.8721C85.3493 31.9221 62.5826 46.1721 55.2509 47.8821C50.0416 49.0222 45.604 47.8821 45.604 47.8821C51.1992 58.9022 51.778 108.112 51.778 108.112C53.3215 129.013 99.8196 148.393 99.8196 148.393C99.8196 148.393 146.511 129.013 148.054 108.112C148.054 108.112 148.633 58.9022 154.228 47.8821C154.228 47.8821 149.791 49.0222 144.581 47.8821Z" fill="white"/>
<path d="M101.17 36.1022C110.045 36.1022 122.393 41.8023 131.269 45.7923C136.092 48.0723 139.758 49.7823 142.073 50.1623C144.002 50.5423 146.125 50.7323 148.247 50.7323C149.212 50.7323 149.984 50.7323 150.562 50.7323C145.546 62.3224 145.16 105.263 144.967 107.163C143.617 125.973 102.907 143.833 99.8196 145.163C96.5396 143.643 56.2156 126.543 54.865 107.163C54.865 105.263 54.2862 62.3224 49.2698 50.7323C49.8486 50.7323 50.6204 50.7323 51.585 50.7323C53.7074 50.7323 55.8297 50.5423 57.7591 50.1623C60.0743 49.5923 63.7402 47.8823 68.5636 45.7923C77.4388 41.6123 89.5939 36.1022 98.469 36.1022C98.8549 36.1022 99.2408 36.1022 99.6267 36.1022C100.398 36.1022 100.784 36.1022 101.17 36.1022ZM101.17 35.5322C100.784 35.5322 100.398 35.5322 100.013 35.5322C99.6267 35.5322 99.2408 35.5322 98.8549 35.5322C85.1563 35.5322 64.7048 48.2623 57.952 49.7823C55.6367 50.3523 53.5144 50.3523 51.9709 50.3523C50.0415 50.3523 48.8839 50.1623 48.8839 50.1623C54.0932 60.6124 54.6721 107.163 54.6721 107.163C56.0226 127.113 97.8902 144.593 100.205 145.543C100.205 145.543 144.388 127.113 145.739 107.163C145.739 107.163 146.318 60.6124 151.527 50.1623C151.527 50.1623 150.369 50.3523 148.44 50.3523C146.897 50.3523 144.774 50.1623 142.459 49.7823C135.32 48.4523 114.869 35.7222 101.17 35.5322Z" fill="#808080"/>
<path d="M59.3026 80.1824V78.8524C61.4249 79.0424 63.1614 79.0424 64.5119 79.0424C65.8625 79.0424 67.406 79.0424 69.1425 78.8524C69.7213 80.1824 70.3001 81.7024 71.0718 83.4124C73.1942 88.1624 75.1235 92.3424 76.86 95.5724L81.2976 86.2624C82.0693 84.7424 82.4552 83.4124 83.034 82.4624C83.4199 81.5124 83.9987 80.1824 84.5775 78.6624C86.6998 78.8524 88.4363 78.8524 89.401 78.8524C90.1727 78.8524 91.7162 78.8524 94.0315 78.6624V79.9924C93.6456 79.9924 93.4527 80.1824 93.2597 80.1824C91.7162 80.3724 90.9445 80.7524 90.7515 80.9424C90.5586 81.1324 90.3657 81.5124 90.3657 82.2724C90.3657 82.8424 90.1727 85.5024 90.1727 90.0624C90.1727 95.7624 90.1727 98.8025 90.1727 98.9925C90.1727 99.9425 90.3657 100.512 90.3657 100.702C90.5586 100.892 90.5586 101.082 90.7515 101.082C91.1374 101.272 91.9092 101.462 93.2597 101.652L94.0315 101.842V103.172C91.3303 102.982 89.0151 102.982 87.6645 102.982C86.121 102.982 83.9987 102.982 80.9117 103.172V101.842C82.6481 101.462 83.8058 101.272 83.9987 101.272C84.1916 101.272 84.3846 101.082 84.5775 100.892C84.7704 100.702 84.7705 100.512 84.7705 100.322C84.7705 100.132 84.7705 98.8025 84.7705 96.9024C84.7705 92.3424 84.7705 88.9224 84.7705 86.4524C84.7705 86.2624 84.7705 85.5024 84.7705 84.1724C84.1916 85.5024 81.8764 90.4424 77.8247 99.3725L76.0882 103.172H74.7377C73.3871 100.322 70.493 93.8624 65.8625 83.9824C65.8625 85.5024 65.8625 86.8324 65.8625 87.7824C65.8625 93.4824 65.8625 97.2825 66.0554 98.9925C66.0554 100.132 66.2484 100.702 66.2484 100.702C66.2484 100.892 66.4413 101.082 66.8272 101.272C67.0201 101.462 67.7919 101.652 69.1425 101.842C69.3354 101.842 69.5283 101.842 69.9142 102.032V103.362C68.1778 103.172 66.6343 103.172 65.0908 103.172C63.5473 103.172 61.8108 103.172 59.8814 103.362V102.032C61.4249 101.842 62.3896 101.652 62.5826 101.462C62.9684 101.272 63.1614 101.082 63.3543 100.892C63.5472 100.702 63.5473 100.132 63.5473 99.3725L63.7402 88.5424C63.7402 86.6424 63.7402 85.3124 63.7402 84.3624C63.7402 82.8424 63.7402 82.0824 63.5473 81.5124C63.5473 81.3224 63.3543 80.9424 62.9684 80.9424C62.7755 80.7524 61.8108 80.5624 60.4602 80.3724C60.0744 80.1824 59.6885 80.1824 59.3026 80.1824Z" fill="#1772A9"/>
<path d="M108.888 98.6128L109.853 99.9428C108.116 101.463 106.38 102.603 104.836 103.173C104.257 103.553 103.293 103.553 102.328 103.553C100.206 103.553 98.4692 102.983 97.3115 101.653C95.961 100.133 95.1892 98.0428 95.1892 95.3827C95.1892 92.7227 95.961 90.4427 97.6974 88.7327C99.4338 87.0227 101.363 86.2627 103.871 86.2627C106.187 86.2627 107.73 86.8327 108.695 88.1627C109.467 89.1127 109.853 90.4427 109.853 92.1527C109.274 92.5327 108.695 92.9127 108.309 93.4827C107.151 93.4827 105.801 93.4827 104.643 93.4827C102.907 93.4827 101.556 93.4827 100.013 93.4827C100.013 93.6727 100.013 93.8627 100.013 94.0527C100.013 95.5727 100.399 97.0928 101.17 98.2328C101.942 99.3728 103.1 100.133 104.45 100.133C105.222 100.133 105.801 99.9428 106.573 99.7528C107.151 99.5628 107.923 99.1828 108.888 98.6128ZM100.013 91.7727C100.591 91.7727 101.17 91.7727 101.556 91.7727C102.521 91.7727 103.678 91.7727 105.222 91.5827C105.222 90.0627 104.836 89.1127 104.45 88.7327C104.064 88.1627 103.486 87.9727 102.714 87.9727C101.942 87.9727 101.363 88.3527 100.784 88.9227C100.399 89.4927 100.013 90.4427 100.013 91.7727Z" fill="#1772A9"/>
<path d="M114.483 92.3427L112.94 92.1527C113.325 90.6327 113.518 89.1127 113.518 87.7827C115.641 86.8327 117.763 86.2627 120.078 86.2627C121.429 86.2627 122.394 86.4527 123.358 86.8327C124.13 87.2127 124.709 87.7827 125.095 88.5427C125.481 89.3027 125.481 90.4427 125.481 91.9627V97.8528C125.481 98.9928 125.481 99.7528 125.674 99.9428C125.866 100.323 126.059 100.323 126.445 100.323C126.831 100.323 127.41 100.133 128.182 99.7528L128.761 100.703C127.217 101.843 126.059 102.603 125.288 102.793C124.709 103.363 124.323 103.363 123.744 103.363C123.165 103.363 122.587 103.173 122.008 102.793C121.622 102.413 121.236 101.843 121.043 101.273C119.692 102.223 118.728 102.793 118.149 102.983C117.57 103.173 116.991 103.363 116.22 103.363C115.062 103.363 114.097 102.983 113.325 102.223C112.554 101.463 112.168 100.323 112.168 98.9928C112.168 98.0428 112.361 97.2828 112.94 96.3327C113.325 95.7627 113.904 95.1927 114.869 94.8127L121.236 91.9627C121.236 90.6327 121.043 89.6827 120.657 89.3027C120.271 88.9227 119.692 88.5427 118.921 88.5427C118.149 88.5427 117.377 88.7327 116.798 89.3027C115.834 89.8727 115.255 90.8227 114.483 92.3427ZM121.043 93.6727C119.114 94.6227 117.956 95.1927 117.377 95.7627C116.798 96.3327 116.605 97.0928 116.605 98.0428C116.605 98.9928 116.798 99.5628 117.184 100.133C117.57 100.513 117.956 100.703 118.535 100.703C118.921 100.703 119.499 100.513 119.885 100.323C120.271 99.9428 120.657 99.5628 120.657 98.9928C120.85 98.4228 120.85 97.2828 120.85 95.5727C121.043 95.1927 121.043 94.6227 121.043 93.6727Z" fill="#1772A9"/>
<path d="M140.53 87.0219L140.723 87.2119C140.337 87.7819 139.951 88.5419 139.758 89.1119C138.6 88.9219 137.25 88.9219 135.706 88.9219V91.012V93.292V95.572C135.706 97.662 135.899 99.182 136.285 99.752C136.671 100.322 137.057 100.512 137.636 100.512C138.022 100.512 138.793 100.322 139.758 99.942L140.337 101.082C138.6 102.032 137.443 102.792 136.864 102.982C136.092 103.172 135.32 103.362 134.549 103.362C133.391 103.362 132.619 102.982 132.04 102.412C131.462 101.652 131.076 100.702 131.076 99.372V95.382L131.269 88.9219H129.918C129.725 88.9219 129.339 88.9219 128.76 88.9219V87.5919C129.918 87.2119 130.883 86.6419 131.848 85.6919C132.812 84.7419 133.777 83.6019 134.742 81.7019H136.285C135.899 83.6019 135.706 85.3119 135.706 86.8319C136.671 86.8319 137.25 86.8319 137.636 86.8319C138.022 87.0219 138.986 87.0219 140.53 87.0219Z" fill="#1772A9"/>
<path d="M90.7516 56.8121H89.0151C88.6292 54.7221 88.0504 53.2021 87.2787 52.4421C86.5069 51.6821 85.5422 51.3021 84.1917 51.3021C83.034 51.3021 82.0694 51.6821 81.4905 52.2521C80.9117 52.8221 80.5258 53.5821 80.5258 54.5321C80.5258 55.2921 80.9117 56.0521 81.4905 56.8121C82.0694 57.5721 83.6129 58.3321 85.9281 59.4721C88.2434 60.4221 89.7869 61.5622 90.7516 62.7022C91.7163 63.8422 92.1021 65.3622 92.1021 66.8822C92.1021 68.9722 91.3304 70.6822 89.7869 72.2022C88.2434 73.7222 85.7352 74.4822 82.2623 74.4822C81.1047 74.4822 79.7541 74.4822 78.7894 74.2922C78.0176 74.1022 76.86 73.9122 75.7024 73.5322C75.8953 71.4422 76.0883 69.5422 76.0883 67.6422V66.5022H77.8247C78.2106 68.7822 78.7894 70.3022 79.3682 71.0622C80.3329 72.0122 81.4905 72.5822 83.034 72.5822C84.1917 72.5822 85.1564 72.2022 85.9281 71.4422C86.6999 70.6822 87.0857 69.7322 87.0857 68.7822C87.0857 68.0222 86.8928 67.4522 86.6999 66.8822C86.314 66.3122 85.9281 65.7422 85.3493 65.3622C84.7705 64.9822 83.6129 64.4122 82.0693 63.6522C79.5612 62.5122 78.0177 61.3722 77.053 60.4221C76.2812 59.2821 75.8953 58.1421 75.8953 56.6221C75.8953 54.5321 76.6671 52.8221 78.2106 51.4921C79.7541 50.1621 82.0693 49.4021 84.9634 49.4021C86.8928 49.4021 89.0151 49.7821 91.3304 50.5421C91.3304 52.2521 91.1374 53.5821 91.1374 54.3421C90.5586 54.9121 90.5586 55.8621 90.7516 56.8121Z" fill="#1772A9"/>
<path d="M112.361 71.4424V72.7724C110.624 72.9624 109.274 73.1524 108.309 73.5324C107.344 73.7224 106.379 74.1024 105.415 74.4824L104.643 73.9124C104.836 73.1524 104.836 72.3924 105.029 71.4424C103.485 72.7724 102.521 73.5324 101.942 73.9124C101.363 74.2924 100.784 74.2924 100.013 74.2924C99.0479 74.2924 98.469 74.1024 97.6973 73.9124C96.9255 73.7224 96.5397 73.1524 96.3467 72.7724C95.9608 72.2024 95.7679 71.6324 95.7679 70.8724C95.7679 70.3024 95.7679 69.1624 95.7679 66.8824V63.4624C95.7679 61.5623 95.575 60.4223 95.382 60.2323C95.1891 59.8523 94.4173 59.6623 93.0668 59.6623V58.5223C95.7679 58.3323 97.8902 57.9523 99.8196 57.3823L100.398 57.7623C100.398 58.3323 100.205 59.0923 100.205 60.2323C100.205 62.3223 100.013 64.0324 100.013 65.5524C100.013 67.8324 100.205 69.3524 100.398 70.1124C100.784 70.8724 101.363 71.0624 102.135 71.0624C102.907 71.0624 103.485 70.8724 103.871 70.4924C104.45 70.1124 104.643 69.3524 104.836 68.5924C105.029 68.0224 105.029 66.3124 105.029 63.2724C105.029 61.5623 104.836 60.4223 104.643 60.2323C104.45 60.0423 103.678 59.8523 102.135 59.6623V58.5223C104.064 58.3323 105.608 58.1423 106.379 57.9523C107.151 57.7623 108.116 57.5723 108.888 57.3823L109.659 57.9523C109.467 58.9023 109.467 60.0423 109.274 60.8023C109.274 62.3224 109.081 64.6024 109.081 67.6424C109.081 69.7324 109.081 70.8724 109.274 71.0624C109.467 71.4424 109.852 71.6324 110.431 71.6324H110.624C111.396 71.4424 111.782 71.4424 112.361 71.4424Z" fill="#1772A9"/>
<path d="M112.939 60.8023V59.6623C115.833 59.0923 118.149 58.3323 119.885 57.3823L120.657 57.7623C120.464 58.9023 120.271 60.2323 120.271 61.7523C121.429 59.8523 122.393 58.7123 122.972 58.3323C123.551 57.9523 124.13 57.7623 124.901 57.7623C125.48 57.7623 126.059 57.9523 126.638 58.1423C126.252 59.4723 126.059 60.9923 125.866 62.5124H124.709C124.709 62.1324 124.516 61.7523 124.323 61.5623C124.13 61.3723 123.744 61.1823 123.358 61.1823C122.779 61.1823 122.393 61.3723 122.007 61.9424C121.236 62.7024 120.85 63.4624 120.657 64.6024C120.464 65.1724 120.464 66.1224 120.464 67.4524C120.464 69.7324 120.464 71.0624 120.464 71.4424C120.464 71.8224 120.657 72.0124 120.85 72.2024C121.043 72.3924 121.622 72.5824 122.779 72.7724C122.972 72.7724 123.165 72.7724 123.551 72.9624V74.1024C121.429 73.9124 119.499 73.9124 118.149 73.9124C116.605 73.9124 115.062 73.9124 113.132 74.1024V72.9624C114.483 72.7724 115.255 72.3924 115.448 72.0124C115.64 71.4424 115.833 69.1624 115.833 64.9824C115.833 62.7024 115.833 61.5623 115.64 61.1823C115.448 60.8023 115.062 60.8023 114.676 60.8023C114.097 60.6123 113.711 60.6123 112.939 60.8023Z" fill="#1772A9"/>
<path d="M110.045 166.253C110.045 166.253 118.535 155.803 137.828 153.713C156.543 150.483 179.696 131.863 186.063 103.743C193.395 75.8125 182.976 45.0323 168.892 30.0222C155 14.0622 141.687 10.6421 141.88 10.4521C141.494 10.8322 154.807 14.6322 168.313 30.4022C182.011 45.6023 192.044 76.0025 184.52 102.983C177.96 130.533 155.386 148.203 137.25 151.243C133.005 151.623 128.953 152.383 125.673 153.523C124.709 153.903 123.744 154.093 122.779 154.473L113.711 158.843C109.467 161.503 107.73 163.593 107.73 163.593L110.045 166.253Z" fill="#808080"/>
<path d="M143.81 136.422C143.81 136.422 138.6 137.942 136.671 142.502C134.356 148.202 135.127 153.142 135.127 153.142C135.127 153.142 140.53 150.482 142.266 147.442C144.774 143.262 143.81 136.422 143.81 136.422Z" fill="#808080"/>
<path d="M152.299 162.833C152.299 162.833 146.897 164.163 143.231 161.313C138.407 157.513 136.864 152.953 136.864 152.953C136.864 152.953 142.652 152.383 145.739 154.093C149.984 156.373 152.299 162.833 152.299 162.833Z" fill="#808080"/>
<path d="M151.913 132.052C151.913 132.052 147.09 134.523 145.932 139.273C144.581 145.163 146.125 149.913 146.125 149.913C146.125 149.913 150.755 146.303 152.106 143.073C154.035 138.513 151.913 132.052 151.913 132.052Z" fill="#808080"/>
<path d="M164.068 156.183C164.068 156.183 159.245 158.463 155.193 156.373C150.176 153.713 147.861 149.343 147.861 149.343C147.861 149.343 153.456 147.823 156.543 148.773C160.981 150.293 164.068 156.183 164.068 156.183Z" fill="#808080"/>
<path d="M159.438 126.163C159.438 126.163 155.193 129.583 154.807 134.333C154.421 140.413 156.543 144.593 156.543 144.593C156.543 144.593 160.402 140.223 161.174 136.803C162.525 132.053 159.438 126.163 159.438 126.163Z" fill="#808080"/>
<path d="M174.68 147.253C174.68 147.253 170.435 150.483 166.19 149.153C160.981 147.443 158.087 143.833 158.087 143.833C158.087 143.833 163.103 141.173 166.383 141.553C170.821 142.123 174.68 147.253 174.68 147.253Z" fill="#808080"/>
<path d="M165.804 118.752C165.804 118.752 162.332 122.932 162.717 127.682C163.296 133.573 165.997 137.373 165.997 137.373C165.997 137.373 169.084 132.433 169.277 128.822C169.663 123.882 165.804 118.752 165.804 118.752Z" fill="#808080"/>
<path d="M183.555 136.423C183.555 136.423 179.889 140.413 175.644 139.843C170.435 139.273 166.962 136.233 166.962 136.233C166.962 136.233 171.4 132.813 174.487 132.433C179.117 132.243 183.555 136.423 183.555 136.423Z" fill="#808080"/>
<path d="M171.014 110.202C171.014 110.202 168.313 114.952 169.47 119.512C170.821 125.212 174.101 128.252 174.101 128.252C174.101 128.252 176.223 122.742 176.03 119.322C175.258 114.382 171.014 110.202 171.014 110.202Z" fill="#808080"/>
<path d="M190.694 123.883C190.694 123.883 187.8 128.443 183.748 128.823C178.539 129.203 174.873 126.923 174.873 126.923C174.873 126.923 178.539 122.743 181.433 121.793C185.677 120.652 190.694 123.883 190.694 123.883Z" fill="#808080"/>
<path d="M174.68 100.703C174.68 100.703 172.75 105.833 174.487 110.013C176.609 115.333 180.275 117.803 180.275 117.803C180.275 117.803 181.626 112.103 180.661 108.683C179.503 103.933 174.68 100.703 174.68 100.703Z" fill="#808080"/>
<path d="M195.517 110.203C195.517 110.203 193.395 115.143 189.536 116.283C184.713 117.613 180.854 116.093 180.854 116.093C180.854 116.093 183.748 111.153 186.449 109.823C190.308 108.113 195.517 110.203 195.517 110.203Z" fill="#808080"/>
<path d="M176.802 90.6323C176.802 90.6323 175.644 95.9524 178.153 99.7524C181.047 104.502 184.712 106.212 184.712 106.212C184.712 106.212 185.098 100.322 183.748 97.2824C181.818 92.9123 176.802 90.6323 176.802 90.6323Z" fill="#808080"/>
<path d="M198.218 95.9521C198.218 95.9521 197.061 101.272 193.395 102.982C188.957 105.262 185.098 104.502 185.098 104.502C185.098 104.502 187.221 99.1821 189.536 97.2821C192.816 94.8121 198.218 95.9521 198.218 95.9521Z" fill="#808080"/>
<path d="M177.188 79.9922C177.188 79.9922 176.995 85.3122 179.696 88.5422C183.169 92.5322 187.028 93.4822 187.028 93.4822C187.028 93.4822 186.449 87.7822 184.712 84.9322C182.59 81.3222 177.188 79.9922 177.188 79.9922Z" fill="#808080"/>
<path d="M198.604 81.1321C198.604 81.1321 198.218 86.4521 195.131 88.9221C191.272 91.9621 187.414 91.9621 187.414 91.9621C187.414 91.9621 188.571 86.4521 190.501 84.1721C193.395 81.1321 198.604 81.1321 198.604 81.1321Z" fill="#808080"/>
<path d="M176.223 69.1621C176.223 69.1621 176.802 74.4821 180.082 77.1421C183.941 80.3722 187.799 80.5622 187.799 80.5622C187.799 80.5622 186.449 75.0521 184.327 72.7721C181.432 69.3521 176.223 69.1621 176.223 69.1621Z" fill="#808080"/>
<path d="M196.868 66.1221C196.868 66.1221 197.254 71.4421 194.745 74.4821C191.466 78.2821 187.8 79.0421 187.8 79.0421C187.8 79.0421 187.993 73.3421 189.536 70.8721C191.658 67.0721 196.868 66.1221 196.868 66.1221Z" fill="#808080"/>
<path d="M173.522 58.3322C173.522 58.3322 174.873 63.2722 178.346 65.3622C182.59 67.8322 186.256 67.2622 186.256 67.2622C186.256 67.2622 184.134 62.1322 181.818 60.2322C178.538 57.5722 173.522 58.3322 173.522 58.3322Z" fill="#808080"/>
<path d="M192.623 51.4922C192.623 51.4922 193.781 56.6222 191.851 60.0422C189.343 64.4123 185.87 65.7423 185.87 65.7423C185.87 65.7423 185.291 60.2322 186.449 57.3822C187.992 53.3922 192.623 51.4922 192.623 51.4922Z" fill="#808080"/>
<path d="M169.084 48.2621C169.084 48.2621 171.207 52.8221 174.68 54.1521C179.117 55.6721 182.59 54.3421 182.59 54.3421C182.59 54.3421 179.696 49.7821 177.188 48.4521C173.715 46.5521 169.084 48.2621 169.084 48.2621Z" fill="#808080"/>
<path d="M186.449 37.8118C186.449 37.8118 188.378 42.5618 187.028 46.1718C185.291 50.9218 182.204 52.8218 182.204 52.8218C182.204 52.8218 180.854 47.5018 181.433 44.6518C182.204 40.6618 186.449 37.8118 186.449 37.8118Z" fill="#808080"/>
<path d="M163.103 39.1419C163.103 39.1419 165.805 43.3219 169.47 43.7019C173.908 44.2719 176.995 42.3719 176.995 42.3719C176.995 42.3719 173.522 38.5719 171.014 37.6219C167.541 36.4819 163.103 39.1419 163.103 39.1419Z" fill="#808080"/>
<path d="M178.346 25.6519C178.346 25.6519 180.854 29.8319 180.082 33.8219C179.117 38.7619 176.416 41.2319 176.416 41.2319C176.416 41.2319 174.294 36.2919 174.487 33.4419C174.68 29.0719 178.346 25.6519 178.346 25.6519Z" fill="#808080"/>
<path d="M156.158 31.1621C156.158 31.1621 159.438 34.5821 162.911 34.3921C167.348 34.2021 170.049 31.7321 170.049 31.7321C170.049 31.7321 166.191 28.6921 163.682 28.3121C159.824 27.9321 156.158 31.1621 156.158 31.1621Z" fill="#808080"/>
<path d="M168.506 15.2019C168.506 15.2019 171.593 18.8119 171.4 22.8019C171.207 27.742 169.084 30.782 169.084 30.782C169.084 30.782 166.383 26.412 165.997 23.5619C165.611 19.3819 168.506 15.2019 168.506 15.2019Z" fill="#808080"/>
<path d="M148.054 24.8922C148.054 24.8922 151.72 27.7422 155 26.7922C159.245 25.6522 161.367 22.8022 161.367 22.8022C161.367 22.8022 157.315 20.5222 154.614 20.7122C150.948 20.9022 148.054 24.8922 148.054 24.8922Z" fill="#808080"/>
<path d="M157.315 6.84204C157.315 6.84204 160.788 9.69206 161.174 13.6821C161.753 18.6221 160.016 21.8521 160.016 21.8521C160.016 21.8521 156.736 18.2421 155.965 15.3921C155.193 11.4021 157.315 6.84204 157.315 6.84204Z" fill="#808080"/>
<path d="M139.179 20.1422C139.179 20.1422 143.038 22.2322 146.125 20.7122C149.983 18.8122 151.527 15.5822 151.527 15.5822C151.527 15.5822 147.282 14.0622 144.967 14.8222C141.494 15.7722 139.179 20.1422 139.179 20.1422Z" fill="#808080"/>
<path d="M145.546 0.761719C145.546 0.761719 149.405 2.85173 150.37 6.65175C151.527 11.2118 150.562 14.8218 150.562 14.8218C150.562 14.8218 146.704 11.9718 145.739 9.31176C144.196 5.70174 145.546 0.761719 145.546 0.761719Z" fill="#808080"/>
<path d="M144.967 11.9717C144.967 11.9717 142.073 13.4917 139.565 12.3517C136.478 10.8317 134.934 8.36168 134.934 8.36168C134.934 8.36168 138.214 7.22168 140.144 7.79168C143.038 8.36168 144.967 11.9717 144.967 11.9717Z" fill="#808080"/>
<path d="M88.6293 166.253C88.6293 166.253 80.14 155.803 60.8462 153.713C42.1312 150.483 19.1715 131.863 12.6116 103.553C5.27998 75.6225 15.6986 44.8423 29.7831 29.8322C43.6747 14.0622 57.1804 10.6421 56.7945 10.4521C57.1804 10.8322 43.8676 14.6322 30.3619 30.4022C16.6633 45.6023 6.63055 76.0025 14.1551 102.983C20.715 130.533 43.2888 148.203 61.425 151.243C65.6696 151.623 69.7213 152.383 73.0013 153.523C73.966 153.903 74.9307 154.093 75.8954 154.473L84.9635 158.843C89.2081 161.503 90.9445 163.593 90.9445 163.593L88.6293 166.253Z" fill="#808080"/>
<path d="M55.058 136.422C55.058 136.422 60.2673 137.942 62.1967 142.502C64.512 148.202 63.7402 153.142 63.7402 153.142C63.7402 153.142 58.3379 150.482 56.6015 147.442C53.9004 143.262 55.058 136.422 55.058 136.422Z" fill="#808080"/>
<path d="M46.3757 162.833C46.3757 162.833 51.778 164.163 55.4438 161.313C60.2673 157.513 61.8108 152.953 61.8108 152.953C61.8108 152.953 56.0226 152.383 52.9356 154.093C48.8839 156.373 46.3757 162.833 46.3757 162.833Z" fill="#808080"/>
<path d="M46.7617 132.052C46.7617 132.052 51.5851 134.523 52.7428 139.273C54.0933 145.163 52.5498 149.913 52.5498 149.913C52.5498 149.913 47.9193 146.303 46.5687 143.073C44.6394 138.513 46.7617 132.052 46.7617 132.052Z" fill="#808080"/>
<path d="M34.6064 156.183C34.6064 156.183 39.4299 158.463 43.4816 156.373C48.498 153.713 50.8132 149.343 50.8132 149.343C50.8132 149.343 45.218 147.823 42.131 148.773C37.8864 150.293 34.6064 156.183 34.6064 156.183Z" fill="#808080"/>
<path d="M39.2371 126.163C39.2371 126.163 43.4817 129.583 43.8676 134.333C44.2535 140.413 42.1311 144.593 42.1311 144.593C42.1311 144.593 38.2724 140.223 37.5006 136.803C36.343 132.053 39.2371 126.163 39.2371 126.163Z" fill="#808080"/>
<path d="M23.995 147.253C23.995 147.253 28.2396 150.483 32.4843 149.153C37.6936 147.443 40.5877 143.833 40.5877 143.833C40.5877 143.833 35.5713 141.173 32.2913 141.553C28.0467 142.123 23.995 147.253 23.995 147.253Z" fill="#808080"/>
<path d="M32.8701 118.752C32.8701 118.752 36.343 122.932 35.9571 127.682C35.3783 133.573 32.6772 137.373 32.6772 137.373C32.6772 137.373 29.5902 132.433 29.3972 128.822C29.2043 123.882 32.8701 118.752 32.8701 118.752Z" fill="#808080"/>
<path d="M15.1199 136.423C15.1199 136.423 18.7857 140.413 23.0303 139.843C28.2397 139.273 31.7126 136.233 31.7126 136.233C31.7126 136.233 27.275 132.813 24.188 132.433C19.5574 132.243 15.1199 136.423 15.1199 136.423Z" fill="#808080"/>
<path d="M27.6609 110.202C27.6609 110.202 30.362 114.952 29.2044 119.512C27.8538 125.212 24.5739 128.252 24.5739 128.252C24.5739 128.252 22.4515 122.742 22.6445 119.322C23.4162 114.382 27.6609 110.202 27.6609 110.202Z" fill="#808080"/>
<path d="M7.98108 123.883C7.98108 123.883 10.8752 128.443 14.9269 128.823C20.1362 129.203 23.802 126.923 23.802 126.923C23.802 126.923 20.1362 122.743 17.2421 121.793C12.9975 120.652 7.98108 123.883 7.98108 123.883Z" fill="#808080"/>
<path d="M24.188 100.703C24.188 100.703 26.1174 105.833 24.3809 110.013C22.2586 115.333 18.5928 117.803 18.5928 117.803C18.5928 117.803 17.2422 112.103 18.2069 108.683C19.3645 103.933 24.188 100.703 24.188 100.703Z" fill="#808080"/>
<path d="M3.15759 110.203C3.15759 110.203 5.27991 115.143 9.13867 116.283C13.9621 117.613 17.8209 116.093 17.8209 116.093C17.8209 116.093 14.9268 111.153 12.2257 109.823C8.36692 108.113 3.15759 110.203 3.15759 110.203Z" fill="#808080"/>
<path d="M22.0655 90.6323C22.0655 90.6323 23.2231 95.9524 20.7149 99.7524C17.8209 104.502 14.155 106.212 14.155 106.212C14.155 106.212 13.7692 100.322 15.1197 97.2824C16.8562 92.9123 22.0655 90.6323 22.0655 90.6323Z" fill="#808080"/>
<path d="M0.456421 95.9521C0.456421 95.9521 1.61405 101.272 5.27988 102.982C9.71745 105.262 13.5762 104.502 13.5762 104.502C13.5762 104.502 11.6468 99.1821 9.13864 97.2821C5.85869 94.8121 0.456421 95.9521 0.456421 95.9521Z" fill="#808080"/>
<path d="M21.4867 79.9922C21.4867 79.9922 21.6796 85.3122 18.9785 88.5422C15.5056 92.5322 11.6469 93.4822 11.6469 93.4822C11.6469 93.4822 12.2257 87.7822 13.9621 84.9322C16.2774 81.3222 21.4867 79.9922 21.4867 79.9922Z" fill="#808080"/>
<path d="M0.0706787 81.1321C0.0706787 81.1321 0.456555 86.4521 3.54357 88.9221C7.40233 91.9621 11.2611 91.9621 11.2611 91.9621C11.2611 91.9621 10.1035 86.4521 8.17408 84.1721C5.47295 81.1321 0.0706787 81.1321 0.0706787 81.1321Z" fill="#808080"/>
<path d="M22.4515 69.1621C22.4515 69.1621 21.8727 74.4821 18.5928 77.1421C14.734 80.3722 10.8752 80.5622 10.8752 80.5622C10.8752 80.5622 12.2258 75.0521 14.3481 72.7721C17.2422 69.3521 22.4515 69.1621 22.4515 69.1621Z" fill="#808080"/>
<path d="M1.80701 66.1221C1.80701 66.1221 1.42113 71.4421 3.92933 74.4821C7.20928 78.2821 10.8751 79.0421 10.8751 79.0421C10.8751 79.0421 10.6822 73.3421 9.13866 70.8721C7.01634 67.0721 1.80701 66.1221 1.80701 66.1221Z" fill="#808080"/>
<path d="M25.3456 58.3322C25.3456 58.3322 23.995 63.2722 20.5222 65.3622C16.2775 67.8322 12.6117 67.2622 12.6117 67.2622C12.6117 67.2622 14.734 62.1322 17.0493 60.2322C20.1363 57.5722 25.3456 58.3322 25.3456 58.3322Z" fill="#808080"/>
<path d="M6.05169 51.4922C6.05169 51.4922 4.89406 56.6222 6.82345 60.0422C9.33164 64.4123 12.8045 65.7423 12.8045 65.7423C12.8045 65.7423 13.3833 60.2322 12.2257 57.3822C10.6822 53.3922 6.05169 51.4922 6.05169 51.4922Z" fill="#808080"/>
<path d="M29.5901 48.2621C29.5901 48.2621 27.4678 52.8221 23.9949 54.1521C19.5574 55.6721 16.0845 54.3421 16.0845 54.3421C16.0845 54.3421 18.9785 49.7821 21.4867 48.4521C24.9596 46.5521 29.5901 48.2621 29.5901 48.2621Z" fill="#808080"/>
<path d="M12.2258 37.8118C12.2258 37.8118 10.2964 42.5618 11.6469 46.1718C13.3834 50.9218 16.4704 52.8218 16.4704 52.8218C16.4704 52.8218 17.821 47.5018 17.2422 44.6518C16.4704 40.6618 12.2258 37.8118 12.2258 37.8118Z" fill="#808080"/>
<path d="M35.5711 39.1419C35.5711 39.1419 32.87 43.3219 29.2042 43.7019C24.7666 44.2719 21.6796 42.3719 21.6796 42.3719C21.6796 42.3719 25.1525 38.5719 27.6606 37.6219C31.3265 36.4819 35.5711 39.1419 35.5711 39.1419Z" fill="#808080"/>
<path d="M20.5221 25.6519C20.5221 25.6519 18.0139 29.8319 18.7857 33.8219C19.7504 38.7619 22.4515 41.2319 22.4515 41.2319C22.4515 41.2319 24.5738 36.2919 24.3809 33.4419C23.995 29.0719 20.5221 25.6519 20.5221 25.6519Z" fill="#808080"/>
<path d="M42.71 31.1621C42.71 31.1621 39.4301 34.5821 35.9572 34.3921C31.5196 34.2021 28.8185 31.7321 28.8185 31.7321C28.8185 31.7321 32.6772 28.6921 35.1854 28.3121C38.8513 27.9321 42.71 31.1621 42.71 31.1621Z" fill="#808080"/>
<path d="M30.169 15.2019C30.169 15.2019 27.082 18.8119 27.2749 22.8019C27.4679 27.742 29.5902 30.782 29.5902 30.782C29.5902 30.782 32.2913 26.412 32.6772 23.5619C33.256 19.3819 30.169 15.2019 30.169 15.2019Z" fill="#808080"/>
<path d="M50.8133 24.8922C50.8133 24.8922 47.1475 27.7422 43.8676 26.7922C39.6229 25.6522 37.5006 22.8022 37.5006 22.8022C37.5006 22.8022 41.5523 20.5222 44.2534 20.7122C47.7263 20.9022 50.8133 24.8922 50.8133 24.8922Z" fill="#808080"/>
<path d="M41.3595 6.84204C41.3595 6.84204 37.8866 9.69206 37.5007 13.6821C36.9219 18.6221 38.6583 21.8521 38.6583 21.8521C38.6583 21.8521 41.9383 18.2421 42.71 15.3921C43.4818 11.4021 41.3595 6.84204 41.3595 6.84204Z" fill="#808080"/>
<path d="M59.4955 20.1422C59.4955 20.1422 55.6367 22.2322 52.5497 20.7122C48.691 18.8122 47.1475 15.5822 47.1475 15.5822C47.1475 15.5822 51.3921 14.0622 53.9003 14.8222C57.1802 15.7722 59.4955 20.1422 59.4955 20.1422Z" fill="#808080"/>
<path d="M53.1286 0.761719C53.1286 0.761719 49.2698 2.85173 48.3051 6.65175C47.1475 11.2118 48.1122 14.8218 48.1122 14.8218C48.1122 14.8218 51.778 11.9718 52.9356 9.31176C54.6721 5.70174 53.1286 0.761719 53.1286 0.761719Z" fill="#808080"/>
<path d="M53.7076 11.9718C53.7076 11.9718 56.6017 13.4918 59.1099 12.3518C62.1969 10.8318 63.7404 8.17174 63.7404 8.17174C63.7404 8.17174 60.4605 7.03174 58.5311 7.60174C55.83 8.36174 53.7076 11.9718 53.7076 11.9718Z" fill="#808080"/>
<path fill-rule="evenodd" clip-rule="evenodd" d="M111.589 132.812C111.396 133.192 110.045 133.002 109.66 133.002C109.467 132.812 109.274 132.242 109.274 132.052C108.695 131.102 109.467 130.342 108.695 128.822C107.923 131.292 109.274 132.242 109.274 133.002C108.695 133.192 107.73 133.192 107.151 133.002C106.765 131.672 106.958 132.242 106.958 131.292C106.958 130.152 105.994 125.782 105.994 125.782C105.222 125.402 104.064 125.592 103.1 125.592C102.521 125.592 102.135 125.592 101.556 125.782C100.784 125.972 100.784 125.972 100.591 126.162V126.352C100.206 126.162 99.6268 125.782 99.048 125.592C96.9256 124.832 95.5751 123.502 93.8386 123.502C93.4527 124.452 93.8386 125.402 92.8739 125.972C92.681 126.162 92.681 125.972 92.4881 126.162C91.9092 127.492 93.0669 129.962 93.6457 131.292C93.8386 131.862 94.2245 132.052 94.4174 132.812C94.2245 133.002 93.6457 133.002 93.2598 133.002C92.4881 133.002 92.4881 133.002 92.1022 132.812C91.9092 132.242 92.1022 132.242 91.5234 132.052C91.7163 131.292 91.7163 131.482 91.5234 130.532C90.9446 129.012 90.7516 129.012 90.3657 127.872C90.1728 127.492 90.1728 127.112 89.9799 126.732C89.594 127.682 89.2081 128.822 89.0152 129.772C88.4364 132.432 89.2081 131.862 89.594 133.002C89.401 133.382 87.8575 133.002 87.6646 133.002C87.2787 131.862 87.0858 132.432 87.2787 131.862C87.4717 131.292 87.4717 130.722 87.4717 129.962C87.4717 128.632 87.4717 127.872 87.6646 126.352C87.2787 126.542 87.0858 126.732 86.6999 126.922C86.1211 125.972 86.1211 125.782 86.1211 124.262C86.1211 123.312 86.314 122.362 86.507 121.602C86.8928 119.702 87.2787 117.992 87.4717 116.282C88.6293 110.582 91.7163 112.672 98.6621 113.432C99.6268 113.622 100.591 113.812 101.363 113.812C103.486 114.002 105.415 113.812 107.151 113.242C107.537 113.052 109.274 112.672 109.467 112.482C110.238 112.102 110.431 111.532 111.589 111.342C112.94 111.152 113.325 111.342 114.483 111.532C114.869 111.532 115.255 111.342 115.641 111.152C116.991 110.202 116.412 110.202 117.377 110.962C117.956 111.342 118.728 111.532 119.499 112.672C120.078 113.622 121.815 114.572 122.008 115.332C122.008 115.902 121.815 115.712 121.429 116.092C121.236 116.282 121.236 116.472 120.657 116.662C120.078 116.852 120.078 116.662 119.692 116.852C116.991 118.562 116.412 115.712 113.904 122.362C112.168 126.922 111.203 125.972 110.817 126.922C110.624 127.302 110.624 128.442 110.431 129.012C110.238 129.962 110.238 130.342 110.238 131.292C110.817 132.052 111.203 131.862 111.589 132.812Z" fill="#1772A9"/>
</g>
<defs>
<clipPath id="clip0_557_1223">
<rect width="198.533" height="165.491" fill="white" transform="translate(0.0705566 0.761719)"/>
</clipPath>
</defs>
</svg>
